<?xml version="1.0" encoding="utf-8" standalone="no"?>
<!DOCTYPE svg PUBLIC "-//W3C//DTD SVG 1.1//EN"
  "http://www.w3.org/Graphics/SVG/1.1/DTD/svg11.dtd">
<!-- Created with matplotlib (http://matplotlib.sourceforge.net/) -->
<svg height="550pt" version="1.1" viewBox="0 0 678 550" width="678pt" xmlns="http://www.w3.org/2000/svg" xmlns:xlink="http://www.w3.org/1999/xlink">
 <defs>
  <style type="text/css">
*{stroke-linecap:square;stroke-linejoin:round;}
  </style>
 </defs>
 <g id="figure_1">
  <g id="patch_1">
   <path d="
M0 550.8
L678.6 550.8
L678.6 0
L0 0
z
" style="fill:#ffffff;"/>
  </g>
  <g id="axes_1">
   <g id="patch_2">
    <path d="
M84.825 495.72
L610.74 495.72
L610.74 55.08
L84.825 55.08
z
" style="fill:#ffffff;"/>
   </g>
   <g id="line2d_1">
    <path clip-path="url(#pdd7e38923c)" d="
M84.825 55.185
L84.8776 55.3322
L84.9828 56.8681
L85.1668 63.4885
L85.4561 83.5698
L85.8768 131.363
L86.5342 235.934
L87.6912 418.837
L88.1646 460.737
L88.4538 471.527
L88.559 472.462
L88.6116 472.326
L88.7168 470.847
L88.9008 464.435
L89.1901 444.929
L89.6108 398.384
L90.2682 296.162
L91.4515 112.643
L91.9249 71.7898
L92.2141 61.2622
L92.3193 60.3383
L92.3719 60.4628
L92.4771 61.8815
L92.6611 68.0696
L92.9504 86.9152
L93.3711 131.851
L94.0285 230.284
L95.1855 402.663
L95.6588 442.229
L95.9481 452.461
L96.0533 453.367
L96.1059 453.251
L96.2111 451.883
L96.3951 445.886
L96.6844 427.575
L97.1051 383.803
L97.7625 287.569
L98.9458 114.585
L99.4191 75.9972
L99.7084 66.0084
L99.8136 65.1115
L99.8662 65.2155
L99.9714 66.5254
L100.155 72.3091
L100.445 89.9947
L100.865 132.243
L101.523 224.898
L102.68 387.358
L103.153 424.72
L103.442 434.422
L103.548 435.299
L103.6 435.202
L103.705 433.937
L103.889 428.328
L104.179 411.138
L104.599 369.976
L105.257 279.378
L106.44 116.326
L106.913 79.8775
L107.203 70.4005
L107.334 69.5298
L107.36 69.6158
L107.466 70.8248
L107.65 76.2302
L107.939 92.8268
L108.36 132.549
L109.017 219.764
L110.174 372.875
L110.647 408.156
L110.937 417.355
L111.068 418.205
L111.094 418.123
L111.2 416.953
L111.384 411.708
L111.673 395.571
L112.094 356.863
L112.751 271.572
L113.934 117.88
L114.408 83.4536
L114.697 74.4625
L114.828 73.6127
L114.855 73.6879
L114.96 74.8032
L115.144 79.8546
L115.433 95.4291
L115.854 132.775
L116.511 214.87
L117.668 359.17
L118.142 392.485
L118.431 401.206
L118.562 402.034
L118.589 401.961
L118.694 400.881
L118.878 395.975
L119.167 380.827
L119.588 344.427
L120.245 264.132
L121.429 119.264
L121.902 86.7469
L122.191 78.2172
L122.323 77.3888
L122.349 77.4541
L122.454 78.4825
L122.638 83.2028
L122.928 97.8178
L123.348 132.929
L124.006 210.205
L125.163 346.2
L125.636 377.658
L125.925 385.927
L126.057 386.731
L126.083 386.668
L126.188 385.669
L126.372 381.082
L126.662 366.862
L127.082 332.633
L127.74 257.041
L128.923 120.491
L129.396 89.7772
L129.686 81.6857
L129.817 80.8791
L129.843 80.9353
L129.949 81.8832
L130.133 86.2938
L130.422 100.008
L130.843 133.019
L131.5 205.757
L132.683 336.07
L133.13 363.63
L133.42 371.469
L133.551 372.249
L133.577 372.195
L133.683 371.273
L133.867 366.984
L134.156 353.635
L134.577 321.447
L135.234 250.282
L136.417 121.573
L136.891 92.5634
L137.18 84.8878
L137.311 84.1033
L137.338 84.1513
L137.443 85.0244
L137.627 89.1454
L137.916 102.014
L138.337 133.05
L138.994 201.517
L140.178 324.332
L140.625 350.356
L140.914 357.788
L141.045 358.545
L141.072 358.498
L141.177 357.647
L141.361 353.636
L141.65 341.106
L142.071 310.837
L142.728 243.842
L143.912 122.522
L144.385 95.1226
L144.674 87.842
L144.806 87.0797
L144.832 87.1202
L144.937 87.9241
L145.121 91.7741
L145.41 103.849
L145.831 133.028
L146.489 197.475
L147.672 313.222
L148.119 337.797
L148.408 344.841
L148.54 345.575
L148.566 345.535
L148.671 344.75
L148.855 341
L149.144 329.238
L149.539 302.895
L150.17 243.235
L151.432 121.484
L151.879 97.4713
L152.195 90.2965
L152.3 89.8255
L152.326 89.8593
L152.431 90.599
L152.615 94.1956
L152.905 105.526
L153.299 130.915
L153.93 188.309
L155.192 304.464
L155.639 326.804
L155.929 332.85
L156.034 333.301
L156.06 333.266
L156.165 332.542
L156.349 329.037
L156.639 317.996
L157.033 293.225
L157.664 237.064
L158.953 120.589
L159.4 98.752
L159.689 92.817
L159.794 92.3568
L159.82 92.3845
L159.926 93.0648
L160.11 96.4244
L160.399 107.056
L160.793 130.924
L161.425 184.944
L162.687 294.411
L163.134 315.51
L163.423 321.244
L163.528 321.684
L163.554 321.655
L163.66 320.987
L163.844 317.71
L164.133 307.347
L164.527 284.054
L165.159 231.186
L166.447 121.4
L166.894 100.771
L167.183 95.1378
L167.288 94.6886
L167.341 94.7867
L167.473 95.9691
L167.683 100.598
L167.998 113.506
L168.445 142.231
L169.261 212.648
L170.128 281.729
L170.602 304.024
L170.917 310.26
L171.022 310.688
L171.075 310.589
L171.207 309.431
L171.417 304.914
L171.732 292.325
L172.179 264.27
L172.968 197.558
L173.889 125.204
L174.362 103.4
L174.678 97.2728
L174.783 96.835
L174.835 96.92
L174.967 98.0155
L175.177 102.348
L175.493 114.468
L175.94 141.482
L176.729 205.542
L177.623 272.902
L178.096 293.953
L178.412 299.865
L178.517 300.281
L178.569 300.194
L178.701 299.119
L178.911 294.89
L179.227 283.065
L179.674 256.675
L180.463 193.854
L181.383 125.641
L181.856 105.048
L182.172 99.2352
L182.277 98.8089
L182.33 98.882
L182.435 99.5992
L182.619 102.662
L182.908 111.923
L183.329 133.927
L183.986 182.013
L185.143 265.973
L185.59 284.422
L185.906 290.026
L186.011 290.431
L186.064 290.355
L186.195 289.357
L186.405 285.397
L186.721 274.29
L187.168 249.466
L187.957 190.309
L188.877 126.001
L189.351 106.551
L189.666 101.037
L189.771 100.623
L189.824 100.685
L189.929 101.348
L190.113 104.21
L190.402 112.901
L190.823 133.589
L191.481 178.853
L192.638 257.981
L193.085 275.401
L193.4 280.714
L193.505 281.106
L193.558 281.041
L193.663 280.387
L193.847 277.586
L194.136 269.101
L194.557 248.89
L195.215 204.544
L196.398 124.973
L196.871 107.259
L197.16 102.691
L197.266 102.288
L197.318 102.34
L197.423 102.952
L197.607 105.628
L197.897 113.783
L198.317 133.234
L198.975 175.84
L200.132 250.414
L200.605 267.501
L200.894 271.9
L201 272.28
L201.052 272.224
L201.157 271.618
L201.341 268.999
L201.631 261.033
L202.051 242.026
L202.709 200.277
L203.892 125.272
L204.365 108.541
L204.655 104.206
L204.786 103.816
L204.813 103.858
L204.918 104.423
L205.102 106.924
L205.391 114.577
L205.812 132.864
L206.469 172.969
L207.626 243.251
L208.099 259.386
L208.389 263.557
L208.494 263.925
L208.547 263.877
L208.652 263.317
L208.836 260.867
L209.125 253.388
L209.546 235.514
L210.203 196.209
L211.386 125.51
L211.86 109.706
L212.149 105.593
L212.281 105.212
L212.307 105.249
L212.412 105.77
L212.596 108.107
L212.885 115.289
L213.306 132.482
L213.963 170.232
L215.12 236.469
L215.594 251.705
L215.883 255.659
L216.014 256.013
L216.041 255.975
L216.146 255.457
L216.33 253.165
L216.619 246.145
L217.04 229.335
L217.697 192.332
L218.881 125.691
L219.354 110.763
L219.643 106.861
L219.775 106.489
L219.801 106.521
L219.906 107.002
L220.09 109.186
L220.38 115.925
L220.8 132.09
L221.458 167.623
L222.615 230.047
L223.088 244.434
L223.377 248.183
L223.509 248.528
L223.535 248.494
L223.64 248.015
L223.824 245.872
L224.114 239.281
L224.534 223.473
L225.192 188.637
L226.375 125.821
L226.848 111.721
L227.138 108.019
L227.269 107.657
L227.295 107.684
L227.401 108.127
L227.585 110.168
L227.874 116.492
L228.295 131.689
L228.952 165.136
L230.109 223.966
L230.582 237.551
L230.872 241.106
L231.003 241.441
L231.029 241.411
L231.135 240.969
L231.319 238.964
L231.608 232.777
L232.029 217.911
L232.686 185.116
L233.869 125.905
L234.343 112.587
L234.632 109.075
L234.763 108.722
L234.79 108.746
L234.895 109.154
L235.079 111.061
L235.368 116.994
L235.789 131.282
L236.446 162.764
L237.603 218.209
L238.077 231.036
L238.366 234.406
L238.497 234.732
L238.524 234.706
L238.629 234.297
L238.813 232.422
L239.102 226.613
L239.523 212.634
L240.18 181.759
L241.364 125.947
L241.837 113.368
L242.126 110.036
L242.258 109.693
L242.284 109.713
L242.389 110.089
L242.573 111.87
L242.862 117.438
L243.283 130.871
L243.941 160.504
L245.124 213.631
L245.571 224.868
L245.86 228.063
L245.992 228.379
L246.018 228.356
L246.123 227.979
L246.307 226.226
L246.596 220.773
L247.017 207.627
L247.675 178.56
L248.858 125.952
L249.331 114.07
L249.647 110.787
L249.752 110.577
L249.778 110.594
L249.883 110.94
L250.067 112.604
L250.357 117.828
L250.777 130.456
L251.435 158.349
L252.618 208.418
L253.065 219.029
L253.354 222.057
L253.486 222.364
L253.512 222.345
L253.617 221.996
L253.801 220.357
L254.091 215.238
L254.511 202.876
L255.169 175.511
L256.378 125.114
L256.826 114.7
L257.141 111.585
L257.246 111.379
L257.299 111.434
L257.43 112.027
L257.641 114.312
L257.956 120.647
L258.403 134.702
L259.218 169.077
L260.086 202.703
L260.559 213.501
L260.849 216.372
L260.98 216.669
L261.007 216.652
L261.112 216.33
L261.296 214.798
L261.585 209.993
L261.979 199.234
L262.611 174.865
L263.899 124.356
L264.346 114.886
L264.635 112.309
L264.741 112.107
L264.793 112.155
L264.925 112.705
L265.135 114.843
L265.451 120.791
L265.898 134.01
L266.713 166.376
L267.58 198.072
L268.054 208.268
L268.369 211.094
L268.475 211.277
L268.527 211.224
L268.659 210.674
L268.869 208.569
L269.185 202.74
L269.632 189.791
L270.42 159.058
L271.341 125.778
L271.814 115.766
L272.13 112.962
L272.235 112.766
L272.287 112.807
L272.419 113.317
L272.629 115.318
L272.945 120.903
L273.392 133.334
L274.207 163.808
L275.075 193.686
L275.548 203.313
L275.864 205.992
L275.969 206.17
L276.021 206.123
L276.153 205.612
L276.363 203.641
L276.679 198.166
L277.126 185.985
L277.915 157.044
L278.835 125.669
L279.308 116.212
L279.624 113.552
L279.755 113.367
L279.782 113.396
L279.913 113.868
L280.124 115.741
L280.439 120.985
L280.886 132.676
L281.675 160.398
L282.569 189.531
L283.042 198.621
L283.358 201.161
L283.463 201.335
L283.516 201.293
L283.647 200.819
L283.858 198.973
L284.173 193.83
L284.62 182.371
L285.409 155.118
L286.329 125.538
L286.803 116.607
L287.118 114.083
L287.25 113.901
L287.276 113.927
L287.407 114.364
L287.618 116.116
L287.933 121.04
L288.38 132.034
L289.169 158.135
L290.063 185.596
L290.537 194.179
L290.852 196.587
L290.984 196.747
L291.01 196.719
L291.141 196.279
L291.352 194.55
L291.667 189.719
L292.114 178.94
L292.903 153.276
L293.824 125.389
L294.297 116.953
L294.612 114.559
L294.744 114.38
L294.77 114.403
L294.902 114.808
L295.112 116.448
L295.428 121.07
L295.875 131.41
L296.664 155.985
L297.558 181.869
L298.031 189.972
L298.346 192.255
L298.478 192.412
L298.504 192.387
L298.636 191.978
L298.846 190.359
L299.162 185.822
L299.609 175.682
L300.398 151.514
L301.318 125.223
L301.791 117.256
L302.107 114.984
L302.238 114.81
L302.265 114.83
L302.396 115.205
L302.606 116.739
L302.922 121.079
L303.369 130.802
L304.158 153.94
L305.052 178.338
L305.525 185.989
L305.841 188.153
L305.972 188.307
L305.999 188.284
L306.13 187.905
L306.34 186.388
L306.656 182.126
L307.103 172.588
L307.892 149.83
L308.812 125.044
L309.286 117.519
L309.601 115.364
L309.733 115.193
L309.759 115.211
L309.89 115.557
L310.101 116.993
L310.416 121.067
L310.863 130.212
L311.652 151.996
L312.572 175.511
L313.046 182.477
L313.335 184.268
L313.467 184.418
L313.493 184.398
L313.624 184.046
L313.835 182.626
L314.15 178.623
L314.597 169.651
L315.386 148.22
L316.306 124.852
L316.78 117.745
L317.095 115.701
L317.227 115.534
L317.253 115.55
L317.385 115.87
L317.595 117.213
L317.911 121.038
L318.358 129.638
L319.146 150.148
L320.067 172.313
L320.54 178.89
L320.829 180.589
L320.961 180.736
L320.987 180.718
L321.119 180.391
L321.329 179.062
L321.645 175.301
L322.092 166.862
L322.88 146.68
L323.801 124.65
L324.274 117.937
L324.59 115.999
L324.721 115.836
L324.747 115.849
L324.879 116.146
L325.089 117.402
L325.405 120.993
L325.852 129.08
L326.641 148.391
L327.561 169.284
L328.034 175.494
L328.324 177.104
L328.455 177.247
L328.481 177.231
L328.613 176.929
L328.823 175.684
L329.139 172.152
L329.586 164.213
L330.348 145.879
L331.295 124.439
L331.768 118.099
L332.084 116.261
L332.215 116.102
L332.242 116.114
L332.373 116.387
L332.584 117.562
L332.899 120.934
L333.346 128.539
L334.135 146.72
L335.055 166.413
L335.529 172.277
L335.818 173.804
L335.949 173.943
L335.976 173.929
L336.107 173.649
L336.318 172.483
L336.633 169.166
L337.08 161.698
L337.843 144.433
L338.789 124.221
L339.263 118.233
L339.578 116.49
L339.736 116.345
L339.867 116.598
L340.078 117.697
L340.393 120.862
L340.84 128.014
L341.629 145.131
L342.55 163.694
L343.023 169.231
L343.312 170.678
L343.47 170.801
L343.601 170.541
L343.812 169.45
L344.127 166.334
L344.574 159.309
L345.337 143.051
L346.284 123.996
L346.757 118.342
L347.073 116.688
L347.23 116.546
L347.362 116.78
L347.572 117.808
L347.888 120.78
L348.335 127.505
L349.097 143.053
L350.044 161.117
L350.517 166.346
L350.807 167.717
L350.964 167.838
L351.096 167.597
L351.306 166.575
L351.622 163.649
L352.069 157.041
L352.831 141.732
L353.778 123.768
L354.251 118.427
L354.567 116.859
L354.725 116.72
L354.856 116.936
L355.066 117.897
L355.382 120.687
L355.829 127.011
L356.592 141.649
L357.538 158.676
L358.012 163.612
L358.301 164.913
L358.459 165.031
L358.59 164.808
L358.8 163.851
L359.116 161.103
L359.563 154.887
L360.326 140.471
L361.272 123.535
L361.746 118.491
L362.061 117.004
L362.219 116.868
L362.245 116.886
L362.377 117.141
L362.587 118.128
L362.903 120.868
L363.35 126.949
L364.165 141.823
L365.033 156.363
L365.506 161.024
L365.821 162.303
L365.953 162.372
L365.979 162.353
L366.137 162.006
L366.374 160.759
L366.715 157.523
L367.215 150.295
L369.187 118.916
L369.529 117.186
L369.713 116.994
L369.845 117.177
L370.055 118.018
L370.371 120.477
L370.818 126.069
L371.58 139.044
L372.527 154.171
L373 158.571
L373.316 159.785
L373.473 159.835
L373.631 159.513
L373.868 158.344
L374.21 155.303
L374.709 148.502
L376.682 118.923
L377.023 117.285
L377.207 117.098
L377.339 117.267
L377.549 118.054
L377.865 120.362
L378.312 125.621
L379.074 137.836
L380.021 152.093
L380.494 156.249
L380.81 157.399
L380.968 157.45
L381.126 157.15
L381.362 156.055
L381.704 153.197
L382.204 146.798
L384.176 118.917
L384.518 117.364
L384.702 117.184
L384.833 117.339
L385.044 118.075
L385.359 120.241
L385.806 125.186
L386.569 136.686
L387.515 150.125
L387.989 154.048
L388.304 155.138
L388.462 155.19
L388.62 154.911
L388.856 153.884
L389.198 151.199
L389.698 145.178
L391.67 118.897
L392.012 117.426
L392.196 117.251
L392.328 117.395
L392.538 118.082
L392.853 120.116
L393.3 124.766
L394.063 135.593
L395.01 148.259
L395.483 151.963
L395.799 152.997
L395.956 153.049
L396.114 152.79
L396.351 151.827
L396.693 149.304
L397.192 143.638
L399.164 118.866
L399.506 117.472
L399.717 117.313
L399.874 117.547
L400.111 118.452
L400.453 120.855
L400.953 126.27
L402.898 149.566
L403.24 150.885
L403.424 151.032
L403.556 150.892
L403.766 150.248
L404.082 148.362
L404.529 144.056
L405.291 134.005
L406.264 121.862
L406.738 118.405
L407.053 117.418
L407.237 117.366
L407.395 117.63
L407.632 118.546
L407.973 120.89
L408.473 126.077
L410.366 147.571
L410.708 148.916
L410.919 149.109
L411.076 148.93
L411.287 148.268
L411.602 146.413
L412.049 142.27
L412.838 132.394
L413.759 121.642
L414.232 118.377
L414.547 117.441
L414.731 117.388
L414.889 117.633
L415.126 118.491
L415.468 120.694
L415.967 125.573
L417.861 145.828
L418.203 147.1
L418.413 147.286
L418.571 147.121
L418.781 146.5
L419.097 144.758
L419.544 140.861
L420.332 131.561
L421.253 121.424
L421.726 118.34
L422.042 117.452
L422.226 117.398
L422.384 117.626
L422.62 118.43
L422.962 120.499
L423.462 125.089
L425.355 144.177
L425.697 145.381
L425.907 145.559
L426.065 145.406
L426.275 144.825
L426.591 143.188
L427.038 139.522
L427.827 130.764
L428.747 121.207
L429.22 118.295
L429.536 117.452
L429.72 117.398
L429.878 117.61
L430.114 118.363
L430.456 120.306
L430.956 124.624
L432.849 142.612
L433.191 143.751
L433.401 143.922
L433.559 143.78
L433.77 143.236
L434.085 141.699
L434.532 138.25
L435.321 130.003
L436.241 120.993
L436.715 118.242
L437.03 117.443
L437.214 117.389
L437.398 117.64
L437.661 118.512
L438.03 120.659
L438.582 125.446
L440.186 140.312
L440.58 141.98
L440.843 142.366
L441.001 142.308
L441.211 141.893
L441.501 140.72
L441.921 137.914
L442.579 131.736
L443.762 120.596
L444.235 118.088
L444.551 117.4
L444.735 117.387
L444.919 117.661
L445.182 118.534
L445.55 120.618
L446.102 125.188
L447.654 138.807
L448.074 140.528
L448.337 140.896
L448.495 140.843
L448.706 140.455
L448.995 139.354
L449.416 136.715
L450.073 130.899
L451.256 120.397
L451.73 118.029
L452.045 117.375
L452.229 117.36
L452.413 117.616
L452.676 118.434
L453.044 120.393
L453.597 124.693
L455.148 137.526
L455.569 139.153
L455.832 139.503
L456.016 139.428
L456.226 139.023
L456.542 137.807
L456.989 135.002
L457.725 128.647
L458.724 120.367
L459.198 118.049
L459.513 117.367
L459.724 117.327
L459.908 117.565
L460.171 118.332
L460.539 120.173
L461.091 124.219
L462.669 136.442
L463.063 137.849
L463.326 138.182
L463.51 138.114
L463.72 137.735
L464.036 136.593
L464.483 133.955
L465.219 127.97
L466.219 120.165
L466.692 117.976
L467.007 117.329
L467.218 117.288
L467.402 117.51
L467.665 118.229
L468.033 119.959
L468.585 123.766
L470.163 135.284
L470.557 136.614
L470.82 136.93
L471.004 136.868
L471.215 136.514
L471.53 135.441
L471.977 132.96
L472.714 127.324
L473.739 119.819
L474.212 117.823
L474.528 117.264
L474.738 117.26
L474.949 117.55
L475.238 118.41
L475.659 120.498
L476.316 125.123
L477.499 133.438
L477.946 135.2
L478.262 135.72
L478.472 135.709
L478.683 135.413
L478.972 134.557
L479.393 132.493
L480.05 127.923
L481.26 119.497
L481.733 117.679
L482.049 117.201
L482.233 117.21
L482.443 117.481
L482.732 118.287
L483.153 120.25
L483.81 124.604
L484.994 132.44
L485.467 134.167
L485.783 134.61
L485.967 134.588
L486.177 134.311
L486.466 133.508
L486.887 131.566
L487.544 127.265
L488.754 119.321
L489.227 117.604
L489.543 117.15
L489.753 117.174
L489.964 117.459
L490.279 118.351
L490.726 120.44
L491.462 125.198
L492.462 131.371
L492.935 133.064
L493.251 133.531
L493.461 133.526
L493.671 133.267
L493.961 132.513
L494.381 130.687
L495.039 126.637
L496.248 119.149
L496.722 117.527
L497.037 117.096
L497.248 117.116
L497.484 117.433
L497.8 118.311
L498.247 120.322
L499.009 125.005
L499.956 130.481
L500.429 132.079
L500.745 132.522
L500.955 132.519
L501.166 132.277
L501.455 131.569
L501.876 129.851
L502.533 126.039
L503.743 118.98
L504.216 117.448
L504.531 117.038
L504.742 117.055
L504.978 117.351
L505.294 118.176
L505.741 120.067
L506.504 124.476
L507.45 129.636
L507.924 131.145
L508.239 131.565
L508.45 131.564
L508.686 131.294
L509.002 130.51
L509.449 128.683
L510.185 124.511
L511.211 118.922
L511.684 117.422
L511.999 116.992
L512.236 116.993
L512.473 117.269
L512.788 118.043
L513.235 119.821
L513.998 123.972
L514.945 128.836
L515.418 130.26
L515.733 130.658
L515.97 130.644
L516.207 130.362
L516.522 129.59
L516.969 127.83
L517.732 123.721
L518.705 118.755
L519.178 117.337
L519.494 116.929
L519.73 116.928
L519.967 117.186
L520.283 117.912
L520.73 119.584
L521.492 123.492
L522.439 128.076
L522.912 129.421
L523.228 129.798
L523.464 129.787
L523.701 129.523
L524.017 128.798
L524.464 127.142
L525.226 123.273
L526.199 118.591
L526.672 117.252
L527.014 116.853
L527.251 116.876
L527.514 117.188
L527.856 118.014
L528.329 119.809
L529.328 124.76
L530.038 127.707
L530.485 128.754
L530.801 129.007
L531.038 128.918
L531.301 128.543
L531.669 127.568
L532.195 125.447
L534.009 117.498
L534.403 116.853
L534.666 116.775
L534.903 116.95
L535.219 117.527
L535.639 118.835
L536.323 121.839
L537.454 126.759
L537.927 127.914
L538.243 128.221
L538.479 128.189
L538.742 127.891
L539.084 127.118
L539.584 125.337
L540.714 120.111
L541.372 117.722
L541.793 116.889
L542.082 116.703
L542.318 116.793
L542.608 117.193
L543.002 118.203
L543.581 120.417
L545.08 126.481
L545.5 127.304
L545.789 127.5
L546.026 127.424
L546.315 127.048
L546.684 126.155
L547.236 124.137
L548.945 117.409
L549.339 116.759
L549.629 116.637
L549.865 116.765
L550.181 117.246
L550.602 118.371
L551.259 120.894
L552.469 125.562
L552.942 126.553
L553.257 126.8
L553.52 126.734
L553.81 126.382
L554.204 125.468
L554.756 123.539
L556.413 117.36
L556.834 116.686
L557.123 116.569
L557.386 116.714
L557.701 117.191
L558.122 118.277
L558.806 120.782
L559.937 124.9
L560.41 125.872
L560.752 126.14
L561.015 126.08
L561.304 125.75
L561.698 124.891
L562.251 123.075
L563.907 117.25
L564.328 116.614
L564.617 116.501
L564.88 116.636
L565.196 117.083
L565.616 118.105
L566.3 120.462
L567.457 124.409
L567.931 125.294
L568.272 125.52
L568.535 125.442
L568.851 125.067
L569.245 124.205
L569.85 122.257
L571.296 117.37
L571.743 116.615
L572.059 116.434
L572.322 116.517
L572.637 116.889
L573.058 117.797
L573.689 119.785
L574.978 123.938
L575.451 124.741
L575.767 124.927
L576.03 124.855
L576.345 124.503
L576.766 123.626
L577.371 121.769
L578.791 117.253
L579.238 116.539
L579.553 116.367
L579.842 116.462
L580.158 116.833
L580.579 117.711
L581.236 119.691
L582.472 123.43
L582.945 124.188
L583.287 124.367
L583.576 124.262
L583.892 123.888
L584.313 123.014
L584.97 121.05
L586.232 117.249
L586.706 116.489
L587.048 116.3
L587.337 116.388
L587.652 116.736
L588.073 117.561
L588.73 119.425
L589.966 122.948
L590.44 123.664
L590.782 123.834
L591.071 123.736
L591.413 123.345
L591.86 122.436
L592.57 120.385
L593.7 117.185
L594.174 116.439
L594.516 116.236
L594.805 116.298
L595.12 116.605
L595.541 117.358
L596.172 119.016
L597.487 122.541
L597.96 123.189
L598.302 123.329
L598.591 123.219
L598.933 122.831
L599.38 121.954
L600.117 119.928
L601.168 117.12
L601.668 116.363
L602.036 116.167
L602.352 116.259
L602.694 116.621
L603.141 117.449
L603.877 119.37
L604.929 122.009
L605.402 122.672
L605.77 122.849
L606.086 122.747
L606.427 122.383
L606.901 121.5
L607.663 119.502
L608.663 117.003
L609.162 116.288
L609.53 116.101
L609.846 116.187
L610.188 116.526
L610.661 117.36
L610.74 117.533
L610.74 117.533" style="fill:none;stroke:#ff0000;"/>
   </g>
   <g id="line2d_2">
    <path clip-path="url(#pdd7e38923c)" d="
M84.825 55.3667
L84.9302 56.6853
L85.1143 62.4878
L85.4035 80.1928
L85.8242 122.418
L86.4816 215.013
L87.6649 381.728
L88.1383 419.619
L88.4538 430.393
L88.559 431.226
L88.6116 431.121
L88.7168 429.869
L88.9008 424.381
L89.1901 407.638
L89.6108 367.649
L90.2682 279.656
L91.4778 116.932
L91.9511 80.8101
L92.2667 70.4097
L92.3982 69.5296
L92.4245 69.5993
L92.5297 70.6937
L92.7137 75.7076
L93.003 91.2054
L93.4237 128.383
L94.0811 210.201
L95.2644 358.041
L95.7377 391.816
L96.0533 401.523
L96.1848 402.322
L96.2111 402.251
L96.3162 401.196
L96.5003 396.428
L96.7896 381.733
L97.2103 346.467
L97.8677 268.626
L99.1036 121.858
L99.5769 90.7302
L99.8662 82.4939
L99.9976 81.6314
L100.024 81.6766
L100.129 82.5802
L100.313 86.9089
L100.602 100.471
L101.023 133.201
L101.681 205.492
L102.89 338.737
L103.364 367.78
L103.653 375.428
L103.784 376.196
L103.811 376.145
L103.916 375.259
L104.1 371.118
L104.389 358.219
L104.81 327.117
L105.467 258.257
L106.703 127.95
L107.176 100.138
L107.492 92.3856
L107.597 91.8437
L107.65 91.9584
L107.781 93.3635
L107.992 98.8717
L108.307 114.22
L108.754 148.345
L109.543 229.261
L110.463 317.122
L110.937 343.949
L111.252 351.816
L111.384 352.55
L111.41 352.515
L111.515 351.773
L111.699 348.176
L111.989 336.854
L112.383 311.469
L113.014 253.86
L114.329 131.024
L114.776 107.963
L115.091 100.939
L115.197 100.406
L115.249 100.481
L115.354 101.312
L115.538 104.916
L115.828 115.861
L116.248 141.899
L116.906 198.884
L118.089 301.149
L118.562 324.225
L118.878 330.674
L118.983 331.124
L119.036 331.027
L119.167 329.852
L119.378 325.243
L119.693 312.38
L120.14 283.697
L120.929 215.269
L121.876 138.245
L122.349 115.259
L122.665 108.304
L122.822 107.525
L122.849 107.571
L122.954 108.26
L123.138 111.373
L123.427 120.95
L123.848 143.87
L124.505 194.213
L125.689 284.884
L126.162 305.449
L126.477 311.256
L126.583 311.688
L126.635 311.618
L126.74 310.912
L126.924 307.876
L127.214 298.676
L127.634 276.761
L128.292 228.594
L129.501 139.498
L129.975 119.661
L130.29 113.9
L130.422 113.383
L130.448 113.414
L130.553 113.982
L130.737 116.668
L131.027 125.045
L131.447 145.217
L132.105 189.689
L133.288 270.074
L133.761 288.398
L134.077 293.626
L134.208 294.034
L134.235 293.989
L134.34 293.391
L134.524 290.75
L134.813 282.67
L135.234 263.336
L135.891 220.715
L137.127 140.334
L137.601 123.228
L137.916 118.479
L138.021 118.154
L138.074 118.229
L138.205 119.106
L138.416 122.514
L138.731 131.984
L139.178 153
L139.993 204.482
L140.888 256.571
L141.361 272.896
L141.676 277.599
L141.808 277.991
L141.834 277.958
L141.939 277.453
L142.123 275.155
L142.413 268.058
L142.833 250.999
L143.491 213.285
L144.727 141.9
L145.2 126.61
L145.516 122.303
L145.621 121.981
L145.673 122.031
L145.779 122.549
L145.963 124.779
L146.252 131.532
L146.673 147.568
L147.33 182.607
L148.513 245.28
L148.987 259.311
L149.276 263.012
L149.407 263.386
L149.434 263.362
L149.539 262.936
L149.723 260.937
L150.012 254.702
L150.433 239.651
L151.09 206.277
L152.326 142.879
L152.8 129.212
L153.115 125.306
L153.247 124.989
L153.273 125.019
L153.378 125.448
L153.562 127.372
L153.851 133.277
L154.272 147.388
L154.929 178.335
L156.113 233.89
L156.586 246.389
L156.902 249.848
L157.007 250.073
L157.033 250.056
L157.138 249.698
L157.322 247.959
L157.612 242.482
L158.006 230.191
L158.637 202.263
L159.978 141.629
L160.425 130.698
L160.715 127.6
L160.846 127.285
L160.872 127.305
L160.977 127.658
L161.162 129.316
L161.451 134.478
L161.872 146.893
L162.529 174.223
L163.712 223.463
L164.186 234.596
L164.501 237.707
L164.606 237.923
L164.659 237.876
L164.79 237.305
L165.001 235.073
L165.316 228.844
L165.763 214.946
L166.526 182.911
L167.499 144.213
L167.972 132.914
L168.288 129.418
L168.445 128.974
L168.472 128.985
L168.577 129.273
L168.761 130.7
L169.05 135.211
L169.471 146.131
L170.128 170.266
L171.312 213.904
L171.785 223.818
L172.101 226.615
L172.232 226.814
L172.258 226.785
L172.39 226.297
L172.6 224.347
L172.916 218.865
L173.363 206.589
L174.125 178.215
L175.098 143.826
L175.572 133.729
L175.887 130.567
L176.071 130.145
L176.176 130.378
L176.361 131.605
L176.65 135.545
L177.044 144.432
L177.675 164.589
L178.964 206.378
L179.411 214.272
L179.7 216.467
L179.832 216.659
L179.858 216.636
L179.989 216.219
L180.2 214.515
L180.515 209.689
L180.962 198.845
L181.725 173.713
L182.724 142.516
L183.197 133.787
L183.513 131.152
L183.671 130.859
L183.697 130.878
L183.828 131.254
L184.039 132.826
L184.354 137.295
L184.801 147.313
L185.59 171.164
L186.511 197.057
L186.984 204.914
L187.3 207.171
L187.431 207.354
L187.457 207.337
L187.589 206.981
L187.799 205.491
L188.115 201.243
L188.562 191.663
L189.324 169.399
L190.324 141.671
L190.797 133.866
L191.112 131.48
L191.27 131.193
L191.296 131.205
L191.402 131.42
L191.586 132.437
L191.875 135.608
L192.296 143.234
L192.953 160.007
L194.136 190.127
L194.61 196.873
L194.899 198.645
L195.03 198.818
L195.057 198.805
L195.188 198.501
L195.399 197.198
L195.714 193.458
L196.161 184.994
L196.897 165.997
L197.923 140.623
L198.396 133.644
L198.712 131.482
L198.896 131.211
L199.001 131.386
L199.185 132.259
L199.474 135.027
L199.895 141.731
L200.553 156.537
L201.736 183.22
L202.209 189.224
L202.525 190.875
L202.656 190.967
L202.683 190.944
L202.814 190.613
L203.024 189.365
L203.34 185.919
L203.787 178.27
L204.576 160.032
L205.522 139.41
L205.996 133.169
L206.311 131.211
L206.495 130.946
L206.601 131.086
L206.785 131.835
L207.074 134.25
L207.468 139.703
L208.099 152.064
L209.362 177.229
L209.809 182.186
L210.124 183.667
L210.256 183.758
L210.282 183.738
L210.414 183.454
L210.624 182.36
L210.939 179.325
L211.386 172.563
L212.149 156.972
L213.122 138.064
L213.595 132.483
L213.937 130.638
L214.121 130.462
L214.253 130.689
L214.463 131.649
L214.779 134.387
L215.226 140.53
L216.014 155.142
L216.935 170.95
L217.408 175.702
L217.724 177.03
L217.881 177.102
L218.013 176.857
L218.223 175.898
L218.539 173.223
L218.986 167.246
L219.748 153.428
L220.748 136.266
L221.221 131.435
L221.537 129.952
L221.721 129.775
L221.852 129.961
L222.063 130.789
L222.378 133.182
L222.825 138.585
L223.614 151.489
L224.534 165.494
L225.008 169.72
L225.323 170.91
L225.481 170.981
L225.639 170.698
L225.875 169.625
L226.217 166.791
L226.717 160.386
L227.821 142.14
L228.505 133.051
L228.926 129.86
L229.215 128.977
L229.373 128.965
L229.531 129.284
L229.767 130.362
L230.109 133.088
L230.609 139.064
L232.476 163.396
L232.844 165.109
L233.054 165.338
L233.186 165.2
L233.396 164.531
L233.685 162.753
L234.106 158.607
L234.79 149.191
L235.973 132.951
L236.446 129.209
L236.762 128.085
L236.946 127.97
L237.104 128.19
L237.34 129.054
L237.682 131.352
L238.182 136.52
L240.128 158.677
L240.47 159.953
L240.68 160.101
L240.838 159.89
L241.074 159.062
L241.416 156.855
L241.89 152.147
L242.836 139.836
L243.625 130.915
L244.098 127.793
L244.414 126.942
L244.572 126.907
L244.729 127.132
L244.966 127.94
L245.308 130.03
L245.808 134.661
L247.701 153.855
L248.043 155.078
L248.253 155.269
L248.411 155.127
L248.621 154.559
L248.937 152.941
L249.384 149.284
L250.12 141.065
L251.172 129.788
L251.645 126.787
L251.961 125.858
L252.171 125.749
L252.329 125.936
L252.566 126.635
L252.907 128.463
L253.407 132.538
L255.3 149.519
L255.642 150.609
L255.853 150.783
L256.01 150.66
L256.221 150.161
L256.536 148.733
L256.983 145.497
L257.72 138.208
L258.771 128.174
L259.245 125.485
L259.587 124.607
L259.797 124.542
L259.981 124.781
L260.244 125.585
L260.612 127.532
L261.164 131.822
L262.716 144.624
L263.136 146.255
L263.399 146.612
L263.584 146.544
L263.794 146.148
L264.109 144.945
L264.53 142.342
L265.214 136.474
L266.397 126.385
L266.87 124.055
L267.186 123.346
L267.396 123.276
L267.58 123.476
L267.843 124.172
L268.212 125.878
L268.764 129.654
L270.342 141.097
L270.762 142.477
L271.025 142.749
L271.209 142.658
L271.446 142.204
L271.761 141.039
L272.209 138.445
L272.971 132.447
L273.97 124.94
L274.47 122.699
L274.812 122.028
L275.022 121.989
L275.233 122.233
L275.522 123.008
L275.916 124.788
L276.547 128.853
L277.81 137.106
L278.257 138.693
L278.572 139.135
L278.782 139.096
L279.019 138.733
L279.335 137.748
L279.782 135.503
L280.518 130.413
L281.596 123.202
L282.096 121.258
L282.411 120.717
L282.622 120.671
L282.832 120.876
L283.121 121.548
L283.516 123.108
L284.147 126.687
L285.409 133.983
L285.856 135.391
L286.172 135.785
L286.382 135.752
L286.619 135.432
L286.934 134.561
L287.381 132.572
L288.117 128.056
L289.196 121.634
L289.695 119.89
L290.037 119.377
L290.274 119.367
L290.51 119.637
L290.826 120.403
L291.273 122.163
L292.062 126.395
L292.982 130.965
L293.455 132.312
L293.771 132.662
L293.981 132.634
L294.218 132.351
L294.534 131.581
L294.981 129.819
L295.717 125.809
L296.795 120.089
L297.295 118.524
L297.637 118.055
L297.873 118.036
L298.11 118.265
L298.425 118.931
L298.872 120.474
L299.661 124.203
L300.582 128.243
L301.055 129.436
L301.371 129.747
L301.607 129.706
L301.87 129.387
L302.212 128.563
L302.685 126.778
L303.553 122.433
L304.421 118.479
L304.92 117.119
L305.262 116.725
L305.499 116.724
L305.762 116.978
L306.104 117.682
L306.577 119.227
L307.629 123.703
L308.313 126.055
L308.733 126.851
L309.023 127.034
L309.259 126.952
L309.548 126.572
L309.917 125.676
L310.443 123.751
L312.362 116.085
L312.757 115.49
L313.046 115.397
L313.309 115.566
L313.624 116.068
L314.071 117.252
L314.834 120.042
L315.781 123.298
L316.254 124.232
L316.596 124.483
L316.859 124.414
L317.148 124.077
L317.542 123.211
L318.095 121.376
L319.909 114.847
L320.33 114.221
L320.645 114.108
L320.908 114.249
L321.25 114.732
L321.723 115.869
L322.565 118.625
L323.406 121.11
L323.88 121.905
L324.222 122.101
L324.484 122.019
L324.8 121.658
L325.221 120.772
L325.826 118.886
L327.377 113.788
L327.85 113.022
L328.192 112.841
L328.481 112.939
L328.823 113.335
L329.27 114.241
L330.033 116.401
L331.006 118.991
L331.479 119.693
L331.821 119.866
L332.11 119.776
L332.452 119.396
L332.899 118.498
L333.556 116.592
L334.898 112.626
L335.397 111.823
L335.765 111.605
L336.081 111.681
L336.423 112.022
L336.87 112.814
L337.632 114.713
L338.605 116.997
L339.079 117.618
L339.447 117.77
L339.762 117.654
L340.13 117.238
L340.604 116.316
L341.366 114.25
L342.444 111.424
L342.97 110.623
L343.339 110.399
L343.654 110.44
L343.996 110.717
L344.443 111.39
L345.179 112.984
L346.205 115.121
L346.704 115.687
L347.073 115.802
L347.414 115.661
L347.809 115.217
L348.335 114.226
L349.334 111.722
L350.149 109.967
L350.649 109.36
L351.017 109.208
L351.359 109.299
L351.753 109.659
L352.279 110.481
L354.172 113.76
L354.567 113.949
L354.909 113.888
L355.277 113.592
L355.75 112.898
L356.486 111.348
L357.696 108.83
L358.222 108.221
L358.616 108.059
L358.984 108.145
L359.405 108.501
L359.984 109.334
L361.667 111.963
L362.114 112.204
L362.482 112.167
L362.876 111.892
L363.376 111.232
L364.138 109.787
L365.295 107.645
L365.821 107.095
L366.242 106.942
L366.637 107.038
L367.084 107.401
L367.715 108.246
L369.161 110.272
L369.634 110.553
L370.029 110.553
L370.449 110.313
L370.949 109.74
L371.712 108.463
L372.921 106.468
L373.473 105.973
L373.92 105.859
L374.341 105.991
L374.841 106.409
L375.603 107.39
L376.655 108.684
L377.181 109.002
L377.602 109.021
L378.023 108.82
L378.549 108.29
L379.337 107.109
L380.521 105.367
L381.073 104.919
L381.52 104.811
L381.967 104.934
L382.493 105.333
L383.361 106.335
L384.307 107.318
L384.833 107.57
L385.28 107.553
L385.754 107.297
L386.332 106.7
L387.463 105.104
L388.278 104.162
L388.83 103.84
L389.303 103.815
L389.803 104.028
L390.434 104.564
L392.091 106.089
L392.617 106.221
L393.09 106.111
L393.616 105.746
L394.352 104.918
L395.851 103.175
L396.43 102.862
L396.929 102.837
L397.455 103.044
L398.165 103.598
L399.611 104.78
L400.164 104.93
L400.663 104.841
L401.215 104.504
L401.978 103.735
L403.451 102.203
L404.055 101.911
L404.581 101.897
L405.16 102.122
L405.975 102.719
L407.158 103.559
L407.763 103.712
L408.289 103.621
L408.868 103.289
L409.683 102.533
L411.05 101.269
L411.681 100.996
L412.233 100.991
L412.838 101.215
L413.785 101.847
L414.81 102.45
L415.415 102.562
L415.994 102.439
L416.651 102.048
L417.755 101.064
L418.728 100.326
L419.36 100.108
L419.964 100.135
L420.648 100.406
L422.831 101.467
L423.435 101.413
L424.093 101.114
L425.039 100.394
L426.302 99.4805
L426.985 99.2631
L427.616 99.2948
L428.353 99.5672
L430.351 100.433
L431.009 100.395
L431.692 100.121
L432.691 99.4367
L433.927 98.6431
L434.637 98.4492
L435.321 98.4978
L436.163 98.804
L437.793 99.4423
L438.503 99.4458
L439.213 99.2173
L440.186 98.6369
L441.579 97.8314
L442.316 97.6671
L443.052 97.7375
L444.051 98.0922
L445.366 98.5236
L446.102 98.5268
L446.865 98.2979
L447.943 97.7048
L449.232 97.0569
L450.02 96.9178
L450.809 97.013
L452.15 97.4602
L453.15 97.6757
L453.938 97.6138
L454.78 97.3132
L457.331 96.2253
L458.146 96.2341
L459.198 96.4972
L460.67 96.8469
L461.512 96.7984
L462.406 96.5112
L464.956 95.5367
L465.824 95.5508
L467.034 95.8306
L468.349 96.0716
L469.216 95.9999
L470.216 95.6774
L472.372 94.9047
L473.292 94.8727
L474.449 95.082
L476.001 95.333
L476.921 95.2428
L478.025 94.8934
L479.892 94.2866
L480.865 94.2374
L482.101 94.4274
L483.653 94.6312
L484.652 94.5193
L485.94 94.1201
L487.518 93.6779
L488.544 93.636
L489.964 93.8375
L491.384 93.9627
L492.435 93.8216
L494.224 93.2921
L495.459 93.063
L496.59 93.0918
L499.456 93.2955
L500.692 93.0383
L502.98 92.5179
L504.163 92.5281
L507.161 92.6851
L508.528 92.4036
L510.553 91.9926
L511.815 91.9967
L514.761 92.1181
L516.233 91.8381
L518.205 91.4841
L519.573 91.4958
L522.281 91.5875
L523.806 91.331
L525.91 90.9953
L527.409 91.0211
L529.802 91.0821
L531.406 90.8421
L533.588 90.5307
L535.219 90.5633
L537.454 90.5913
L539.216 90.3397
L541.293 90.0865
L543.134 90.1287
L545.158 90.1209
L547.183 89.8419
L549.103 89.6603
L551.627 89.7205
L553.389 89.6202
L557.386 89.2578
L560.988 89.2083
L565.091 88.8736
L568.588 88.8165
L572.822 88.5069
L576.214 88.4414
L580.5 88.1559
L583.892 88.0802
L588.152 87.8207
L591.623 87.7329
L595.751 87.5007
L599.38 87.4012
L603.351 87.1958
L607.164 87.0844
L610.74 86.9061
L610.74 86.9061" style="fill:none;stroke:#008000;"/>
   </g>
   <g id="matplotlib.axis_1">
    <g id="xtick_1">
     <g id="line2d_3">
      <path clip-path="url(#pdd7e38923c)" d="
M84.825 495.72
L84.825 55.08" style="fill:none;stroke:#000000;stroke-dasharray:1.000000,3.000000;stroke-dashoffset:0.0;stroke-linecap:butt;stroke-width:0.5;"/>
     </g>
     <g id="line2d_4">
      <defs>
       <path d="
M0 0
L0 -4" id="m0012dd4eef" style="stroke:#000000;stroke-linecap:butt;stroke-width:0.5;"/>
      </defs>
      <g>
       <use style="stroke:#000000;stroke-linecap:butt;stroke-width:0.5;" x="84.825" xlink:href="#m0012dd4eef" y="495.72"/>
      </g>
     </g>
     <g id="line2d_5">
      <defs>
       <path d="
M0 0
L0 4" id="m476344969c" style="stroke:#000000;stroke-linecap:butt;stroke-width:0.5;"/>
      </defs>
      <g>
       <use style="stroke:#000000;stroke-linecap:butt;stroke-width:0.5;" x="84.825" xlink:href="#m476344969c" y="55.08"/>
      </g>
     </g>
     <g id="text_1">
      <!-- 0 -->
      <defs>
       <path d="
M31.7812 66.4062
Q24.1719 66.4062 20.3281 58.9062
Q16.5 51.4219 16.5 36.375
Q16.5 21.3906 20.3281 13.8906
Q24.1719 6.39062 31.7812 6.39062
Q39.4531 6.39062 43.2812 13.8906
Q47.125 21.3906 47.125 36.375
Q47.125 51.4219 43.2812 58.9062
Q39.4531 66.4062 31.7812 66.4062
M31.7812 74.2188
Q44.0469 74.2188 50.5156 64.5156
Q56.9844 54.8281 56.9844 36.375
Q56.9844 17.9688 50.5156 8.26562
Q44.0469 -1.42188 31.7812 -1.42188
Q19.5312 -1.42188 13.0625 8.26562
Q6.59375 17.9688 6.59375 36.375
Q6.59375 54.8281 13.0625 64.5156
Q19.5312 74.2188 31.7812 74.2188" id="BitstreamVeraSans-Roman-30"/>
      </defs>
      <g transform="translate(81.8015625 508.62625)scale(0.12 -0.12)">
       <use xlink:href="#BitstreamVeraSans-Roman-30"/>
      </g>
     </g>
    </g>
    <g id="xtick_2">
     <g id="line2d_6">
      <path clip-path="url(#pdd7e38923c)" d="
M216.304 495.72
L216.304 55.08" style="fill:none;stroke:#000000;stroke-dasharray:1.000000,3.000000;stroke-dashoffset:0.0;stroke-linecap:butt;stroke-width:0.5;"/>
     </g>
     <g id="line2d_7">
      <g>
       <use style="stroke:#000000;stroke-linecap:butt;stroke-width:0.5;" x="216.30375" xlink:href="#m0012dd4eef" y="495.72"/>
      </g>
     </g>
     <g id="line2d_8">
      <g>
       <use style="stroke:#000000;stroke-linecap:butt;stroke-width:0.5;" x="216.30375" xlink:href="#m476344969c" y="55.08"/>
      </g>
     </g>
     <g id="text_2">
      <!-- 50 -->
      <defs>
       <path d="
M10.7969 72.9062
L49.5156 72.9062
L49.5156 64.5938
L19.8281 64.5938
L19.8281 46.7344
Q21.9688 47.4688 24.1094 47.8281
Q26.2656 48.1875 28.4219 48.1875
Q40.625 48.1875 47.75 41.5
Q54.8906 34.8125 54.8906 23.3906
Q54.8906 11.625 47.5625 5.09375
Q40.2344 -1.42188 26.9062 -1.42188
Q22.3125 -1.42188 17.5469 -0.640625
Q12.7969 0.140625 7.71875 1.70312
L7.71875 11.625
Q12.1094 9.23438 16.7969 8.0625
Q21.4844 6.89062 26.7031 6.89062
Q35.1562 6.89062 40.0781 11.3281
Q45.0156 15.7656 45.0156 23.3906
Q45.0156 31 40.0781 35.4375
Q35.1562 39.8906 26.7031 39.8906
Q22.75 39.8906 18.8125 39.0156
Q14.8906 38.1406 10.7969 36.2812
z
" id="BitstreamVeraSans-Roman-35"/>
      </defs>
      <g transform="translate(209.5303125 508.62625)scale(0.12 -0.12)">
       <use xlink:href="#BitstreamVeraSans-Roman-35"/>
       <use x="63.623046875" xlink:href="#BitstreamVeraSans-Roman-30"/>
      </g>
     </g>
    </g>
    <g id="xtick_3">
     <g id="line2d_9">
      <path clip-path="url(#pdd7e38923c)" d="
M347.782 495.72
L347.782 55.08" style="fill:none;stroke:#000000;stroke-dasharray:1.000000,3.000000;stroke-dashoffset:0.0;stroke-linecap:butt;stroke-width:0.5;"/>
     </g>
     <g id="line2d_10">
      <g>
       <use style="stroke:#000000;stroke-linecap:butt;stroke-width:0.5;" x="347.7825" xlink:href="#m0012dd4eef" y="495.72"/>
      </g>
     </g>
     <g id="line2d_11">
      <g>
       <use style="stroke:#000000;stroke-linecap:butt;stroke-width:0.5;" x="347.7825" xlink:href="#m476344969c" y="55.08"/>
      </g>
     </g>
     <g id="text_3">
      <!-- 100 -->
      <defs>
       <path d="
M12.4062 8.29688
L28.5156 8.29688
L28.5156 63.9219
L10.9844 60.4062
L10.9844 69.3906
L28.4219 72.9062
L38.2812 72.9062
L38.2812 8.29688
L54.3906 8.29688
L54.3906 0
L12.4062 0
z
" id="BitstreamVeraSans-Roman-31"/>
      </defs>
      <g transform="translate(337.3875 508.62625)scale(0.12 -0.12)">
       <use xlink:href="#BitstreamVeraSans-Roman-31"/>
       <use x="63.623046875" xlink:href="#BitstreamVeraSans-Roman-30"/>
       <use x="127.24609375" xlink:href="#BitstreamVeraSans-Roman-30"/>
      </g>
     </g>
    </g>
    <g id="xtick_4">
     <g id="line2d_12">
      <path clip-path="url(#pdd7e38923c)" d="
M479.261 495.72
L479.261 55.08" style="fill:none;stroke:#000000;stroke-dasharray:1.000000,3.000000;stroke-dashoffset:0.0;stroke-linecap:butt;stroke-width:0.5;"/>
     </g>
     <g id="line2d_13">
      <g>
       <use style="stroke:#000000;stroke-linecap:butt;stroke-width:0.5;" x="479.26125" xlink:href="#m0012dd4eef" y="495.72"/>
      </g>
     </g>
     <g id="line2d_14">
      <g>
       <use style="stroke:#000000;stroke-linecap:butt;stroke-width:0.5;" x="479.26125" xlink:href="#m476344969c" y="55.08"/>
      </g>
     </g>
     <g id="text_4">
      <!-- 150 -->
      <g transform="translate(468.86625 508.62625)scale(0.12 -0.12)">
       <use xlink:href="#BitstreamVeraSans-Roman-31"/>
       <use x="63.623046875" xlink:href="#BitstreamVeraSans-Roman-35"/>
       <use x="127.24609375" xlink:href="#BitstreamVeraSans-Roman-30"/>
      </g>
     </g>
    </g>
    <g id="xtick_5">
     <g id="line2d_15">
      <path clip-path="url(#pdd7e38923c)" d="
M610.74 495.72
L610.74 55.08" style="fill:none;stroke:#000000;stroke-dasharray:1.000000,3.000000;stroke-dashoffset:0.0;stroke-linecap:butt;stroke-width:0.5;"/>
     </g>
     <g id="line2d_16">
      <g>
       <use style="stroke:#000000;stroke-linecap:butt;stroke-width:0.5;" x="610.74" xlink:href="#m0012dd4eef" y="495.72"/>
      </g>
     </g>
     <g id="line2d_17">
      <g>
       <use style="stroke:#000000;stroke-linecap:butt;stroke-width:0.5;" x="610.74" xlink:href="#m476344969c" y="55.08"/>
      </g>
     </g>
     <g id="text_5">
      <!-- 200 -->
      <defs>
       <path d="
M19.1875 8.29688
L53.6094 8.29688
L53.6094 0
L7.32812 0
L7.32812 8.29688
Q12.9375 14.1094 22.625 23.8906
Q32.3281 33.6875 34.8125 36.5312
Q39.5469 41.8438 41.4219 45.5312
Q43.3125 49.2188 43.3125 52.7812
Q43.3125 58.5938 39.2344 62.25
Q35.1562 65.9219 28.6094 65.9219
Q23.9688 65.9219 18.8125 64.3125
Q13.6719 62.7031 7.8125 59.4219
L7.8125 69.3906
Q13.7656 71.7812 18.9375 73
Q24.125 74.2188 28.4219 74.2188
Q39.75 74.2188 46.4844 68.5469
Q53.2188 62.8906 53.2188 53.4219
Q53.2188 48.9219 51.5312 44.8906
Q49.8594 40.875 45.4062 35.4062
Q44.1875 33.9844 37.6406 27.2188
Q31.1094 20.4531 19.1875 8.29688" id="BitstreamVeraSans-Roman-32"/>
      </defs>
      <g transform="translate(600.125625 508.62625)scale(0.12 -0.12)">
       <use xlink:href="#BitstreamVeraSans-Roman-32"/>
       <use x="63.623046875" xlink:href="#BitstreamVeraSans-Roman-30"/>
       <use x="127.24609375" xlink:href="#BitstreamVeraSans-Roman-30"/>
      </g>
     </g>
    </g>
    <g id="text_6">
     <!-- $t \Delta$ -->
     <defs>
      <path d="
M5.42188 0
Q4.59375 0 4.59375 0.78125
Q4.64062 0.875 4.65625 0.921875
Q4.6875 0.984375 4.6875 1.125
L39.1094 70.5156
Q39.5469 71.5781 40.9219 71.5781
L42.2812 71.5781
Q43.6562 71.5781 44.0938 70.5156
L78.5156 1.125
Q78.5625 1.03125 78.5781 0.953125
Q78.6094 0.875 78.6094 0.78125
Q78.6094 0 77.7812 0
z

M12.0156 8.01562
L64.7031 8.01562
L38.375 61.0781
z
" id="Cmr10-a2"/>
      <path d="
M6.20312 8.10938
Q6.20312 9.57812 6.5 10.8906
L13.7188 39.5938
L3.21875 39.5938
Q2.20312 39.5938 2.20312 40.9219
Q2.59375 43.1094 3.51562 43.1094
L14.5938 43.1094
L18.6094 59.4219
Q19 60.75 20.1719 61.6719
Q21.3438 62.5938 22.7969 62.5938
Q24.0781 62.5938 24.9219 61.8281
Q25.7812 61.0781 25.7812 59.8125
Q25.7812 59.5156 25.75 59.3438
Q25.7344 59.1875 25.6875 58.9844
L21.6875 43.1094
L31.9844 43.1094
Q33.0156 43.1094 33.0156 41.7969
Q32.9531 41.5469 32.8125 40.9531
Q32.6719 40.375 32.4219 39.9844
Q32.1719 39.5938 31.6875 39.5938
L20.7969 39.5938
L13.625 10.6875
Q12.8906 7.85938 12.8906 5.8125
Q12.8906 1.51562 15.8281 1.51562
Q20.2188 1.51562 23.6094 5.64062
Q27 9.76562 28.8125 14.7031
Q29.2031 15.2812 29.5938 15.2812
L30.8125 15.2812
Q31.2031 15.2812 31.4375 15.0156
Q31.6875 14.75 31.6875 14.4062
Q31.6875 14.2031 31.5938 14.1094
Q29.3906 8.0625 25.1875 3.46875
Q21 -1.125 15.5781 -1.125
Q11.625 -1.125 8.90625 1.45312
Q6.20312 4.04688 6.20312 8.10938" id="Cmmi10-74"/>
     </defs>
     <g transform="translate(340.5825 522.676875)scale(0.12 -0.12)">
      <use transform="translate(0.0 2.421875)" xlink:href="#Cmmi10-74"/>
      <use transform="translate(36.083984375 2.421875)" xlink:href="#Cmr10-a2"/>
     </g>
    </g>
   </g>
   <g id="matplotlib.axis_2">
    <g id="ytick_1">
     <g id="line2d_18">
      <path clip-path="url(#pdd7e38923c)" d="
M84.825 495.72
L610.74 495.72" style="fill:none;stroke:#000000;stroke-dasharray:1.000000,3.000000;stroke-dashoffset:0.0;stroke-linecap:butt;stroke-width:0.5;"/>
     </g>
     <g id="line2d_19">
      <defs>
       <path d="
M0 0
L4 0" id="me8a85f7bf6" style="stroke:#000000;stroke-linecap:butt;stroke-width:0.5;"/>
      </defs>
      <g>
       <use style="stroke:#000000;stroke-linecap:butt;stroke-width:0.5;" x="84.825" xlink:href="#me8a85f7bf6" y="495.72"/>
      </g>
     </g>
     <g id="line2d_20">
      <defs>
       <path d="
M0 0
L-4 0" id="m1a32005dea" style="stroke:#000000;stroke-linecap:butt;stroke-width:0.5;"/>
      </defs>
      <g>
       <use style="stroke:#000000;stroke-linecap:butt;stroke-width:0.5;" x="610.74" xlink:href="#m1a32005dea" y="495.72"/>
      </g>
     </g>
     <g id="text_7">
      <!-- −0.1 -->
      <defs>
       <path d="
M10.5938 35.5
L73.1875 35.5
L73.1875 27.2031
L10.5938 27.2031
z
" id="BitstreamVeraSans-Roman-2212"/>
       <path d="
M10.6875 12.4062
L21 12.4062
L21 0
L10.6875 0
z
" id="BitstreamVeraSans-Roman-2e"/>
      </defs>
      <g transform="translate(54.065 500.0878125)scale(0.12 -0.12)">
       <use xlink:href="#BitstreamVeraSans-Roman-2212"/>
       <use x="83.7890625" xlink:href="#BitstreamVeraSans-Roman-30"/>
       <use x="147.412109375" xlink:href="#BitstreamVeraSans-Roman-2e"/>
       <use x="179.19921875" xlink:href="#BitstreamVeraSans-Roman-31"/>
      </g>
     </g>
    </g>
    <g id="ytick_2">
     <g id="line2d_21">
      <path clip-path="url(#pdd7e38923c)" d="
M84.825 446.76
L610.74 446.76" style="fill:none;stroke:#000000;stroke-dasharray:1.000000,3.000000;stroke-dashoffset:0.0;stroke-linecap:butt;stroke-width:0.5;"/>
     </g>
     <g id="line2d_22">
      <g>
       <use style="stroke:#000000;stroke-linecap:butt;stroke-width:0.5;" x="84.825" xlink:href="#me8a85f7bf6" y="446.76"/>
      </g>
     </g>
     <g id="line2d_23">
      <g>
       <use style="stroke:#000000;stroke-linecap:butt;stroke-width:0.5;" x="610.74" xlink:href="#m1a32005dea" y="446.76"/>
      </g>
     </g>
     <g id="text_8">
      <!-- 0.0 -->
      <g transform="translate(63.329375 451.1278125)scale(0.12 -0.12)">
       <use xlink:href="#BitstreamVeraSans-Roman-30"/>
       <use x="63.623046875" xlink:href="#BitstreamVeraSans-Roman-2e"/>
       <use x="95.41015625" xlink:href="#BitstreamVeraSans-Roman-30"/>
      </g>
     </g>
    </g>
    <g id="ytick_3">
     <g id="line2d_24">
      <path clip-path="url(#pdd7e38923c)" d="
M84.825 397.8
L610.74 397.8" style="fill:none;stroke:#000000;stroke-dasharray:1.000000,3.000000;stroke-dashoffset:0.0;stroke-linecap:butt;stroke-width:0.5;"/>
     </g>
     <g id="line2d_25">
      <g>
       <use style="stroke:#000000;stroke-linecap:butt;stroke-width:0.5;" x="84.825" xlink:href="#me8a85f7bf6" y="397.8"/>
      </g>
     </g>
     <g id="line2d_26">
      <g>
       <use style="stroke:#000000;stroke-linecap:butt;stroke-width:0.5;" x="610.74" xlink:href="#m1a32005dea" y="397.8"/>
      </g>
     </g>
     <g id="text_9">
      <!-- 0.1 -->
      <g transform="translate(63.640625 402.1678125)scale(0.12 -0.12)">
       <use xlink:href="#BitstreamVeraSans-Roman-30"/>
       <use x="63.623046875" xlink:href="#BitstreamVeraSans-Roman-2e"/>
       <use x="95.41015625" xlink:href="#BitstreamVeraSans-Roman-31"/>
      </g>
     </g>
    </g>
    <g id="ytick_4">
     <g id="line2d_27">
      <path clip-path="url(#pdd7e38923c)" d="
M84.825 348.84
L610.74 348.84" style="fill:none;stroke:#000000;stroke-dasharray:1.000000,3.000000;stroke-dashoffset:0.0;stroke-linecap:butt;stroke-width:0.5;"/>
     </g>
     <g id="line2d_28">
      <g>
       <use style="stroke:#000000;stroke-linecap:butt;stroke-width:0.5;" x="84.825" xlink:href="#me8a85f7bf6" y="348.84"/>
      </g>
     </g>
     <g id="line2d_29">
      <g>
       <use style="stroke:#000000;stroke-linecap:butt;stroke-width:0.5;" x="610.74" xlink:href="#m1a32005dea" y="348.84"/>
      </g>
     </g>
     <g id="text_10">
      <!-- 0.2 -->
      <g transform="translate(63.734375 353.2078125)scale(0.12 -0.12)">
       <use xlink:href="#BitstreamVeraSans-Roman-30"/>
       <use x="63.623046875" xlink:href="#BitstreamVeraSans-Roman-2e"/>
       <use x="95.41015625" xlink:href="#BitstreamVeraSans-Roman-32"/>
      </g>
     </g>
    </g>
    <g id="ytick_5">
     <g id="line2d_30">
      <path clip-path="url(#pdd7e38923c)" d="
M84.825 299.88
L610.74 299.88" style="fill:none;stroke:#000000;stroke-dasharray:1.000000,3.000000;stroke-dashoffset:0.0;stroke-linecap:butt;stroke-width:0.5;"/>
     </g>
     <g id="line2d_31">
      <g>
       <use style="stroke:#000000;stroke-linecap:butt;stroke-width:0.5;" x="84.825" xlink:href="#me8a85f7bf6" y="299.88"/>
      </g>
     </g>
     <g id="line2d_32">
      <g>
       <use style="stroke:#000000;stroke-linecap:butt;stroke-width:0.5;" x="610.74" xlink:href="#m1a32005dea" y="299.88"/>
      </g>
     </g>
     <g id="text_11">
      <!-- 0.3 -->
      <defs>
       <path d="
M40.5781 39.3125
Q47.6562 37.7969 51.625 33
Q55.6094 28.2188 55.6094 21.1875
Q55.6094 10.4062 48.1875 4.48438
Q40.7656 -1.42188 27.0938 -1.42188
Q22.5156 -1.42188 17.6562 -0.515625
Q12.7969 0.390625 7.625 2.20312
L7.625 11.7188
Q11.7188 9.32812 16.5938 8.10938
Q21.4844 6.89062 26.8125 6.89062
Q36.0781 6.89062 40.9375 10.5469
Q45.7969 14.2031 45.7969 21.1875
Q45.7969 27.6406 41.2812 31.2656
Q36.7656 34.9062 28.7188 34.9062
L20.2188 34.9062
L20.2188 43.0156
L29.1094 43.0156
Q36.375 43.0156 40.2344 45.9219
Q44.0938 48.8281 44.0938 54.2969
Q44.0938 59.9062 40.1094 62.9062
Q36.1406 65.9219 28.7188 65.9219
Q24.6562 65.9219 20.0156 65.0312
Q15.375 64.1562 9.8125 62.3125
L9.8125 71.0938
Q15.4375 72.6562 20.3438 73.4375
Q25.25 74.2188 29.5938 74.2188
Q40.8281 74.2188 47.3594 69.1094
Q53.9062 64.0156 53.9062 55.3281
Q53.9062 49.2656 50.4375 45.0938
Q46.9688 40.9219 40.5781 39.3125" id="BitstreamVeraSans-Roman-33"/>
      </defs>
      <g transform="translate(63.494375 304.2478125)scale(0.12 -0.12)">
       <use xlink:href="#BitstreamVeraSans-Roman-30"/>
       <use x="63.623046875" xlink:href="#BitstreamVeraSans-Roman-2e"/>
       <use x="95.41015625" xlink:href="#BitstreamVeraSans-Roman-33"/>
      </g>
     </g>
    </g>
    <g id="ytick_6">
     <g id="line2d_33">
      <path clip-path="url(#pdd7e38923c)" d="
M84.825 250.92
L610.74 250.92" style="fill:none;stroke:#000000;stroke-dasharray:1.000000,3.000000;stroke-dashoffset:0.0;stroke-linecap:butt;stroke-width:0.5;"/>
     </g>
     <g id="line2d_34">
      <g>
       <use style="stroke:#000000;stroke-linecap:butt;stroke-width:0.5;" x="84.825" xlink:href="#me8a85f7bf6" y="250.92"/>
      </g>
     </g>
     <g id="line2d_35">
      <g>
       <use style="stroke:#000000;stroke-linecap:butt;stroke-width:0.5;" x="610.74" xlink:href="#m1a32005dea" y="250.92"/>
      </g>
     </g>
     <g id="text_12">
      <!-- 0.4 -->
      <defs>
       <path d="
M37.7969 64.3125
L12.8906 25.3906
L37.7969 25.3906
z

M35.2031 72.9062
L47.6094 72.9062
L47.6094 25.3906
L58.0156 25.3906
L58.0156 17.1875
L47.6094 17.1875
L47.6094 0
L37.7969 0
L37.7969 17.1875
L4.89062 17.1875
L4.89062 26.7031
z
" id="BitstreamVeraSans-Roman-34"/>
      </defs>
      <g transform="translate(63.205625 255.2878125)scale(0.12 -0.12)">
       <use xlink:href="#BitstreamVeraSans-Roman-30"/>
       <use x="63.623046875" xlink:href="#BitstreamVeraSans-Roman-2e"/>
       <use x="95.41015625" xlink:href="#BitstreamVeraSans-Roman-34"/>
      </g>
     </g>
    </g>
    <g id="ytick_7">
     <g id="line2d_36">
      <path clip-path="url(#pdd7e38923c)" d="
M84.825 201.96
L610.74 201.96" style="fill:none;stroke:#000000;stroke-dasharray:1.000000,3.000000;stroke-dashoffset:0.0;stroke-linecap:butt;stroke-width:0.5;"/>
     </g>
     <g id="line2d_37">
      <g>
       <use style="stroke:#000000;stroke-linecap:butt;stroke-width:0.5;" x="84.825" xlink:href="#me8a85f7bf6" y="201.96"/>
      </g>
     </g>
     <g id="line2d_38">
      <g>
       <use style="stroke:#000000;stroke-linecap:butt;stroke-width:0.5;" x="610.74" xlink:href="#m1a32005dea" y="201.96"/>
      </g>
     </g>
     <g id="text_13">
      <!-- 0.5 -->
      <g transform="translate(63.580625 206.3278125)scale(0.12 -0.12)">
       <use xlink:href="#BitstreamVeraSans-Roman-30"/>
       <use x="63.623046875" xlink:href="#BitstreamVeraSans-Roman-2e"/>
       <use x="95.41015625" xlink:href="#BitstreamVeraSans-Roman-35"/>
      </g>
     </g>
    </g>
    <g id="ytick_8">
     <g id="line2d_39">
      <path clip-path="url(#pdd7e38923c)" d="
M84.825 153
L610.74 153" style="fill:none;stroke:#000000;stroke-dasharray:1.000000,3.000000;stroke-dashoffset:0.0;stroke-linecap:butt;stroke-width:0.5;"/>
     </g>
     <g id="line2d_40">
      <g>
       <use style="stroke:#000000;stroke-linecap:butt;stroke-width:0.5;" x="84.825" xlink:href="#me8a85f7bf6" y="153.0"/>
      </g>
     </g>
     <g id="line2d_41">
      <g>
       <use style="stroke:#000000;stroke-linecap:butt;stroke-width:0.5;" x="610.74" xlink:href="#m1a32005dea" y="153.0"/>
      </g>
     </g>
     <g id="text_14">
      <!-- 0.6 -->
      <defs>
       <path d="
M33.0156 40.375
Q26.375 40.375 22.4844 35.8281
Q18.6094 31.2969 18.6094 23.3906
Q18.6094 15.5312 22.4844 10.9531
Q26.375 6.39062 33.0156 6.39062
Q39.6562 6.39062 43.5312 10.9531
Q47.4062 15.5312 47.4062 23.3906
Q47.4062 31.2969 43.5312 35.8281
Q39.6562 40.375 33.0156 40.375
M52.5938 71.2969
L52.5938 62.3125
Q48.875 64.0625 45.0938 64.9844
Q41.3125 65.9219 37.5938 65.9219
Q27.8281 65.9219 22.6719 59.3281
Q17.5312 52.7344 16.7969 39.4062
Q19.6719 43.6562 24.0156 45.9219
Q28.375 48.1875 33.5938 48.1875
Q44.5781 48.1875 50.9531 41.5156
Q57.3281 34.8594 57.3281 23.3906
Q57.3281 12.1562 50.6875 5.35938
Q44.0469 -1.42188 33.0156 -1.42188
Q20.3594 -1.42188 13.6719 8.26562
Q6.98438 17.9688 6.98438 36.375
Q6.98438 53.6562 15.1875 63.9375
Q23.3906 74.2188 37.2031 74.2188
Q40.9219 74.2188 44.7031 73.4844
Q48.4844 72.75 52.5938 71.2969" id="BitstreamVeraSans-Roman-36"/>
      </defs>
      <g transform="translate(63.288125 157.3678125)scale(0.12 -0.12)">
       <use xlink:href="#BitstreamVeraSans-Roman-30"/>
       <use x="63.623046875" xlink:href="#BitstreamVeraSans-Roman-2e"/>
       <use x="95.41015625" xlink:href="#BitstreamVeraSans-Roman-36"/>
      </g>
     </g>
    </g>
    <g id="ytick_9">
     <g id="line2d_42">
      <path clip-path="url(#pdd7e38923c)" d="
M84.825 104.04
L610.74 104.04" style="fill:none;stroke:#000000;stroke-dasharray:1.000000,3.000000;stroke-dashoffset:0.0;stroke-linecap:butt;stroke-width:0.5;"/>
     </g>
     <g id="line2d_43">
      <g>
       <use style="stroke:#000000;stroke-linecap:butt;stroke-width:0.5;" x="84.825" xlink:href="#me8a85f7bf6" y="104.04"/>
      </g>
     </g>
     <g id="line2d_44">
      <g>
       <use style="stroke:#000000;stroke-linecap:butt;stroke-width:0.5;" x="610.74" xlink:href="#m1a32005dea" y="104.04"/>
      </g>
     </g>
     <g id="text_15">
      <!-- 0.7 -->
      <defs>
       <path d="
M8.20312 72.9062
L55.0781 72.9062
L55.0781 68.7031
L28.6094 0
L18.3125 0
L43.2188 64.5938
L8.20312 64.5938
z
" id="BitstreamVeraSans-Roman-37"/>
      </defs>
      <g transform="translate(63.558125 108.4078125)scale(0.12 -0.12)">
       <use xlink:href="#BitstreamVeraSans-Roman-30"/>
       <use x="63.623046875" xlink:href="#BitstreamVeraSans-Roman-2e"/>
       <use x="95.41015625" xlink:href="#BitstreamVeraSans-Roman-37"/>
      </g>
     </g>
    </g>
    <g id="ytick_10">
     <g id="line2d_45">
      <path clip-path="url(#pdd7e38923c)" d="
M84.825 55.08
L610.74 55.08" style="fill:none;stroke:#000000;stroke-dasharray:1.000000,3.000000;stroke-dashoffset:0.0;stroke-linecap:butt;stroke-width:0.5;"/>
     </g>
     <g id="line2d_46">
      <g>
       <use style="stroke:#000000;stroke-linecap:butt;stroke-width:0.5;" x="84.825" xlink:href="#me8a85f7bf6" y="55.08"/>
      </g>
     </g>
     <g id="line2d_47">
      <g>
       <use style="stroke:#000000;stroke-linecap:butt;stroke-width:0.5;" x="610.74" xlink:href="#m1a32005dea" y="55.08"/>
      </g>
     </g>
     <g id="text_16">
      <!-- 0.8 -->
      <defs>
       <path d="
M31.7812 34.625
Q24.75 34.625 20.7188 30.8594
Q16.7031 27.0938 16.7031 20.5156
Q16.7031 13.9219 20.7188 10.1562
Q24.75 6.39062 31.7812 6.39062
Q38.8125 6.39062 42.8594 10.1719
Q46.9219 13.9688 46.9219 20.5156
Q46.9219 27.0938 42.8906 30.8594
Q38.875 34.625 31.7812 34.625
M21.9219 38.8125
Q15.5781 40.375 12.0312 44.7188
Q8.5 49.0781 8.5 55.3281
Q8.5 64.0625 14.7188 69.1406
Q20.9531 74.2188 31.7812 74.2188
Q42.6719 74.2188 48.875 69.1406
Q55.0781 64.0625 55.0781 55.3281
Q55.0781 49.0781 51.5312 44.7188
Q48 40.375 41.7031 38.8125
Q48.8281 37.1562 52.7969 32.3125
Q56.7812 27.4844 56.7812 20.5156
Q56.7812 9.90625 50.3125 4.23438
Q43.8438 -1.42188 31.7812 -1.42188
Q19.7344 -1.42188 13.25 4.23438
Q6.78125 9.90625 6.78125 20.5156
Q6.78125 27.4844 10.7812 32.3125
Q14.7969 37.1562 21.9219 38.8125
M18.3125 54.3906
Q18.3125 48.7344 21.8438 45.5625
Q25.3906 42.3906 31.7812 42.3906
Q38.1406 42.3906 41.7188 45.5625
Q45.3125 48.7344 45.3125 54.3906
Q45.3125 60.0625 41.7188 63.2344
Q38.1406 66.4062 31.7812 66.4062
Q25.3906 66.4062 21.8438 63.2344
Q18.3125 60.0625 18.3125 54.3906" id="BitstreamVeraSans-Roman-38"/>
      </defs>
      <g transform="translate(63.35375 59.4478125)scale(0.12 -0.12)">
       <use xlink:href="#BitstreamVeraSans-Roman-30"/>
       <use x="63.623046875" xlink:href="#BitstreamVeraSans-Roman-2e"/>
       <use x="95.41015625" xlink:href="#BitstreamVeraSans-Roman-38"/>
      </g>
     </g>
    </g>
    <g id="text_17">
     <!-- $I/I_0$ -->
     <defs>
      <path d="
M5.60938 -23
Q5.60938 -22.7031 5.71875 -22.6094
L40.4844 73.7812
Q40.6719 74.3594 41.1562 74.6719
Q41.6562 75 42.2812 75
Q43.1719 75 43.7188 74.4531
Q44.2812 73.9219 44.2812 73
L44.2812 72.6094
L9.51562 -23.7812
Q8.9375 -25 7.625 -25
Q6.78125 -25 6.1875 -24.4062
Q5.60938 -23.8281 5.60938 -23" id="Cmmi10-3d"/>
      <path d="
M25 -2.20312
Q12.75 -2.20312 8.32812 7.875
Q3.90625 17.9688 3.90625 31.8906
Q3.90625 40.5781 5.48438 48.2344
Q7.07812 55.9062 11.7812 61.25
Q16.5 66.6094 25 66.6094
Q31.5938 66.6094 35.7812 63.375
Q39.9844 60.1562 42.1875 55.0469
Q44.3906 49.9531 45.1875 44.1094
Q46 38.2812 46 31.8906
Q46 23.2969 44.4062 15.7969
Q42.8281 8.29688 38.1875 3.04688
Q33.5469 -2.20312 25 -2.20312
M25 0.390625
Q30.5625 0.390625 33.2969 6.09375
Q36.0312 11.8125 36.6719 18.75
Q37.3125 25.6875 37.3125 33.5
Q37.3125 41.0156 36.6719 47.3594
Q36.0312 53.7188 33.3125 58.8594
Q30.6094 64.0156 25 64.0156
Q19.3438 64.0156 16.6094 58.8281
Q13.875 53.6562 13.2344 47.3281
Q12.5938 41.0156 12.5938 33.5
Q12.5938 27.9375 12.8594 23
Q13.1406 18.0625 14.3125 12.8125
Q15.4844 7.5625 18.0938 3.96875
Q20.7031 0.390625 25 0.390625" id="Cmr10-30"/>
      <path d="
M4.20312 0
Q3.21875 0 3.21875 1.3125
Q3.60938 3.51562 4.5 3.51562
Q10.4062 3.51562 12.5 3.90625
Q14.7969 4.4375 15.375 6.89062
L29.1094 61.8125
Q29.2969 62.7969 29.2969 63.0938
Q29.2969 63.7188 28.9688 63.9844
Q28.6562 64.2656 27.9844 64.4062
Q25.9844 64.7969 20.4062 64.7969
Q19.3906 64.7969 19.3906 66.1094
Q19.7344 67.3906 19.9219 67.8438
Q20.125 68.3125 21.0938 68.3125
L49.0312 68.3125
Q50 68.3125 50 67
Q49.9531 66.75 49.7969 66.1562
Q49.6562 65.5781 49.4062 65.1875
Q49.1719 64.7969 48.6875 64.7969
Q42.8281 64.7969 40.5781 64.4062
Q38.375 63.875 37.7969 61.375
L24.125 6.5
Q23.875 5.28125 23.875 5.17188
Q23.875 4.9375 23.9531 4.71875
Q24.0312 4.5 24.25 4.32812
Q24.4688 4.15625 24.6875 4.07812
Q24.9062 4 25.2031 3.90625
Q27.0938 3.51562 32.8125 3.51562
Q33.7969 3.51562 33.7969 2.20312
Q33.4531 0.78125 33.25 0.390625
Q33.0625 0 32.0781 0
z
" id="Cmmi10-49"/>
     </defs>
     <g transform="translate(26.505 281.58)scale(0.12 -0.12)">
      <use transform="translate(0.0 28.0)" xlink:href="#Cmmi10-49"/>
      <use transform="translate(43.896484375 28.0)" xlink:href="#Cmmi10-3d"/>
      <use transform="translate(93.896484375 28.0)" xlink:href="#Cmmi10-49"/>
      <use transform="translate(137.79296875 2.490625)scale(0.7)" xlink:href="#Cmr10-30"/>
     </g>
    </g>
   </g>
   <g id="patch_3">
    <path d="
M84.825 55.08
L610.74 55.08" style="fill:none;stroke:#000000;"/>
   </g>
   <g id="patch_4">
    <path d="
M610.74 495.72
L610.74 55.08" style="fill:none;stroke:#000000;"/>
   </g>
   <g id="patch_5">
    <path d="
M84.825 495.72
L610.74 495.72" style="fill:none;stroke:#000000;"/>
   </g>
   <g id="patch_6">
    <path d="
M84.825 495.72
L84.825 55.08" style="fill:none;stroke:#000000;"/>
   </g>
   <g id="text_18">
    <g id="patch_7">
     <path d="
M477.261 305.122
L553.981 305.122
L553.981 244.311
L477.261 244.311
z
" style="fill:#ffffff;stroke:#000000;"/>
    </g>
    <!-- $\Omega/\Delta=2$ -->
    <defs>
     <path d="
M4.98438 0
L4.98438 2.6875
Q4.98438 2.9375 5.17188 3.21875
L20.7031 20.4062
Q24.2188 24.2188 26.4062 26.7969
Q28.6094 29.3906 30.75 32.7656
Q32.9062 36.1406 34.1562 39.625
Q35.4062 43.1094 35.4062 47.0156
Q35.4062 51.125 33.8906 54.8594
Q32.375 58.5938 29.375 60.8438
Q26.375 63.0938 22.125 63.0938
Q17.7812 63.0938 14.3125 60.4688
Q10.8438 57.8594 9.42188 53.7188
Q9.8125 53.8125 10.5 53.8125
Q12.75 53.8125 14.3281 52.2969
Q15.9219 50.7812 15.9219 48.3906
Q15.9219 46.0938 14.3281 44.5
Q12.75 42.9219 10.5 42.9219
Q8.15625 42.9219 6.5625 44.5469
Q4.98438 46.1875 4.98438 48.3906
Q4.98438 52.1562 6.39062 55.4375
Q7.8125 58.7344 10.4688 61.2969
Q13.1406 63.875 16.4844 65.2344
Q19.8281 66.6094 23.5781 66.6094
Q29.2969 66.6094 34.2188 64.1875
Q39.1562 61.7656 42.0312 57.3438
Q44.9219 52.9375 44.9219 47.0156
Q44.9219 42.6719 43.0156 38.7656
Q41.1094 34.8594 38.125 31.6562
Q35.1562 28.4688 30.5156 24.4062
Q25.875 20.3594 24.4219 19
L13.0938 8.10938
L22.7031 8.10938
Q29.7812 8.10938 34.5469 8.21875
Q39.3125 8.34375 39.5938 8.59375
Q40.7656 9.85938 42 17.8281
L44.9219 17.8281
L42.0938 0
z
" id="Cmr10-32"/>
     <path d="
M7.71875 0
L4.39062 16.6094
L7.32812 16.6094
Q7.85938 13.7188 8.29688 11.5
Q8.73438 9.28125 9.4375 8.375
Q10.1562 7.46875 11.7188 7.17188
Q13.2812 6.89062 16.8906 6.89062
L23 6.89062
Q21.5312 12.5469 15.6875 21.6562
Q9.85938 30.7656 7.73438 34.8906
Q5.60938 39.0156 5.60938 45.5156
Q5.60938 53.0781 10.0938 58.7656
Q14.5938 64.4531 21.7031 67.4844
Q28.8125 70.5156 36.0781 70.5156
Q43.3125 70.5156 50.4062 67.4844
Q57.5156 64.4531 62 58.7188
Q66.5 52.9844 66.5 45.5156
Q66.5 40.4375 64.6406 35.9375
Q62.7969 31.4531 59.9062 26.9531
Q57.0312 22.4688 53.6875 16.9375
Q50.3438 11.4219 49.125 6.89062
L55.1719 6.89062
Q58.8438 6.89062 60.4531 7.17188
Q62.0625 7.46875 62.7344 8.375
Q63.4219 9.28125 63.8438 11.5
Q64.2656 13.7188 64.7969 16.6094
L67.6719 16.6094
L64.4062 0
L46.6875 0
Q45.7031 0 45.7031 1.3125
Q45.7031 6.39062 46.9375 11.2656
Q48.1875 16.1562 50.625 23.0938
Q53.0781 30.0312 54.4375 35.3281
Q55.8125 40.625 55.8125 45.5156
Q55.8125 51.5156 53.4688 56.6406
Q51.125 61.7656 46.625 64.8438
Q42.1406 67.9219 36.0781 67.9219
Q26.9531 67.9219 21.625 61.4062
Q16.3125 54.8906 16.3125 45.5156
Q16.3594 40.375 17.5312 35.8281
Q18.7031 31.2969 21.3125 23.7188
Q23.9219 16.1562 25.1719 11.2656
Q26.4219 6.39062 26.4219 1.3125
Q26.4219 0 25.3906 0
z
" id="Cmr10-ad"/>
     <path d="
M7.51562 13.2812
Q6.6875 13.2812 6.14062 13.9062
Q5.60938 14.5469 5.60938 15.2812
Q5.60938 16.1094 6.14062 16.6875
Q6.6875 17.2812 7.51562 17.2812
L70.3125 17.2812
Q71.0469 17.2812 71.5781 16.6875
Q72.125 16.1094 72.125 15.2812
Q72.125 14.5469 71.5781 13.9062
Q71.0469 13.2812 70.3125 13.2812
z

M7.51562 32.7188
Q6.6875 32.7188 6.14062 33.2969
Q5.60938 33.8906 5.60938 34.7188
Q5.60938 35.4531 6.14062 36.0781
Q6.6875 36.7188 7.51562 36.7188
L70.3125 36.7188
Q71.0469 36.7188 71.5781 36.0781
Q72.125 35.4531 72.125 34.7188
Q72.125 33.8906 71.5781 33.2969
Q71.0469 32.7188 70.3125 32.7188
z
" id="Cmr10-3d"/>
    </defs>
    <g transform="translate(479.26125 258.3105)scale(0.12 -0.12)">
     <use transform="translate(0.0 25.0)" xlink:href="#Cmr10-ad"/>
     <use transform="translate(72.216796875 25.0)" xlink:href="#Cmmi10-3d"/>
     <use transform="translate(122.216796875 25.0)" xlink:href="#Cmr10-a2"/>
     <use transform="translate(223.076171875 25.0)" xlink:href="#Cmr10-3d"/>
     <use transform="translate(307.134765625 25.0)" xlink:href="#Cmr10-32"/>
    </g>
    <!-- $\kappa_B T/\hbar \Delta=0.1$ -->
    <defs>
     <path d="
M9.28125 0
L9.28125 3.51562
Q21.7812 3.51562 21.7812 6.6875
L21.7812 59.1875
Q16.6094 56.6875 8.6875 56.6875
L8.6875 60.2031
Q20.9531 60.2031 27.2031 66.6094
L28.6094 66.6094
Q28.9531 66.6094 29.2656 66.3281
Q29.5938 66.0625 29.5938 65.7188
L29.5938 6.6875
Q29.5938 3.51562 42.0938 3.51562
L42.0938 0
z
" id="Cmr10-31"/>
     <path d="
M46.5 11.7969
L47.7969 10.5
Q43.2031 4 40.0938 1.54688
Q37 -0.90625 33.2031 -0.90625
Q31.2031 -0.90625 30 0.25
Q28.7969 1.40625 28.7969 3.29688
Q28.7969 5 30.7969 12.5
L36.2969 33.2031
Q37 36 37 36.5
Q37 39 34.2031 39
Q31.5 39 27.25 35
Q23 31 19 25
Q15.9062 20.2031 14.0938 15.6406
Q12.2969 11.0938 9.40625 0
L1.90625 0
L15.0938 50
L8.79688 50
L10.2969 55.4062
L16.5 55.4062
Q17.7969 60.4062 17.7969 61.5938
Q17.7969 62.7969 16.5 63.4375
Q15.2031 64.0938 13.7031 64.0938
L11 64.0938
L11 65.5938
Q18.5938 66.5 26.7031 68.2969
L27.4062 67.7031
L24.0938 55.4062
L40 55.4062
L38.5 50
L22.5938 50
L15.2969 23
Q28.2969 44.0938 38.2969 44.0938
Q41.5938 44.0938 43.1875 42.25
Q44.7969 40.4062 44.7969 37.4062
Q44.7969 33.0938 40 18.0938
Q36.7031 8 36.7031 5.59375
Q36.7031 3.79688 38.2969 3.79688
Q39.5 3.79688 40.9531 5.25
Q42.4062 6.70312 46.5 11.7969" id="STIXGeneral-Italic-127"/>
     <path d="
M4.59375 1.3125
Q4.64062 1.5625 4.8125 2.1875
Q4.98438 2.82812 5.25 3.17188
Q5.51562 3.51562 6 3.51562
Q14.5938 3.51562 17.3906 4
Q20.0625 4.6875 20.6094 6.89062
L34.2812 61.8125
Q34.7188 63.0312 34.7188 64.0156
Q34.7188 64.7969 31.2031 64.7969
L25.3906 64.7969
Q18.7031 64.7969 15.0625 62.7344
Q11.4219 60.6875 9.71875 57.3125
Q8.01562 53.9531 5.32812 46.2969
Q4.98438 45.4062 4.29688 45.4062
L3.42188 45.4062
Q2.39062 45.4062 2.39062 46.6875
L9.51562 67.3906
Q9.71875 68.3125 10.5 68.3125
L69.5781 68.3125
Q70.6094 68.3125 70.6094 67
L67.2812 46.2969
Q67.2812 46 66.9375 45.7031
Q66.6094 45.4062 66.3125 45.4062
L65.375 45.4062
Q64.4062 45.4062 64.4062 46.6875
Q65.4844 53.7656 65.4844 56.6875
Q65.4844 60.2031 64.0156 62
Q62.5469 63.8125 60.2031 64.2969
Q57.8594 64.7969 54.1094 64.7969
L48.1875 64.7969
Q45.5156 64.7969 44.5781 64.2969
Q43.6562 63.8125 43.0156 61.375
L29.2969 6.5
Q29.25 6.29688 29.2188 6.09375
Q29.2031 5.90625 29.1094 5.60938
Q29.1094 4.34375 30.6094 4
Q33.2031 3.51562 41.7031 3.51562
Q42.6719 3.51562 42.6719 2.20312
Q42.3281 0.78125 42.125 0.390625
Q41.9375 0 41.0156 0
L5.60938 0
Q4.59375 0 4.59375 1.3125" id="Cmmi10-54"/>
     <path d="
M4.98438 0
Q4 0 4 1.3125
Q4.04688 1.5625 4.1875 2.14062
Q4.34375 2.73438 4.57812 3.125
Q4.82812 3.51562 5.32812 3.51562
Q8.15625 3.51562 10.25 3.65625
Q12.3594 3.8125 13.8125 4.20312
Q14.9844 4.64062 15.7188 6.89062
L29.3906 61.8125
Q29.5938 62.7969 29.5938 63.1875
Q29.5938 64.2656 28.4219 64.4062
Q26.5156 64.7969 21.1875 64.7969
Q20.2188 64.7969 20.2188 66.1094
Q20.2656 66.3594 20.4062 66.9688
Q20.5625 67.5781 20.8281 67.9375
Q21.0938 68.3125 21.4844 68.3125
L57.3281 68.3125
Q60.5938 68.3125 63.7969 67.5
Q67 66.7031 69.7031 64.9375
Q72.4062 63.1875 74 60.5625
Q75.5938 57.9531 75.5938 54.5
Q75.5938 50.7344 73.6562 47.5
Q71.7344 44.2812 68.6719 41.8906
Q65.625 39.5 62.0781 37.9531
Q58.5469 36.4219 54.6875 35.6875
Q57.4219 35.6875 60.2188 34.6094
Q63.0312 33.5469 65.2344 31.6875
Q67.4375 29.8281 68.7812 27.2344
Q70.125 24.6562 70.125 21.6875
Q70.125 15.6719 65.9219 10.6875
Q61.7188 5.71875 55.3438 2.85938
Q48.9688 0 43.0156 0
z

M23.3906 4.29688
Q23.3906 3.51562 26.8125 3.51562
L41.1094 3.51562
Q46 3.51562 50.4844 6.21875
Q54.9844 8.9375 57.6875 13.4219
Q60.4062 17.9219 60.4062 22.7969
Q60.4062 25.7812 59.1562 28.4375
Q57.9062 31.1094 55.5625 32.6406
Q53.2188 34.1875 50.2031 34.1875
L30.7188 34.1875
L23.7812 6.5
Q23.3906 5.125 23.3906 4.29688
M31.3906 36.8125
L46.5781 36.8125
Q51.375 36.8125 55.8906 39.25
Q60.4062 41.7031 63.25 45.8906
Q66.1094 50.0938 66.1094 54.7812
Q66.1094 59.125 63.3906 61.9531
Q60.6875 64.7969 56.3906 64.7969
L42.6719 64.7969
Q39.9844 64.7969 39.0625 64.2969
Q38.1406 63.8125 37.5 61.375
z
" id="Cmmi10-42"/>
     <path d="
M5.32812 1.70312
Q5.32812 2.29688 5.42188 2.59375
L14.9844 41.0156
Q15.375 42.4375 16.5469 43.3125
Q17.7188 44.1875 19.1875 44.1875
Q20.4531 44.1875 21.3281 43.4219
Q22.2188 42.6719 22.2188 41.4062
Q22.2188 41.1094 22.1875 40.9375
Q22.1719 40.7656 22.125 40.5781
L18.5 26.125
Q22.5156 27.4375 29.1562 32.9844
Q35.7969 38.5312 39.1875 40.8125
Q42.5781 43.1094 47.5156 43.1094
Q49.125 43.1094 50.2188 42.1094
Q51.3125 41.1094 51.3125 39.4062
Q51.3125 37.0625 49.625 35.4219
Q47.9531 33.7969 45.6094 33.7969
Q44 33.7969 42.8906 34.8438
Q41.7969 35.8906 41.7969 37.5
Q41.7969 38.625 42.1875 39.4062
Q39.7969 38.4219 37.2812 36.6562
Q34.7656 34.9062 32.7188 33.125
Q30.6719 31.3438 27.7812 28.9531
Q24.9062 26.5625 22.6094 25.2969
Q26.7031 25.2969 31 24.4062
Q35.2969 23.5312 38.4531 21.1875
Q41.6094 18.8438 41.6094 14.7969
Q41.6094 13.1875 41.2188 12.0156
Q40.2812 8.01562 40.2812 6
Q40.2812 1.51562 43.4062 1.51562
Q46.9688 1.51562 48.875 5.46875
Q50.7812 9.42188 52 14.7031
Q52.2031 15.2812 52.7812 15.2812
L54 15.2812
Q54.3906 15.2812 54.6406 15.0156
Q54.8906 14.75 54.8906 14.4062
Q54.8906 14.3125 54.7812 14.1094
Q51.125 -1.125 43.2188 -1.125
Q40.375 -1.125 38.2031 0.1875
Q36.0312 1.51562 34.8594 3.78125
Q33.6875 6.0625 33.6875 8.89062
Q33.6875 10.6875 34.0781 12.2031
Q34.4219 13.5781 34.4219 14.5
Q34.4219 17.7188 31.5625 19.5781
Q28.7188 21.4375 24.8281 22.1094
Q20.9531 22.7969 17.5781 22.7969
L12.5 2.20312
Q12.1562 0.828125 10.9531 -0.140625
Q9.76562 -1.125 8.29688 -1.125
Q7.07812 -1.125 6.20312 -0.34375
Q5.32812 0.4375 5.32812 1.70312" id="Cmmi10-b7"/>
     <path d="
M8.40625 5.51562
Q8.40625 7.76562 10.0625 9.375
Q11.7188 10.9844 13.9219 10.9844
Q15.2812 10.9844 16.5938 10.25
Q17.9219 9.51562 18.6562 8.20312
Q19.3906 6.89062 19.3906 5.51562
Q19.3906 3.32812 17.7656 1.65625
Q16.1562 0 13.9219 0
Q11.7188 0 10.0625 1.65625
Q8.40625 3.32812 8.40625 5.51562" id="Cmmi10-3a"/>
    </defs>
    <g transform="translate(479.26125 272.367)scale(0.12 -0.12)">
     <use transform="translate(0.0 26.0)" xlink:href="#Cmmi10-b7"/>
     <use transform="translate(57.6171875 0.490625)scale(0.7)" xlink:href="#Cmmi10-42"/>
     <use transform="translate(133.3984375 26.0)" xlink:href="#Cmmi10-54"/>
     <use transform="translate(191.796875 26.0)" xlink:href="#Cmmi10-3d"/>
     <use transform="translate(241.796875 26.0)" xlink:href="#STIXGeneral-Italic-127"/>
     <use transform="translate(291.796859741 26.0)" xlink:href="#Cmr10-a2"/>
     <use transform="translate(392.656234741 26.0)" xlink:href="#Cmr10-3d"/>
     <use transform="translate(476.714828491 26.0)" xlink:href="#Cmr10-30"/>
     <use transform="translate(526.714828491 26.0)" xlink:href="#Cmmi10-3a"/>
     <use transform="translate(555.257797241 26.0)" xlink:href="#Cmr10-31"/>
    </g>
    <!-- $\alpha=0.005$ -->
    <defs>
     <path d="
M20.125 -1.125
Q15.375 -1.125 11.6875 1.125
Q8.01562 3.375 6 7.17188
Q4 10.9844 4 15.8281
Q4 22.6094 7.78125 29.25
Q11.5781 35.8906 17.8438 40.0312
Q24.125 44.1875 31 44.1875
Q36.0781 44.1875 39.9375 41.5312
Q43.7969 38.875 45.7969 34.4531
Q47.7969 30.0312 47.7969 25
L47.9062 18.3125
Q51.3125 23.0469 53.6875 28.1406
Q56.0625 33.25 57.3281 38.7188
Q57.5156 39.3125 58.1094 39.3125
L59.2812 39.3125
Q60.2031 39.3125 60.2031 38.375
Q60.2031 38.2812 60.1094 38.0938
Q58.9375 33.5 57.1719 29.2656
Q55.4219 25.0469 53.0469 21.0938
Q50.6875 17.1406 47.9062 13.9219
Q47.9062 1.51562 50.7812 1.51562
Q52.6406 1.51562 53.8281 2.60938
Q55.0312 3.71875 55.9375 5.32812
Q56.8438 6.9375 57.0781 6.98438
L58.2969 6.98438
Q59.0781 6.98438 59.0781 6
Q59.0781 3.51562 56.2188 1.1875
Q53.375 -1.125 50.5938 -1.125
Q46.9688 -1.125 44.5781 1.21875
Q42.1875 3.5625 41.3125 7.32812
Q36.625 3.32812 31.1562 1.09375
Q25.6875 -1.125 20.125 -1.125
M20.3125 1.51562
Q31 1.51562 40.8281 10.2969
Q40.7656 10.8906 40.6719 11.7344
Q40.5781 12.5938 40.5781 12.7031
L40.5781 23.4844
Q40.5781 41.6094 30.8125 41.6094
Q24.9531 41.6094 20.5469 36.5938
Q16.1562 31.5938 13.9375 24.625
Q11.7188 17.6719 11.7188 11.9219
Q11.7188 7.5625 13.9375 4.53125
Q16.1562 1.51562 20.3125 1.51562" id="Cmmi10-ae"/>
     <path d="
M8.6875 11.375
Q9.71875 8.45312 11.8438 6.04688
Q13.9688 3.65625 16.875 2.3125
Q19.7812 0.984375 22.9062 0.984375
Q30.125 0.984375 32.8594 6.59375
Q35.5938 12.2031 35.5938 20.2188
Q35.5938 23.6875 35.4688 26.0469
Q35.3594 28.4219 34.8125 30.6094
Q33.8906 34.125 31.5625 36.7656
Q29.25 39.4062 25.875 39.4062
Q22.5156 39.4062 20.0938 38.375
Q17.6719 37.3594 16.1562 35.9844
Q14.6562 34.625 13.4844 33.1094
Q12.3125 31.5938 12.0156 31.5
L10.8906 31.5
Q10.6406 31.5 10.2656 31.8125
Q9.90625 32.125 9.90625 32.4219
L9.90625 65.8281
Q9.90625 66.0625 10.2188 66.3281
Q10.5469 66.6094 10.8906 66.6094
L11.1875 66.6094
Q17.9219 63.375 25.4844 63.375
Q32.9062 63.375 39.7969 66.6094
L40.0938 66.6094
Q40.4375 66.6094 40.7188 66.3594
Q41.0156 66.1094 41.0156 65.8281
L41.0156 64.8906
Q41.0156 64.4062 40.8281 64.4062
Q37.4062 59.8594 32.25 57.3125
Q27.0938 54.7812 21.5781 54.7812
Q17.5781 54.7812 13.375 55.9062
L13.375 37.0156
Q16.7031 39.7031 19.3125 40.8438
Q21.9219 42 25.9844 42
Q31.5 42 35.8594 38.8125
Q40.2344 35.6406 42.5781 30.5312
Q44.9219 25.4375 44.9219 20.125
Q44.9219 14.1094 41.9688 8.98438
Q39.0156 3.85938 33.9375 0.828125
Q28.8594 -2.20312 22.9062 -2.20312
Q17.9688 -2.20312 13.8438 0.328125
Q9.71875 2.875 7.34375 7.17188
Q4.98438 11.4688 4.98438 16.3125
Q4.98438 18.5625 6.4375 19.9688
Q7.90625 21.3906 10.1094 21.3906
Q12.3125 21.3906 13.7969 19.9375
Q15.2812 18.5 15.2812 16.3125
Q15.2812 14.1562 13.7969 12.6719
Q12.3125 11.1875 10.1094 11.1875
Q9.76562 11.1875 9.32812 11.25
Q8.89062 11.3281 8.6875 11.375" id="Cmr10-35"/>
    </defs>
    <g transform="translate(479.26125 283.5435)scale(0.12 -0.12)">
     <use transform="translate(0.0 3.390625)" xlink:href="#Cmmi10-ae"/>
     <use transform="translate(81.474609375 3.390625)" xlink:href="#Cmr10-3d"/>
     <use transform="translate(165.533203125 3.390625)" xlink:href="#Cmr10-30"/>
     <use transform="translate(215.533203125 3.390625)" xlink:href="#Cmmi10-3a"/>
     <use transform="translate(244.076171875 3.390625)" xlink:href="#Cmr10-30"/>
     <use transform="translate(294.076171875 3.390625)" xlink:href="#Cmr10-30"/>
     <use transform="translate(344.076171875 3.390625)" xlink:href="#Cmr10-35"/>
    </g>
    <!-- $\rho_0=\vert z; -\rangle$ -->
    <defs>
     <path d="
M4.89062 -1.125
Q4.10938 -1.125 4.10938 -0.203125
Q4.10938 0.296875 4.29688 0.484375
Q6.98438 5.125 10.7656 9.34375
Q14.5469 13.5781 19.3594 17.8906
Q24.1719 22.2188 29.0312 26.5625
Q33.8906 30.9062 36.9219 34.2812
L36.5312 34.2812
Q34.3281 34.2812 30.0781 35.6875
Q25.8281 37.1094 23.3906 37.1094
Q20.75 37.1094 18.25 35.9531
Q15.7656 34.8125 15.0938 32.4219
Q14.9375 31.6875 14.3125 31.6875
L13.0938 31.6875
Q12.3125 31.6875 12.3125 32.7188
L12.3125 33.0156
Q13.0938 35.9375 14.875 38.4688
Q16.6562 41.0156 19.2656 42.5938
Q21.875 44.1875 24.7031 44.1875
Q26.7031 44.1875 28.0156 43.2812
Q29.3438 42.3906 31.0938 40.4844
Q32.8594 38.5781 33.9531 37.75
Q35.0625 36.9219 36.7188 36.9219
Q38.9219 36.9219 40.6562 38.9219
Q42.3906 40.9219 44.0938 43.8906
Q44.3906 44.1875 44.8281 44.1875
L46 44.1875
Q46.3438 44.1875 46.5625 43.9375
Q46.7812 43.7031 46.7812 43.3125
Q46.7812 42.9688 46.5781 42.6719
Q43.8906 38.0312 40.2969 34
Q36.7188 29.9844 30.9219 24.7812
Q25.1406 19.5781 21.1562 15.9844
Q17.1875 12.4062 13.7188 8.59375
Q14.5 8.79688 15.8281 8.79688
Q18.2656 8.79688 22.4844 7.39062
Q26.7031 6 29 6
Q31.5 6 34.0312 7.07812
Q36.5781 8.15625 38.4219 10.1094
Q40.2812 12.0625 40.9219 14.5938
Q41.1562 15.2812 41.7031 15.2812
L42.9219 15.2812
Q43.3125 15.2812 43.5469 14.9688
Q43.7969 14.6562 43.7969 14.3125
Q43.7969 14.2031 43.7031 14.0156
Q42.7812 10.2031 40.4844 6.76562
Q38.1875 3.32812 34.8438 1.09375
Q31.5 -1.125 27.6875 -1.125
Q25.7812 -1.125 24.4531 -0.234375
Q23.1406 0.640625 21.3594 2.5625
Q19.5781 4.5 18.4531 5.34375
Q17.3281 6.20312 15.7188 6.20312
Q10.75 6.20312 6.78125 -0.78125
Q6.45312 -1.125 6.10938 -1.125
z
" id="Cmmi10-7a"/>
     <path d="
M7.8125 -114.016
Q7.8125 -113.484 8.01562 -113.281
L33.1094 -56
L8.01562 1.3125
Q7.8125 1.51562 7.8125 2
Q7.8125 2.73438 8.39062 3.35938
Q8.98438 4 9.8125 4
Q10.9844 4 11.7188 2.78125
L37.2031 -55.3281
Q37.3125 -55.5156 37.3125 -56
Q37.3125 -56.5 37.2031 -56.7812
L11.7188 -114.797
Q10.9375 -116.016 9.8125 -116.016
Q8.98438 -116.016 8.39062 -115.375
Q7.8125 -114.75 7.8125 -114.016" id="Cmex10-ae"/>
     <path d="
M2.78125 -18.7969
Q2.78125 -18.2188 2.875 -18.0156
L12.7969 21.9219
Q14.2031 27.2969 17.6406 32.4375
Q21.0938 37.5938 25.9688 40.8906
Q30.8594 44.1875 36.2812 44.1875
Q40.625 44.1875 43.875 41.9219
Q47.125 39.6562 48.75 35.9688
Q50.3906 32.2812 50.3906 27.875
Q50.3906 23.0469 48.4062 17.875
Q46.4375 12.7031 42.9375 8.40625
Q39.4531 4.10938 34.9062 1.48438
Q30.375 -1.125 25.3906 -1.125
Q22.4688 -1.125 19.875 0.609375
Q17.2812 2.34375 15.8281 5.17188
L9.90625 -18.4062
Q9.625 -19.8281 8.45312 -20.7031
Q7.28125 -21.5781 5.8125 -21.5781
Q4.59375 -21.5781 3.6875 -20.8125
Q2.78125 -20.0625 2.78125 -18.7969
M25.5938 1.51562
Q30.9062 1.51562 34.8281 6.95312
Q38.7656 12.4062 40.8438 19.75
Q42.9219 27.0938 42.9219 32.1719
Q42.9219 35.9844 41.25 38.7969
Q39.5938 41.6094 36.0781 41.6094
Q31.7344 41.6094 28.4062 38.3125
Q25.0938 35.0156 23.0938 30.5625
Q21.0938 26.125 19.8281 21.2969
L17.0938 10.1094
Q17.7188 6.5 19.9375 4
Q22.1719 1.51562 25.5938 1.51562" id="Cmmi10-bd"/>
     <path d="
M9.90625 -18.0156
Q9.90625 -17.5781 10.1094 -17.3906
Q17.0938 -9.8125 17.0938 0.390625
L17.0938 0.875
Q15.625 0 13.9219 0
Q11.625 0 10.0156 1.60938
Q8.40625 3.21875 8.40625 5.51562
Q8.40625 7.85938 10.0156 9.42188
Q11.625 10.9844 13.9219 10.9844
Q17.3906 10.9844 18.5312 7.78125
Q19.6719 4.59375 19.6719 0.390625
Q19.6719 -3.125 18.8125 -6.54688
Q17.9688 -9.96875 16.2344 -13.2344
Q14.5 -16.5 12.1094 -19.0938
Q11.8125 -19.3906 11.375 -19.3906
Q10.8906 -19.3906 10.3906 -18.9375
Q9.90625 -18.5 9.90625 -18.0156
M8.40625 37.5938
Q8.40625 39.0156 9.125 40.2812
Q9.85938 41.5469 11.1562 42.3281
Q12.4531 43.1094 13.9219 43.1094
Q15.3281 43.1094 16.625 42.3281
Q17.9219 41.5469 18.6562 40.2812
Q19.3906 39.0156 19.3906 37.5938
Q19.3906 35.3594 17.7969 33.7188
Q16.2188 32.0781 13.9219 32.0781
Q11.6719 32.0781 10.0312 33.7188
Q8.40625 35.3594 8.40625 37.5938" id="Cmr10-3b"/>
     <path d="
M11.9219 -23.1875
L11.9219 73.1875
Q11.9219 73.9688 12.5 74.4844
Q13.0938 75 13.9219 75
Q14.6562 75 15.2812 74.4844
Q15.9219 73.9688 15.9219 73.1875
L15.9219 -23.1875
Q15.9219 -23.9688 15.2812 -24.4844
Q14.6562 -25 13.9219 -25
Q13.0938 -25 12.5 -24.4844
Q11.9219 -23.9688 11.9219 -23.1875" id="Cmsy10-6a"/>
     <path d="
M10.2031 23
Q9.375 23 8.82812 23.625
Q8.29688 24.2656 8.29688 25
Q8.29688 25.7344 8.82812 26.3594
Q9.375 27 10.2031 27
L67.5781 27
Q68.3594 27 68.875 26.3594
Q69.3906 25.7344 69.3906 25
Q69.3906 24.2656 68.875 23.625
Q68.3594 23 67.5781 23
z
" id="Cmsy10-a1"/>
    </defs>
    <g transform="translate(479.26125 303.121875)scale(0.12 -0.12)">
     <use transform="translate(0.0 28.6588541667)" xlink:href="#Cmmi10-bd"/>
     <use transform="translate(51.708984375 3.14947916667)scale(0.7)" xlink:href="#Cmr10-30"/>
     <use transform="translate(119.267578125 28.6588541667)" xlink:href="#Cmr10-3d"/>
     <use transform="translate(203.326171875 28.6588541667)" xlink:href="#Cmsy10-6a"/>
     <use transform="translate(231.01171875 28.6588541667)" xlink:href="#Cmmi10-7a"/>
     <use transform="translate(277.49609375 28.6588541667)" xlink:href="#Cmr10-3b"/>
     <use transform="translate(306.3203125 28.6588541667)" xlink:href="#Cmsy10-a1"/>
     <use transform="translate(384.005859375 122.0)" xlink:href="#Cmex10-ae"/>
    </g>
   </g>
   <g id="legend_1">
    <g id="patch_8">
     <path d="
M337.163 466.488
L577.244 466.488
L577.244 419.895
L337.163 419.895
L337.163 466.488
z
" style="fill:#ffffff;stroke:#000000;"/>
    </g>
    <g id="line2d_48">
     <path d="
M347.243 431.557
L367.403 431.557" style="fill:none;stroke:#ff0000;"/>
    </g>
    <g id="line2d_49"/>
    <g id="text_19">
     <!-- Redfield dynamics current -->
     <defs>
      <path id="BitstreamVeraSans-Roman-20"/>
      <path d="
M8.5 21.5781
L8.5 54.6875
L17.4844 54.6875
L17.4844 21.9219
Q17.4844 14.1562 20.5 10.2656
Q23.5312 6.39062 29.5938 6.39062
Q36.8594 6.39062 41.0781 11.0312
Q45.3125 15.6719 45.3125 23.6875
L45.3125 54.6875
L54.2969 54.6875
L54.2969 0
L45.3125 0
L45.3125 8.40625
Q42.0469 3.42188 37.7188 1
Q33.4062 -1.42188 27.6875 -1.42188
Q18.2656 -1.42188 13.375 4.4375
Q8.5 10.2969 8.5 21.5781" id="BitstreamVeraSans-Roman-75"/>
      <path d="
M54.8906 33.0156
L54.8906 0
L45.9062 0
L45.9062 32.7188
Q45.9062 40.4844 42.875 44.3281
Q39.8438 48.1875 33.7969 48.1875
Q26.5156 48.1875 22.3125 43.5469
Q18.1094 38.9219 18.1094 30.9062
L18.1094 0
L9.07812 0
L9.07812 54.6875
L18.1094 54.6875
L18.1094 46.1875
Q21.3438 51.125 25.7031 53.5625
Q30.0781 56 35.7969 56
Q45.2188 56 50.0469 50.1719
Q54.8906 44.3438 54.8906 33.0156" id="BitstreamVeraSans-Roman-6e"/>
      <path d="
M52 44.1875
Q55.375 50.25 60.0625 53.125
Q64.75 56 71.0938 56
Q79.6406 56 84.2812 50.0156
Q88.9219 44.0469 88.9219 33.0156
L88.9219 0
L79.8906 0
L79.8906 32.7188
Q79.8906 40.5781 77.0938 44.375
Q74.3125 48.1875 68.6094 48.1875
Q61.625 48.1875 57.5625 43.5469
Q53.5156 38.9219 53.5156 30.9062
L53.5156 0
L44.4844 0
L44.4844 32.7188
Q44.4844 40.625 41.7031 44.4062
Q38.9219 48.1875 33.1094 48.1875
Q26.2188 48.1875 22.1562 43.5312
Q18.1094 38.875 18.1094 30.9062
L18.1094 0
L9.07812 0
L9.07812 54.6875
L18.1094 54.6875
L18.1094 46.1875
Q21.1875 51.2188 25.4844 53.6094
Q29.7812 56 35.6875 56
Q41.6562 56 45.8281 52.9688
Q50 49.9531 52 44.1875" id="BitstreamVeraSans-Roman-6d"/>
      <path d="
M9.42188 75.9844
L18.4062 75.9844
L18.4062 0
L9.42188 0
z
" id="BitstreamVeraSans-Roman-6c"/>
      <path d="
M44.3906 34.1875
Q47.5625 33.1094 50.5625 29.5938
Q53.5625 26.0781 56.5938 19.9219
L66.6094 0
L56 0
L46.6875 18.7031
Q43.0625 26.0312 39.6719 28.4219
Q36.2812 30.8125 30.4219 30.8125
L19.6719 30.8125
L19.6719 0
L9.8125 0
L9.8125 72.9062
L32.0781 72.9062
Q44.5781 72.9062 50.7344 67.6719
Q56.8906 62.4531 56.8906 51.9062
Q56.8906 45.0156 53.6875 40.4688
Q50.4844 35.9375 44.3906 34.1875
M19.6719 64.7969
L19.6719 38.9219
L32.0781 38.9219
Q39.2031 38.9219 42.8438 42.2188
Q46.4844 45.5156 46.4844 51.9062
Q46.4844 58.2969 42.8438 61.5469
Q39.2031 64.7969 32.0781 64.7969
z
" id="BitstreamVeraSans-Roman-52"/>
      <path d="
M9.42188 54.6875
L18.4062 54.6875
L18.4062 0
L9.42188 0
z

M9.42188 75.9844
L18.4062 75.9844
L18.4062 64.5938
L9.42188 64.5938
z
" id="BitstreamVeraSans-Roman-69"/>
      <path d="
M41.1094 46.2969
Q39.5938 47.1719 37.8125 47.5781
Q36.0312 48 33.8906 48
Q26.2656 48 22.1875 43.0469
Q18.1094 38.0938 18.1094 28.8125
L18.1094 0
L9.07812 0
L9.07812 54.6875
L18.1094 54.6875
L18.1094 46.1875
Q20.9531 51.1719 25.4844 53.5781
Q30.0312 56 36.5312 56
Q37.4531 56 38.5781 55.875
Q39.7031 55.7656 41.0625 55.5156
z
" id="BitstreamVeraSans-Roman-72"/>
      <path d="
M32.1719 -5.07812
Q28.375 -14.8438 24.75 -17.8125
Q21.1406 -20.7969 15.0938 -20.7969
L7.90625 -20.7969
L7.90625 -13.2812
L13.1875 -13.2812
Q16.8906 -13.2812 18.9375 -11.5156
Q21 -9.76562 23.4844 -3.21875
L25.0938 0.875
L2.98438 54.6875
L12.5 54.6875
L29.5938 11.9219
L46.6875 54.6875
L56.2031 54.6875
z
" id="BitstreamVeraSans-Roman-79"/>
      <path d="
M56.2031 29.5938
L56.2031 25.2031
L14.8906 25.2031
Q15.4844 15.9219 20.4844 11.0625
Q25.4844 6.20312 34.4219 6.20312
Q39.5938 6.20312 44.4531 7.46875
Q49.3125 8.73438 54.1094 11.2812
L54.1094 2.78125
Q49.2656 0.734375 44.1875 -0.34375
Q39.1094 -1.42188 33.8906 -1.42188
Q20.7969 -1.42188 13.1562 6.1875
Q5.51562 13.8125 5.51562 26.8125
Q5.51562 40.2344 12.7656 48.1094
Q20.0156 56 32.3281 56
Q43.3594 56 49.7812 48.8906
Q56.2031 41.7969 56.2031 29.5938
M47.2188 32.2344
Q47.125 39.5938 43.0938 43.9844
Q39.0625 48.3906 32.4219 48.3906
Q24.9062 48.3906 20.3906 44.1406
Q15.875 39.8906 15.1875 32.1719
z
" id="BitstreamVeraSans-Roman-65"/>
      <path d="
M45.4062 46.3906
L45.4062 75.9844
L54.3906 75.9844
L54.3906 0
L45.4062 0
L45.4062 8.20312
Q42.5781 3.32812 38.25 0.953125
Q33.9375 -1.42188 27.875 -1.42188
Q17.9688 -1.42188 11.7344 6.48438
Q5.51562 14.4062 5.51562 27.2969
Q5.51562 40.1875 11.7344 48.0938
Q17.9688 56 27.875 56
Q33.9375 56 38.25 53.625
Q42.5781 51.2656 45.4062 46.3906
M14.7969 27.2969
Q14.7969 17.3906 18.875 11.75
Q22.9531 6.10938 30.0781 6.10938
Q37.2031 6.10938 41.2969 11.75
Q45.4062 17.3906 45.4062 27.2969
Q45.4062 37.2031 41.2969 42.8438
Q37.2031 48.4844 30.0781 48.4844
Q22.9531 48.4844 18.875 42.8438
Q14.7969 37.2031 14.7969 27.2969" id="BitstreamVeraSans-Roman-64"/>
      <path d="
M18.3125 70.2188
L18.3125 54.6875
L36.8125 54.6875
L36.8125 47.7031
L18.3125 47.7031
L18.3125 18.0156
Q18.3125 11.3281 20.1406 9.42188
Q21.9688 7.51562 27.5938 7.51562
L36.8125 7.51562
L36.8125 0
L27.5938 0
Q17.1875 0 13.2344 3.875
Q9.28125 7.76562 9.28125 18.0156
L9.28125 47.7031
L2.6875 47.7031
L2.6875 54.6875
L9.28125 54.6875
L9.28125 70.2188
z
" id="BitstreamVeraSans-Roman-74"/>
      <path d="
M37.1094 75.9844
L37.1094 68.5
L28.5156 68.5
Q23.6875 68.5 21.7969 66.5469
Q19.9219 64.5938 19.9219 59.5156
L19.9219 54.6875
L34.7188 54.6875
L34.7188 47.7031
L19.9219 47.7031
L19.9219 0
L10.8906 0
L10.8906 47.7031
L2.29688 47.7031
L2.29688 54.6875
L10.8906 54.6875
L10.8906 58.5
Q10.8906 67.625 15.1406 71.7969
Q19.3906 75.9844 28.6094 75.9844
z
" id="BitstreamVeraSans-Roman-66"/>
      <path d="
M34.2812 27.4844
Q23.3906 27.4844 19.1875 25
Q14.9844 22.5156 14.9844 16.5
Q14.9844 11.7188 18.1406 8.90625
Q21.2969 6.10938 26.7031 6.10938
Q34.1875 6.10938 38.7031 11.4062
Q43.2188 16.7031 43.2188 25.4844
L43.2188 27.4844
z

M52.2031 31.2031
L52.2031 0
L43.2188 0
L43.2188 8.29688
Q40.1406 3.32812 35.5469 0.953125
Q30.9531 -1.42188 24.3125 -1.42188
Q15.9219 -1.42188 10.9531 3.29688
Q6 8.01562 6 15.9219
Q6 25.1406 12.1719 29.8281
Q18.3594 34.5156 30.6094 34.5156
L43.2188 34.5156
L43.2188 35.4062
Q43.2188 41.6094 39.1406 45
Q35.0625 48.3906 27.6875 48.3906
Q23 48.3906 18.5469 47.2656
Q14.1094 46.1406 10.0156 43.8906
L10.0156 52.2031
Q14.9375 54.1094 19.5781 55.0469
Q24.2188 56 28.6094 56
Q40.4844 56 46.3438 49.8438
Q52.2031 43.7031 52.2031 31.2031" id="BitstreamVeraSans-Roman-61"/>
      <path d="
M44.2812 53.0781
L44.2812 44.5781
Q40.4844 46.5312 36.375 47.5
Q32.2812 48.4844 27.875 48.4844
Q21.1875 48.4844 17.8438 46.4375
Q14.5 44.3906 14.5 40.2812
Q14.5 37.1562 16.8906 35.375
Q19.2812 33.5938 26.5156 31.9844
L29.5938 31.2969
Q39.1562 29.25 43.1875 25.5156
Q47.2188 21.7812 47.2188 15.0938
Q47.2188 7.46875 41.1875 3.01562
Q35.1562 -1.42188 24.6094 -1.42188
Q20.2188 -1.42188 15.4531 -0.5625
Q10.6875 0.296875 5.42188 2
L5.42188 11.2812
Q10.4062 8.6875 15.2344 7.39062
Q20.0625 6.10938 24.8125 6.10938
Q31.1562 6.10938 34.5625 8.28125
Q37.9844 10.4531 37.9844 14.4062
Q37.9844 18.0625 35.5156 20.0156
Q33.0625 21.9688 24.7031 23.7812
L21.5781 24.5156
Q13.2344 26.2656 9.51562 29.9062
Q5.8125 33.5469 5.8125 39.8906
Q5.8125 47.6094 11.2812 51.7969
Q16.75 56 26.8125 56
Q31.7812 56 36.1719 55.2656
Q40.5781 54.5469 44.2812 53.0781" id="BitstreamVeraSans-Roman-73"/>
      <path d="
M48.7812 52.5938
L48.7812 44.1875
Q44.9688 46.2969 41.1406 47.3438
Q37.3125 48.3906 33.4062 48.3906
Q24.6562 48.3906 19.8125 42.8438
Q14.9844 37.3125 14.9844 27.2969
Q14.9844 17.2812 19.8125 11.7344
Q24.6562 6.20312 33.4062 6.20312
Q37.3125 6.20312 41.1406 7.25
Q44.9688 8.29688 48.7812 10.4062
L48.7812 2.09375
Q45.0156 0.34375 40.9844 -0.53125
Q36.9688 -1.42188 32.4219 -1.42188
Q20.0625 -1.42188 12.7812 6.34375
Q5.51562 14.1094 5.51562 27.2969
Q5.51562 40.6719 12.8594 48.3281
Q20.2188 56 33.0156 56
Q37.1562 56 41.1094 55.1406
Q45.0625 54.2969 48.7812 52.5938" id="BitstreamVeraSans-Roman-63"/>
     </defs>
     <g transform="translate(383.2425 436.59675)scale(0.144 -0.144)">
      <use xlink:href="#BitstreamVeraSans-Roman-52"/>
      <use x="64.982421875" xlink:href="#BitstreamVeraSans-Roman-65"/>
      <use x="126.505859375" xlink:href="#BitstreamVeraSans-Roman-64"/>
      <use x="189.982421875" xlink:href="#BitstreamVeraSans-Roman-66"/>
      <use x="225.1875" xlink:href="#BitstreamVeraSans-Roman-69"/>
      <use x="252.970703125" xlink:href="#BitstreamVeraSans-Roman-65"/>
      <use x="314.494140625" xlink:href="#BitstreamVeraSans-Roman-6c"/>
      <use x="342.27734375" xlink:href="#BitstreamVeraSans-Roman-64"/>
      <use x="405.75390625" xlink:href="#BitstreamVeraSans-Roman-20"/>
      <use x="437.541015625" xlink:href="#BitstreamVeraSans-Roman-64"/>
      <use x="501.017578125" xlink:href="#BitstreamVeraSans-Roman-79"/>
      <use x="560.197265625" xlink:href="#BitstreamVeraSans-Roman-6e"/>
      <use x="623.576171875" xlink:href="#BitstreamVeraSans-Roman-61"/>
      <use x="684.85546875" xlink:href="#BitstreamVeraSans-Roman-6d"/>
      <use x="782.267578125" xlink:href="#BitstreamVeraSans-Roman-69"/>
      <use x="810.05078125" xlink:href="#BitstreamVeraSans-Roman-63"/>
      <use x="865.03125" xlink:href="#BitstreamVeraSans-Roman-73"/>
      <use x="917.130859375" xlink:href="#BitstreamVeraSans-Roman-20"/>
      <use x="948.91796875" xlink:href="#BitstreamVeraSans-Roman-63"/>
      <use x="1003.8984375" xlink:href="#BitstreamVeraSans-Roman-75"/>
      <use x="1067.27734375" xlink:href="#BitstreamVeraSans-Roman-72"/>
      <use x="1106.640625" xlink:href="#BitstreamVeraSans-Roman-72"/>
      <use x="1145.50390625" xlink:href="#BitstreamVeraSans-Roman-65"/>
      <use x="1207.02734375" xlink:href="#BitstreamVeraSans-Roman-6e"/>
      <use x="1270.40625" xlink:href="#BitstreamVeraSans-Roman-74"/>
     </g>
    </g>
    <g id="line2d_50">
     <path d="
M347.243 452.693
L367.403 452.693" style="fill:none;stroke:#008000;"/>
    </g>
    <g id="line2d_51"/>
    <g id="text_20">
     <!-- CP dynamics current -->
     <defs>
      <path d="
M19.6719 64.7969
L19.6719 37.4062
L32.0781 37.4062
Q38.9688 37.4062 42.7188 40.9688
Q46.4844 44.5312 46.4844 51.125
Q46.4844 57.6719 42.7188 61.2344
Q38.9688 64.7969 32.0781 64.7969
z

M9.8125 72.9062
L32.0781 72.9062
Q44.3438 72.9062 50.6094 67.3594
Q56.8906 61.8125 56.8906 51.125
Q56.8906 40.3281 50.6094 34.8125
Q44.3438 29.2969 32.0781 29.2969
L19.6719 29.2969
L19.6719 0
L9.8125 0
z
" id="BitstreamVeraSans-Roman-50"/>
      <path d="
M64.4062 67.2812
L64.4062 56.8906
Q59.4219 61.5312 53.7812 63.8125
Q48.1406 66.1094 41.7969 66.1094
Q29.2969 66.1094 22.6562 58.4688
Q16.0156 50.8281 16.0156 36.375
Q16.0156 21.9688 22.6562 14.3281
Q29.2969 6.6875 41.7969 6.6875
Q48.1406 6.6875 53.7812 8.98438
Q59.4219 11.2812 64.4062 15.9219
L64.4062 5.60938
Q59.2344 2.09375 53.4375 0.328125
Q47.6562 -1.42188 41.2188 -1.42188
Q24.6562 -1.42188 15.125 8.70312
Q5.60938 18.8438 5.60938 36.375
Q5.60938 53.9531 15.125 64.0781
Q24.6562 74.2188 41.2188 74.2188
Q47.75 74.2188 53.5312 72.4844
Q59.3281 70.75 64.4062 67.2812" id="BitstreamVeraSans-Roman-43"/>
     </defs>
     <g transform="translate(383.2425 457.73325)scale(0.144 -0.144)">
      <use xlink:href="#BitstreamVeraSans-Roman-43"/>
      <use x="69.82421875" xlink:href="#BitstreamVeraSans-Roman-50"/>
      <use x="130.126953125" xlink:href="#BitstreamVeraSans-Roman-20"/>
      <use x="161.9140625" xlink:href="#BitstreamVeraSans-Roman-64"/>
      <use x="225.390625" xlink:href="#BitstreamVeraSans-Roman-79"/>
      <use x="284.5703125" xlink:href="#BitstreamVeraSans-Roman-6e"/>
      <use x="347.94921875" xlink:href="#BitstreamVeraSans-Roman-61"/>
      <use x="409.228515625" xlink:href="#BitstreamVeraSans-Roman-6d"/>
      <use x="506.640625" xlink:href="#BitstreamVeraSans-Roman-69"/>
      <use x="534.423828125" xlink:href="#BitstreamVeraSans-Roman-63"/>
      <use x="589.404296875" xlink:href="#BitstreamVeraSans-Roman-73"/>
      <use x="641.50390625" xlink:href="#BitstreamVeraSans-Roman-20"/>
      <use x="673.291015625" xlink:href="#BitstreamVeraSans-Roman-63"/>
      <use x="728.271484375" xlink:href="#BitstreamVeraSans-Roman-75"/>
      <use x="791.650390625" xlink:href="#BitstreamVeraSans-Roman-72"/>
      <use x="831.013671875" xlink:href="#BitstreamVeraSans-Roman-72"/>
      <use x="869.876953125" xlink:href="#BitstreamVeraSans-Roman-65"/>
      <use x="931.400390625" xlink:href="#BitstreamVeraSans-Roman-6e"/>
      <use x="994.779296875" xlink:href="#BitstreamVeraSans-Roman-74"/>
     </g>
    </g>
   </g>
  </g>
 </g>
 <defs>
  <clipPath id="pdd7e38923c">
   <rect height="440.64" width="525.915" x="84.825" y="55.08"/>
  </clipPath>
 </defs>
</svg>
