<?xml version="1.0" encoding="utf-8" standalone="no"?>
<!DOCTYPE svg PUBLIC "-//W3C//DTD SVG 1.1//EN"
  "http://www.w3.org/Graphics/SVG/1.1/DTD/svg11.dtd">
<!-- Created with matplotlib (http://matplotlib.sourceforge.net/) -->
<svg height="468pt" version="1.1" viewBox="0 0 666 468" width="666pt" xmlns="http://www.w3.org/2000/svg" xmlns:xlink="http://www.w3.org/1999/xlink">
 <defs>
  <style type="text/css">
*{stroke-linecap:square;stroke-linejoin:round;}
  </style>
 </defs>
 <g id="figure_1">
  <g id="patch_1">
   <path d="
M0 468.9
L666.9 468.9
L666.9 0
L0 0
z
" style="fill:#ffffff;"/>
  </g>
  <g id="axes_1">
   <g id="patch_2">
    <path d="
M83.3625 422.01
L600.21 422.01
L600.21 46.89
L83.3625 46.89
z
" style="fill:#ffffff;"/>
   </g>
   <g id="line2d_1">
    <path clip-path="url(#pab632540b7)" d="
M83.3625 50.3741
L600.193 50.3741
L600.193 50.3741" style="fill:none;stroke:#008000;stroke-dasharray:6.000000,6.000000;stroke-dashoffset:0.0;stroke-linecap:butt;"/>
   </g>
   <g id="line2d_2">
    <path clip-path="url(#pab632540b7)" d="
M83.3625 60.7614
L600.193 60.7614
L600.193 60.7614" style="fill:none;stroke:#ff0000;stroke-dasharray:6.000000,6.000000;stroke-dashoffset:0.0;stroke-linecap:butt;"/>
   </g>
   <g id="line2d_3">
    <path clip-path="url(#pab632540b7)" d="
M83.3625 359.525
L83.9999 356.971
L84.4651 355.883
L84.8269 355.526
L85.1026 355.539
L85.3954 355.809
L85.7745 356.513
L86.3085 358.052
L87.3422 361.911
L88.1864 364.652
L88.686 365.609
L89.0306 365.871
L89.3062 365.819
L89.5991 365.499
L89.9609 364.729
L90.4261 363.164
L91.0635 360.134
L92.2006 353.382
L93.2515 347.674
L93.8717 345.391
L94.3369 344.409
L94.6815 344.114
L94.9571 344.139
L95.25 344.407
L95.629 345.085
L96.1631 346.551
L97.2829 350.491
L98.0582 352.779
L98.5406 353.61
L98.8852 353.829
L99.1608 353.757
L99.4537 353.43
L99.8327 352.626
L100.315 351.021
L100.97 347.982
L102.434 339.713
L103.278 335.757
L103.847 334.017
L104.278 333.307
L104.605 333.131
L104.881 333.22
L105.208 333.588
L105.639 334.452
L106.276 336.307
L107.947 341.4
L108.412 342.098
L108.757 342.263
L109.033 342.159
L109.343 341.784
L109.739 340.912
L110.256 339.161
L110.962 335.885
L113.254 324.603
L113.788 323.22
L114.201 322.682
L114.511 322.589
L114.804 322.736
L115.166 323.207
L115.648 324.25
L116.424 326.555
L117.612 330.005
L118.129 330.885
L118.508 331.144
L118.801 331.091
L119.111 330.785
L119.49 330.061
L119.973 328.618
L120.627 325.888
L122.04 318.699
L122.919 314.929
L123.504 313.284
L123.952 312.61
L124.297 312.449
L124.59 312.55
L124.934 312.926
L125.399 313.811
L126.106 315.719
L127.484 319.492
L128.001 320.276
L128.363 320.478
L128.656 320.407
L128.983 320.07
L129.379 319.301
L129.896 317.747
L130.602 314.822
L132.945 304.466
L133.479 303.246
L133.893 302.779
L134.22 302.709
L134.53 302.876
L134.909 303.358
L135.426 304.417
L136.357 306.95
L137.287 309.256
L137.804 310.017
L138.183 310.229
L138.493 310.156
L138.82 309.829
L139.216 309.091
L139.733 307.608
L140.44 304.826
L142.783 295.005
L143.317 293.849
L143.73 293.406
L144.058 293.338
L144.385 293.509
L144.781 294.001
L145.315 295.063
L146.401 297.868
L147.21 299.639
L147.71 300.254
L148.072 300.39
L148.382 300.277
L148.726 299.895
L149.157 299.045
L149.708 297.41
L150.501 294.269
L152.379 286.594
L152.982 285.101
L153.447 284.477
L153.809 284.323
L154.136 284.425
L154.515 284.804
L155.015 285.659
L155.842 287.605
L156.944 290.078
L157.461 290.75
L157.84 290.935
L158.168 290.856
L158.512 290.524
L158.943 289.756
L159.494 288.248
L160.269 285.377
L162.268 277.668
L162.854 276.341
L163.302 275.795
L163.663 275.661
L164.008 275.778
L164.404 276.18
L164.938 277.086
L165.903 279.275
L166.816 281.121
L167.333 281.718
L167.712 281.859
L168.039 281.754
L168.401 281.385
L168.849 280.566
L169.418 279.01
L170.245 276.01
L171.985 269.571
L172.605 268.125
L173.087 267.501
L173.466 267.335
L173.811 267.422
L174.207 267.777
L174.724 268.576
L175.603 270.427
L176.619 272.41
L177.153 273.003
L177.549 273.139
L177.894 273.022
L178.273 272.628
L178.738 271.778
L179.324 270.197
L180.22 267.037
L181.753 261.641
L182.408 260.139
L182.89 259.516
L183.286 259.33
L183.648 259.41
L184.044 259.744
L184.578 260.525
L185.509 262.379
L186.456 264.094
L186.99 264.644
L187.387 264.765
L187.731 264.646
L188.11 264.266
L188.575 263.452
L189.178 261.895
L190.092 258.819
L191.573 253.871
L192.228 252.43
L192.727 251.811
L193.124 251.633
L193.485 251.707
L193.899 252.039
L194.433 252.784
L195.415 254.632
L196.311 256.128
L196.845 256.625
L197.241 256.72
L197.603 256.579
L197.999 256.166
L198.482 255.312
L199.119 253.674
L200.153 250.28
L201.393 246.401
L202.048 245.019
L202.548 244.416
L202.961 244.234
L203.34 244.31
L203.771 244.649
L204.339 245.423
L206.596 248.863
L207.01 248.998
L207.389 248.887
L207.785 248.522
L208.267 247.743
L208.888 246.269
L209.852 243.305
L211.231 239.177
L211.885 237.866
L212.402 237.282
L212.816 237.118
L213.195 237.198
L213.625 237.526
L214.211 238.288
L216.382 241.427
L216.813 241.578
L217.192 241.486
L217.605 241.135
L218.087 240.401
L218.708 239.01
L219.672 236.202
L221.068 232.233
L221.74 230.965
L222.257 230.424
L222.67 230.278
L223.066 230.369
L223.532 230.729
L224.152 231.529
L226.064 234.212
L226.546 234.443
L226.943 234.399
L227.356 234.111
L227.821 233.494
L228.424 232.281
L229.286 229.978
L230.974 225.411
L231.629 224.289
L232.128 223.822
L232.559 223.703
L232.973 223.823
L233.455 224.212
L234.127 225.076
L235.764 227.282
L236.28 227.58
L236.694 227.581
L237.107 227.351
L237.573 226.813
L238.141 225.788
L238.934 223.853
L240.949 218.738
L241.57 217.821
L242.069 217.446
L242.5 217.39
L242.931 217.563
L243.465 218.04
L244.292 219.132
L245.463 220.618
L246.014 220.98
L246.462 221.022
L246.876 220.834
L247.341 220.359
L247.91 219.424
L248.685 217.666
L250.873 212.446
L251.476 211.656
L251.958 211.349
L252.389 211.321
L252.837 211.518
L253.405 212.034
L254.405 213.318
L255.335 214.369
L255.886 214.685
L256.334 214.699
L256.765 214.485
L257.247 213.976
L257.833 213.01
L258.66 211.167
L260.572 206.775
L261.21 205.897
L261.727 205.531
L262.175 205.471
L262.64 205.641
L263.208 206.111
L264.173 207.266
L265.155 208.321
L265.724 208.626
L266.189 208.629
L266.637 208.398
L267.136 207.869
L267.756 206.853
L268.652 204.898
L270.306 201.267
L270.978 200.33
L271.512 199.934
L271.977 199.851
L272.443 199.994
L273.011 200.422
L273.941 201.458
L274.975 202.513
L275.544 202.802
L276.009 202.807
L276.457 202.591
L276.956 202.092
L277.577 201.133
L278.472 199.282
L280.144 195.798
L280.815 194.909
L281.35 194.532
L281.832 194.453
L282.314 194.603
L282.9 195.033
L283.951 196.149
L284.864 196.981
L285.433 197.223
L285.915 197.192
L286.38 196.936
L286.914 196.37
L287.586 195.3
L288.672 193.071
L289.929 190.623
L290.618 189.731
L291.17 189.347
L291.652 189.262
L292.152 189.403
L292.755 189.821
L293.892 190.957
L294.753 191.661
L295.322 191.859
L295.804 191.8
L296.286 191.514
L296.838 190.916
L297.544 189.793
L298.922 187.057
L299.922 185.341
L300.576 184.615
L301.128 184.314
L301.627 184.288
L302.161 184.493
L302.85 185.019
L304.728 186.585
L305.28 186.703
L305.779 186.58
L306.296 186.21
L306.899 185.485
L307.726 184.099
L309.845 180.382
L310.5 179.741
L311.051 179.497
L311.568 179.512
L312.136 179.763
L312.929 180.388
L314.393 181.561
L314.996 181.743
L315.513 181.667
L316.03 181.357
L316.633 180.713
L317.408 179.527
L319.855 175.534
L320.475 175.036
L321.009 174.87
L321.543 174.936
L322.163 175.253
L323.18 176.074
L324.213 176.809
L324.816 176.981
L325.35 176.904
L325.885 176.592
L326.505 175.947
L327.315 174.747
L329.606 171.159
L330.261 170.625
L330.812 170.442
L331.363 170.494
L332.001 170.795
L333.052 171.593
L334.068 172.259
L334.688 172.409
L335.222 172.317
L335.774 171.988
L336.411 171.328
L337.272 170.079
L339.323 166.991
L340.012 166.405
L340.598 166.188
L341.166 166.22
L341.803 166.491
L342.837 167.221
L343.888 167.873
L344.526 168.016
L345.077 167.917
L345.645 167.579
L346.3 166.914
L347.213 165.629
L349.074 162.948
L349.78 162.341
L350.383 162.101
L350.952 162.11
L351.606 162.356
L352.623 163.022
L353.725 163.667
L354.38 163.797
L354.949 163.684
L355.534 163.332
L356.224 162.636
L357.206 161.284
L358.842 159.042
L359.583 158.413
L360.203 158.168
L360.789 158.171
L361.461 158.409
L362.546 159.081
L363.597 159.638
L364.252 159.742
L364.838 159.61
L365.441 159.238
L366.164 158.508
L367.267 157.025
L368.662 155.232
L369.403 154.627
L370.041 154.383
L370.644 154.387
L371.333 154.624
L372.539 155.33
L373.503 155.776
L374.158 155.844
L374.761 155.681
L375.399 155.264
L376.174 154.464
L377.707 152.456
L378.706 151.362
L379.43 150.883
L380.067 150.724
L380.705 150.797
L381.497 151.13
L383.496 152.078
L384.151 152.082
L384.771 151.858
L385.443 151.366
L386.304 150.436
L388.647 147.752
L389.353 147.345
L389.991 147.224
L390.663 147.328
L391.541 147.713
L393.178 148.459
L393.867 148.506
L394.505 148.323
L395.177 147.888
L396.021 147.053
L398.622 144.27
L399.329 143.936
L399.983 143.867
L400.707 144.026
L401.809 144.537
L402.981 145.007
L403.687 145.056
L404.342 144.876
L405.031 144.446
L405.893 143.627
L408.425 141.043
L409.149 140.708
L409.821 140.636
L410.561 140.789
L411.733 141.303
L412.853 141.706
L413.576 141.734
L414.248 141.534
L414.972 141.074
L415.902 140.193
L418.073 138.043
L418.831 137.646
L419.52 137.527
L420.261 137.632
L421.312 138.038
L422.673 138.524
L423.414 138.549
L424.103 138.347
L424.844 137.888
L425.826 136.988
L427.859 135.069
L428.651 134.662
L429.357 134.542
L430.115 134.643
L431.218 135.048
L432.527 135.473
L433.285 135.484
L433.992 135.27
L434.767 134.79
L435.818 133.847
L437.61 132.233
L438.42 131.812
L439.16 131.674
L439.936 131.762
L441.073 132.151
L442.382 132.542
L443.157 132.54
L443.881 132.315
L444.691 131.815
L445.845 130.803
L447.43 129.46
L448.257 129.048
L449.015 128.915
L449.825 129.009
L451.082 129.423
L452.271 129.73
L453.064 129.705
L453.822 129.451
L454.666 128.92
L456.044 127.736
L457.336 126.741
L458.18 126.366
L458.956 126.264
L459.817 126.388
L462.729 127.019
L463.504 126.816
L464.348 126.351
L465.554 125.393
L467.122 124.201
L467.983 123.824
L468.776 123.716
L469.654 123.83
L472.566 124.413
L473.358 124.211
L474.22 123.75
L475.512 122.764
L476.976 121.719
L477.855 121.361
L478.665 121.267
L479.578 121.392
L482.283 121.922
L483.092 121.752
L483.954 121.338
L485.177 120.469
L486.831 119.335
L487.727 118.995
L488.571 118.914
L489.536 119.056
L491.982 119.525
L492.826 119.386
L493.705 119.006
L494.894 118.218
L496.703 117.036
L497.616 116.719
L498.477 116.653
L499.511 116.814
L501.699 117.218
L502.578 117.104
L503.473 116.752
L504.645 116.026
L506.574 114.828
L507.505 114.532
L508.401 114.482
L509.52 114.665
L511.45 115
L512.363 114.901
L513.276 114.568
L514.465 113.871
L516.429 112.714
L517.377 112.433
L518.307 112.395
L519.513 112.595
L521.253 112.87
L522.183 112.776
L523.114 112.453
L524.337 111.768
L526.284 110.683
L527.248 110.417
L528.196 110.388
L529.488 110.599
L531.107 110.824
L532.072 110.719
L533.037 110.383
L534.381 109.646
L536.104 108.745
L537.103 108.482
L538.085 108.459
L539.48 108.681
L540.979 108.858
L541.961 108.743
L542.961 108.395
L544.442 107.605
L545.993 106.856
L547.009 106.616
L548.026 106.609
L549.68 106.869
L550.989 106.965
L551.988 106.81
L553.056 106.407
L556.588 104.868
L557.605 104.807
L558.966 104.975
L560.706 105.154
L561.739 105.021
L562.825 104.646
L566.546 103.133
L567.614 103.1
L569.251 103.315
L570.664 103.407
L571.714 103.247
L572.869 102.834
L576.073 101.533
L577.141 101.439
L578.485 101.564
L580.449 101.734
L581.535 101.582
L582.706 101.182
L585.928 99.9426
L587.03 99.8556
L588.478 99.991
L590.304 100.124
L591.424 99.9651
L592.664 99.5469
L595.645 98.4389
L596.782 98.3321
L598.212 98.4449
L600.176 98.5768
L600.21 98.5751
L600.21 98.5751" style="fill:none;stroke:#ff0000;"/>
   </g>
   <g id="line2d_4">
    <path clip-path="url(#pab632540b7)" d="
M83.3625 359.588
L91.7527 349.193
L100.212 339.066
L108.722 329.224
L117.285 319.661
L125.934 310.334
L134.634 301.277
L143.42 292.451
L152.276 283.87
L161.217 275.514
L170.262 267.366
L179.393 259.439
L188.627 251.717
L197.965 244.198
L207.406 236.882
L216.968 229.753
L226.633 222.825
L236.436 216.07
L246.376 209.491
L256.455 203.088
L266.688 196.849
L277.077 190.777
L287.638 184.862
L298.371 179.105
L309.277 173.509
L320.406 168.048
L331.725 162.743
L343.251 157.587
L355 152.573
L366.991 147.699
L379.258 142.953
L391.8 138.339
L404.618 133.862
L417.728 129.518
L431.184 125.295
L444.983 121.197
L459.145 117.225
L473.72 113.369
L488.674 109.645
L504.094 106.035
L519.961 102.549
L536.31 99.1855
L553.211 95.9364
L570.698 92.8022
L588.805 89.7838
L600.21 87.9939
L600.21 87.9939" style="fill:none;stroke:#008000;"/>
   </g>
   <g id="matplotlib.axis_1">
    <g id="xtick_1">
     <g id="line2d_5">
      <path clip-path="url(#pab632540b7)" d="
M83.3625 422.01
L83.3625 46.89" style="fill:none;stroke:#000000;stroke-dasharray:1.000000,3.000000;stroke-dashoffset:0.0;stroke-linecap:butt;stroke-width:0.5;"/>
     </g>
     <g id="line2d_6">
      <defs>
       <path d="
M0 0
L0 -4" id="m0012dd4eef" style="stroke:#000000;stroke-linecap:butt;stroke-width:0.5;"/>
      </defs>
      <g>
       <use style="stroke:#000000;stroke-linecap:butt;stroke-width:0.5;" x="83.3625" xlink:href="#m0012dd4eef" y="422.01"/>
      </g>
     </g>
     <g id="line2d_7">
      <defs>
       <path d="
M0 0
L0 4" id="m476344969c" style="stroke:#000000;stroke-linecap:butt;stroke-width:0.5;"/>
      </defs>
      <g>
       <use style="stroke:#000000;stroke-linecap:butt;stroke-width:0.5;" x="83.3625" xlink:href="#m476344969c" y="46.89"/>
      </g>
     </g>
     <g id="text_1">
      <!-- 0 -->
      <defs>
       <path d="
M31.7812 66.4062
Q24.1719 66.4062 20.3281 58.9062
Q16.5 51.4219 16.5 36.375
Q16.5 21.3906 20.3281 13.8906
Q24.1719 6.39062 31.7812 6.39062
Q39.4531 6.39062 43.2812 13.8906
Q47.125 21.3906 47.125 36.375
Q47.125 51.4219 43.2812 58.9062
Q39.4531 66.4062 31.7812 66.4062
M31.7812 74.2188
Q44.0469 74.2188 50.5156 64.5156
Q56.9844 54.8281 56.9844 36.375
Q56.9844 17.9688 50.5156 8.26562
Q44.0469 -1.42188 31.7812 -1.42188
Q19.5312 -1.42188 13.0625 8.26562
Q6.59375 17.9688 6.59375 36.375
Q6.59375 54.8281 13.0625 64.5156
Q19.5312 74.2188 31.7812 74.2188" id="BitstreamVeraSans-Roman-30"/>
      </defs>
      <g transform="translate(80.3390625 434.91625)scale(0.12 -0.12)">
       <use xlink:href="#BitstreamVeraSans-Roman-30"/>
      </g>
     </g>
    </g>
    <g id="xtick_2">
     <g id="line2d_8">
      <path clip-path="url(#pab632540b7)" d="
M169.504 422.01
L169.504 46.89" style="fill:none;stroke:#000000;stroke-dasharray:1.000000,3.000000;stroke-dashoffset:0.0;stroke-linecap:butt;stroke-width:0.5;"/>
     </g>
     <g id="line2d_9">
      <g>
       <use style="stroke:#000000;stroke-linecap:butt;stroke-width:0.5;" x="169.50375" xlink:href="#m0012dd4eef" y="422.01"/>
      </g>
     </g>
     <g id="line2d_10">
      <g>
       <use style="stroke:#000000;stroke-linecap:butt;stroke-width:0.5;" x="169.50375" xlink:href="#m476344969c" y="46.89"/>
      </g>
     </g>
     <g id="text_2">
      <!-- 50 -->
      <defs>
       <path d="
M10.7969 72.9062
L49.5156 72.9062
L49.5156 64.5938
L19.8281 64.5938
L19.8281 46.7344
Q21.9688 47.4688 24.1094 47.8281
Q26.2656 48.1875 28.4219 48.1875
Q40.625 48.1875 47.75 41.5
Q54.8906 34.8125 54.8906 23.3906
Q54.8906 11.625 47.5625 5.09375
Q40.2344 -1.42188 26.9062 -1.42188
Q22.3125 -1.42188 17.5469 -0.640625
Q12.7969 0.140625 7.71875 1.70312
L7.71875 11.625
Q12.1094 9.23438 16.7969 8.0625
Q21.4844 6.89062 26.7031 6.89062
Q35.1562 6.89062 40.0781 11.3281
Q45.0156 15.7656 45.0156 23.3906
Q45.0156 31 40.0781 35.4375
Q35.1562 39.8906 26.7031 39.8906
Q22.75 39.8906 18.8125 39.0156
Q14.8906 38.1406 10.7969 36.2812
z
" id="BitstreamVeraSans-Roman-35"/>
      </defs>
      <g transform="translate(162.7303125 434.91625)scale(0.12 -0.12)">
       <use xlink:href="#BitstreamVeraSans-Roman-35"/>
       <use x="63.623046875" xlink:href="#BitstreamVeraSans-Roman-30"/>
      </g>
     </g>
    </g>
    <g id="xtick_3">
     <g id="line2d_11">
      <path clip-path="url(#pab632540b7)" d="
M255.645 422.01
L255.645 46.89" style="fill:none;stroke:#000000;stroke-dasharray:1.000000,3.000000;stroke-dashoffset:0.0;stroke-linecap:butt;stroke-width:0.5;"/>
     </g>
     <g id="line2d_12">
      <g>
       <use style="stroke:#000000;stroke-linecap:butt;stroke-width:0.5;" x="255.645" xlink:href="#m0012dd4eef" y="422.01"/>
      </g>
     </g>
     <g id="line2d_13">
      <g>
       <use style="stroke:#000000;stroke-linecap:butt;stroke-width:0.5;" x="255.645" xlink:href="#m476344969c" y="46.89"/>
      </g>
     </g>
     <g id="text_3">
      <!-- 100 -->
      <defs>
       <path d="
M12.4062 8.29688
L28.5156 8.29688
L28.5156 63.9219
L10.9844 60.4062
L10.9844 69.3906
L28.4219 72.9062
L38.2812 72.9062
L38.2812 8.29688
L54.3906 8.29688
L54.3906 0
L12.4062 0
z
" id="BitstreamVeraSans-Roman-31"/>
      </defs>
      <g transform="translate(245.25 434.91625)scale(0.12 -0.12)">
       <use xlink:href="#BitstreamVeraSans-Roman-31"/>
       <use x="63.623046875" xlink:href="#BitstreamVeraSans-Roman-30"/>
       <use x="127.24609375" xlink:href="#BitstreamVeraSans-Roman-30"/>
      </g>
     </g>
    </g>
    <g id="xtick_4">
     <g id="line2d_14">
      <path clip-path="url(#pab632540b7)" d="
M341.786 422.01
L341.786 46.89" style="fill:none;stroke:#000000;stroke-dasharray:1.000000,3.000000;stroke-dashoffset:0.0;stroke-linecap:butt;stroke-width:0.5;"/>
     </g>
     <g id="line2d_15">
      <g>
       <use style="stroke:#000000;stroke-linecap:butt;stroke-width:0.5;" x="341.78625" xlink:href="#m0012dd4eef" y="422.01"/>
      </g>
     </g>
     <g id="line2d_16">
      <g>
       <use style="stroke:#000000;stroke-linecap:butt;stroke-width:0.5;" x="341.78625" xlink:href="#m476344969c" y="46.89"/>
      </g>
     </g>
     <g id="text_4">
      <!-- 150 -->
      <g transform="translate(331.39125 434.91625)scale(0.12 -0.12)">
       <use xlink:href="#BitstreamVeraSans-Roman-31"/>
       <use x="63.623046875" xlink:href="#BitstreamVeraSans-Roman-35"/>
       <use x="127.24609375" xlink:href="#BitstreamVeraSans-Roman-30"/>
      </g>
     </g>
    </g>
    <g id="xtick_5">
     <g id="line2d_17">
      <path clip-path="url(#pab632540b7)" d="
M427.928 422.01
L427.928 46.89" style="fill:none;stroke:#000000;stroke-dasharray:1.000000,3.000000;stroke-dashoffset:0.0;stroke-linecap:butt;stroke-width:0.5;"/>
     </g>
     <g id="line2d_18">
      <g>
       <use style="stroke:#000000;stroke-linecap:butt;stroke-width:0.5;" x="427.9275" xlink:href="#m0012dd4eef" y="422.01"/>
      </g>
     </g>
     <g id="line2d_19">
      <g>
       <use style="stroke:#000000;stroke-linecap:butt;stroke-width:0.5;" x="427.9275" xlink:href="#m476344969c" y="46.89"/>
      </g>
     </g>
     <g id="text_5">
      <!-- 200 -->
      <defs>
       <path d="
M19.1875 8.29688
L53.6094 8.29688
L53.6094 0
L7.32812 0
L7.32812 8.29688
Q12.9375 14.1094 22.625 23.8906
Q32.3281 33.6875 34.8125 36.5312
Q39.5469 41.8438 41.4219 45.5312
Q43.3125 49.2188 43.3125 52.7812
Q43.3125 58.5938 39.2344 62.25
Q35.1562 65.9219 28.6094 65.9219
Q23.9688 65.9219 18.8125 64.3125
Q13.6719 62.7031 7.8125 59.4219
L7.8125 69.3906
Q13.7656 71.7812 18.9375 73
Q24.125 74.2188 28.4219 74.2188
Q39.75 74.2188 46.4844 68.5469
Q53.2188 62.8906 53.2188 53.4219
Q53.2188 48.9219 51.5312 44.8906
Q49.8594 40.875 45.4062 35.4062
Q44.1875 33.9844 37.6406 27.2188
Q31.1094 20.4531 19.1875 8.29688" id="BitstreamVeraSans-Roman-32"/>
      </defs>
      <g transform="translate(417.313125 434.91625)scale(0.12 -0.12)">
       <use xlink:href="#BitstreamVeraSans-Roman-32"/>
       <use x="63.623046875" xlink:href="#BitstreamVeraSans-Roman-30"/>
       <use x="127.24609375" xlink:href="#BitstreamVeraSans-Roman-30"/>
      </g>
     </g>
    </g>
    <g id="xtick_6">
     <g id="line2d_20">
      <path clip-path="url(#pab632540b7)" d="
M514.069 422.01
L514.069 46.89" style="fill:none;stroke:#000000;stroke-dasharray:1.000000,3.000000;stroke-dashoffset:0.0;stroke-linecap:butt;stroke-width:0.5;"/>
     </g>
     <g id="line2d_21">
      <g>
       <use style="stroke:#000000;stroke-linecap:butt;stroke-width:0.5;" x="514.06875" xlink:href="#m0012dd4eef" y="422.01"/>
      </g>
     </g>
     <g id="line2d_22">
      <g>
       <use style="stroke:#000000;stroke-linecap:butt;stroke-width:0.5;" x="514.06875" xlink:href="#m476344969c" y="46.89"/>
      </g>
     </g>
     <g id="text_6">
      <!-- 250 -->
      <g transform="translate(503.454375 434.91625)scale(0.12 -0.12)">
       <use xlink:href="#BitstreamVeraSans-Roman-32"/>
       <use x="63.623046875" xlink:href="#BitstreamVeraSans-Roman-35"/>
       <use x="127.24609375" xlink:href="#BitstreamVeraSans-Roman-30"/>
      </g>
     </g>
    </g>
    <g id="xtick_7">
     <g id="line2d_23">
      <path clip-path="url(#pab632540b7)" d="
M600.21 422.01
L600.21 46.89" style="fill:none;stroke:#000000;stroke-dasharray:1.000000,3.000000;stroke-dashoffset:0.0;stroke-linecap:butt;stroke-width:0.5;"/>
     </g>
     <g id="line2d_24">
      <g>
       <use style="stroke:#000000;stroke-linecap:butt;stroke-width:0.5;" x="600.21" xlink:href="#m0012dd4eef" y="422.01"/>
      </g>
     </g>
     <g id="line2d_25">
      <g>
       <use style="stroke:#000000;stroke-linecap:butt;stroke-width:0.5;" x="600.21" xlink:href="#m476344969c" y="46.89"/>
      </g>
     </g>
     <g id="text_7">
      <!-- 300 -->
      <defs>
       <path d="
M40.5781 39.3125
Q47.6562 37.7969 51.625 33
Q55.6094 28.2188 55.6094 21.1875
Q55.6094 10.4062 48.1875 4.48438
Q40.7656 -1.42188 27.0938 -1.42188
Q22.5156 -1.42188 17.6562 -0.515625
Q12.7969 0.390625 7.625 2.20312
L7.625 11.7188
Q11.7188 9.32812 16.5938 8.10938
Q21.4844 6.89062 26.8125 6.89062
Q36.0781 6.89062 40.9375 10.5469
Q45.7969 14.2031 45.7969 21.1875
Q45.7969 27.6406 41.2812 31.2656
Q36.7656 34.9062 28.7188 34.9062
L20.2188 34.9062
L20.2188 43.0156
L29.1094 43.0156
Q36.375 43.0156 40.2344 45.9219
Q44.0938 48.8281 44.0938 54.2969
Q44.0938 59.9062 40.1094 62.9062
Q36.1406 65.9219 28.7188 65.9219
Q24.6562 65.9219 20.0156 65.0312
Q15.375 64.1562 9.8125 62.3125
L9.8125 71.0938
Q15.4375 72.6562 20.3438 73.4375
Q25.25 74.2188 29.5938 74.2188
Q40.8281 74.2188 47.3594 69.1094
Q53.9062 64.0156 53.9062 55.3281
Q53.9062 49.2656 50.4375 45.0938
Q46.9688 40.9219 40.5781 39.3125" id="BitstreamVeraSans-Roman-33"/>
      </defs>
      <g transform="translate(589.6134375 434.91625)scale(0.12 -0.12)">
       <use xlink:href="#BitstreamVeraSans-Roman-33"/>
       <use x="63.623046875" xlink:href="#BitstreamVeraSans-Roman-30"/>
       <use x="127.24609375" xlink:href="#BitstreamVeraSans-Roman-30"/>
      </g>
     </g>
    </g>
    <g id="text_8">
     <!-- $t \Delta$ -->
     <defs>
      <path d="
M5.42188 0
Q4.59375 0 4.59375 0.78125
Q4.64062 0.875 4.65625 0.921875
Q4.6875 0.984375 4.6875 1.125
L39.1094 70.5156
Q39.5469 71.5781 40.9219 71.5781
L42.2812 71.5781
Q43.6562 71.5781 44.0938 70.5156
L78.5156 1.125
Q78.5625 1.03125 78.5781 0.953125
Q78.6094 0.875 78.6094 0.78125
Q78.6094 0 77.7812 0
z

M12.0156 8.01562
L64.7031 8.01562
L38.375 61.0781
z
" id="Cmr10-a2"/>
      <path d="
M6.20312 8.10938
Q6.20312 9.57812 6.5 10.8906
L13.7188 39.5938
L3.21875 39.5938
Q2.20312 39.5938 2.20312 40.9219
Q2.59375 43.1094 3.51562 43.1094
L14.5938 43.1094
L18.6094 59.4219
Q19 60.75 20.1719 61.6719
Q21.3438 62.5938 22.7969 62.5938
Q24.0781 62.5938 24.9219 61.8281
Q25.7812 61.0781 25.7812 59.8125
Q25.7812 59.5156 25.75 59.3438
Q25.7344 59.1875 25.6875 58.9844
L21.6875 43.1094
L31.9844 43.1094
Q33.0156 43.1094 33.0156 41.7969
Q32.9531 41.5469 32.8125 40.9531
Q32.6719 40.375 32.4219 39.9844
Q32.1719 39.5938 31.6875 39.5938
L20.7969 39.5938
L13.625 10.6875
Q12.8906 7.85938 12.8906 5.8125
Q12.8906 1.51562 15.8281 1.51562
Q20.2188 1.51562 23.6094 5.64062
Q27 9.76562 28.8125 14.7031
Q29.2031 15.2812 29.5938 15.2812
L30.8125 15.2812
Q31.2031 15.2812 31.4375 15.0156
Q31.6875 14.75 31.6875 14.4062
Q31.6875 14.2031 31.5938 14.1094
Q29.3906 8.0625 25.1875 3.46875
Q21 -1.125 15.5781 -1.125
Q11.625 -1.125 8.90625 1.45312
Q6.20312 4.04688 6.20312 8.10938" id="Cmmi10-74"/>
     </defs>
     <g transform="translate(334.58625 448.966875)scale(0.12 -0.12)">
      <use transform="translate(0.0 2.421875)" xlink:href="#Cmmi10-74"/>
      <use transform="translate(36.083984375 2.421875)" xlink:href="#Cmr10-a2"/>
     </g>
    </g>
   </g>
   <g id="matplotlib.axis_2">
    <g id="ytick_1">
     <g id="line2d_26">
      <path clip-path="url(#pab632540b7)" d="
M83.3625 422.01
L600.21 422.01" style="fill:none;stroke:#000000;stroke-dasharray:1.000000,3.000000;stroke-dashoffset:0.0;stroke-linecap:butt;stroke-width:0.5;"/>
     </g>
     <g id="line2d_27">
      <defs>
       <path d="
M0 0
L4 0" id="me8a85f7bf6" style="stroke:#000000;stroke-linecap:butt;stroke-width:0.5;"/>
      </defs>
      <g>
       <use style="stroke:#000000;stroke-linecap:butt;stroke-width:0.5;" x="83.3625" xlink:href="#me8a85f7bf6" y="422.01"/>
      </g>
     </g>
     <g id="line2d_28">
      <defs>
       <path d="
M0 0
L-4 0" id="m1a32005dea" style="stroke:#000000;stroke-linecap:butt;stroke-width:0.5;"/>
      </defs>
      <g>
       <use style="stroke:#000000;stroke-linecap:butt;stroke-width:0.5;" x="600.21" xlink:href="#m1a32005dea" y="422.01"/>
      </g>
     </g>
     <g id="text_9">
      <!-- 0.3 -->
      <defs>
       <path d="
M10.6875 12.4062
L21 12.4062
L21 0
L10.6875 0
z
" id="BitstreamVeraSans-Roman-2e"/>
      </defs>
      <g transform="translate(62.031875 426.3778125)scale(0.12 -0.12)">
       <use xlink:href="#BitstreamVeraSans-Roman-30"/>
       <use x="63.623046875" xlink:href="#BitstreamVeraSans-Roman-2e"/>
       <use x="95.41015625" xlink:href="#BitstreamVeraSans-Roman-33"/>
      </g>
     </g>
    </g>
    <g id="ytick_2">
     <g id="line2d_29">
      <path clip-path="url(#pab632540b7)" d="
M83.3625 359.49
L600.21 359.49" style="fill:none;stroke:#000000;stroke-dasharray:1.000000,3.000000;stroke-dashoffset:0.0;stroke-linecap:butt;stroke-width:0.5;"/>
     </g>
     <g id="line2d_30">
      <g>
       <use style="stroke:#000000;stroke-linecap:butt;stroke-width:0.5;" x="83.3625" xlink:href="#me8a85f7bf6" y="359.49"/>
      </g>
     </g>
     <g id="line2d_31">
      <g>
       <use style="stroke:#000000;stroke-linecap:butt;stroke-width:0.5;" x="600.21" xlink:href="#m1a32005dea" y="359.49"/>
      </g>
     </g>
     <g id="text_10">
      <!-- 0.4 -->
      <defs>
       <path d="
M37.7969 64.3125
L12.8906 25.3906
L37.7969 25.3906
z

M35.2031 72.9062
L47.6094 72.9062
L47.6094 25.3906
L58.0156 25.3906
L58.0156 17.1875
L47.6094 17.1875
L47.6094 0
L37.7969 0
L37.7969 17.1875
L4.89062 17.1875
L4.89062 26.7031
z
" id="BitstreamVeraSans-Roman-34"/>
      </defs>
      <g transform="translate(61.743125 363.8578125)scale(0.12 -0.12)">
       <use xlink:href="#BitstreamVeraSans-Roman-30"/>
       <use x="63.623046875" xlink:href="#BitstreamVeraSans-Roman-2e"/>
       <use x="95.41015625" xlink:href="#BitstreamVeraSans-Roman-34"/>
      </g>
     </g>
    </g>
    <g id="ytick_3">
     <g id="line2d_32">
      <path clip-path="url(#pab632540b7)" d="
M83.3625 296.97
L600.21 296.97" style="fill:none;stroke:#000000;stroke-dasharray:1.000000,3.000000;stroke-dashoffset:0.0;stroke-linecap:butt;stroke-width:0.5;"/>
     </g>
     <g id="line2d_33">
      <g>
       <use style="stroke:#000000;stroke-linecap:butt;stroke-width:0.5;" x="83.3625" xlink:href="#me8a85f7bf6" y="296.97"/>
      </g>
     </g>
     <g id="line2d_34">
      <g>
       <use style="stroke:#000000;stroke-linecap:butt;stroke-width:0.5;" x="600.21" xlink:href="#m1a32005dea" y="296.97"/>
      </g>
     </g>
     <g id="text_11">
      <!-- 0.5 -->
      <g transform="translate(62.118125 301.3378125)scale(0.12 -0.12)">
       <use xlink:href="#BitstreamVeraSans-Roman-30"/>
       <use x="63.623046875" xlink:href="#BitstreamVeraSans-Roman-2e"/>
       <use x="95.41015625" xlink:href="#BitstreamVeraSans-Roman-35"/>
      </g>
     </g>
    </g>
    <g id="ytick_4">
     <g id="line2d_35">
      <path clip-path="url(#pab632540b7)" d="
M83.3625 234.45
L600.21 234.45" style="fill:none;stroke:#000000;stroke-dasharray:1.000000,3.000000;stroke-dashoffset:0.0;stroke-linecap:butt;stroke-width:0.5;"/>
     </g>
     <g id="line2d_36">
      <g>
       <use style="stroke:#000000;stroke-linecap:butt;stroke-width:0.5;" x="83.3625" xlink:href="#me8a85f7bf6" y="234.45"/>
      </g>
     </g>
     <g id="line2d_37">
      <g>
       <use style="stroke:#000000;stroke-linecap:butt;stroke-width:0.5;" x="600.21" xlink:href="#m1a32005dea" y="234.45"/>
      </g>
     </g>
     <g id="text_12">
      <!-- 0.6 -->
      <defs>
       <path d="
M33.0156 40.375
Q26.375 40.375 22.4844 35.8281
Q18.6094 31.2969 18.6094 23.3906
Q18.6094 15.5312 22.4844 10.9531
Q26.375 6.39062 33.0156 6.39062
Q39.6562 6.39062 43.5312 10.9531
Q47.4062 15.5312 47.4062 23.3906
Q47.4062 31.2969 43.5312 35.8281
Q39.6562 40.375 33.0156 40.375
M52.5938 71.2969
L52.5938 62.3125
Q48.875 64.0625 45.0938 64.9844
Q41.3125 65.9219 37.5938 65.9219
Q27.8281 65.9219 22.6719 59.3281
Q17.5312 52.7344 16.7969 39.4062
Q19.6719 43.6562 24.0156 45.9219
Q28.375 48.1875 33.5938 48.1875
Q44.5781 48.1875 50.9531 41.5156
Q57.3281 34.8594 57.3281 23.3906
Q57.3281 12.1562 50.6875 5.35938
Q44.0469 -1.42188 33.0156 -1.42188
Q20.3594 -1.42188 13.6719 8.26562
Q6.98438 17.9688 6.98438 36.375
Q6.98438 53.6562 15.1875 63.9375
Q23.3906 74.2188 37.2031 74.2188
Q40.9219 74.2188 44.7031 73.4844
Q48.4844 72.75 52.5938 71.2969" id="BitstreamVeraSans-Roman-36"/>
      </defs>
      <g transform="translate(61.825625 238.8178125)scale(0.12 -0.12)">
       <use xlink:href="#BitstreamVeraSans-Roman-30"/>
       <use x="63.623046875" xlink:href="#BitstreamVeraSans-Roman-2e"/>
       <use x="95.41015625" xlink:href="#BitstreamVeraSans-Roman-36"/>
      </g>
     </g>
    </g>
    <g id="ytick_5">
     <g id="line2d_38">
      <path clip-path="url(#pab632540b7)" d="
M83.3625 171.93
L600.21 171.93" style="fill:none;stroke:#000000;stroke-dasharray:1.000000,3.000000;stroke-dashoffset:0.0;stroke-linecap:butt;stroke-width:0.5;"/>
     </g>
     <g id="line2d_39">
      <g>
       <use style="stroke:#000000;stroke-linecap:butt;stroke-width:0.5;" x="83.3625" xlink:href="#me8a85f7bf6" y="171.93"/>
      </g>
     </g>
     <g id="line2d_40">
      <g>
       <use style="stroke:#000000;stroke-linecap:butt;stroke-width:0.5;" x="600.21" xlink:href="#m1a32005dea" y="171.93"/>
      </g>
     </g>
     <g id="text_13">
      <!-- 0.7 -->
      <defs>
       <path d="
M8.20312 72.9062
L55.0781 72.9062
L55.0781 68.7031
L28.6094 0
L18.3125 0
L43.2188 64.5938
L8.20312 64.5938
z
" id="BitstreamVeraSans-Roman-37"/>
      </defs>
      <g transform="translate(62.095625 176.2978125)scale(0.12 -0.12)">
       <use xlink:href="#BitstreamVeraSans-Roman-30"/>
       <use x="63.623046875" xlink:href="#BitstreamVeraSans-Roman-2e"/>
       <use x="95.41015625" xlink:href="#BitstreamVeraSans-Roman-37"/>
      </g>
     </g>
    </g>
    <g id="ytick_6">
     <g id="line2d_41">
      <path clip-path="url(#pab632540b7)" d="
M83.3625 109.41
L600.21 109.41" style="fill:none;stroke:#000000;stroke-dasharray:1.000000,3.000000;stroke-dashoffset:0.0;stroke-linecap:butt;stroke-width:0.5;"/>
     </g>
     <g id="line2d_42">
      <g>
       <use style="stroke:#000000;stroke-linecap:butt;stroke-width:0.5;" x="83.3625" xlink:href="#me8a85f7bf6" y="109.41"/>
      </g>
     </g>
     <g id="line2d_43">
      <g>
       <use style="stroke:#000000;stroke-linecap:butt;stroke-width:0.5;" x="600.21" xlink:href="#m1a32005dea" y="109.41"/>
      </g>
     </g>
     <g id="text_14">
      <!-- 0.8 -->
      <defs>
       <path d="
M31.7812 34.625
Q24.75 34.625 20.7188 30.8594
Q16.7031 27.0938 16.7031 20.5156
Q16.7031 13.9219 20.7188 10.1562
Q24.75 6.39062 31.7812 6.39062
Q38.8125 6.39062 42.8594 10.1719
Q46.9219 13.9688 46.9219 20.5156
Q46.9219 27.0938 42.8906 30.8594
Q38.875 34.625 31.7812 34.625
M21.9219 38.8125
Q15.5781 40.375 12.0312 44.7188
Q8.5 49.0781 8.5 55.3281
Q8.5 64.0625 14.7188 69.1406
Q20.9531 74.2188 31.7812 74.2188
Q42.6719 74.2188 48.875 69.1406
Q55.0781 64.0625 55.0781 55.3281
Q55.0781 49.0781 51.5312 44.7188
Q48 40.375 41.7031 38.8125
Q48.8281 37.1562 52.7969 32.3125
Q56.7812 27.4844 56.7812 20.5156
Q56.7812 9.90625 50.3125 4.23438
Q43.8438 -1.42188 31.7812 -1.42188
Q19.7344 -1.42188 13.25 4.23438
Q6.78125 9.90625 6.78125 20.5156
Q6.78125 27.4844 10.7812 32.3125
Q14.7969 37.1562 21.9219 38.8125
M18.3125 54.3906
Q18.3125 48.7344 21.8438 45.5625
Q25.3906 42.3906 31.7812 42.3906
Q38.1406 42.3906 41.7188 45.5625
Q45.3125 48.7344 45.3125 54.3906
Q45.3125 60.0625 41.7188 63.2344
Q38.1406 66.4062 31.7812 66.4062
Q25.3906 66.4062 21.8438 63.2344
Q18.3125 60.0625 18.3125 54.3906" id="BitstreamVeraSans-Roman-38"/>
      </defs>
      <g transform="translate(61.89125 113.7778125)scale(0.12 -0.12)">
       <use xlink:href="#BitstreamVeraSans-Roman-30"/>
       <use x="63.623046875" xlink:href="#BitstreamVeraSans-Roman-2e"/>
       <use x="95.41015625" xlink:href="#BitstreamVeraSans-Roman-38"/>
      </g>
     </g>
    </g>
    <g id="ytick_7">
     <g id="line2d_44">
      <path clip-path="url(#pab632540b7)" d="
M83.3625 46.89
L600.21 46.89" style="fill:none;stroke:#000000;stroke-dasharray:1.000000,3.000000;stroke-dashoffset:0.0;stroke-linecap:butt;stroke-width:0.5;"/>
     </g>
     <g id="line2d_45">
      <g>
       <use style="stroke:#000000;stroke-linecap:butt;stroke-width:0.5;" x="83.3625" xlink:href="#me8a85f7bf6" y="46.89"/>
      </g>
     </g>
     <g id="line2d_46">
      <g>
       <use style="stroke:#000000;stroke-linecap:butt;stroke-width:0.5;" x="600.21" xlink:href="#m1a32005dea" y="46.89"/>
      </g>
     </g>
     <g id="text_15">
      <!-- 0.9 -->
      <defs>
       <path d="
M10.9844 1.51562
L10.9844 10.5
Q14.7031 8.73438 18.5 7.8125
Q22.3125 6.89062 25.9844 6.89062
Q35.75 6.89062 40.8906 13.4531
Q46.0469 20.0156 46.7812 33.4062
Q43.9531 29.2031 39.5938 26.9531
Q35.25 24.7031 29.9844 24.7031
Q19.0469 24.7031 12.6719 31.3125
Q6.29688 37.9375 6.29688 49.4219
Q6.29688 60.6406 12.9375 67.4219
Q19.5781 74.2188 30.6094 74.2188
Q43.2656 74.2188 49.9219 64.5156
Q56.5938 54.8281 56.5938 36.375
Q56.5938 19.1406 48.4062 8.85938
Q40.2344 -1.42188 26.4219 -1.42188
Q22.7031 -1.42188 18.8906 -0.6875
Q15.0938 0.046875 10.9844 1.51562
M30.6094 32.4219
Q37.25 32.4219 41.125 36.9531
Q45.0156 41.5 45.0156 49.4219
Q45.0156 57.2812 41.125 61.8438
Q37.25 66.4062 30.6094 66.4062
Q23.9688 66.4062 20.0938 61.8438
Q16.2188 57.2812 16.2188 49.4219
Q16.2188 41.5 20.0938 36.9531
Q23.9688 32.4219 30.6094 32.4219" id="BitstreamVeraSans-Roman-39"/>
      </defs>
      <g transform="translate(61.91375 51.2578125)scale(0.12 -0.12)">
       <use xlink:href="#BitstreamVeraSans-Roman-30"/>
       <use x="63.623046875" xlink:href="#BitstreamVeraSans-Roman-2e"/>
       <use x="95.41015625" xlink:href="#BitstreamVeraSans-Roman-39"/>
      </g>
     </g>
    </g>
    <g id="text_16">
     <!-- $I/I_0$ -->
     <defs>
      <path d="
M5.60938 -23
Q5.60938 -22.7031 5.71875 -22.6094
L40.4844 73.7812
Q40.6719 74.3594 41.1562 74.6719
Q41.6562 75 42.2812 75
Q43.1719 75 43.7188 74.4531
Q44.2812 73.9219 44.2812 73
L44.2812 72.6094
L9.51562 -23.7812
Q8.9375 -25 7.625 -25
Q6.78125 -25 6.1875 -24.4062
Q5.60938 -23.8281 5.60938 -23" id="Cmmi10-3d"/>
      <path d="
M25 -2.20312
Q12.75 -2.20312 8.32812 7.875
Q3.90625 17.9688 3.90625 31.8906
Q3.90625 40.5781 5.48438 48.2344
Q7.07812 55.9062 11.7812 61.25
Q16.5 66.6094 25 66.6094
Q31.5938 66.6094 35.7812 63.375
Q39.9844 60.1562 42.1875 55.0469
Q44.3906 49.9531 45.1875 44.1094
Q46 38.2812 46 31.8906
Q46 23.2969 44.4062 15.7969
Q42.8281 8.29688 38.1875 3.04688
Q33.5469 -2.20312 25 -2.20312
M25 0.390625
Q30.5625 0.390625 33.2969 6.09375
Q36.0312 11.8125 36.6719 18.75
Q37.3125 25.6875 37.3125 33.5
Q37.3125 41.0156 36.6719 47.3594
Q36.0312 53.7188 33.3125 58.8594
Q30.6094 64.0156 25 64.0156
Q19.3438 64.0156 16.6094 58.8281
Q13.875 53.6562 13.2344 47.3281
Q12.5938 41.0156 12.5938 33.5
Q12.5938 27.9375 12.8594 23
Q13.1406 18.0625 14.3125 12.8125
Q15.4844 7.5625 18.0938 3.96875
Q20.7031 0.390625 25 0.390625" id="Cmr10-30"/>
      <path d="
M4.20312 0
Q3.21875 0 3.21875 1.3125
Q3.60938 3.51562 4.5 3.51562
Q10.4062 3.51562 12.5 3.90625
Q14.7969 4.4375 15.375 6.89062
L29.1094 61.8125
Q29.2969 62.7969 29.2969 63.0938
Q29.2969 63.7188 28.9688 63.9844
Q28.6562 64.2656 27.9844 64.4062
Q25.9844 64.7969 20.4062 64.7969
Q19.3906 64.7969 19.3906 66.1094
Q19.7344 67.3906 19.9219 67.8438
Q20.125 68.3125 21.0938 68.3125
L49.0312 68.3125
Q50 68.3125 50 67
Q49.9531 66.75 49.7969 66.1562
Q49.6562 65.5781 49.4062 65.1875
Q49.1719 64.7969 48.6875 64.7969
Q42.8281 64.7969 40.5781 64.4062
Q38.375 63.875 37.7969 61.375
L24.125 6.5
Q23.875 5.28125 23.875 5.17188
Q23.875 4.9375 23.9531 4.71875
Q24.0312 4.5 24.25 4.32812
Q24.4688 4.15625 24.6875 4.07812
Q24.9062 4 25.2031 3.90625
Q27.0938 3.51562 32.8125 3.51562
Q33.7969 3.51562 33.7969 2.20312
Q33.4531 0.78125 33.25 0.390625
Q33.0625 0 32.0781 0
z
" id="Cmmi10-49"/>
     </defs>
     <g transform="translate(34.183125 240.63)scale(0.12 -0.12)">
      <use transform="translate(0.0 28.0)" xlink:href="#Cmmi10-49"/>
      <use transform="translate(43.896484375 28.0)" xlink:href="#Cmmi10-3d"/>
      <use transform="translate(93.896484375 28.0)" xlink:href="#Cmmi10-49"/>
      <use transform="translate(137.79296875 2.490625)scale(0.7)" xlink:href="#Cmr10-30"/>
     </g>
    </g>
   </g>
   <g id="patch_3">
    <path d="
M83.3625 46.89
L600.21 46.89" style="fill:none;stroke:#000000;"/>
   </g>
   <g id="patch_4">
    <path d="
M600.21 422.01
L600.21 46.89" style="fill:none;stroke:#000000;"/>
   </g>
   <g id="patch_5">
    <path d="
M83.3625 422.01
L600.21 422.01" style="fill:none;stroke:#000000;"/>
   </g>
   <g id="patch_6">
    <path d="
M83.3625 422.01
L83.3625 46.89" style="fill:none;stroke:#000000;"/>
   </g>
   <g id="text_17">
    <g id="patch_7">
     <path d="
M339.786 302.212
L395.626 302.212
L395.626 241.401
L339.786 241.401
z
" style="fill:#ffffff;stroke:#000000;"/>
    </g>
    <!-- $\Omega/\Delta=2$ -->
    <defs>
     <path d="
M4.98438 0
L4.98438 2.6875
Q4.98438 2.9375 5.17188 3.21875
L20.7031 20.4062
Q24.2188 24.2188 26.4062 26.7969
Q28.6094 29.3906 30.75 32.7656
Q32.9062 36.1406 34.1562 39.625
Q35.4062 43.1094 35.4062 47.0156
Q35.4062 51.125 33.8906 54.8594
Q32.375 58.5938 29.375 60.8438
Q26.375 63.0938 22.125 63.0938
Q17.7812 63.0938 14.3125 60.4688
Q10.8438 57.8594 9.42188 53.7188
Q9.8125 53.8125 10.5 53.8125
Q12.75 53.8125 14.3281 52.2969
Q15.9219 50.7812 15.9219 48.3906
Q15.9219 46.0938 14.3281 44.5
Q12.75 42.9219 10.5 42.9219
Q8.15625 42.9219 6.5625 44.5469
Q4.98438 46.1875 4.98438 48.3906
Q4.98438 52.1562 6.39062 55.4375
Q7.8125 58.7344 10.4688 61.2969
Q13.1406 63.875 16.4844 65.2344
Q19.8281 66.6094 23.5781 66.6094
Q29.2969 66.6094 34.2188 64.1875
Q39.1562 61.7656 42.0312 57.3438
Q44.9219 52.9375 44.9219 47.0156
Q44.9219 42.6719 43.0156 38.7656
Q41.1094 34.8594 38.125 31.6562
Q35.1562 28.4688 30.5156 24.4062
Q25.875 20.3594 24.4219 19
L13.0938 8.10938
L22.7031 8.10938
Q29.7812 8.10938 34.5469 8.21875
Q39.3125 8.34375 39.5938 8.59375
Q40.7656 9.85938 42 17.8281
L44.9219 17.8281
L42.0938 0
z
" id="Cmr10-32"/>
     <path d="
M7.71875 0
L4.39062 16.6094
L7.32812 16.6094
Q7.85938 13.7188 8.29688 11.5
Q8.73438 9.28125 9.4375 8.375
Q10.1562 7.46875 11.7188 7.17188
Q13.2812 6.89062 16.8906 6.89062
L23 6.89062
Q21.5312 12.5469 15.6875 21.6562
Q9.85938 30.7656 7.73438 34.8906
Q5.60938 39.0156 5.60938 45.5156
Q5.60938 53.0781 10.0938 58.7656
Q14.5938 64.4531 21.7031 67.4844
Q28.8125 70.5156 36.0781 70.5156
Q43.3125 70.5156 50.4062 67.4844
Q57.5156 64.4531 62 58.7188
Q66.5 52.9844 66.5 45.5156
Q66.5 40.4375 64.6406 35.9375
Q62.7969 31.4531 59.9062 26.9531
Q57.0312 22.4688 53.6875 16.9375
Q50.3438 11.4219 49.125 6.89062
L55.1719 6.89062
Q58.8438 6.89062 60.4531 7.17188
Q62.0625 7.46875 62.7344 8.375
Q63.4219 9.28125 63.8438 11.5
Q64.2656 13.7188 64.7969 16.6094
L67.6719 16.6094
L64.4062 0
L46.6875 0
Q45.7031 0 45.7031 1.3125
Q45.7031 6.39062 46.9375 11.2656
Q48.1875 16.1562 50.625 23.0938
Q53.0781 30.0312 54.4375 35.3281
Q55.8125 40.625 55.8125 45.5156
Q55.8125 51.5156 53.4688 56.6406
Q51.125 61.7656 46.625 64.8438
Q42.1406 67.9219 36.0781 67.9219
Q26.9531 67.9219 21.625 61.4062
Q16.3125 54.8906 16.3125 45.5156
Q16.3594 40.375 17.5312 35.8281
Q18.7031 31.2969 21.3125 23.7188
Q23.9219 16.1562 25.1719 11.2656
Q26.4219 6.39062 26.4219 1.3125
Q26.4219 0 25.3906 0
z
" id="Cmr10-ad"/>
     <path d="
M7.51562 13.2812
Q6.6875 13.2812 6.14062 13.9062
Q5.60938 14.5469 5.60938 15.2812
Q5.60938 16.1094 6.14062 16.6875
Q6.6875 17.2812 7.51562 17.2812
L70.3125 17.2812
Q71.0469 17.2812 71.5781 16.6875
Q72.125 16.1094 72.125 15.2812
Q72.125 14.5469 71.5781 13.9062
Q71.0469 13.2812 70.3125 13.2812
z

M7.51562 32.7188
Q6.6875 32.7188 6.14062 33.2969
Q5.60938 33.8906 5.60938 34.7188
Q5.60938 35.4531 6.14062 36.0781
Q6.6875 36.7188 7.51562 36.7188
L70.3125 36.7188
Q71.0469 36.7188 71.5781 36.0781
Q72.125 35.4531 72.125 34.7188
Q72.125 33.8906 71.5781 33.2969
Q71.0469 32.7188 70.3125 32.7188
z
" id="Cmr10-3d"/>
    </defs>
    <g transform="translate(341.78625 255.4005)scale(0.12 -0.12)">
     <use transform="translate(0.0 25.0)" xlink:href="#Cmr10-ad"/>
     <use transform="translate(72.216796875 25.0)" xlink:href="#Cmmi10-3d"/>
     <use transform="translate(122.216796875 25.0)" xlink:href="#Cmr10-a2"/>
     <use transform="translate(223.076171875 25.0)" xlink:href="#Cmr10-3d"/>
     <use transform="translate(307.134765625 25.0)" xlink:href="#Cmr10-32"/>
    </g>
    <!-- $T=0.006$ -->
    <defs>
     <path d="
M4.59375 1.3125
Q4.64062 1.5625 4.8125 2.1875
Q4.98438 2.82812 5.25 3.17188
Q5.51562 3.51562 6 3.51562
Q14.5938 3.51562 17.3906 4
Q20.0625 4.6875 20.6094 6.89062
L34.2812 61.8125
Q34.7188 63.0312 34.7188 64.0156
Q34.7188 64.7969 31.2031 64.7969
L25.3906 64.7969
Q18.7031 64.7969 15.0625 62.7344
Q11.4219 60.6875 9.71875 57.3125
Q8.01562 53.9531 5.32812 46.2969
Q4.98438 45.4062 4.29688 45.4062
L3.42188 45.4062
Q2.39062 45.4062 2.39062 46.6875
L9.51562 67.3906
Q9.71875 68.3125 10.5 68.3125
L69.5781 68.3125
Q70.6094 68.3125 70.6094 67
L67.2812 46.2969
Q67.2812 46 66.9375 45.7031
Q66.6094 45.4062 66.3125 45.4062
L65.375 45.4062
Q64.4062 45.4062 64.4062 46.6875
Q65.4844 53.7656 65.4844 56.6875
Q65.4844 60.2031 64.0156 62
Q62.5469 63.8125 60.2031 64.2969
Q57.8594 64.7969 54.1094 64.7969
L48.1875 64.7969
Q45.5156 64.7969 44.5781 64.2969
Q43.6562 63.8125 43.0156 61.375
L29.2969 6.5
Q29.25 6.29688 29.2188 6.09375
Q29.2031 5.90625 29.1094 5.60938
Q29.1094 4.34375 30.6094 4
Q33.2031 3.51562 41.7031 3.51562
Q42.6719 3.51562 42.6719 2.20312
Q42.3281 0.78125 42.125 0.390625
Q41.9375 0 41.0156 0
L5.60938 0
Q4.59375 0 4.59375 1.3125" id="Cmmi10-54"/>
     <path d="
M25 -2.20312
Q18.7969 -2.20312 14.6406 1.09375
Q10.5 4.39062 8.21875 9.64062
Q5.95312 14.8906 5.07812 20.6562
Q4.20312 26.4219 4.20312 32.3281
Q4.20312 40.2344 7.28125 48.1875
Q10.3594 56.1562 16.3281 61.375
Q22.3125 66.6094 30.5156 66.6094
Q33.9375 66.6094 36.8906 65.3125
Q39.8438 64.0156 41.5312 61.5
Q43.2188 58.9844 43.2188 55.4219
Q43.2188 53.375 41.8281 51.9844
Q40.4375 50.5938 38.375 50.5938
Q36.4219 50.5938 35 52
Q33.5938 53.4219 33.5938 55.4219
Q33.5938 57.375 35 58.7812
Q36.4219 60.2031 38.375 60.2031
L38.9219 60.2031
Q37.6406 62.0156 35.3281 62.8594
Q33.0156 63.7188 30.5156 63.7188
Q27.4844 63.7188 24.9219 62.3906
Q22.3594 61.0781 20.3125 58.8281
Q18.2656 56.5938 16.8906 53.875
Q15.5312 51.1719 14.7656 47.7031
Q14.0156 44.2344 13.8125 41.2031
Q13.625 38.1875 13.625 33.5938
Q15.375 37.7031 18.5938 40.3125
Q21.8281 42.9219 25.875 42.9219
Q30.3281 42.9219 33.9844 41.1094
Q37.6406 39.3125 40.2812 36.1094
Q42.9219 32.9062 44.3125 28.7969
Q45.7031 24.7031 45.7031 20.5156
Q45.7031 14.6562 43.0938 9.34375
Q40.4844 4.04688 35.7344 0.921875
Q31 -2.20312 25 -2.20312
M25 0.984375
Q28.8594 0.984375 31.2031 2.73438
Q33.5469 4.5 34.6406 7.39062
Q35.75 10.2969 36.0156 13.25
Q36.2812 16.2188 36.2812 20.5156
Q36.2812 26.1719 35.7344 30.1719
Q35.2031 34.1875 32.8125 37.2344
Q30.4219 40.2812 25.4844 40.2812
Q21.4375 40.2812 18.8281 37.5469
Q16.2188 34.8125 15.0156 30.6406
Q13.8125 26.4688 13.8125 22.6094
Q13.8125 21.2969 13.9219 20.6094
Q13.9219 20.4531 13.8906 20.3594
Q13.875 20.2656 13.8125 20.125
Q13.8125 15.8281 14.6875 11.4219
Q15.5781 7.03125 18.0625 4
Q20.5625 0.984375 25 0.984375" id="Cmr10-36"/>
     <path d="
M8.40625 5.51562
Q8.40625 7.76562 10.0625 9.375
Q11.7188 10.9844 13.9219 10.9844
Q15.2812 10.9844 16.5938 10.25
Q17.9219 9.51562 18.6562 8.20312
Q19.3906 6.89062 19.3906 5.51562
Q19.3906 3.32812 17.7656 1.65625
Q16.1562 0 13.9219 0
Q11.7188 0 10.0625 1.65625
Q8.40625 3.32812 8.40625 5.51562" id="Cmmi10-3a"/>
    </defs>
    <g transform="translate(341.78625 266.697)scale(0.12 -0.12)">
     <use transform="translate(0.0 3.6875)" xlink:href="#Cmmi10-54"/>
     <use transform="translate(75.95703125 3.6875)" xlink:href="#Cmr10-3d"/>
     <use transform="translate(160.015625 3.6875)" xlink:href="#Cmr10-30"/>
     <use transform="translate(210.015625 3.6875)" xlink:href="#Cmmi10-3a"/>
     <use transform="translate(238.55859375 3.6875)" xlink:href="#Cmr10-30"/>
     <use transform="translate(288.55859375 3.6875)" xlink:href="#Cmr10-30"/>
     <use transform="translate(338.55859375 3.6875)" xlink:href="#Cmr10-36"/>
    </g>
    <!-- $\alpha=0.005$ -->
    <defs>
     <path d="
M20.125 -1.125
Q15.375 -1.125 11.6875 1.125
Q8.01562 3.375 6 7.17188
Q4 10.9844 4 15.8281
Q4 22.6094 7.78125 29.25
Q11.5781 35.8906 17.8438 40.0312
Q24.125 44.1875 31 44.1875
Q36.0781 44.1875 39.9375 41.5312
Q43.7969 38.875 45.7969 34.4531
Q47.7969 30.0312 47.7969 25
L47.9062 18.3125
Q51.3125 23.0469 53.6875 28.1406
Q56.0625 33.25 57.3281 38.7188
Q57.5156 39.3125 58.1094 39.3125
L59.2812 39.3125
Q60.2031 39.3125 60.2031 38.375
Q60.2031 38.2812 60.1094 38.0938
Q58.9375 33.5 57.1719 29.2656
Q55.4219 25.0469 53.0469 21.0938
Q50.6875 17.1406 47.9062 13.9219
Q47.9062 1.51562 50.7812 1.51562
Q52.6406 1.51562 53.8281 2.60938
Q55.0312 3.71875 55.9375 5.32812
Q56.8438 6.9375 57.0781 6.98438
L58.2969 6.98438
Q59.0781 6.98438 59.0781 6
Q59.0781 3.51562 56.2188 1.1875
Q53.375 -1.125 50.5938 -1.125
Q46.9688 -1.125 44.5781 1.21875
Q42.1875 3.5625 41.3125 7.32812
Q36.625 3.32812 31.1562 1.09375
Q25.6875 -1.125 20.125 -1.125
M20.3125 1.51562
Q31 1.51562 40.8281 10.2969
Q40.7656 10.8906 40.6719 11.7344
Q40.5781 12.5938 40.5781 12.7031
L40.5781 23.4844
Q40.5781 41.6094 30.8125 41.6094
Q24.9531 41.6094 20.5469 36.5938
Q16.1562 31.5938 13.9375 24.625
Q11.7188 17.6719 11.7188 11.9219
Q11.7188 7.5625 13.9375 4.53125
Q16.1562 1.51562 20.3125 1.51562" id="Cmmi10-ae"/>
     <path d="
M8.6875 11.375
Q9.71875 8.45312 11.8438 6.04688
Q13.9688 3.65625 16.875 2.3125
Q19.7812 0.984375 22.9062 0.984375
Q30.125 0.984375 32.8594 6.59375
Q35.5938 12.2031 35.5938 20.2188
Q35.5938 23.6875 35.4688 26.0469
Q35.3594 28.4219 34.8125 30.6094
Q33.8906 34.125 31.5625 36.7656
Q29.25 39.4062 25.875 39.4062
Q22.5156 39.4062 20.0938 38.375
Q17.6719 37.3594 16.1562 35.9844
Q14.6562 34.625 13.4844 33.1094
Q12.3125 31.5938 12.0156 31.5
L10.8906 31.5
Q10.6406 31.5 10.2656 31.8125
Q9.90625 32.125 9.90625 32.4219
L9.90625 65.8281
Q9.90625 66.0625 10.2188 66.3281
Q10.5469 66.6094 10.8906 66.6094
L11.1875 66.6094
Q17.9219 63.375 25.4844 63.375
Q32.9062 63.375 39.7969 66.6094
L40.0938 66.6094
Q40.4375 66.6094 40.7188 66.3594
Q41.0156 66.1094 41.0156 65.8281
L41.0156 64.8906
Q41.0156 64.4062 40.8281 64.4062
Q37.4062 59.8594 32.25 57.3125
Q27.0938 54.7812 21.5781 54.7812
Q17.5781 54.7812 13.375 55.9062
L13.375 37.0156
Q16.7031 39.7031 19.3125 40.8438
Q21.9219 42 25.9844 42
Q31.5 42 35.8594 38.8125
Q40.2344 35.6406 42.5781 30.5312
Q44.9219 25.4375 44.9219 20.125
Q44.9219 14.1094 41.9688 8.98438
Q39.0156 3.85938 33.9375 0.828125
Q28.8594 -2.20312 22.9062 -2.20312
Q17.9688 -2.20312 13.8438 0.328125
Q9.71875 2.875 7.34375 7.17188
Q4.98438 11.4688 4.98438 16.3125
Q4.98438 18.5625 6.4375 19.9688
Q7.90625 21.3906 10.1094 21.3906
Q12.3125 21.3906 13.7969 19.9375
Q15.2812 18.5 15.2812 16.3125
Q15.2812 14.1562 13.7969 12.6719
Q12.3125 11.1875 10.1094 11.1875
Q9.76562 11.1875 9.32812 11.25
Q8.89062 11.3281 8.6875 11.375" id="Cmr10-35"/>
    </defs>
    <g transform="translate(341.78625 280.6335)scale(0.12 -0.12)">
     <use transform="translate(0.0 3.390625)" xlink:href="#Cmmi10-ae"/>
     <use transform="translate(81.474609375 3.390625)" xlink:href="#Cmr10-3d"/>
     <use transform="translate(165.533203125 3.390625)" xlink:href="#Cmr10-30"/>
     <use transform="translate(215.533203125 3.390625)" xlink:href="#Cmmi10-3a"/>
     <use transform="translate(244.076171875 3.390625)" xlink:href="#Cmr10-30"/>
     <use transform="translate(294.076171875 3.390625)" xlink:href="#Cmr10-30"/>
     <use transform="translate(344.076171875 3.390625)" xlink:href="#Cmr10-35"/>
    </g>
    <!-- $\rho_0=\vert z; -\rangle$ -->
    <defs>
     <path d="
M4.89062 -1.125
Q4.10938 -1.125 4.10938 -0.203125
Q4.10938 0.296875 4.29688 0.484375
Q6.98438 5.125 10.7656 9.34375
Q14.5469 13.5781 19.3594 17.8906
Q24.1719 22.2188 29.0312 26.5625
Q33.8906 30.9062 36.9219 34.2812
L36.5312 34.2812
Q34.3281 34.2812 30.0781 35.6875
Q25.8281 37.1094 23.3906 37.1094
Q20.75 37.1094 18.25 35.9531
Q15.7656 34.8125 15.0938 32.4219
Q14.9375 31.6875 14.3125 31.6875
L13.0938 31.6875
Q12.3125 31.6875 12.3125 32.7188
L12.3125 33.0156
Q13.0938 35.9375 14.875 38.4688
Q16.6562 41.0156 19.2656 42.5938
Q21.875 44.1875 24.7031 44.1875
Q26.7031 44.1875 28.0156 43.2812
Q29.3438 42.3906 31.0938 40.4844
Q32.8594 38.5781 33.9531 37.75
Q35.0625 36.9219 36.7188 36.9219
Q38.9219 36.9219 40.6562 38.9219
Q42.3906 40.9219 44.0938 43.8906
Q44.3906 44.1875 44.8281 44.1875
L46 44.1875
Q46.3438 44.1875 46.5625 43.9375
Q46.7812 43.7031 46.7812 43.3125
Q46.7812 42.9688 46.5781 42.6719
Q43.8906 38.0312 40.2969 34
Q36.7188 29.9844 30.9219 24.7812
Q25.1406 19.5781 21.1562 15.9844
Q17.1875 12.4062 13.7188 8.59375
Q14.5 8.79688 15.8281 8.79688
Q18.2656 8.79688 22.4844 7.39062
Q26.7031 6 29 6
Q31.5 6 34.0312 7.07812
Q36.5781 8.15625 38.4219 10.1094
Q40.2812 12.0625 40.9219 14.5938
Q41.1562 15.2812 41.7031 15.2812
L42.9219 15.2812
Q43.3125 15.2812 43.5469 14.9688
Q43.7969 14.6562 43.7969 14.3125
Q43.7969 14.2031 43.7031 14.0156
Q42.7812 10.2031 40.4844 6.76562
Q38.1875 3.32812 34.8438 1.09375
Q31.5 -1.125 27.6875 -1.125
Q25.7812 -1.125 24.4531 -0.234375
Q23.1406 0.640625 21.3594 2.5625
Q19.5781 4.5 18.4531 5.34375
Q17.3281 6.20312 15.7188 6.20312
Q10.75 6.20312 6.78125 -0.78125
Q6.45312 -1.125 6.10938 -1.125
z
" id="Cmmi10-7a"/>
     <path d="
M7.8125 -114.016
Q7.8125 -113.484 8.01562 -113.281
L33.1094 -56
L8.01562 1.3125
Q7.8125 1.51562 7.8125 2
Q7.8125 2.73438 8.39062 3.35938
Q8.98438 4 9.8125 4
Q10.9844 4 11.7188 2.78125
L37.2031 -55.3281
Q37.3125 -55.5156 37.3125 -56
Q37.3125 -56.5 37.2031 -56.7812
L11.7188 -114.797
Q10.9375 -116.016 9.8125 -116.016
Q8.98438 -116.016 8.39062 -115.375
Q7.8125 -114.75 7.8125 -114.016" id="Cmex10-ae"/>
     <path d="
M2.78125 -18.7969
Q2.78125 -18.2188 2.875 -18.0156
L12.7969 21.9219
Q14.2031 27.2969 17.6406 32.4375
Q21.0938 37.5938 25.9688 40.8906
Q30.8594 44.1875 36.2812 44.1875
Q40.625 44.1875 43.875 41.9219
Q47.125 39.6562 48.75 35.9688
Q50.3906 32.2812 50.3906 27.875
Q50.3906 23.0469 48.4062 17.875
Q46.4375 12.7031 42.9375 8.40625
Q39.4531 4.10938 34.9062 1.48438
Q30.375 -1.125 25.3906 -1.125
Q22.4688 -1.125 19.875 0.609375
Q17.2812 2.34375 15.8281 5.17188
L9.90625 -18.4062
Q9.625 -19.8281 8.45312 -20.7031
Q7.28125 -21.5781 5.8125 -21.5781
Q4.59375 -21.5781 3.6875 -20.8125
Q2.78125 -20.0625 2.78125 -18.7969
M25.5938 1.51562
Q30.9062 1.51562 34.8281 6.95312
Q38.7656 12.4062 40.8438 19.75
Q42.9219 27.0938 42.9219 32.1719
Q42.9219 35.9844 41.25 38.7969
Q39.5938 41.6094 36.0781 41.6094
Q31.7344 41.6094 28.4062 38.3125
Q25.0938 35.0156 23.0938 30.5625
Q21.0938 26.125 19.8281 21.2969
L17.0938 10.1094
Q17.7188 6.5 19.9375 4
Q22.1719 1.51562 25.5938 1.51562" id="Cmmi10-bd"/>
     <path d="
M9.90625 -18.0156
Q9.90625 -17.5781 10.1094 -17.3906
Q17.0938 -9.8125 17.0938 0.390625
L17.0938 0.875
Q15.625 0 13.9219 0
Q11.625 0 10.0156 1.60938
Q8.40625 3.21875 8.40625 5.51562
Q8.40625 7.85938 10.0156 9.42188
Q11.625 10.9844 13.9219 10.9844
Q17.3906 10.9844 18.5312 7.78125
Q19.6719 4.59375 19.6719 0.390625
Q19.6719 -3.125 18.8125 -6.54688
Q17.9688 -9.96875 16.2344 -13.2344
Q14.5 -16.5 12.1094 -19.0938
Q11.8125 -19.3906 11.375 -19.3906
Q10.8906 -19.3906 10.3906 -18.9375
Q9.90625 -18.5 9.90625 -18.0156
M8.40625 37.5938
Q8.40625 39.0156 9.125 40.2812
Q9.85938 41.5469 11.1562 42.3281
Q12.4531 43.1094 13.9219 43.1094
Q15.3281 43.1094 16.625 42.3281
Q17.9219 41.5469 18.6562 40.2812
Q19.3906 39.0156 19.3906 37.5938
Q19.3906 35.3594 17.7969 33.7188
Q16.2188 32.0781 13.9219 32.0781
Q11.6719 32.0781 10.0312 33.7188
Q8.40625 35.3594 8.40625 37.5938" id="Cmr10-3b"/>
     <path d="
M11.9219 -23.1875
L11.9219 73.1875
Q11.9219 73.9688 12.5 74.4844
Q13.0938 75 13.9219 75
Q14.6562 75 15.2812 74.4844
Q15.9219 73.9688 15.9219 73.1875
L15.9219 -23.1875
Q15.9219 -23.9688 15.2812 -24.4844
Q14.6562 -25 13.9219 -25
Q13.0938 -25 12.5 -24.4844
Q11.9219 -23.9688 11.9219 -23.1875" id="Cmsy10-6a"/>
     <path d="
M10.2031 23
Q9.375 23 8.82812 23.625
Q8.29688 24.2656 8.29688 25
Q8.29688 25.7344 8.82812 26.3594
Q9.375 27 10.2031 27
L67.5781 27
Q68.3594 27 68.875 26.3594
Q69.3906 25.7344 69.3906 25
Q69.3906 24.2656 68.875 23.625
Q68.3594 23 67.5781 23
z
" id="Cmsy10-a1"/>
    </defs>
    <g transform="translate(341.78625 300.211875)scale(0.12 -0.12)">
     <use transform="translate(0.0 28.6588541667)" xlink:href="#Cmmi10-bd"/>
     <use transform="translate(51.708984375 3.14947916667)scale(0.7)" xlink:href="#Cmr10-30"/>
     <use transform="translate(119.267578125 28.6588541667)" xlink:href="#Cmr10-3d"/>
     <use transform="translate(203.326171875 28.6588541667)" xlink:href="#Cmsy10-6a"/>
     <use transform="translate(231.01171875 28.6588541667)" xlink:href="#Cmmi10-7a"/>
     <use transform="translate(277.49609375 28.6588541667)" xlink:href="#Cmr10-3b"/>
     <use transform="translate(306.3203125 28.6588541667)" xlink:href="#Cmsy10-a1"/>
     <use transform="translate(384.005859375 122.0)" xlink:href="#Cmex10-ae"/>
    </g>
   </g>
  </g>
 </g>
 <defs>
  <clipPath id="pab632540b7">
   <rect height="375.12" width="516.8475" x="83.3625" y="46.89"/>
  </clipPath>
 </defs>
</svg>
