<?xml version="1.0" encoding="utf-8" standalone="no"?>
<!DOCTYPE svg PUBLIC "-//W3C//DTD SVG 1.1//EN"
  "http://www.w3.org/Graphics/SVG/1.1/DTD/svg11.dtd">
<!-- Created with matplotlib (http://matplotlib.sourceforge.net/) -->
<svg height="487pt" version="1.1" viewBox="0 0 697 487" width="697pt" xmlns="http://www.w3.org/2000/svg" xmlns:xlink="http://www.w3.org/1999/xlink">
 <defs>
  <style type="text/css">
*{stroke-linecap:square;stroke-linejoin:round;}
  </style>
 </defs>
 <g id="figure_1">
  <g id="patch_1">
   <path d="
M0 487.8
L697.5 487.8
L697.5 0
L0 0
z
" style="fill:#ffffff;"/>
  </g>
  <g id="axes_1">
   <g id="patch_2">
    <path d="
M87.1875 439.02
L627.75 439.02
L627.75 48.78
L87.1875 48.78
z
" style="fill:#ffffff;"/>
   </g>
   <g id="line2d_1">
    <path clip-path="url(#p0a907e0a19)" d="
M87.1875 438.532
L114.308 438.044
L130.173 437.557
L150.16 436.581
L163.326 435.606
L173.159 434.63
L181.01 433.655
L190.446 432.192
L198.043 430.73
L204.402 429.267
L209.871 427.806
L216.144 425.857
L221.55 423.909
L226.298 421.962
L230.532 420.017
L235.252 417.586
L239.464 415.158
L243.265 412.732
L247.388 409.825
L251.117 406.921
L255.061 403.54
L258.644 400.165
L262.373 396.317
L265.778 392.48
L269.284 388.178
L272.502 383.891
L275.792 379.148
L279.117 373.958
L282.449 368.33
L285.765 362.276
L289.047 355.81
L292.282 348.95
L295.652 341.263
L298.93 333.235
L302.276 324.455
L305.654 314.978
L309.169 304.451
L312.763 292.983
L316.615 279.922
L320.626 265.515
L325.078 248.66
L330.269 228.083
L338.701 193.565
L345.209 167.351
L349.272 151.879
L352.556 140.218
L355.379 130.978
L357.858 123.589
L360.116 117.532
L362.251 112.461
L364.275 108.294
L365.885 105.455
L367.432 103.145
L368.92 101.324
L370.353 99.9529
L371.464 99.1556
L372.543 98.6053
L373.593 98.2853
L374.616 98.1798
L375.613 98.2735
L376.586 98.5522
L377.768 99.1402
L378.915 99.9714
L380.249 101.258
L381.539 102.824
L382.992 104.962
L384.59 107.755
L386.312 111.268
L388.141 115.541
L390.058 120.585
L392.209 126.877
L394.553 134.414
L397.333 144.156
L400.454 155.935
L404.302 171.359
L410.011 195.271
L419.731 235.972
L424.595 255.305
L428.795 271.112
L432.702 284.973
L436.411 297.332
L439.988 308.502
L443.483 318.703
L446.931 328.089
L450.21 336.41
L453.706 344.659
L457.221 352.339
L460.447 358.869
L463.687 364.96
L467.156 370.992
L470.561 376.453
L473.893 381.386
L477.331 386.08
L480.827 390.469
L484.342 394.524
L487.849 398.236
L491.451 401.732
L495.215 405.069
L498.965 408.099
L502.866 410.967
L506.931 413.675
L511.079 416.171
L515.387 418.503
L519.887 420.688
L524.585 422.722
L529.556 424.629
L534.817 426.406
L540.304 428.027
L546.387 429.582
L552.73 430.971
L559.552 432.238
L567.057 433.403
L575.343 434.459
L584.49 435.397
L594.819 436.228
L606.638 436.948
L620.412 437.558
L627.75 437.806
L627.75 437.806" style="fill:none;stroke:#ff0000;"/>
   </g>
   <g id="line2d_2">
    <path clip-path="url(#p0a907e0a19)" d="
M87.1875 438.532
L114.308 438.044
L130.173 437.557
L150.16 436.581
L163.326 435.606
L173.159 434.63
L181.01 433.655
L190.446 432.192
L198.043 430.729
L204.402 429.267
L209.871 427.805
L216.144 425.855
L221.55 423.907
L226.298 421.959
L230.532 420.012
L235.252 417.58
L239.464 415.149
L243.265 412.72
L247.388 409.808
L251.117 406.899
L255.061 403.509
L258.644 400.125
L262.373 396.264
L265.778 392.412
L269.284 388.089
L272.502 383.778
L275.792 379.003
L279.117 373.771
L282.449 368.091
L285.765 361.97
L289.047 355.421
L292.282 348.457
L295.462 341.092
L298.755 332.891
L302.116 323.892
L305.507 314.138
L308.899 303.682
L312.394 292.165
L315.942 279.69
L319.61 265.982
L323.526 250.468
L327.76 232.761
L332.628 211.402
L339.328 180.885
L347.897 142.003
L351.93 124.757
L355.172 111.832
L357.858 101.973
L360.116 94.3993
L362.251 87.9287
L364.275 82.4808
L366.2 77.9776
L367.734 74.892
L369.211 72.3678
L370.634 70.3643
L372.007 68.8429
L373.072 67.948
L374.108 67.3196
L375.118 66.9407
L376.102 66.7944
L377.063 66.8652
L378 67.1378
L379.141 67.7408
L380.249 68.6106
L381.327 69.7226
L382.583 71.3443
L383.998 73.5867
L385.556 76.5469
L387.237 80.3007
L389.024 84.8955
L390.9 90.3475
L393.006 97.1777
L395.304 105.393
L397.894 115.482
L400.973 128.407
L404.772 145.393
L410.317 171.33
L420.048 216.892
L424.806 238.019
L428.984 255.58
L432.873 270.969
L436.566 284.678
L440.13 297.056
L443.57 308.212
L446.971 318.494
L450.21 327.615
L453.37 335.91
L456.605 343.813
L459.88 351.235
L463.166 358.132
L466.438 364.488
L469.682 370.312
L473.086 375.953
L476.406 381.019
L479.81 385.801
L483.258 390.25
L486.714 394.343
L490.155 398.081
L493.68 401.59
L497.354 404.93
L501.114 408.042
L504.906 410.895
L508.856 413.59
L512.963 416.118
L517.21 418.47
L521.635 420.665
L526.243 422.702
L531.113 424.61
L536.262 426.386
L541.385 427.936
L547.315 429.494
L553.521 430.891
L560.218 432.169
L567.607 433.348
L575.64 434.401
L584.608 435.347
L594.728 436.184
L606.233 436.906
L619.65 437.52
L627.75 437.801
L627.75 437.801" style="fill:none;stroke:#0000ff;"/>
   </g>
   <g id="matplotlib.axis_1">
    <g id="xtick_1">
     <g id="line2d_3">
      <path clip-path="url(#p0a907e0a19)" d="
M87.1875 439.02
L87.1875 48.78" style="fill:none;stroke:#000000;stroke-dasharray:1.000000,3.000000;stroke-dashoffset:0.0;stroke-linecap:butt;stroke-width:0.5;"/>
     </g>
     <g id="line2d_4">
      <defs>
       <path d="
M0 0
L0 -4" id="m0012dd4eef" style="stroke:#000000;stroke-linecap:butt;stroke-width:0.5;"/>
      </defs>
      <g>
       <use style="stroke:#000000;stroke-linecap:butt;stroke-width:0.5;" x="87.1875" xlink:href="#m0012dd4eef" y="439.02"/>
      </g>
     </g>
     <g id="line2d_5">
      <defs>
       <path d="
M0 0
L0 4" id="m476344969c" style="stroke:#000000;stroke-linecap:butt;stroke-width:0.5;"/>
      </defs>
      <g>
       <use style="stroke:#000000;stroke-linecap:butt;stroke-width:0.5;" x="87.1875" xlink:href="#m476344969c" y="48.78"/>
      </g>
     </g>
     <g id="text_1">
      <!-- $\mathdefault{10^{-3}}$ -->
      <defs>
       <path d="
M40.5781 39.3125
Q47.6562 37.7969 51.625 33
Q55.6094 28.2188 55.6094 21.1875
Q55.6094 10.4062 48.1875 4.48438
Q40.7656 -1.42188 27.0938 -1.42188
Q22.5156 -1.42188 17.6562 -0.515625
Q12.7969 0.390625 7.625 2.20312
L7.625 11.7188
Q11.7188 9.32812 16.5938 8.10938
Q21.4844 6.89062 26.8125 6.89062
Q36.0781 6.89062 40.9375 10.5469
Q45.7969 14.2031 45.7969 21.1875
Q45.7969 27.6406 41.2812 31.2656
Q36.7656 34.9062 28.7188 34.9062
L20.2188 34.9062
L20.2188 43.0156
L29.1094 43.0156
Q36.375 43.0156 40.2344 45.9219
Q44.0938 48.8281 44.0938 54.2969
Q44.0938 59.9062 40.1094 62.9062
Q36.1406 65.9219 28.7188 65.9219
Q24.6562 65.9219 20.0156 65.0312
Q15.375 64.1562 9.8125 62.3125
L9.8125 71.0938
Q15.4375 72.6562 20.3438 73.4375
Q25.25 74.2188 29.5938 74.2188
Q40.8281 74.2188 47.3594 69.1094
Q53.9062 64.0156 53.9062 55.3281
Q53.9062 49.2656 50.4375 45.0938
Q46.9688 40.9219 40.5781 39.3125" id="BitstreamVeraSans-Roman-33"/>
       <path d="
M31.7812 66.4062
Q24.1719 66.4062 20.3281 58.9062
Q16.5 51.4219 16.5 36.375
Q16.5 21.3906 20.3281 13.8906
Q24.1719 6.39062 31.7812 6.39062
Q39.4531 6.39062 43.2812 13.8906
Q47.125 21.3906 47.125 36.375
Q47.125 51.4219 43.2812 58.9062
Q39.4531 66.4062 31.7812 66.4062
M31.7812 74.2188
Q44.0469 74.2188 50.5156 64.5156
Q56.9844 54.8281 56.9844 36.375
Q56.9844 17.9688 50.5156 8.26562
Q44.0469 -1.42188 31.7812 -1.42188
Q19.5312 -1.42188 13.0625 8.26562
Q6.59375 17.9688 6.59375 36.375
Q6.59375 54.8281 13.0625 64.5156
Q19.5312 74.2188 31.7812 74.2188" id="BitstreamVeraSans-Roman-30"/>
       <path d="
M12.4062 8.29688
L28.5156 8.29688
L28.5156 63.9219
L10.9844 60.4062
L10.9844 69.3906
L28.4219 72.9062
L38.2812 72.9062
L38.2812 8.29688
L54.3906 8.29688
L54.3906 0
L12.4062 0
z
" id="BitstreamVeraSans-Roman-31"/>
       <path d="
M4.89062 31.3906
L31.2031 31.3906
L31.2031 23.3906
L4.89062 23.3906
z
" id="BitstreamVeraSans-Roman-2d"/>
      </defs>
      <g transform="translate(74.0475 455.86)scale(0.12 -0.12)">
       <use transform="translate(0.0 2.546875)" xlink:href="#BitstreamVeraSans-Roman-31"/>
       <use transform="translate(63.623046875 2.546875)" xlink:href="#BitstreamVeraSans-Roman-30"/>
       <use transform="translate(127.24609375 55.046875)scale(0.7)" xlink:href="#BitstreamVeraSans-Roman-2d"/>
       <use transform="translate(152.504882812 55.046875)scale(0.7)" xlink:href="#BitstreamVeraSans-Roman-33"/>
      </g>
     </g>
    </g>
    <g id="xtick_2">
     <g id="line2d_6">
      <path clip-path="url(#p0a907e0a19)" d="
M177.281 439.02
L177.281 48.78" style="fill:none;stroke:#000000;stroke-dasharray:1.000000,3.000000;stroke-dashoffset:0.0;stroke-linecap:butt;stroke-width:0.5;"/>
     </g>
     <g id="line2d_7">
      <g>
       <use style="stroke:#000000;stroke-linecap:butt;stroke-width:0.5;" x="177.28125" xlink:href="#m0012dd4eef" y="439.02"/>
      </g>
     </g>
     <g id="line2d_8">
      <g>
       <use style="stroke:#000000;stroke-linecap:butt;stroke-width:0.5;" x="177.28125" xlink:href="#m476344969c" y="48.78"/>
      </g>
     </g>
     <g id="text_2">
      <!-- $\mathdefault{10^{-2}}$ -->
      <defs>
       <path d="
M19.1875 8.29688
L53.6094 8.29688
L53.6094 0
L7.32812 0
L7.32812 8.29688
Q12.9375 14.1094 22.625 23.8906
Q32.3281 33.6875 34.8125 36.5312
Q39.5469 41.8438 41.4219 45.5312
Q43.3125 49.2188 43.3125 52.7812
Q43.3125 58.5938 39.2344 62.25
Q35.1562 65.9219 28.6094 65.9219
Q23.9688 65.9219 18.8125 64.3125
Q13.6719 62.7031 7.8125 59.4219
L7.8125 69.3906
Q13.7656 71.7812 18.9375 73
Q24.125 74.2188 28.4219 74.2188
Q39.75 74.2188 46.4844 68.5469
Q53.2188 62.8906 53.2188 53.4219
Q53.2188 48.9219 51.5312 44.8906
Q49.8594 40.875 45.4062 35.4062
Q44.1875 33.9844 37.6406 27.2188
Q31.1094 20.4531 19.1875 8.29688" id="BitstreamVeraSans-Roman-32"/>
      </defs>
      <g transform="translate(164.14125 455.86)scale(0.12 -0.12)">
       <use transform="translate(0.0 2.546875)" xlink:href="#BitstreamVeraSans-Roman-31"/>
       <use transform="translate(63.623046875 2.546875)" xlink:href="#BitstreamVeraSans-Roman-30"/>
       <use transform="translate(127.24609375 55.046875)scale(0.7)" xlink:href="#BitstreamVeraSans-Roman-2d"/>
       <use transform="translate(152.504882812 55.046875)scale(0.7)" xlink:href="#BitstreamVeraSans-Roman-32"/>
      </g>
     </g>
    </g>
    <g id="xtick_3">
     <g id="line2d_9">
      <path clip-path="url(#p0a907e0a19)" d="
M267.375 439.02
L267.375 48.78" style="fill:none;stroke:#000000;stroke-dasharray:1.000000,3.000000;stroke-dashoffset:0.0;stroke-linecap:butt;stroke-width:0.5;"/>
     </g>
     <g id="line2d_10">
      <g>
       <use style="stroke:#000000;stroke-linecap:butt;stroke-width:0.5;" x="267.375" xlink:href="#m0012dd4eef" y="439.02"/>
      </g>
     </g>
     <g id="line2d_11">
      <g>
       <use style="stroke:#000000;stroke-linecap:butt;stroke-width:0.5;" x="267.375" xlink:href="#m476344969c" y="48.78"/>
      </g>
     </g>
     <g id="text_3">
      <!-- $\mathdefault{10^{-1}}$ -->
      <g transform="translate(254.235 455.74)scale(0.12 -0.12)">
       <use transform="translate(0.0 2.465625)" xlink:href="#BitstreamVeraSans-Roman-31"/>
       <use transform="translate(63.623046875 2.465625)" xlink:href="#BitstreamVeraSans-Roman-30"/>
       <use transform="translate(127.24609375 54.965625)scale(0.7)" xlink:href="#BitstreamVeraSans-Roman-2d"/>
       <use transform="translate(152.504882812 54.965625)scale(0.7)" xlink:href="#BitstreamVeraSans-Roman-31"/>
      </g>
     </g>
    </g>
    <g id="xtick_4">
     <g id="line2d_12">
      <path clip-path="url(#p0a907e0a19)" d="
M357.469 439.02
L357.469 48.78" style="fill:none;stroke:#000000;stroke-dasharray:1.000000,3.000000;stroke-dashoffset:0.0;stroke-linecap:butt;stroke-width:0.5;"/>
     </g>
     <g id="line2d_13">
      <g>
       <use style="stroke:#000000;stroke-linecap:butt;stroke-width:0.5;" x="357.46875" xlink:href="#m0012dd4eef" y="439.02"/>
      </g>
     </g>
     <g id="line2d_14">
      <g>
       <use style="stroke:#000000;stroke-linecap:butt;stroke-width:0.5;" x="357.46875" xlink:href="#m476344969c" y="48.78"/>
      </g>
     </g>
     <g id="text_4">
      <!-- $\mathdefault{10^{0}}$ -->
      <g transform="translate(345.88875 455.86)scale(0.12 -0.12)">
       <use transform="translate(0.0 2.546875)" xlink:href="#BitstreamVeraSans-Roman-31"/>
       <use transform="translate(63.623046875 2.546875)" xlink:href="#BitstreamVeraSans-Roman-30"/>
       <use transform="translate(127.24609375 55.046875)scale(0.7)" xlink:href="#BitstreamVeraSans-Roman-30"/>
      </g>
     </g>
    </g>
    <g id="xtick_5">
     <g id="line2d_15">
      <path clip-path="url(#p0a907e0a19)" d="
M447.562 439.02
L447.562 48.78" style="fill:none;stroke:#000000;stroke-dasharray:1.000000,3.000000;stroke-dashoffset:0.0;stroke-linecap:butt;stroke-width:0.5;"/>
     </g>
     <g id="line2d_16">
      <g>
       <use style="stroke:#000000;stroke-linecap:butt;stroke-width:0.5;" x="447.5625" xlink:href="#m0012dd4eef" y="439.02"/>
      </g>
     </g>
     <g id="line2d_17">
      <g>
       <use style="stroke:#000000;stroke-linecap:butt;stroke-width:0.5;" x="447.5625" xlink:href="#m476344969c" y="48.78"/>
      </g>
     </g>
     <g id="text_5">
      <!-- $\mathdefault{10^{1}}$ -->
      <g transform="translate(435.9825 455.74)scale(0.12 -0.12)">
       <use transform="translate(0.0 2.465625)" xlink:href="#BitstreamVeraSans-Roman-31"/>
       <use transform="translate(63.623046875 2.465625)" xlink:href="#BitstreamVeraSans-Roman-30"/>
       <use transform="translate(127.24609375 54.965625)scale(0.7)" xlink:href="#BitstreamVeraSans-Roman-31"/>
      </g>
     </g>
    </g>
    <g id="xtick_6">
     <g id="line2d_18">
      <path clip-path="url(#p0a907e0a19)" d="
M537.656 439.02
L537.656 48.78" style="fill:none;stroke:#000000;stroke-dasharray:1.000000,3.000000;stroke-dashoffset:0.0;stroke-linecap:butt;stroke-width:0.5;"/>
     </g>
     <g id="line2d_19">
      <g>
       <use style="stroke:#000000;stroke-linecap:butt;stroke-width:0.5;" x="537.65625" xlink:href="#m0012dd4eef" y="439.02"/>
      </g>
     </g>
     <g id="line2d_20">
      <g>
       <use style="stroke:#000000;stroke-linecap:butt;stroke-width:0.5;" x="537.65625" xlink:href="#m476344969c" y="48.78"/>
      </g>
     </g>
     <g id="text_6">
      <!-- $\mathdefault{10^{2}}$ -->
      <g transform="translate(526.07625 455.86)scale(0.12 -0.12)">
       <use transform="translate(0.0 2.546875)" xlink:href="#BitstreamVeraSans-Roman-31"/>
       <use transform="translate(63.623046875 2.546875)" xlink:href="#BitstreamVeraSans-Roman-30"/>
       <use transform="translate(127.24609375 55.046875)scale(0.7)" xlink:href="#BitstreamVeraSans-Roman-32"/>
      </g>
     </g>
    </g>
    <g id="xtick_7">
     <g id="line2d_21">
      <path clip-path="url(#p0a907e0a19)" d="
M627.75 439.02
L627.75 48.78" style="fill:none;stroke:#000000;stroke-dasharray:1.000000,3.000000;stroke-dashoffset:0.0;stroke-linecap:butt;stroke-width:0.5;"/>
     </g>
     <g id="line2d_22">
      <g>
       <use style="stroke:#000000;stroke-linecap:butt;stroke-width:0.5;" x="627.75" xlink:href="#m0012dd4eef" y="439.02"/>
      </g>
     </g>
     <g id="line2d_23">
      <g>
       <use style="stroke:#000000;stroke-linecap:butt;stroke-width:0.5;" x="627.75" xlink:href="#m476344969c" y="48.78"/>
      </g>
     </g>
     <g id="text_7">
      <!-- $\mathdefault{10^{3}}$ -->
      <g transform="translate(616.17 455.86)scale(0.12 -0.12)">
       <use transform="translate(0.0 2.546875)" xlink:href="#BitstreamVeraSans-Roman-31"/>
       <use transform="translate(63.623046875 2.546875)" xlink:href="#BitstreamVeraSans-Roman-30"/>
       <use transform="translate(127.24609375 55.046875)scale(0.7)" xlink:href="#BitstreamVeraSans-Roman-33"/>
      </g>
     </g>
    </g>
    <g id="xtick_8">
     <g id="line2d_24">
      <defs>
       <path d="
M0 0
L0 -2" id="m69b1a1edd1" style="stroke:#000000;stroke-linecap:butt;stroke-width:0.5;"/>
      </defs>
      <g>
       <use style="stroke:#000000;stroke-linecap:butt;stroke-width:0.5;" x="114.308421172" xlink:href="#m69b1a1edd1" y="439.02"/>
      </g>
     </g>
     <g id="line2d_25">
      <defs>
       <path d="
M0 0
L0 2" id="m9ad4d917ad" style="stroke:#000000;stroke-linecap:butt;stroke-width:0.5;"/>
      </defs>
      <g>
       <use style="stroke:#000000;stroke-linecap:butt;stroke-width:0.5;" x="114.308421172" xlink:href="#m9ad4d917ad" y="48.78"/>
      </g>
     </g>
    </g>
    <g id="xtick_9">
     <g id="line2d_26">
      <g>
       <use style="stroke:#000000;stroke-linecap:butt;stroke-width:0.5;" x="130.173143042" xlink:href="#m69b1a1edd1" y="439.02"/>
      </g>
     </g>
     <g id="line2d_27">
      <g>
       <use style="stroke:#000000;stroke-linecap:butt;stroke-width:0.5;" x="130.173143042" xlink:href="#m9ad4d917ad" y="48.78"/>
      </g>
     </g>
    </g>
    <g id="xtick_10">
     <g id="line2d_28">
      <g>
       <use style="stroke:#000000;stroke-linecap:butt;stroke-width:0.5;" x="141.429342344" xlink:href="#m69b1a1edd1" y="439.02"/>
      </g>
     </g>
     <g id="line2d_29">
      <g>
       <use style="stroke:#000000;stroke-linecap:butt;stroke-width:0.5;" x="141.429342344" xlink:href="#m9ad4d917ad" y="48.78"/>
      </g>
     </g>
    </g>
    <g id="xtick_11">
     <g id="line2d_30">
      <g>
       <use style="stroke:#000000;stroke-linecap:butt;stroke-width:0.5;" x="150.160328828" xlink:href="#m69b1a1edd1" y="439.02"/>
      </g>
     </g>
     <g id="line2d_31">
      <g>
       <use style="stroke:#000000;stroke-linecap:butt;stroke-width:0.5;" x="150.160328828" xlink:href="#m9ad4d917ad" y="48.78"/>
      </g>
     </g>
    </g>
    <g id="xtick_12">
     <g id="line2d_32">
      <g>
       <use style="stroke:#000000;stroke-linecap:butt;stroke-width:0.5;" x="157.294064214" xlink:href="#m69b1a1edd1" y="439.02"/>
      </g>
     </g>
     <g id="line2d_33">
      <g>
       <use style="stroke:#000000;stroke-linecap:butt;stroke-width:0.5;" x="157.294064214" xlink:href="#m9ad4d917ad" y="48.78"/>
      </g>
     </g>
    </g>
    <g id="xtick_13">
     <g id="line2d_34">
      <g>
       <use style="stroke:#000000;stroke-linecap:butt;stroke-width:0.5;" x="163.325551543" xlink:href="#m69b1a1edd1" y="439.02"/>
      </g>
     </g>
     <g id="line2d_35">
      <g>
       <use style="stroke:#000000;stroke-linecap:butt;stroke-width:0.5;" x="163.325551543" xlink:href="#m9ad4d917ad" y="48.78"/>
      </g>
     </g>
    </g>
    <g id="xtick_14">
     <g id="line2d_36">
      <g>
       <use style="stroke:#000000;stroke-linecap:butt;stroke-width:0.5;" x="168.550263516" xlink:href="#m69b1a1edd1" y="439.02"/>
      </g>
     </g>
     <g id="line2d_37">
      <g>
       <use style="stroke:#000000;stroke-linecap:butt;stroke-width:0.5;" x="168.550263516" xlink:href="#m9ad4d917ad" y="48.78"/>
      </g>
     </g>
    </g>
    <g id="xtick_15">
     <g id="line2d_38">
      <g>
       <use style="stroke:#000000;stroke-linecap:butt;stroke-width:0.5;" x="173.158786085" xlink:href="#m69b1a1edd1" y="439.02"/>
      </g>
     </g>
     <g id="line2d_39">
      <g>
       <use style="stroke:#000000;stroke-linecap:butt;stroke-width:0.5;" x="173.158786085" xlink:href="#m9ad4d917ad" y="48.78"/>
      </g>
     </g>
    </g>
    <g id="xtick_16">
     <g id="line2d_40">
      <g>
       <use style="stroke:#000000;stroke-linecap:butt;stroke-width:0.5;" x="204.402171172" xlink:href="#m69b1a1edd1" y="439.02"/>
      </g>
     </g>
     <g id="line2d_41">
      <g>
       <use style="stroke:#000000;stroke-linecap:butt;stroke-width:0.5;" x="204.402171172" xlink:href="#m9ad4d917ad" y="48.78"/>
      </g>
     </g>
    </g>
    <g id="xtick_17">
     <g id="line2d_42">
      <g>
       <use style="stroke:#000000;stroke-linecap:butt;stroke-width:0.5;" x="220.266893042" xlink:href="#m69b1a1edd1" y="439.02"/>
      </g>
     </g>
     <g id="line2d_43">
      <g>
       <use style="stroke:#000000;stroke-linecap:butt;stroke-width:0.5;" x="220.266893042" xlink:href="#m9ad4d917ad" y="48.78"/>
      </g>
     </g>
    </g>
    <g id="xtick_18">
     <g id="line2d_44">
      <g>
       <use style="stroke:#000000;stroke-linecap:butt;stroke-width:0.5;" x="231.523092344" xlink:href="#m69b1a1edd1" y="439.02"/>
      </g>
     </g>
     <g id="line2d_45">
      <g>
       <use style="stroke:#000000;stroke-linecap:butt;stroke-width:0.5;" x="231.523092344" xlink:href="#m9ad4d917ad" y="48.78"/>
      </g>
     </g>
    </g>
    <g id="xtick_19">
     <g id="line2d_46">
      <g>
       <use style="stroke:#000000;stroke-linecap:butt;stroke-width:0.5;" x="240.254078828" xlink:href="#m69b1a1edd1" y="439.02"/>
      </g>
     </g>
     <g id="line2d_47">
      <g>
       <use style="stroke:#000000;stroke-linecap:butt;stroke-width:0.5;" x="240.254078828" xlink:href="#m9ad4d917ad" y="48.78"/>
      </g>
     </g>
    </g>
    <g id="xtick_20">
     <g id="line2d_48">
      <g>
       <use style="stroke:#000000;stroke-linecap:butt;stroke-width:0.5;" x="247.387814214" xlink:href="#m69b1a1edd1" y="439.02"/>
      </g>
     </g>
     <g id="line2d_49">
      <g>
       <use style="stroke:#000000;stroke-linecap:butt;stroke-width:0.5;" x="247.387814214" xlink:href="#m9ad4d917ad" y="48.78"/>
      </g>
     </g>
    </g>
    <g id="xtick_21">
     <g id="line2d_50">
      <g>
       <use style="stroke:#000000;stroke-linecap:butt;stroke-width:0.5;" x="253.419301543" xlink:href="#m69b1a1edd1" y="439.02"/>
      </g>
     </g>
     <g id="line2d_51">
      <g>
       <use style="stroke:#000000;stroke-linecap:butt;stroke-width:0.5;" x="253.419301543" xlink:href="#m9ad4d917ad" y="48.78"/>
      </g>
     </g>
    </g>
    <g id="xtick_22">
     <g id="line2d_52">
      <g>
       <use style="stroke:#000000;stroke-linecap:butt;stroke-width:0.5;" x="258.644013516" xlink:href="#m69b1a1edd1" y="439.02"/>
      </g>
     </g>
     <g id="line2d_53">
      <g>
       <use style="stroke:#000000;stroke-linecap:butt;stroke-width:0.5;" x="258.644013516" xlink:href="#m9ad4d917ad" y="48.78"/>
      </g>
     </g>
    </g>
    <g id="xtick_23">
     <g id="line2d_54">
      <g>
       <use style="stroke:#000000;stroke-linecap:butt;stroke-width:0.5;" x="263.252536085" xlink:href="#m69b1a1edd1" y="439.02"/>
      </g>
     </g>
     <g id="line2d_55">
      <g>
       <use style="stroke:#000000;stroke-linecap:butt;stroke-width:0.5;" x="263.252536085" xlink:href="#m9ad4d917ad" y="48.78"/>
      </g>
     </g>
    </g>
    <g id="xtick_24">
     <g id="line2d_56">
      <g>
       <use style="stroke:#000000;stroke-linecap:butt;stroke-width:0.5;" x="294.495921172" xlink:href="#m69b1a1edd1" y="439.02"/>
      </g>
     </g>
     <g id="line2d_57">
      <g>
       <use style="stroke:#000000;stroke-linecap:butt;stroke-width:0.5;" x="294.495921172" xlink:href="#m9ad4d917ad" y="48.78"/>
      </g>
     </g>
    </g>
    <g id="xtick_25">
     <g id="line2d_58">
      <g>
       <use style="stroke:#000000;stroke-linecap:butt;stroke-width:0.5;" x="310.360643042" xlink:href="#m69b1a1edd1" y="439.02"/>
      </g>
     </g>
     <g id="line2d_59">
      <g>
       <use style="stroke:#000000;stroke-linecap:butt;stroke-width:0.5;" x="310.360643042" xlink:href="#m9ad4d917ad" y="48.78"/>
      </g>
     </g>
    </g>
    <g id="xtick_26">
     <g id="line2d_60">
      <g>
       <use style="stroke:#000000;stroke-linecap:butt;stroke-width:0.5;" x="321.616842344" xlink:href="#m69b1a1edd1" y="439.02"/>
      </g>
     </g>
     <g id="line2d_61">
      <g>
       <use style="stroke:#000000;stroke-linecap:butt;stroke-width:0.5;" x="321.616842344" xlink:href="#m9ad4d917ad" y="48.78"/>
      </g>
     </g>
    </g>
    <g id="xtick_27">
     <g id="line2d_62">
      <g>
       <use style="stroke:#000000;stroke-linecap:butt;stroke-width:0.5;" x="330.347828828" xlink:href="#m69b1a1edd1" y="439.02"/>
      </g>
     </g>
     <g id="line2d_63">
      <g>
       <use style="stroke:#000000;stroke-linecap:butt;stroke-width:0.5;" x="330.347828828" xlink:href="#m9ad4d917ad" y="48.78"/>
      </g>
     </g>
    </g>
    <g id="xtick_28">
     <g id="line2d_64">
      <g>
       <use style="stroke:#000000;stroke-linecap:butt;stroke-width:0.5;" x="337.481564214" xlink:href="#m69b1a1edd1" y="439.02"/>
      </g>
     </g>
     <g id="line2d_65">
      <g>
       <use style="stroke:#000000;stroke-linecap:butt;stroke-width:0.5;" x="337.481564214" xlink:href="#m9ad4d917ad" y="48.78"/>
      </g>
     </g>
    </g>
    <g id="xtick_29">
     <g id="line2d_66">
      <g>
       <use style="stroke:#000000;stroke-linecap:butt;stroke-width:0.5;" x="343.513051543" xlink:href="#m69b1a1edd1" y="439.02"/>
      </g>
     </g>
     <g id="line2d_67">
      <g>
       <use style="stroke:#000000;stroke-linecap:butt;stroke-width:0.5;" x="343.513051543" xlink:href="#m9ad4d917ad" y="48.78"/>
      </g>
     </g>
    </g>
    <g id="xtick_30">
     <g id="line2d_68">
      <g>
       <use style="stroke:#000000;stroke-linecap:butt;stroke-width:0.5;" x="348.737763516" xlink:href="#m69b1a1edd1" y="439.02"/>
      </g>
     </g>
     <g id="line2d_69">
      <g>
       <use style="stroke:#000000;stroke-linecap:butt;stroke-width:0.5;" x="348.737763516" xlink:href="#m9ad4d917ad" y="48.78"/>
      </g>
     </g>
    </g>
    <g id="xtick_31">
     <g id="line2d_70">
      <g>
       <use style="stroke:#000000;stroke-linecap:butt;stroke-width:0.5;" x="353.346286085" xlink:href="#m69b1a1edd1" y="439.02"/>
      </g>
     </g>
     <g id="line2d_71">
      <g>
       <use style="stroke:#000000;stroke-linecap:butt;stroke-width:0.5;" x="353.346286085" xlink:href="#m9ad4d917ad" y="48.78"/>
      </g>
     </g>
    </g>
    <g id="xtick_32">
     <g id="line2d_72">
      <g>
       <use style="stroke:#000000;stroke-linecap:butt;stroke-width:0.5;" x="384.589671172" xlink:href="#m69b1a1edd1" y="439.02"/>
      </g>
     </g>
     <g id="line2d_73">
      <g>
       <use style="stroke:#000000;stroke-linecap:butt;stroke-width:0.5;" x="384.589671172" xlink:href="#m9ad4d917ad" y="48.78"/>
      </g>
     </g>
    </g>
    <g id="xtick_33">
     <g id="line2d_74">
      <g>
       <use style="stroke:#000000;stroke-linecap:butt;stroke-width:0.5;" x="400.454393042" xlink:href="#m69b1a1edd1" y="439.02"/>
      </g>
     </g>
     <g id="line2d_75">
      <g>
       <use style="stroke:#000000;stroke-linecap:butt;stroke-width:0.5;" x="400.454393042" xlink:href="#m9ad4d917ad" y="48.78"/>
      </g>
     </g>
    </g>
    <g id="xtick_34">
     <g id="line2d_76">
      <g>
       <use style="stroke:#000000;stroke-linecap:butt;stroke-width:0.5;" x="411.710592344" xlink:href="#m69b1a1edd1" y="439.02"/>
      </g>
     </g>
     <g id="line2d_77">
      <g>
       <use style="stroke:#000000;stroke-linecap:butt;stroke-width:0.5;" x="411.710592344" xlink:href="#m9ad4d917ad" y="48.78"/>
      </g>
     </g>
    </g>
    <g id="xtick_35">
     <g id="line2d_78">
      <g>
       <use style="stroke:#000000;stroke-linecap:butt;stroke-width:0.5;" x="420.441578828" xlink:href="#m69b1a1edd1" y="439.02"/>
      </g>
     </g>
     <g id="line2d_79">
      <g>
       <use style="stroke:#000000;stroke-linecap:butt;stroke-width:0.5;" x="420.441578828" xlink:href="#m9ad4d917ad" y="48.78"/>
      </g>
     </g>
    </g>
    <g id="xtick_36">
     <g id="line2d_80">
      <g>
       <use style="stroke:#000000;stroke-linecap:butt;stroke-width:0.5;" x="427.575314214" xlink:href="#m69b1a1edd1" y="439.02"/>
      </g>
     </g>
     <g id="line2d_81">
      <g>
       <use style="stroke:#000000;stroke-linecap:butt;stroke-width:0.5;" x="427.575314214" xlink:href="#m9ad4d917ad" y="48.78"/>
      </g>
     </g>
    </g>
    <g id="xtick_37">
     <g id="line2d_82">
      <g>
       <use style="stroke:#000000;stroke-linecap:butt;stroke-width:0.5;" x="433.606801543" xlink:href="#m69b1a1edd1" y="439.02"/>
      </g>
     </g>
     <g id="line2d_83">
      <g>
       <use style="stroke:#000000;stroke-linecap:butt;stroke-width:0.5;" x="433.606801543" xlink:href="#m9ad4d917ad" y="48.78"/>
      </g>
     </g>
    </g>
    <g id="xtick_38">
     <g id="line2d_84">
      <g>
       <use style="stroke:#000000;stroke-linecap:butt;stroke-width:0.5;" x="438.831513516" xlink:href="#m69b1a1edd1" y="439.02"/>
      </g>
     </g>
     <g id="line2d_85">
      <g>
       <use style="stroke:#000000;stroke-linecap:butt;stroke-width:0.5;" x="438.831513516" xlink:href="#m9ad4d917ad" y="48.78"/>
      </g>
     </g>
    </g>
    <g id="xtick_39">
     <g id="line2d_86">
      <g>
       <use style="stroke:#000000;stroke-linecap:butt;stroke-width:0.5;" x="443.440036085" xlink:href="#m69b1a1edd1" y="439.02"/>
      </g>
     </g>
     <g id="line2d_87">
      <g>
       <use style="stroke:#000000;stroke-linecap:butt;stroke-width:0.5;" x="443.440036085" xlink:href="#m9ad4d917ad" y="48.78"/>
      </g>
     </g>
    </g>
    <g id="xtick_40">
     <g id="line2d_88">
      <g>
       <use style="stroke:#000000;stroke-linecap:butt;stroke-width:0.5;" x="474.683421172" xlink:href="#m69b1a1edd1" y="439.02"/>
      </g>
     </g>
     <g id="line2d_89">
      <g>
       <use style="stroke:#000000;stroke-linecap:butt;stroke-width:0.5;" x="474.683421172" xlink:href="#m9ad4d917ad" y="48.78"/>
      </g>
     </g>
    </g>
    <g id="xtick_41">
     <g id="line2d_90">
      <g>
       <use style="stroke:#000000;stroke-linecap:butt;stroke-width:0.5;" x="490.548143042" xlink:href="#m69b1a1edd1" y="439.02"/>
      </g>
     </g>
     <g id="line2d_91">
      <g>
       <use style="stroke:#000000;stroke-linecap:butt;stroke-width:0.5;" x="490.548143042" xlink:href="#m9ad4d917ad" y="48.78"/>
      </g>
     </g>
    </g>
    <g id="xtick_42">
     <g id="line2d_92">
      <g>
       <use style="stroke:#000000;stroke-linecap:butt;stroke-width:0.5;" x="501.804342344" xlink:href="#m69b1a1edd1" y="439.02"/>
      </g>
     </g>
     <g id="line2d_93">
      <g>
       <use style="stroke:#000000;stroke-linecap:butt;stroke-width:0.5;" x="501.804342344" xlink:href="#m9ad4d917ad" y="48.78"/>
      </g>
     </g>
    </g>
    <g id="xtick_43">
     <g id="line2d_94">
      <g>
       <use style="stroke:#000000;stroke-linecap:butt;stroke-width:0.5;" x="510.535328828" xlink:href="#m69b1a1edd1" y="439.02"/>
      </g>
     </g>
     <g id="line2d_95">
      <g>
       <use style="stroke:#000000;stroke-linecap:butt;stroke-width:0.5;" x="510.535328828" xlink:href="#m9ad4d917ad" y="48.78"/>
      </g>
     </g>
    </g>
    <g id="xtick_44">
     <g id="line2d_96">
      <g>
       <use style="stroke:#000000;stroke-linecap:butt;stroke-width:0.5;" x="517.669064214" xlink:href="#m69b1a1edd1" y="439.02"/>
      </g>
     </g>
     <g id="line2d_97">
      <g>
       <use style="stroke:#000000;stroke-linecap:butt;stroke-width:0.5;" x="517.669064214" xlink:href="#m9ad4d917ad" y="48.78"/>
      </g>
     </g>
    </g>
    <g id="xtick_45">
     <g id="line2d_98">
      <g>
       <use style="stroke:#000000;stroke-linecap:butt;stroke-width:0.5;" x="523.700551543" xlink:href="#m69b1a1edd1" y="439.02"/>
      </g>
     </g>
     <g id="line2d_99">
      <g>
       <use style="stroke:#000000;stroke-linecap:butt;stroke-width:0.5;" x="523.700551543" xlink:href="#m9ad4d917ad" y="48.78"/>
      </g>
     </g>
    </g>
    <g id="xtick_46">
     <g id="line2d_100">
      <g>
       <use style="stroke:#000000;stroke-linecap:butt;stroke-width:0.5;" x="528.925263516" xlink:href="#m69b1a1edd1" y="439.02"/>
      </g>
     </g>
     <g id="line2d_101">
      <g>
       <use style="stroke:#000000;stroke-linecap:butt;stroke-width:0.5;" x="528.925263516" xlink:href="#m9ad4d917ad" y="48.78"/>
      </g>
     </g>
    </g>
    <g id="xtick_47">
     <g id="line2d_102">
      <g>
       <use style="stroke:#000000;stroke-linecap:butt;stroke-width:0.5;" x="533.533786085" xlink:href="#m69b1a1edd1" y="439.02"/>
      </g>
     </g>
     <g id="line2d_103">
      <g>
       <use style="stroke:#000000;stroke-linecap:butt;stroke-width:0.5;" x="533.533786085" xlink:href="#m9ad4d917ad" y="48.78"/>
      </g>
     </g>
    </g>
    <g id="xtick_48">
     <g id="line2d_104">
      <g>
       <use style="stroke:#000000;stroke-linecap:butt;stroke-width:0.5;" x="564.777171172" xlink:href="#m69b1a1edd1" y="439.02"/>
      </g>
     </g>
     <g id="line2d_105">
      <g>
       <use style="stroke:#000000;stroke-linecap:butt;stroke-width:0.5;" x="564.777171172" xlink:href="#m9ad4d917ad" y="48.78"/>
      </g>
     </g>
    </g>
    <g id="xtick_49">
     <g id="line2d_106">
      <g>
       <use style="stroke:#000000;stroke-linecap:butt;stroke-width:0.5;" x="580.641893042" xlink:href="#m69b1a1edd1" y="439.02"/>
      </g>
     </g>
     <g id="line2d_107">
      <g>
       <use style="stroke:#000000;stroke-linecap:butt;stroke-width:0.5;" x="580.641893042" xlink:href="#m9ad4d917ad" y="48.78"/>
      </g>
     </g>
    </g>
    <g id="xtick_50">
     <g id="line2d_108">
      <g>
       <use style="stroke:#000000;stroke-linecap:butt;stroke-width:0.5;" x="591.898092344" xlink:href="#m69b1a1edd1" y="439.02"/>
      </g>
     </g>
     <g id="line2d_109">
      <g>
       <use style="stroke:#000000;stroke-linecap:butt;stroke-width:0.5;" x="591.898092344" xlink:href="#m9ad4d917ad" y="48.78"/>
      </g>
     </g>
    </g>
    <g id="xtick_51">
     <g id="line2d_110">
      <g>
       <use style="stroke:#000000;stroke-linecap:butt;stroke-width:0.5;" x="600.629078828" xlink:href="#m69b1a1edd1" y="439.02"/>
      </g>
     </g>
     <g id="line2d_111">
      <g>
       <use style="stroke:#000000;stroke-linecap:butt;stroke-width:0.5;" x="600.629078828" xlink:href="#m9ad4d917ad" y="48.78"/>
      </g>
     </g>
    </g>
    <g id="xtick_52">
     <g id="line2d_112">
      <g>
       <use style="stroke:#000000;stroke-linecap:butt;stroke-width:0.5;" x="607.762814214" xlink:href="#m69b1a1edd1" y="439.02"/>
      </g>
     </g>
     <g id="line2d_113">
      <g>
       <use style="stroke:#000000;stroke-linecap:butt;stroke-width:0.5;" x="607.762814214" xlink:href="#m9ad4d917ad" y="48.78"/>
      </g>
     </g>
    </g>
    <g id="xtick_53">
     <g id="line2d_114">
      <g>
       <use style="stroke:#000000;stroke-linecap:butt;stroke-width:0.5;" x="613.794301543" xlink:href="#m69b1a1edd1" y="439.02"/>
      </g>
     </g>
     <g id="line2d_115">
      <g>
       <use style="stroke:#000000;stroke-linecap:butt;stroke-width:0.5;" x="613.794301543" xlink:href="#m9ad4d917ad" y="48.78"/>
      </g>
     </g>
    </g>
    <g id="xtick_54">
     <g id="line2d_116">
      <g>
       <use style="stroke:#000000;stroke-linecap:butt;stroke-width:0.5;" x="619.019013516" xlink:href="#m69b1a1edd1" y="439.02"/>
      </g>
     </g>
     <g id="line2d_117">
      <g>
       <use style="stroke:#000000;stroke-linecap:butt;stroke-width:0.5;" x="619.019013516" xlink:href="#m9ad4d917ad" y="48.78"/>
      </g>
     </g>
    </g>
    <g id="xtick_55">
     <g id="line2d_118">
      <g>
       <use style="stroke:#000000;stroke-linecap:butt;stroke-width:0.5;" x="623.627536085" xlink:href="#m69b1a1edd1" y="439.02"/>
      </g>
     </g>
     <g id="line2d_119">
      <g>
       <use style="stroke:#000000;stroke-linecap:butt;stroke-width:0.5;" x="623.627536085" xlink:href="#m9ad4d917ad" y="48.78"/>
      </g>
     </g>
    </g>
    <g id="text_8">
     <!-- $\Omega/\Delta$ -->
     <defs>
      <path d="
M5.60938 -23
Q5.60938 -22.7031 5.71875 -22.6094
L40.4844 73.7812
Q40.6719 74.3594 41.1562 74.6719
Q41.6562 75 42.2812 75
Q43.1719 75 43.7188 74.4531
Q44.2812 73.9219 44.2812 73
L44.2812 72.6094
L9.51562 -23.7812
Q8.9375 -25 7.625 -25
Q6.78125 -25 6.1875 -24.4062
Q5.60938 -23.8281 5.60938 -23" id="Cmmi10-3d"/>
      <path d="
M5.42188 0
Q4.59375 0 4.59375 0.78125
Q4.64062 0.875 4.65625 0.921875
Q4.6875 0.984375 4.6875 1.125
L39.1094 70.5156
Q39.5469 71.5781 40.9219 71.5781
L42.2812 71.5781
Q43.6562 71.5781 44.0938 70.5156
L78.5156 1.125
Q78.5625 1.03125 78.5781 0.953125
Q78.6094 0.875 78.6094 0.78125
Q78.6094 0 77.7812 0
z

M12.0156 8.01562
L64.7031 8.01562
L38.375 61.0781
z
" id="Cmr10-a2"/>
      <path d="
M7.71875 0
L4.39062 16.6094
L7.32812 16.6094
Q7.85938 13.7188 8.29688 11.5
Q8.73438 9.28125 9.4375 8.375
Q10.1562 7.46875 11.7188 7.17188
Q13.2812 6.89062 16.8906 6.89062
L23 6.89062
Q21.5312 12.5469 15.6875 21.6562
Q9.85938 30.7656 7.73438 34.8906
Q5.60938 39.0156 5.60938 45.5156
Q5.60938 53.0781 10.0938 58.7656
Q14.5938 64.4531 21.7031 67.4844
Q28.8125 70.5156 36.0781 70.5156
Q43.3125 70.5156 50.4062 67.4844
Q57.5156 64.4531 62 58.7188
Q66.5 52.9844 66.5 45.5156
Q66.5 40.4375 64.6406 35.9375
Q62.7969 31.4531 59.9062 26.9531
Q57.0312 22.4688 53.6875 16.9375
Q50.3438 11.4219 49.125 6.89062
L55.1719 6.89062
Q58.8438 6.89062 60.4531 7.17188
Q62.0625 7.46875 62.7344 8.375
Q63.4219 9.28125 63.8438 11.5
Q64.2656 13.7188 64.7969 16.6094
L67.6719 16.6094
L64.4062 0
L46.6875 0
Q45.7031 0 45.7031 1.3125
Q45.7031 6.39062 46.9375 11.2656
Q48.1875 16.1562 50.625 23.0938
Q53.0781 30.0312 54.4375 35.3281
Q55.8125 40.625 55.8125 45.5156
Q55.8125 51.5156 53.4688 56.6406
Q51.125 61.7656 46.625 64.8438
Q42.1406 67.9219 36.0781 67.9219
Q26.9531 67.9219 21.625 61.4062
Q16.3125 54.8906 16.3125 45.5156
Q16.3594 40.375 17.5312 35.8281
Q18.7031 31.2969 21.3125 23.7188
Q23.9219 16.1562 25.1719 11.2656
Q26.4219 6.39062 26.4219 1.3125
Q26.4219 0 25.3906 0
z
" id="Cmr10-ad"/>
     </defs>
     <g transform="translate(345.10875 472.86)scale(0.12 -0.12)">
      <use transform="translate(0.0 25.0)" xlink:href="#Cmr10-ad"/>
      <use transform="translate(72.216796875 25.0)" xlink:href="#Cmmi10-3d"/>
      <use transform="translate(122.216796875 25.0)" xlink:href="#Cmr10-a2"/>
     </g>
    </g>
   </g>
   <g id="matplotlib.axis_2">
    <g id="ytick_1">
     <g id="line2d_120">
      <path clip-path="url(#p0a907e0a19)" d="
M87.1875 439.02
L627.75 439.02" style="fill:none;stroke:#000000;stroke-dasharray:1.000000,3.000000;stroke-dashoffset:0.0;stroke-linecap:butt;stroke-width:0.5;"/>
     </g>
     <g id="line2d_121">
      <defs>
       <path d="
M0 0
L4 0" id="me8a85f7bf6" style="stroke:#000000;stroke-linecap:butt;stroke-width:0.5;"/>
      </defs>
      <g>
       <use style="stroke:#000000;stroke-linecap:butt;stroke-width:0.5;" x="87.1875" xlink:href="#me8a85f7bf6" y="439.02"/>
      </g>
     </g>
     <g id="line2d_122">
      <defs>
       <path d="
M0 0
L-4 0" id="m1a32005dea" style="stroke:#000000;stroke-linecap:butt;stroke-width:0.5;"/>
      </defs>
      <g>
       <use style="stroke:#000000;stroke-linecap:butt;stroke-width:0.5;" x="627.75" xlink:href="#m1a32005dea" y="439.02"/>
      </g>
     </g>
     <g id="text_9">
      <!-- 0.0 -->
      <defs>
       <path d="
M10.6875 12.4062
L21 12.4062
L21 0
L10.6875 0
z
" id="BitstreamVeraSans-Roman-2e"/>
      </defs>
      <g transform="translate(65.691875 443.3878125)scale(0.12 -0.12)">
       <use xlink:href="#BitstreamVeraSans-Roman-30"/>
       <use x="63.623046875" xlink:href="#BitstreamVeraSans-Roman-2e"/>
       <use x="95.41015625" xlink:href="#BitstreamVeraSans-Roman-30"/>
      </g>
     </g>
    </g>
    <g id="ytick_2">
     <g id="line2d_123">
      <path clip-path="url(#p0a907e0a19)" d="
M87.1875 390.24
L627.75 390.24" style="fill:none;stroke:#000000;stroke-dasharray:1.000000,3.000000;stroke-dashoffset:0.0;stroke-linecap:butt;stroke-width:0.5;"/>
     </g>
     <g id="line2d_124">
      <g>
       <use style="stroke:#000000;stroke-linecap:butt;stroke-width:0.5;" x="87.1875" xlink:href="#me8a85f7bf6" y="390.24"/>
      </g>
     </g>
     <g id="line2d_125">
      <g>
       <use style="stroke:#000000;stroke-linecap:butt;stroke-width:0.5;" x="627.75" xlink:href="#m1a32005dea" y="390.24"/>
      </g>
     </g>
     <g id="text_10">
      <!-- 0.1 -->
      <g transform="translate(66.003125 394.6078125)scale(0.12 -0.12)">
       <use xlink:href="#BitstreamVeraSans-Roman-30"/>
       <use x="63.623046875" xlink:href="#BitstreamVeraSans-Roman-2e"/>
       <use x="95.41015625" xlink:href="#BitstreamVeraSans-Roman-31"/>
      </g>
     </g>
    </g>
    <g id="ytick_3">
     <g id="line2d_126">
      <path clip-path="url(#p0a907e0a19)" d="
M87.1875 341.46
L627.75 341.46" style="fill:none;stroke:#000000;stroke-dasharray:1.000000,3.000000;stroke-dashoffset:0.0;stroke-linecap:butt;stroke-width:0.5;"/>
     </g>
     <g id="line2d_127">
      <g>
       <use style="stroke:#000000;stroke-linecap:butt;stroke-width:0.5;" x="87.1875" xlink:href="#me8a85f7bf6" y="341.46"/>
      </g>
     </g>
     <g id="line2d_128">
      <g>
       <use style="stroke:#000000;stroke-linecap:butt;stroke-width:0.5;" x="627.75" xlink:href="#m1a32005dea" y="341.46"/>
      </g>
     </g>
     <g id="text_11">
      <!-- 0.2 -->
      <g transform="translate(66.096875 345.8278125)scale(0.12 -0.12)">
       <use xlink:href="#BitstreamVeraSans-Roman-30"/>
       <use x="63.623046875" xlink:href="#BitstreamVeraSans-Roman-2e"/>
       <use x="95.41015625" xlink:href="#BitstreamVeraSans-Roman-32"/>
      </g>
     </g>
    </g>
    <g id="ytick_4">
     <g id="line2d_129">
      <path clip-path="url(#p0a907e0a19)" d="
M87.1875 292.68
L627.75 292.68" style="fill:none;stroke:#000000;stroke-dasharray:1.000000,3.000000;stroke-dashoffset:0.0;stroke-linecap:butt;stroke-width:0.5;"/>
     </g>
     <g id="line2d_130">
      <g>
       <use style="stroke:#000000;stroke-linecap:butt;stroke-width:0.5;" x="87.1875" xlink:href="#me8a85f7bf6" y="292.68"/>
      </g>
     </g>
     <g id="line2d_131">
      <g>
       <use style="stroke:#000000;stroke-linecap:butt;stroke-width:0.5;" x="627.75" xlink:href="#m1a32005dea" y="292.68"/>
      </g>
     </g>
     <g id="text_12">
      <!-- 0.3 -->
      <g transform="translate(65.856875 297.0478125)scale(0.12 -0.12)">
       <use xlink:href="#BitstreamVeraSans-Roman-30"/>
       <use x="63.623046875" xlink:href="#BitstreamVeraSans-Roman-2e"/>
       <use x="95.41015625" xlink:href="#BitstreamVeraSans-Roman-33"/>
      </g>
     </g>
    </g>
    <g id="ytick_5">
     <g id="line2d_132">
      <path clip-path="url(#p0a907e0a19)" d="
M87.1875 243.9
L627.75 243.9" style="fill:none;stroke:#000000;stroke-dasharray:1.000000,3.000000;stroke-dashoffset:0.0;stroke-linecap:butt;stroke-width:0.5;"/>
     </g>
     <g id="line2d_133">
      <g>
       <use style="stroke:#000000;stroke-linecap:butt;stroke-width:0.5;" x="87.1875" xlink:href="#me8a85f7bf6" y="243.9"/>
      </g>
     </g>
     <g id="line2d_134">
      <g>
       <use style="stroke:#000000;stroke-linecap:butt;stroke-width:0.5;" x="627.75" xlink:href="#m1a32005dea" y="243.9"/>
      </g>
     </g>
     <g id="text_13">
      <!-- 0.4 -->
      <defs>
       <path d="
M37.7969 64.3125
L12.8906 25.3906
L37.7969 25.3906
z

M35.2031 72.9062
L47.6094 72.9062
L47.6094 25.3906
L58.0156 25.3906
L58.0156 17.1875
L47.6094 17.1875
L47.6094 0
L37.7969 0
L37.7969 17.1875
L4.89062 17.1875
L4.89062 26.7031
z
" id="BitstreamVeraSans-Roman-34"/>
      </defs>
      <g transform="translate(65.568125 248.2678125)scale(0.12 -0.12)">
       <use xlink:href="#BitstreamVeraSans-Roman-30"/>
       <use x="63.623046875" xlink:href="#BitstreamVeraSans-Roman-2e"/>
       <use x="95.41015625" xlink:href="#BitstreamVeraSans-Roman-34"/>
      </g>
     </g>
    </g>
    <g id="ytick_6">
     <g id="line2d_135">
      <path clip-path="url(#p0a907e0a19)" d="
M87.1875 195.12
L627.75 195.12" style="fill:none;stroke:#000000;stroke-dasharray:1.000000,3.000000;stroke-dashoffset:0.0;stroke-linecap:butt;stroke-width:0.5;"/>
     </g>
     <g id="line2d_136">
      <g>
       <use style="stroke:#000000;stroke-linecap:butt;stroke-width:0.5;" x="87.1875" xlink:href="#me8a85f7bf6" y="195.12"/>
      </g>
     </g>
     <g id="line2d_137">
      <g>
       <use style="stroke:#000000;stroke-linecap:butt;stroke-width:0.5;" x="627.75" xlink:href="#m1a32005dea" y="195.12"/>
      </g>
     </g>
     <g id="text_14">
      <!-- 0.5 -->
      <defs>
       <path d="
M10.7969 72.9062
L49.5156 72.9062
L49.5156 64.5938
L19.8281 64.5938
L19.8281 46.7344
Q21.9688 47.4688 24.1094 47.8281
Q26.2656 48.1875 28.4219 48.1875
Q40.625 48.1875 47.75 41.5
Q54.8906 34.8125 54.8906 23.3906
Q54.8906 11.625 47.5625 5.09375
Q40.2344 -1.42188 26.9062 -1.42188
Q22.3125 -1.42188 17.5469 -0.640625
Q12.7969 0.140625 7.71875 1.70312
L7.71875 11.625
Q12.1094 9.23438 16.7969 8.0625
Q21.4844 6.89062 26.7031 6.89062
Q35.1562 6.89062 40.0781 11.3281
Q45.0156 15.7656 45.0156 23.3906
Q45.0156 31 40.0781 35.4375
Q35.1562 39.8906 26.7031 39.8906
Q22.75 39.8906 18.8125 39.0156
Q14.8906 38.1406 10.7969 36.2812
z
" id="BitstreamVeraSans-Roman-35"/>
      </defs>
      <g transform="translate(65.943125 199.4878125)scale(0.12 -0.12)">
       <use xlink:href="#BitstreamVeraSans-Roman-30"/>
       <use x="63.623046875" xlink:href="#BitstreamVeraSans-Roman-2e"/>
       <use x="95.41015625" xlink:href="#BitstreamVeraSans-Roman-35"/>
      </g>
     </g>
    </g>
    <g id="ytick_7">
     <g id="line2d_138">
      <path clip-path="url(#p0a907e0a19)" d="
M87.1875 146.34
L627.75 146.34" style="fill:none;stroke:#000000;stroke-dasharray:1.000000,3.000000;stroke-dashoffset:0.0;stroke-linecap:butt;stroke-width:0.5;"/>
     </g>
     <g id="line2d_139">
      <g>
       <use style="stroke:#000000;stroke-linecap:butt;stroke-width:0.5;" x="87.1875" xlink:href="#me8a85f7bf6" y="146.34"/>
      </g>
     </g>
     <g id="line2d_140">
      <g>
       <use style="stroke:#000000;stroke-linecap:butt;stroke-width:0.5;" x="627.75" xlink:href="#m1a32005dea" y="146.34"/>
      </g>
     </g>
     <g id="text_15">
      <!-- 0.6 -->
      <defs>
       <path d="
M33.0156 40.375
Q26.375 40.375 22.4844 35.8281
Q18.6094 31.2969 18.6094 23.3906
Q18.6094 15.5312 22.4844 10.9531
Q26.375 6.39062 33.0156 6.39062
Q39.6562 6.39062 43.5312 10.9531
Q47.4062 15.5312 47.4062 23.3906
Q47.4062 31.2969 43.5312 35.8281
Q39.6562 40.375 33.0156 40.375
M52.5938 71.2969
L52.5938 62.3125
Q48.875 64.0625 45.0938 64.9844
Q41.3125 65.9219 37.5938 65.9219
Q27.8281 65.9219 22.6719 59.3281
Q17.5312 52.7344 16.7969 39.4062
Q19.6719 43.6562 24.0156 45.9219
Q28.375 48.1875 33.5938 48.1875
Q44.5781 48.1875 50.9531 41.5156
Q57.3281 34.8594 57.3281 23.3906
Q57.3281 12.1562 50.6875 5.35938
Q44.0469 -1.42188 33.0156 -1.42188
Q20.3594 -1.42188 13.6719 8.26562
Q6.98438 17.9688 6.98438 36.375
Q6.98438 53.6562 15.1875 63.9375
Q23.3906 74.2188 37.2031 74.2188
Q40.9219 74.2188 44.7031 73.4844
Q48.4844 72.75 52.5938 71.2969" id="BitstreamVeraSans-Roman-36"/>
      </defs>
      <g transform="translate(65.650625 150.7078125)scale(0.12 -0.12)">
       <use xlink:href="#BitstreamVeraSans-Roman-30"/>
       <use x="63.623046875" xlink:href="#BitstreamVeraSans-Roman-2e"/>
       <use x="95.41015625" xlink:href="#BitstreamVeraSans-Roman-36"/>
      </g>
     </g>
    </g>
    <g id="ytick_8">
     <g id="line2d_141">
      <path clip-path="url(#p0a907e0a19)" d="
M87.1875 97.56
L627.75 97.56" style="fill:none;stroke:#000000;stroke-dasharray:1.000000,3.000000;stroke-dashoffset:0.0;stroke-linecap:butt;stroke-width:0.5;"/>
     </g>
     <g id="line2d_142">
      <g>
       <use style="stroke:#000000;stroke-linecap:butt;stroke-width:0.5;" x="87.1875" xlink:href="#me8a85f7bf6" y="97.56"/>
      </g>
     </g>
     <g id="line2d_143">
      <g>
       <use style="stroke:#000000;stroke-linecap:butt;stroke-width:0.5;" x="627.75" xlink:href="#m1a32005dea" y="97.56"/>
      </g>
     </g>
     <g id="text_16">
      <!-- 0.7 -->
      <defs>
       <path d="
M8.20312 72.9062
L55.0781 72.9062
L55.0781 68.7031
L28.6094 0
L18.3125 0
L43.2188 64.5938
L8.20312 64.5938
z
" id="BitstreamVeraSans-Roman-37"/>
      </defs>
      <g transform="translate(65.920625 101.9278125)scale(0.12 -0.12)">
       <use xlink:href="#BitstreamVeraSans-Roman-30"/>
       <use x="63.623046875" xlink:href="#BitstreamVeraSans-Roman-2e"/>
       <use x="95.41015625" xlink:href="#BitstreamVeraSans-Roman-37"/>
      </g>
     </g>
    </g>
    <g id="ytick_9">
     <g id="line2d_144">
      <path clip-path="url(#p0a907e0a19)" d="
M87.1875 48.78
L627.75 48.78" style="fill:none;stroke:#000000;stroke-dasharray:1.000000,3.000000;stroke-dashoffset:0.0;stroke-linecap:butt;stroke-width:0.5;"/>
     </g>
     <g id="line2d_145">
      <g>
       <use style="stroke:#000000;stroke-linecap:butt;stroke-width:0.5;" x="87.1875" xlink:href="#me8a85f7bf6" y="48.78"/>
      </g>
     </g>
     <g id="line2d_146">
      <g>
       <use style="stroke:#000000;stroke-linecap:butt;stroke-width:0.5;" x="627.75" xlink:href="#m1a32005dea" y="48.78"/>
      </g>
     </g>
     <g id="text_17">
      <!-- 0.8 -->
      <defs>
       <path d="
M31.7812 34.625
Q24.75 34.625 20.7188 30.8594
Q16.7031 27.0938 16.7031 20.5156
Q16.7031 13.9219 20.7188 10.1562
Q24.75 6.39062 31.7812 6.39062
Q38.8125 6.39062 42.8594 10.1719
Q46.9219 13.9688 46.9219 20.5156
Q46.9219 27.0938 42.8906 30.8594
Q38.875 34.625 31.7812 34.625
M21.9219 38.8125
Q15.5781 40.375 12.0312 44.7188
Q8.5 49.0781 8.5 55.3281
Q8.5 64.0625 14.7188 69.1406
Q20.9531 74.2188 31.7812 74.2188
Q42.6719 74.2188 48.875 69.1406
Q55.0781 64.0625 55.0781 55.3281
Q55.0781 49.0781 51.5312 44.7188
Q48 40.375 41.7031 38.8125
Q48.8281 37.1562 52.7969 32.3125
Q56.7812 27.4844 56.7812 20.5156
Q56.7812 9.90625 50.3125 4.23438
Q43.8438 -1.42188 31.7812 -1.42188
Q19.7344 -1.42188 13.25 4.23438
Q6.78125 9.90625 6.78125 20.5156
Q6.78125 27.4844 10.7812 32.3125
Q14.7969 37.1562 21.9219 38.8125
M18.3125 54.3906
Q18.3125 48.7344 21.8438 45.5625
Q25.3906 42.3906 31.7812 42.3906
Q38.1406 42.3906 41.7188 45.5625
Q45.3125 48.7344 45.3125 54.3906
Q45.3125 60.0625 41.7188 63.2344
Q38.1406 66.4062 31.7812 66.4062
Q25.3906 66.4062 21.8438 63.2344
Q18.3125 60.0625 18.3125 54.3906" id="BitstreamVeraSans-Roman-38"/>
      </defs>
      <g transform="translate(65.71625 53.1478125)scale(0.12 -0.12)">
       <use xlink:href="#BitstreamVeraSans-Roman-30"/>
       <use x="63.623046875" xlink:href="#BitstreamVeraSans-Roman-2e"/>
       <use x="95.41015625" xlink:href="#BitstreamVeraSans-Roman-38"/>
      </g>
     </g>
    </g>
    <g id="text_18">
     <!-- $I/I_0$ -->
     <defs>
      <path d="
M25 -2.20312
Q12.75 -2.20312 8.32812 7.875
Q3.90625 17.9688 3.90625 31.8906
Q3.90625 40.5781 5.48438 48.2344
Q7.07812 55.9062 11.7812 61.25
Q16.5 66.6094 25 66.6094
Q31.5938 66.6094 35.7812 63.375
Q39.9844 60.1562 42.1875 55.0469
Q44.3906 49.9531 45.1875 44.1094
Q46 38.2812 46 31.8906
Q46 23.2969 44.4062 15.7969
Q42.8281 8.29688 38.1875 3.04688
Q33.5469 -2.20312 25 -2.20312
M25 0.390625
Q30.5625 0.390625 33.2969 6.09375
Q36.0312 11.8125 36.6719 18.75
Q37.3125 25.6875 37.3125 33.5
Q37.3125 41.0156 36.6719 47.3594
Q36.0312 53.7188 33.3125 58.8594
Q30.6094 64.0156 25 64.0156
Q19.3438 64.0156 16.6094 58.8281
Q13.875 53.6562 13.2344 47.3281
Q12.5938 41.0156 12.5938 33.5
Q12.5938 27.9375 12.8594 23
Q13.1406 18.0625 14.3125 12.8125
Q15.4844 7.5625 18.0938 3.96875
Q20.7031 0.390625 25 0.390625" id="Cmr10-30"/>
      <path d="
M4.20312 0
Q3.21875 0 3.21875 1.3125
Q3.60938 3.51562 4.5 3.51562
Q10.4062 3.51562 12.5 3.90625
Q14.7969 4.4375 15.375 6.89062
L29.1094 61.8125
Q29.2969 62.7969 29.2969 63.0938
Q29.2969 63.7188 28.9688 63.9844
Q28.6562 64.2656 27.9844 64.4062
Q25.9844 64.7969 20.4062 64.7969
Q19.3906 64.7969 19.3906 66.1094
Q19.7344 67.3906 19.9219 67.8438
Q20.125 68.3125 21.0938 68.3125
L49.0312 68.3125
Q50 68.3125 50 67
Q49.9531 66.75 49.7969 66.1562
Q49.6562 65.5781 49.4062 65.1875
Q49.1719 64.7969 48.6875 64.7969
Q42.8281 64.7969 40.5781 64.4062
Q38.375 63.875 37.7969 61.375
L24.125 6.5
Q23.875 5.28125 23.875 5.17188
Q23.875 4.9375 23.9531 4.71875
Q24.0312 4.5 24.25 4.32812
Q24.4688 4.15625 24.6875 4.07812
Q24.9062 4 25.2031 3.90625
Q27.0938 3.51562 32.8125 3.51562
Q33.7969 3.51562 33.7969 2.20312
Q33.4531 0.78125 33.25 0.390625
Q33.0625 0 32.0781 0
z
" id="Cmmi10-49"/>
     </defs>
     <g transform="translate(60.568125 255.18)rotate(-90.0)scale(0.12 -0.12)">
      <use transform="translate(0.0 28.0)" xlink:href="#Cmmi10-49"/>
      <use transform="translate(43.896484375 28.0)" xlink:href="#Cmmi10-3d"/>
      <use transform="translate(93.896484375 28.0)" xlink:href="#Cmmi10-49"/>
      <use transform="translate(137.79296875 2.490625)scale(0.7)" xlink:href="#Cmr10-30"/>
     </g>
    </g>
   </g>
   <g id="patch_3">
    <path d="
M87.1875 48.78
L627.75 48.78" style="fill:none;stroke:#000000;"/>
   </g>
   <g id="patch_4">
    <path d="
M627.75 439.02
L627.75 48.78" style="fill:none;stroke:#000000;"/>
   </g>
   <g id="patch_5">
    <path d="
M87.1875 439.02
L627.75 439.02" style="fill:none;stroke:#000000;"/>
   </g>
   <g id="patch_6">
    <path d="
M87.1875 439.02
L87.1875 48.78" style="fill:none;stroke:#000000;"/>
   </g>
   <g id="legend_1">
    <g id="patch_7">
     <path d="
M437.341 102.573
L620.55 102.573
L620.55 55.98
L437.341 55.98
L437.341 102.573
z
" style="fill:#ffffff;stroke:#000000;"/>
    </g>
    <g id="line2d_147">
     <path d="
M447.421 67.6417
L467.581 67.6417" style="fill:none;stroke:#ff0000;"/>
    </g>
    <g id="line2d_148"/>
    <g id="text_19">
     <!-- Redfield dynamics -->
     <defs>
      <path id="BitstreamVeraSans-Roman-20"/>
      <path d="
M54.8906 33.0156
L54.8906 0
L45.9062 0
L45.9062 32.7188
Q45.9062 40.4844 42.875 44.3281
Q39.8438 48.1875 33.7969 48.1875
Q26.5156 48.1875 22.3125 43.5469
Q18.1094 38.9219 18.1094 30.9062
L18.1094 0
L9.07812 0
L9.07812 54.6875
L18.1094 54.6875
L18.1094 46.1875
Q21.3438 51.125 25.7031 53.5625
Q30.0781 56 35.7969 56
Q45.2188 56 50.0469 50.1719
Q54.8906 44.3438 54.8906 33.0156" id="BitstreamVeraSans-Roman-6e"/>
      <path d="
M52 44.1875
Q55.375 50.25 60.0625 53.125
Q64.75 56 71.0938 56
Q79.6406 56 84.2812 50.0156
Q88.9219 44.0469 88.9219 33.0156
L88.9219 0
L79.8906 0
L79.8906 32.7188
Q79.8906 40.5781 77.0938 44.375
Q74.3125 48.1875 68.6094 48.1875
Q61.625 48.1875 57.5625 43.5469
Q53.5156 38.9219 53.5156 30.9062
L53.5156 0
L44.4844 0
L44.4844 32.7188
Q44.4844 40.625 41.7031 44.4062
Q38.9219 48.1875 33.1094 48.1875
Q26.2188 48.1875 22.1562 43.5312
Q18.1094 38.875 18.1094 30.9062
L18.1094 0
L9.07812 0
L9.07812 54.6875
L18.1094 54.6875
L18.1094 46.1875
Q21.1875 51.2188 25.4844 53.6094
Q29.7812 56 35.6875 56
Q41.6562 56 45.8281 52.9688
Q50 49.9531 52 44.1875" id="BitstreamVeraSans-Roman-6d"/>
      <path d="
M9.42188 75.9844
L18.4062 75.9844
L18.4062 0
L9.42188 0
z
" id="BitstreamVeraSans-Roman-6c"/>
      <path d="
M44.3906 34.1875
Q47.5625 33.1094 50.5625 29.5938
Q53.5625 26.0781 56.5938 19.9219
L66.6094 0
L56 0
L46.6875 18.7031
Q43.0625 26.0312 39.6719 28.4219
Q36.2812 30.8125 30.4219 30.8125
L19.6719 30.8125
L19.6719 0
L9.8125 0
L9.8125 72.9062
L32.0781 72.9062
Q44.5781 72.9062 50.7344 67.6719
Q56.8906 62.4531 56.8906 51.9062
Q56.8906 45.0156 53.6875 40.4688
Q50.4844 35.9375 44.3906 34.1875
M19.6719 64.7969
L19.6719 38.9219
L32.0781 38.9219
Q39.2031 38.9219 42.8438 42.2188
Q46.4844 45.5156 46.4844 51.9062
Q46.4844 58.2969 42.8438 61.5469
Q39.2031 64.7969 32.0781 64.7969
z
" id="BitstreamVeraSans-Roman-52"/>
      <path d="
M9.42188 54.6875
L18.4062 54.6875
L18.4062 0
L9.42188 0
z

M9.42188 75.9844
L18.4062 75.9844
L18.4062 64.5938
L9.42188 64.5938
z
" id="BitstreamVeraSans-Roman-69"/>
      <path d="
M32.1719 -5.07812
Q28.375 -14.8438 24.75 -17.8125
Q21.1406 -20.7969 15.0938 -20.7969
L7.90625 -20.7969
L7.90625 -13.2812
L13.1875 -13.2812
Q16.8906 -13.2812 18.9375 -11.5156
Q21 -9.76562 23.4844 -3.21875
L25.0938 0.875
L2.98438 54.6875
L12.5 54.6875
L29.5938 11.9219
L46.6875 54.6875
L56.2031 54.6875
z
" id="BitstreamVeraSans-Roman-79"/>
      <path d="
M56.2031 29.5938
L56.2031 25.2031
L14.8906 25.2031
Q15.4844 15.9219 20.4844 11.0625
Q25.4844 6.20312 34.4219 6.20312
Q39.5938 6.20312 44.4531 7.46875
Q49.3125 8.73438 54.1094 11.2812
L54.1094 2.78125
Q49.2656 0.734375 44.1875 -0.34375
Q39.1094 -1.42188 33.8906 -1.42188
Q20.7969 -1.42188 13.1562 6.1875
Q5.51562 13.8125 5.51562 26.8125
Q5.51562 40.2344 12.7656 48.1094
Q20.0156 56 32.3281 56
Q43.3594 56 49.7812 48.8906
Q56.2031 41.7969 56.2031 29.5938
M47.2188 32.2344
Q47.125 39.5938 43.0938 43.9844
Q39.0625 48.3906 32.4219 48.3906
Q24.9062 48.3906 20.3906 44.1406
Q15.875 39.8906 15.1875 32.1719
z
" id="BitstreamVeraSans-Roman-65"/>
      <path d="
M45.4062 46.3906
L45.4062 75.9844
L54.3906 75.9844
L54.3906 0
L45.4062 0
L45.4062 8.20312
Q42.5781 3.32812 38.25 0.953125
Q33.9375 -1.42188 27.875 -1.42188
Q17.9688 -1.42188 11.7344 6.48438
Q5.51562 14.4062 5.51562 27.2969
Q5.51562 40.1875 11.7344 48.0938
Q17.9688 56 27.875 56
Q33.9375 56 38.25 53.625
Q42.5781 51.2656 45.4062 46.3906
M14.7969 27.2969
Q14.7969 17.3906 18.875 11.75
Q22.9531 6.10938 30.0781 6.10938
Q37.2031 6.10938 41.2969 11.75
Q45.4062 17.3906 45.4062 27.2969
Q45.4062 37.2031 41.2969 42.8438
Q37.2031 48.4844 30.0781 48.4844
Q22.9531 48.4844 18.875 42.8438
Q14.7969 37.2031 14.7969 27.2969" id="BitstreamVeraSans-Roman-64"/>
      <path d="
M37.1094 75.9844
L37.1094 68.5
L28.5156 68.5
Q23.6875 68.5 21.7969 66.5469
Q19.9219 64.5938 19.9219 59.5156
L19.9219 54.6875
L34.7188 54.6875
L34.7188 47.7031
L19.9219 47.7031
L19.9219 0
L10.8906 0
L10.8906 47.7031
L2.29688 47.7031
L2.29688 54.6875
L10.8906 54.6875
L10.8906 58.5
Q10.8906 67.625 15.1406 71.7969
Q19.3906 75.9844 28.6094 75.9844
z
" id="BitstreamVeraSans-Roman-66"/>
      <path d="
M34.2812 27.4844
Q23.3906 27.4844 19.1875 25
Q14.9844 22.5156 14.9844 16.5
Q14.9844 11.7188 18.1406 8.90625
Q21.2969 6.10938 26.7031 6.10938
Q34.1875 6.10938 38.7031 11.4062
Q43.2188 16.7031 43.2188 25.4844
L43.2188 27.4844
z

M52.2031 31.2031
L52.2031 0
L43.2188 0
L43.2188 8.29688
Q40.1406 3.32812 35.5469 0.953125
Q30.9531 -1.42188 24.3125 -1.42188
Q15.9219 -1.42188 10.9531 3.29688
Q6 8.01562 6 15.9219
Q6 25.1406 12.1719 29.8281
Q18.3594 34.5156 30.6094 34.5156
L43.2188 34.5156
L43.2188 35.4062
Q43.2188 41.6094 39.1406 45
Q35.0625 48.3906 27.6875 48.3906
Q23 48.3906 18.5469 47.2656
Q14.1094 46.1406 10.0156 43.8906
L10.0156 52.2031
Q14.9375 54.1094 19.5781 55.0469
Q24.2188 56 28.6094 56
Q40.4844 56 46.3438 49.8438
Q52.2031 43.7031 52.2031 31.2031" id="BitstreamVeraSans-Roman-61"/>
      <path d="
M44.2812 53.0781
L44.2812 44.5781
Q40.4844 46.5312 36.375 47.5
Q32.2812 48.4844 27.875 48.4844
Q21.1875 48.4844 17.8438 46.4375
Q14.5 44.3906 14.5 40.2812
Q14.5 37.1562 16.8906 35.375
Q19.2812 33.5938 26.5156 31.9844
L29.5938 31.2969
Q39.1562 29.25 43.1875 25.5156
Q47.2188 21.7812 47.2188 15.0938
Q47.2188 7.46875 41.1875 3.01562
Q35.1562 -1.42188 24.6094 -1.42188
Q20.2188 -1.42188 15.4531 -0.5625
Q10.6875 0.296875 5.42188 2
L5.42188 11.2812
Q10.4062 8.6875 15.2344 7.39062
Q20.0625 6.10938 24.8125 6.10938
Q31.1562 6.10938 34.5625 8.28125
Q37.9844 10.4531 37.9844 14.4062
Q37.9844 18.0625 35.5156 20.0156
Q33.0625 21.9688 24.7031 23.7812
L21.5781 24.5156
Q13.2344 26.2656 9.51562 29.9062
Q5.8125 33.5469 5.8125 39.8906
Q5.8125 47.6094 11.2812 51.7969
Q16.75 56 26.8125 56
Q31.7812 56 36.1719 55.2656
Q40.5781 54.5469 44.2812 53.0781" id="BitstreamVeraSans-Roman-73"/>
      <path d="
M48.7812 52.5938
L48.7812 44.1875
Q44.9688 46.2969 41.1406 47.3438
Q37.3125 48.3906 33.4062 48.3906
Q24.6562 48.3906 19.8125 42.8438
Q14.9844 37.3125 14.9844 27.2969
Q14.9844 17.2812 19.8125 11.7344
Q24.6562 6.20312 33.4062 6.20312
Q37.3125 6.20312 41.1406 7.25
Q44.9688 8.29688 48.7812 10.4062
L48.7812 2.09375
Q45.0156 0.34375 40.9844 -0.53125
Q36.9688 -1.42188 32.4219 -1.42188
Q20.0625 -1.42188 12.7812 6.34375
Q5.51562 14.1094 5.51562 27.2969
Q5.51562 40.6719 12.8594 48.3281
Q20.2188 56 33.0156 56
Q37.1562 56 41.1094 55.1406
Q45.0625 54.2969 48.7812 52.5938" id="BitstreamVeraSans-Roman-63"/>
     </defs>
     <g transform="translate(483.4215 72.68175)scale(0.144 -0.144)">
      <use xlink:href="#BitstreamVeraSans-Roman-52"/>
      <use x="64.982421875" xlink:href="#BitstreamVeraSans-Roman-65"/>
      <use x="126.505859375" xlink:href="#BitstreamVeraSans-Roman-64"/>
      <use x="189.982421875" xlink:href="#BitstreamVeraSans-Roman-66"/>
      <use x="225.1875" xlink:href="#BitstreamVeraSans-Roman-69"/>
      <use x="252.970703125" xlink:href="#BitstreamVeraSans-Roman-65"/>
      <use x="314.494140625" xlink:href="#BitstreamVeraSans-Roman-6c"/>
      <use x="342.27734375" xlink:href="#BitstreamVeraSans-Roman-64"/>
      <use x="405.75390625" xlink:href="#BitstreamVeraSans-Roman-20"/>
      <use x="437.541015625" xlink:href="#BitstreamVeraSans-Roman-64"/>
      <use x="501.017578125" xlink:href="#BitstreamVeraSans-Roman-79"/>
      <use x="560.197265625" xlink:href="#BitstreamVeraSans-Roman-6e"/>
      <use x="623.576171875" xlink:href="#BitstreamVeraSans-Roman-61"/>
      <use x="684.85546875" xlink:href="#BitstreamVeraSans-Roman-6d"/>
      <use x="782.267578125" xlink:href="#BitstreamVeraSans-Roman-69"/>
      <use x="810.05078125" xlink:href="#BitstreamVeraSans-Roman-63"/>
      <use x="865.03125" xlink:href="#BitstreamVeraSans-Roman-73"/>
     </g>
    </g>
    <g id="line2d_149">
     <path d="
M447.421 88.7782
L467.581 88.7782" style="fill:none;stroke:#0000ff;"/>
    </g>
    <g id="line2d_150"/>
    <g id="text_20">
     <!-- CP dynamics -->
     <defs>
      <path d="
M19.6719 64.7969
L19.6719 37.4062
L32.0781 37.4062
Q38.9688 37.4062 42.7188 40.9688
Q46.4844 44.5312 46.4844 51.125
Q46.4844 57.6719 42.7188 61.2344
Q38.9688 64.7969 32.0781 64.7969
z

M9.8125 72.9062
L32.0781 72.9062
Q44.3438 72.9062 50.6094 67.3594
Q56.8906 61.8125 56.8906 51.125
Q56.8906 40.3281 50.6094 34.8125
Q44.3438 29.2969 32.0781 29.2969
L19.6719 29.2969
L19.6719 0
L9.8125 0
z
" id="BitstreamVeraSans-Roman-50"/>
      <path d="
M64.4062 67.2812
L64.4062 56.8906
Q59.4219 61.5312 53.7812 63.8125
Q48.1406 66.1094 41.7969 66.1094
Q29.2969 66.1094 22.6562 58.4688
Q16.0156 50.8281 16.0156 36.375
Q16.0156 21.9688 22.6562 14.3281
Q29.2969 6.6875 41.7969 6.6875
Q48.1406 6.6875 53.7812 8.98438
Q59.4219 11.2812 64.4062 15.9219
L64.4062 5.60938
Q59.2344 2.09375 53.4375 0.328125
Q47.6562 -1.42188 41.2188 -1.42188
Q24.6562 -1.42188 15.125 8.70312
Q5.60938 18.8438 5.60938 36.375
Q5.60938 53.9531 15.125 64.0781
Q24.6562 74.2188 41.2188 74.2188
Q47.75 74.2188 53.5312 72.4844
Q59.3281 70.75 64.4062 67.2812" id="BitstreamVeraSans-Roman-43"/>
     </defs>
     <g transform="translate(483.4215 93.81825)scale(0.144 -0.144)">
      <use xlink:href="#BitstreamVeraSans-Roman-43"/>
      <use x="69.82421875" xlink:href="#BitstreamVeraSans-Roman-50"/>
      <use x="130.126953125" xlink:href="#BitstreamVeraSans-Roman-20"/>
      <use x="161.9140625" xlink:href="#BitstreamVeraSans-Roman-64"/>
      <use x="225.390625" xlink:href="#BitstreamVeraSans-Roman-79"/>
      <use x="284.5703125" xlink:href="#BitstreamVeraSans-Roman-6e"/>
      <use x="347.94921875" xlink:href="#BitstreamVeraSans-Roman-61"/>
      <use x="409.228515625" xlink:href="#BitstreamVeraSans-Roman-6d"/>
      <use x="506.640625" xlink:href="#BitstreamVeraSans-Roman-69"/>
      <use x="534.423828125" xlink:href="#BitstreamVeraSans-Roman-63"/>
      <use x="589.404296875" xlink:href="#BitstreamVeraSans-Roman-73"/>
     </g>
    </g>
   </g>
  </g>
 </g>
 <defs>
  <clipPath id="p0a907e0a19">
   <rect height="390.24" width="540.5625" x="87.1875" y="48.78"/>
  </clipPath>
 </defs>
</svg>
