<?xml version="1.0" encoding="utf-8" standalone="no"?>
<!DOCTYPE svg PUBLIC "-//W3C//DTD SVG 1.1//EN"
  "http://www.w3.org/Graphics/SVG/1.1/DTD/svg11.dtd">
<!-- Created with matplotlib (http://matplotlib.sourceforge.net/) -->
<svg height="502pt" version="1.1" viewBox="0 0 663 502" width="663pt" xmlns="http://www.w3.org/2000/svg" xmlns:xlink="http://www.w3.org/1999/xlink">
 <defs>
  <style type="text/css">
*{stroke-linecap:square;stroke-linejoin:round;}
  </style>
 </defs>
 <g id="figure_1">
  <g id="patch_1">
   <path d="
M0 502.2
L663.3 502.2
L663.3 0
L0 0
z
" style="fill:#ffffff;"/>
  </g>
  <g id="axes_1">
   <g id="patch_2">
    <path d="
M82.9125 451.98
L596.97 451.98
L596.97 50.22
L82.9125 50.22
z
" style="fill:#ffffff;"/>
   </g>
   <g id="line2d_1">
    <path clip-path="url(#p73119d26de)" d="
M82.9125 450.284
L83.3752 442.017
L85.0715 415.813
L85.7055 399.047
L86.6994 365.747
L87.9331 326.285
L88.6871 309.021
L89.3725 298.11
L90.1264 289.579
L91.1717 280.387
L92.097 273.93
L92.7653 270.689
L93.5535 268.033
L94.1532 265.728
L94.6159 262.965
L95.1128 258.513
L95.7125 250.882
L96.6207 235.952
L97.923 215.128
L98.6598 206.785
L99.3452 201.376
L100.116 197.037
L101.059 193.003
L101.83 190.574
L102.43 189.358
L103.098 188.519
L103.698 187.692
L104.109 186.706
L104.537 185.05
L105.034 182.131
L105.651 177.021
L106.748 165.594
L107.793 155.648
L108.513 150.759
L109.198 147.556
L109.918 145.227
L110.706 143.408
L111.374 142.362
L111.922 141.873
L112.488 141.664
L113.396 141.372
L113.773 140.964
L114.167 140.178
L114.613 138.74
L115.161 136.127
L115.932 131.206
L117.629 120.109
L118.348 116.973
L118.999 115.057
L119.668 113.754
L120.336 112.912
L120.953 112.471
L121.501 112.339
L122.135 112.433
L123.112 112.594
L123.506 112.414
L123.883 111.989
L124.311 111.14
L124.825 109.579
L125.528 106.643
L127.601 97.485
L128.287 95.6394
L128.921 94.5323
L129.538 93.8788
L130.137 93.547
L130.72 93.4655
L131.354 93.6104
L133.153 94.2027
L133.564 93.9808
L133.993 93.4706
L134.49 92.4978
L135.141 90.6796
L137.642 83.117
L138.294 82.0824
L138.91 81.5025
L139.51 81.2359
L140.127 81.2064
L140.795 81.4029
L141.858 81.9969
L142.646 82.319
L143.143 82.2846
L143.588 82.021
L144.068 81.4609
L144.668 80.3824
L145.628 78.105
L146.878 75.2622
L147.615 74.1228
L148.249 73.5233
L148.866 73.2375
L149.5 73.1939
L150.203 73.3805
L151.145 73.8878
L152.31 74.4775
L152.876 74.5151
L153.373 74.3213
L153.904 73.8539
L154.555 72.9509
L155.789 70.7463
L156.8 69.1675
L157.519 68.4292
L158.171 68.0644
L158.822 67.9546
L159.524 68.0695
L160.398 68.4561
L162.214 69.3299
L162.814 69.3271
L163.362 69.1
L163.979 68.5865
L164.819 67.5614
L166.567 65.3759
L167.321 64.8167
L168.006 64.5747
L168.709 64.5629
L169.514 64.783
L170.748 65.3909
L171.862 65.8476
L172.547 65.8884
L173.164 65.7005
L173.849 65.2465
L174.86 64.2676
L176.282 62.9366
L177.088 62.4872
L177.825 62.3223
L178.596 62.3778
L179.538 62.6835
L181.903 63.5656
L182.623 63.5181
L183.342 63.2383
L184.268 62.6117
L186.255 61.2037
L187.095 60.9204
L187.917 60.8798
L188.843 61.0692
L190.453 61.6863
L191.55 61.9768
L192.355 61.9611
L193.161 61.7162
L194.24 61.1264
L195.971 60.1866
L196.896 59.9554
L197.804 59.9621
L198.867 60.2047
L201.523 60.9182
L202.397 60.8467
L203.373 60.529
L206.389 59.3693
L207.383 59.3438
L208.514 59.549
L211.375 60.181
L212.352 60.0867
L213.535 59.7304
L215.779 59.0188
L216.876 58.9449
L218.075 59.0994
L221.365 59.6667
L222.479 59.523
L224.364 58.9973
L225.786 58.7249
L226.986 58.7247
L228.494 58.9675
L230.67 59.3054
L231.903 59.246
L233.514 58.9155
L235.433 58.5727
L236.77 58.5745
L238.552 58.8305
L240.523 59.0581
L241.893 58.9788
L246.52 58.48
L248.61 58.7373
L250.495 58.8819
L252.072 58.7651
L255.67 58.4008
L257.504 58.5377
L260.348 58.7536
L262.164 58.6216
L265.283 58.3696
L267.305 58.4909
L270.235 58.6597
L272.394 58.5084
L275.101 58.355
L277.466 58.4887
L280.156 58.5896
L282.949 58.4104
L285.365 58.3592
L291.843 58.4477
L295.047 58.3554
L301.97 58.4104
L305.14 58.3649
L311.154 58.4246
L315.112 58.3719
L320.835 58.4167
L325.222 58.382
L330.551 58.41
L335.383 58.3914
L340.507 58.4
L345.596 58.3993
L350.822 58.3871
L356.237 58.4094
L362.765 58.3732
L408.825 58.3902
L431.735 58.3869
L485.505 58.3911
L596.97 58.3901
L596.97 58.3901" style="fill:none;stroke:#ff0000;"/>
   </g>
   <g id="line2d_2">
    <path clip-path="url(#p73119d26de)" d="
M82.9125 449.193
L83.358 421.982
L84.1634 386.225
L85.2086 349.685
L86.391 315.982
L87.6932 285.128
L89.0641 257.824
L90.5034 233.527
L91.977 212.32
L93.5021 193.53
L95.0443 177.206
L96.6207 162.83
L98.2143 150.282
L99.8421 139.201
L101.487 129.51
L103.149 121.025
L104.828 113.59
L106.525 107.069
L108.238 101.347
L109.969 96.3243
L111.734 91.8733
L113.516 87.9691
L115.332 84.513
L117.2 81.4311
L119.119 78.6907
L121.09 76.2606
L123.146 74.0772
L125.288 72.1269
L127.533 70.3819
L129.932 68.7999
L132.502 67.3738
L135.278 66.0898
L138.328 64.9271
L141.704 63.8815
L145.508 62.94
L149.86 62.0972
L154.932 61.3479
L160.964 60.6889
L168.332 60.1163
L177.585 59.6298
L189.665 59.2281
L206.201 58.9137
L230.635 58.69
L271.966 58.5616
L380.569 58.5199
L596.97 58.5187
L596.97 58.5187" style="fill:none;stroke:#0000ff;"/>
   </g>
   <g id="line2d_3">
    <path clip-path="url(#p73119d26de)" d="
M82.9125 54.1531
L596.97 54.1531
L596.97 54.1531" style="fill:none;stroke:#0000ff;"/>
   </g>
   <g id="matplotlib.axis_1">
    <g id="xtick_1">
     <g id="line2d_4">
      <path clip-path="url(#p73119d26de)" d="
M82.9125 451.98
L82.9125 50.22" style="fill:none;stroke:#000000;stroke-dasharray:1.000000,3.000000;stroke-dashoffset:0.0;stroke-linecap:butt;stroke-width:0.5;"/>
     </g>
     <g id="line2d_5">
      <defs>
       <path d="
M0 0
L0 -4" id="m0012dd4eef" style="stroke:#000000;stroke-linecap:butt;stroke-width:0.5;"/>
      </defs>
      <g>
       <use style="stroke:#000000;stroke-linecap:butt;stroke-width:0.5;" x="82.9125" xlink:href="#m0012dd4eef" y="451.98"/>
      </g>
     </g>
     <g id="line2d_6">
      <defs>
       <path d="
M0 0
L0 4" id="m476344969c" style="stroke:#000000;stroke-linecap:butt;stroke-width:0.5;"/>
      </defs>
      <g>
       <use style="stroke:#000000;stroke-linecap:butt;stroke-width:0.5;" x="82.9125" xlink:href="#m476344969c" y="50.22"/>
      </g>
     </g>
     <g id="text_1">
      <!-- 0 -->
      <defs>
       <path d="
M31.7812 66.4062
Q24.1719 66.4062 20.3281 58.9062
Q16.5 51.4219 16.5 36.375
Q16.5 21.3906 20.3281 13.8906
Q24.1719 6.39062 31.7812 6.39062
Q39.4531 6.39062 43.2812 13.8906
Q47.125 21.3906 47.125 36.375
Q47.125 51.4219 43.2812 58.9062
Q39.4531 66.4062 31.7812 66.4062
M31.7812 74.2188
Q44.0469 74.2188 50.5156 64.5156
Q56.9844 54.8281 56.9844 36.375
Q56.9844 17.9688 50.5156 8.26562
Q44.0469 -1.42188 31.7812 -1.42188
Q19.5312 -1.42188 13.0625 8.26562
Q6.59375 17.9688 6.59375 36.375
Q6.59375 54.8281 13.0625 64.5156
Q19.5312 74.2188 31.7812 74.2188" id="BitstreamVeraSans-Roman-30"/>
      </defs>
      <g transform="translate(79.8890625 464.88625)scale(0.12 -0.12)">
       <use xlink:href="#BitstreamVeraSans-Roman-30"/>
      </g>
     </g>
    </g>
    <g id="xtick_2">
     <g id="line2d_7">
      <path clip-path="url(#p73119d26de)" d="
M168.589 451.98
L168.589 50.22" style="fill:none;stroke:#000000;stroke-dasharray:1.000000,3.000000;stroke-dashoffset:0.0;stroke-linecap:butt;stroke-width:0.5;"/>
     </g>
     <g id="line2d_8">
      <g>
       <use style="stroke:#000000;stroke-linecap:butt;stroke-width:0.5;" x="168.58875" xlink:href="#m0012dd4eef" y="451.98"/>
      </g>
     </g>
     <g id="line2d_9">
      <g>
       <use style="stroke:#000000;stroke-linecap:butt;stroke-width:0.5;" x="168.58875" xlink:href="#m476344969c" y="50.22"/>
      </g>
     </g>
     <g id="text_2">
      <!-- 50 -->
      <defs>
       <path d="
M10.7969 72.9062
L49.5156 72.9062
L49.5156 64.5938
L19.8281 64.5938
L19.8281 46.7344
Q21.9688 47.4688 24.1094 47.8281
Q26.2656 48.1875 28.4219 48.1875
Q40.625 48.1875 47.75 41.5
Q54.8906 34.8125 54.8906 23.3906
Q54.8906 11.625 47.5625 5.09375
Q40.2344 -1.42188 26.9062 -1.42188
Q22.3125 -1.42188 17.5469 -0.640625
Q12.7969 0.140625 7.71875 1.70312
L7.71875 11.625
Q12.1094 9.23438 16.7969 8.0625
Q21.4844 6.89062 26.7031 6.89062
Q35.1562 6.89062 40.0781 11.3281
Q45.0156 15.7656 45.0156 23.3906
Q45.0156 31 40.0781 35.4375
Q35.1562 39.8906 26.7031 39.8906
Q22.75 39.8906 18.8125 39.0156
Q14.8906 38.1406 10.7969 36.2812
z
" id="BitstreamVeraSans-Roman-35"/>
      </defs>
      <g transform="translate(161.8153125 464.88625)scale(0.12 -0.12)">
       <use xlink:href="#BitstreamVeraSans-Roman-35"/>
       <use x="63.623046875" xlink:href="#BitstreamVeraSans-Roman-30"/>
      </g>
     </g>
    </g>
    <g id="xtick_3">
     <g id="line2d_10">
      <path clip-path="url(#p73119d26de)" d="
M254.265 451.98
L254.265 50.22" style="fill:none;stroke:#000000;stroke-dasharray:1.000000,3.000000;stroke-dashoffset:0.0;stroke-linecap:butt;stroke-width:0.5;"/>
     </g>
     <g id="line2d_11">
      <g>
       <use style="stroke:#000000;stroke-linecap:butt;stroke-width:0.5;" x="254.265" xlink:href="#m0012dd4eef" y="451.98"/>
      </g>
     </g>
     <g id="line2d_12">
      <g>
       <use style="stroke:#000000;stroke-linecap:butt;stroke-width:0.5;" x="254.265" xlink:href="#m476344969c" y="50.22"/>
      </g>
     </g>
     <g id="text_3">
      <!-- 100 -->
      <defs>
       <path d="
M12.4062 8.29688
L28.5156 8.29688
L28.5156 63.9219
L10.9844 60.4062
L10.9844 69.3906
L28.4219 72.9062
L38.2812 72.9062
L38.2812 8.29688
L54.3906 8.29688
L54.3906 0
L12.4062 0
z
" id="BitstreamVeraSans-Roman-31"/>
      </defs>
      <g transform="translate(243.87 464.88625)scale(0.12 -0.12)">
       <use xlink:href="#BitstreamVeraSans-Roman-31"/>
       <use x="63.623046875" xlink:href="#BitstreamVeraSans-Roman-30"/>
       <use x="127.24609375" xlink:href="#BitstreamVeraSans-Roman-30"/>
      </g>
     </g>
    </g>
    <g id="xtick_4">
     <g id="line2d_13">
      <path clip-path="url(#p73119d26de)" d="
M339.941 451.98
L339.941 50.22" style="fill:none;stroke:#000000;stroke-dasharray:1.000000,3.000000;stroke-dashoffset:0.0;stroke-linecap:butt;stroke-width:0.5;"/>
     </g>
     <g id="line2d_14">
      <g>
       <use style="stroke:#000000;stroke-linecap:butt;stroke-width:0.5;" x="339.94125" xlink:href="#m0012dd4eef" y="451.98"/>
      </g>
     </g>
     <g id="line2d_15">
      <g>
       <use style="stroke:#000000;stroke-linecap:butt;stroke-width:0.5;" x="339.94125" xlink:href="#m476344969c" y="50.22"/>
      </g>
     </g>
     <g id="text_4">
      <!-- 150 -->
      <g transform="translate(329.54625 464.88625)scale(0.12 -0.12)">
       <use xlink:href="#BitstreamVeraSans-Roman-31"/>
       <use x="63.623046875" xlink:href="#BitstreamVeraSans-Roman-35"/>
       <use x="127.24609375" xlink:href="#BitstreamVeraSans-Roman-30"/>
      </g>
     </g>
    </g>
    <g id="xtick_5">
     <g id="line2d_16">
      <path clip-path="url(#p73119d26de)" d="
M425.618 451.98
L425.618 50.22" style="fill:none;stroke:#000000;stroke-dasharray:1.000000,3.000000;stroke-dashoffset:0.0;stroke-linecap:butt;stroke-width:0.5;"/>
     </g>
     <g id="line2d_17">
      <g>
       <use style="stroke:#000000;stroke-linecap:butt;stroke-width:0.5;" x="425.6175" xlink:href="#m0012dd4eef" y="451.98"/>
      </g>
     </g>
     <g id="line2d_18">
      <g>
       <use style="stroke:#000000;stroke-linecap:butt;stroke-width:0.5;" x="425.6175" xlink:href="#m476344969c" y="50.22"/>
      </g>
     </g>
     <g id="text_5">
      <!-- 200 -->
      <defs>
       <path d="
M19.1875 8.29688
L53.6094 8.29688
L53.6094 0
L7.32812 0
L7.32812 8.29688
Q12.9375 14.1094 22.625 23.8906
Q32.3281 33.6875 34.8125 36.5312
Q39.5469 41.8438 41.4219 45.5312
Q43.3125 49.2188 43.3125 52.7812
Q43.3125 58.5938 39.2344 62.25
Q35.1562 65.9219 28.6094 65.9219
Q23.9688 65.9219 18.8125 64.3125
Q13.6719 62.7031 7.8125 59.4219
L7.8125 69.3906
Q13.7656 71.7812 18.9375 73
Q24.125 74.2188 28.4219 74.2188
Q39.75 74.2188 46.4844 68.5469
Q53.2188 62.8906 53.2188 53.4219
Q53.2188 48.9219 51.5312 44.8906
Q49.8594 40.875 45.4062 35.4062
Q44.1875 33.9844 37.6406 27.2188
Q31.1094 20.4531 19.1875 8.29688" id="BitstreamVeraSans-Roman-32"/>
      </defs>
      <g transform="translate(415.003125 464.88625)scale(0.12 -0.12)">
       <use xlink:href="#BitstreamVeraSans-Roman-32"/>
       <use x="63.623046875" xlink:href="#BitstreamVeraSans-Roman-30"/>
       <use x="127.24609375" xlink:href="#BitstreamVeraSans-Roman-30"/>
      </g>
     </g>
    </g>
    <g id="xtick_6">
     <g id="line2d_19">
      <path clip-path="url(#p73119d26de)" d="
M511.294 451.98
L511.294 50.22" style="fill:none;stroke:#000000;stroke-dasharray:1.000000,3.000000;stroke-dashoffset:0.0;stroke-linecap:butt;stroke-width:0.5;"/>
     </g>
     <g id="line2d_20">
      <g>
       <use style="stroke:#000000;stroke-linecap:butt;stroke-width:0.5;" x="511.29375" xlink:href="#m0012dd4eef" y="451.98"/>
      </g>
     </g>
     <g id="line2d_21">
      <g>
       <use style="stroke:#000000;stroke-linecap:butt;stroke-width:0.5;" x="511.29375" xlink:href="#m476344969c" y="50.22"/>
      </g>
     </g>
     <g id="text_6">
      <!-- 250 -->
      <g transform="translate(500.679375 464.88625)scale(0.12 -0.12)">
       <use xlink:href="#BitstreamVeraSans-Roman-32"/>
       <use x="63.623046875" xlink:href="#BitstreamVeraSans-Roman-35"/>
       <use x="127.24609375" xlink:href="#BitstreamVeraSans-Roman-30"/>
      </g>
     </g>
    </g>
    <g id="xtick_7">
     <g id="line2d_22">
      <path clip-path="url(#p73119d26de)" d="
M596.97 451.98
L596.97 50.22" style="fill:none;stroke:#000000;stroke-dasharray:1.000000,3.000000;stroke-dashoffset:0.0;stroke-linecap:butt;stroke-width:0.5;"/>
     </g>
     <g id="line2d_23">
      <g>
       <use style="stroke:#000000;stroke-linecap:butt;stroke-width:0.5;" x="596.97" xlink:href="#m0012dd4eef" y="451.98"/>
      </g>
     </g>
     <g id="line2d_24">
      <g>
       <use style="stroke:#000000;stroke-linecap:butt;stroke-width:0.5;" x="596.97" xlink:href="#m476344969c" y="50.22"/>
      </g>
     </g>
     <g id="text_7">
      <!-- 300 -->
      <defs>
       <path d="
M40.5781 39.3125
Q47.6562 37.7969 51.625 33
Q55.6094 28.2188 55.6094 21.1875
Q55.6094 10.4062 48.1875 4.48438
Q40.7656 -1.42188 27.0938 -1.42188
Q22.5156 -1.42188 17.6562 -0.515625
Q12.7969 0.390625 7.625 2.20312
L7.625 11.7188
Q11.7188 9.32812 16.5938 8.10938
Q21.4844 6.89062 26.8125 6.89062
Q36.0781 6.89062 40.9375 10.5469
Q45.7969 14.2031 45.7969 21.1875
Q45.7969 27.6406 41.2812 31.2656
Q36.7656 34.9062 28.7188 34.9062
L20.2188 34.9062
L20.2188 43.0156
L29.1094 43.0156
Q36.375 43.0156 40.2344 45.9219
Q44.0938 48.8281 44.0938 54.2969
Q44.0938 59.9062 40.1094 62.9062
Q36.1406 65.9219 28.7188 65.9219
Q24.6562 65.9219 20.0156 65.0312
Q15.375 64.1562 9.8125 62.3125
L9.8125 71.0938
Q15.4375 72.6562 20.3438 73.4375
Q25.25 74.2188 29.5938 74.2188
Q40.8281 74.2188 47.3594 69.1094
Q53.9062 64.0156 53.9062 55.3281
Q53.9062 49.2656 50.4375 45.0938
Q46.9688 40.9219 40.5781 39.3125" id="BitstreamVeraSans-Roman-33"/>
      </defs>
      <g transform="translate(586.3734375 464.88625)scale(0.12 -0.12)">
       <use xlink:href="#BitstreamVeraSans-Roman-33"/>
       <use x="63.623046875" xlink:href="#BitstreamVeraSans-Roman-30"/>
       <use x="127.24609375" xlink:href="#BitstreamVeraSans-Roman-30"/>
      </g>
     </g>
    </g>
    <g id="text_8">
     <!-- $t$ -->
     <defs>
      <path d="
M6.20312 8.10938
Q6.20312 9.57812 6.5 10.8906
L13.7188 39.5938
L3.21875 39.5938
Q2.20312 39.5938 2.20312 40.9219
Q2.59375 43.1094 3.51562 43.1094
L14.5938 43.1094
L18.6094 59.4219
Q19 60.75 20.1719 61.6719
Q21.3438 62.5938 22.7969 62.5938
Q24.0781 62.5938 24.9219 61.8281
Q25.7812 61.0781 25.7812 59.8125
Q25.7812 59.5156 25.75 59.3438
Q25.7344 59.1875 25.6875 58.9844
L21.6875 43.1094
L31.9844 43.1094
Q33.0156 43.1094 33.0156 41.7969
Q32.9531 41.5469 32.8125 40.9531
Q32.6719 40.375 32.4219 39.9844
Q32.1719 39.5938 31.6875 39.5938
L20.7969 39.5938
L13.625 10.6875
Q12.8906 7.85938 12.8906 5.8125
Q12.8906 1.51562 15.8281 1.51562
Q20.2188 1.51562 23.6094 5.64062
Q27 9.76562 28.8125 14.7031
Q29.2031 15.2812 29.5938 15.2812
L30.8125 15.2812
Q31.2031 15.2812 31.4375 15.0156
Q31.6875 14.75 31.6875 14.4062
Q31.6875 14.2031 31.5938 14.1094
Q29.3906 8.0625 25.1875 3.46875
Q21 -1.125 15.5781 -1.125
Q11.625 -1.125 8.90625 1.45312
Q6.20312 4.04688 6.20312 8.10938" id="Cmmi10-74"/>
     </defs>
     <g transform="translate(337.72125 477.856875)scale(0.12 -0.12)">
      <use transform="translate(0.0 2.40625)" xlink:href="#Cmmi10-74"/>
     </g>
    </g>
   </g>
   <g id="matplotlib.axis_2">
    <g id="ytick_1">
     <g id="line2d_25">
      <path clip-path="url(#p73119d26de)" d="
M82.9125 451.98
L596.97 451.98" style="fill:none;stroke:#000000;stroke-dasharray:1.000000,3.000000;stroke-dashoffset:0.0;stroke-linecap:butt;stroke-width:0.5;"/>
     </g>
     <g id="line2d_26">
      <defs>
       <path d="
M0 0
L4 0" id="me8a85f7bf6" style="stroke:#000000;stroke-linecap:butt;stroke-width:0.5;"/>
      </defs>
      <g>
       <use style="stroke:#000000;stroke-linecap:butt;stroke-width:0.5;" x="82.9125" xlink:href="#me8a85f7bf6" y="451.98"/>
      </g>
     </g>
     <g id="text_9">
      <!-- 0.0 -->
      <defs>
       <path d="
M10.6875 12.4062
L21 12.4062
L21 0
L10.6875 0
z
" id="BitstreamVeraSans-Roman-2e"/>
      </defs>
      <g transform="translate(61.416875 456.3478125)scale(0.12 -0.12)">
       <use xlink:href="#BitstreamVeraSans-Roman-30"/>
       <use x="63.623046875" xlink:href="#BitstreamVeraSans-Roman-2e"/>
       <use x="95.41015625" xlink:href="#BitstreamVeraSans-Roman-30"/>
      </g>
     </g>
    </g>
    <g id="ytick_2">
     <g id="line2d_27">
      <path clip-path="url(#p73119d26de)" d="
M82.9125 394.586
L596.97 394.586" style="fill:none;stroke:#000000;stroke-dasharray:1.000000,3.000000;stroke-dashoffset:0.0;stroke-linecap:butt;stroke-width:0.5;"/>
     </g>
     <g id="line2d_28">
      <g>
       <use style="stroke:#000000;stroke-linecap:butt;stroke-width:0.5;" x="82.9125" xlink:href="#me8a85f7bf6" y="394.585714286"/>
      </g>
     </g>
     <g id="text_10">
      <!-- 0.1 -->
      <g transform="translate(61.728125 398.953526786)scale(0.12 -0.12)">
       <use xlink:href="#BitstreamVeraSans-Roman-30"/>
       <use x="63.623046875" xlink:href="#BitstreamVeraSans-Roman-2e"/>
       <use x="95.41015625" xlink:href="#BitstreamVeraSans-Roman-31"/>
      </g>
     </g>
    </g>
    <g id="ytick_3">
     <g id="line2d_29">
      <path clip-path="url(#p73119d26de)" d="
M82.9125 337.191
L596.97 337.191" style="fill:none;stroke:#000000;stroke-dasharray:1.000000,3.000000;stroke-dashoffset:0.0;stroke-linecap:butt;stroke-width:0.5;"/>
     </g>
     <g id="line2d_30">
      <g>
       <use style="stroke:#000000;stroke-linecap:butt;stroke-width:0.5;" x="82.9125" xlink:href="#me8a85f7bf6" y="337.191428571"/>
      </g>
     </g>
     <g id="text_11">
      <!-- 0.2 -->
      <g transform="translate(61.821875 341.559241071)scale(0.12 -0.12)">
       <use xlink:href="#BitstreamVeraSans-Roman-30"/>
       <use x="63.623046875" xlink:href="#BitstreamVeraSans-Roman-2e"/>
       <use x="95.41015625" xlink:href="#BitstreamVeraSans-Roman-32"/>
      </g>
     </g>
    </g>
    <g id="ytick_4">
     <g id="line2d_31">
      <path clip-path="url(#p73119d26de)" d="
M82.9125 279.797
L596.97 279.797" style="fill:none;stroke:#000000;stroke-dasharray:1.000000,3.000000;stroke-dashoffset:0.0;stroke-linecap:butt;stroke-width:0.5;"/>
     </g>
     <g id="line2d_32">
      <g>
       <use style="stroke:#000000;stroke-linecap:butt;stroke-width:0.5;" x="82.9125" xlink:href="#me8a85f7bf6" y="279.797142857"/>
      </g>
     </g>
     <g id="text_12">
      <!-- 0.3 -->
      <g transform="translate(61.581875 284.164955357)scale(0.12 -0.12)">
       <use xlink:href="#BitstreamVeraSans-Roman-30"/>
       <use x="63.623046875" xlink:href="#BitstreamVeraSans-Roman-2e"/>
       <use x="95.41015625" xlink:href="#BitstreamVeraSans-Roman-33"/>
      </g>
     </g>
    </g>
    <g id="ytick_5">
     <g id="line2d_33">
      <path clip-path="url(#p73119d26de)" d="
M82.9125 222.403
L596.97 222.403" style="fill:none;stroke:#000000;stroke-dasharray:1.000000,3.000000;stroke-dashoffset:0.0;stroke-linecap:butt;stroke-width:0.5;"/>
     </g>
     <g id="line2d_34">
      <g>
       <use style="stroke:#000000;stroke-linecap:butt;stroke-width:0.5;" x="82.9125" xlink:href="#me8a85f7bf6" y="222.402857143"/>
      </g>
     </g>
     <g id="text_13">
      <!-- 0.4 -->
      <defs>
       <path d="
M37.7969 64.3125
L12.8906 25.3906
L37.7969 25.3906
z

M35.2031 72.9062
L47.6094 72.9062
L47.6094 25.3906
L58.0156 25.3906
L58.0156 17.1875
L47.6094 17.1875
L47.6094 0
L37.7969 0
L37.7969 17.1875
L4.89062 17.1875
L4.89062 26.7031
z
" id="BitstreamVeraSans-Roman-34"/>
      </defs>
      <g transform="translate(61.293125 226.770669643)scale(0.12 -0.12)">
       <use xlink:href="#BitstreamVeraSans-Roman-30"/>
       <use x="63.623046875" xlink:href="#BitstreamVeraSans-Roman-2e"/>
       <use x="95.41015625" xlink:href="#BitstreamVeraSans-Roman-34"/>
      </g>
     </g>
    </g>
    <g id="ytick_6">
     <g id="line2d_35">
      <path clip-path="url(#p73119d26de)" d="
M82.9125 165.009
L596.97 165.009" style="fill:none;stroke:#000000;stroke-dasharray:1.000000,3.000000;stroke-dashoffset:0.0;stroke-linecap:butt;stroke-width:0.5;"/>
     </g>
     <g id="line2d_36">
      <g>
       <use style="stroke:#000000;stroke-linecap:butt;stroke-width:0.5;" x="82.9125" xlink:href="#me8a85f7bf6" y="165.008571429"/>
      </g>
     </g>
     <g id="text_14">
      <!-- 0.5 -->
      <g transform="translate(61.668125 169.376383929)scale(0.12 -0.12)">
       <use xlink:href="#BitstreamVeraSans-Roman-30"/>
       <use x="63.623046875" xlink:href="#BitstreamVeraSans-Roman-2e"/>
       <use x="95.41015625" xlink:href="#BitstreamVeraSans-Roman-35"/>
      </g>
     </g>
    </g>
    <g id="ytick_7">
     <g id="line2d_37">
      <path clip-path="url(#p73119d26de)" d="
M82.9125 107.614
L596.97 107.614" style="fill:none;stroke:#000000;stroke-dasharray:1.000000,3.000000;stroke-dashoffset:0.0;stroke-linecap:butt;stroke-width:0.5;"/>
     </g>
     <g id="line2d_38">
      <g>
       <use style="stroke:#000000;stroke-linecap:butt;stroke-width:0.5;" x="82.9125" xlink:href="#me8a85f7bf6" y="107.614285714"/>
      </g>
     </g>
     <g id="text_15">
      <!-- 0.6 -->
      <defs>
       <path d="
M33.0156 40.375
Q26.375 40.375 22.4844 35.8281
Q18.6094 31.2969 18.6094 23.3906
Q18.6094 15.5312 22.4844 10.9531
Q26.375 6.39062 33.0156 6.39062
Q39.6562 6.39062 43.5312 10.9531
Q47.4062 15.5312 47.4062 23.3906
Q47.4062 31.2969 43.5312 35.8281
Q39.6562 40.375 33.0156 40.375
M52.5938 71.2969
L52.5938 62.3125
Q48.875 64.0625 45.0938 64.9844
Q41.3125 65.9219 37.5938 65.9219
Q27.8281 65.9219 22.6719 59.3281
Q17.5312 52.7344 16.7969 39.4062
Q19.6719 43.6562 24.0156 45.9219
Q28.375 48.1875 33.5938 48.1875
Q44.5781 48.1875 50.9531 41.5156
Q57.3281 34.8594 57.3281 23.3906
Q57.3281 12.1562 50.6875 5.35938
Q44.0469 -1.42188 33.0156 -1.42188
Q20.3594 -1.42188 13.6719 8.26562
Q6.98438 17.9688 6.98438 36.375
Q6.98438 53.6562 15.1875 63.9375
Q23.3906 74.2188 37.2031 74.2188
Q40.9219 74.2188 44.7031 73.4844
Q48.4844 72.75 52.5938 71.2969" id="BitstreamVeraSans-Roman-36"/>
      </defs>
      <g transform="translate(61.375625 111.982098214)scale(0.12 -0.12)">
       <use xlink:href="#BitstreamVeraSans-Roman-30"/>
       <use x="63.623046875" xlink:href="#BitstreamVeraSans-Roman-2e"/>
       <use x="95.41015625" xlink:href="#BitstreamVeraSans-Roman-36"/>
      </g>
     </g>
    </g>
    <g id="ytick_8">
     <g id="line2d_39">
      <path clip-path="url(#p73119d26de)" d="
M82.9125 50.22
L596.97 50.22" style="fill:none;stroke:#000000;stroke-dasharray:1.000000,3.000000;stroke-dashoffset:0.0;stroke-linecap:butt;stroke-width:0.5;"/>
     </g>
     <g id="line2d_40">
      <g>
       <use style="stroke:#000000;stroke-linecap:butt;stroke-width:0.5;" x="82.9125" xlink:href="#me8a85f7bf6" y="50.22"/>
      </g>
     </g>
     <g id="text_16">
      <!-- 0.7 -->
      <defs>
       <path d="
M8.20312 72.9062
L55.0781 72.9062
L55.0781 68.7031
L28.6094 0
L18.3125 0
L43.2188 64.5938
L8.20312 64.5938
z
" id="BitstreamVeraSans-Roman-37"/>
      </defs>
      <g transform="translate(61.645625 54.5878125)scale(0.12 -0.12)">
       <use xlink:href="#BitstreamVeraSans-Roman-30"/>
       <use x="63.623046875" xlink:href="#BitstreamVeraSans-Roman-2e"/>
       <use x="95.41015625" xlink:href="#BitstreamVeraSans-Roman-37"/>
      </g>
     </g>
    </g>
    <g id="text_17">
     <!-- $S(t)$ -->
     <defs>
      <path d="
M31 -24.8125
Q25.4375 -20.4062 21.4062 -14.7188
Q17.3906 -9.03125 14.8125 -2.57812
Q12.25 3.85938 10.9844 10.8906
Q9.71875 17.9219 9.71875 25
Q9.71875 32.1719 10.9844 39.2031
Q12.25 46.2344 14.8594 52.7344
Q17.4844 59.2344 21.5312 64.8906
Q25.5938 70.5625 31 74.8125
Q31 75 31.5 75
L32.4219 75
Q32.7188 75 32.9531 74.7344
Q33.2031 74.4688 33.2031 74.125
Q33.2031 73.6875 33.0156 73.4844
Q28.125 68.7031 24.875 63.2344
Q21.625 57.7656 19.6406 51.5781
Q17.6719 45.4062 16.7969 38.7812
Q15.9219 32.1719 15.9219 25
Q15.9219 -6.78125 32.9062 -23.2969
Q33.2031 -23.5781 33.2031 -24.125
Q33.2031 -24.3594 32.9375 -24.6719
Q32.6719 -25 32.4219 -25
L31.5 -25
Q31 -25 31 -24.8125" id="Cmr10-28"/>
      <path d="
M6.5 -25
Q5.60938 -25 5.60938 -24.125
Q5.60938 -23.6875 5.8125 -23.4844
Q22.9062 -6.78125 22.9062 25
Q22.9062 56.7812 6 73.2969
Q5.60938 73.5312 5.60938 74.125
Q5.60938 74.4688 5.875 74.7344
Q6.15625 75 6.5 75
L7.42188 75
Q7.71875 75 7.90625 74.8125
Q15.0938 69.1406 19.875 61.0312
Q24.6562 52.9375 26.875 43.75
Q29.1094 34.5781 29.1094 25
Q29.1094 17.9219 27.9062 11.0625
Q26.7031 4.20312 24.0938 -2.45312
Q21.4844 -9.125 17.4844 -14.7656
Q13.4844 -20.4062 7.90625 -24.8125
Q7.71875 -25 7.42188 -25
z
" id="Cmr10-29"/>
      <path d="
M6.10938 -2.20312
Q5.8125 -2.20312 5.5625 -1.85938
Q5.32812 -1.51562 5.32812 -1.21875
L11.0781 22.125
Q11.2812 22.7031 11.9219 22.7031
L13.0938 22.7031
Q13.4844 22.7031 13.7031 22.4062
Q13.9219 22.125 13.9219 21.6875
Q13.0938 18.2656 13.0938 15.5781
Q13.0938 8.34375 18.0625 4.82812
Q23.0469 1.3125 30.6094 1.3125
Q33.8906 1.3125 37.0625 2.92188
Q40.2344 4.54688 42.5938 7.125
Q44.9688 9.71875 46.375 12.9062
Q47.7969 16.1094 47.7969 19.3906
Q47.7969 22.9062 45.9375 25.6562
Q44.0938 28.4219 40.8281 29.2031
L28.6094 32.4219
Q23.6875 33.7344 20.75 37.7188
Q17.8281 41.7031 17.8281 46.6875
Q17.8281 52.6875 21.3906 58.25
Q24.9531 63.8125 30.6875 67.1562
Q36.4219 70.5156 42.3906 70.5156
Q46.9688 70.5156 50.7969 68.8281
Q54.6406 67.1406 56.6875 63.4844
L62.4062 70.2188
Q62.9844 70.5156 63.0938 70.5156
L63.7188 70.5156
Q64.1094 70.5156 64.3438 70.1719
Q64.5938 69.8281 64.5938 69.4844
L58.7969 46.2969
Q58.6406 45.6094 58.0156 45.6094
L56.7812 45.6094
Q55.9062 45.6094 55.9062 46.6875
Q56.3906 49.8594 56.3906 52.2031
Q56.3906 56.8438 54.7969 60.2812
Q53.2188 63.7188 50.0156 65.5
Q46.8281 67.2812 42.0938 67.2812
Q38.0938 67.2812 34.125 64.9844
Q30.1719 62.7031 27.7344 58.8906
Q25.2969 55.0781 25.2969 50.9844
Q25.2969 47.75 27.1719 45.2656
Q29.0469 42.7812 32.1719 41.8906
L44.3906 38.7188
Q47.7031 37.8438 50.1719 35.625
Q52.6406 33.4062 53.9062 30.3438
Q55.1719 27.2969 55.1719 23.6875
Q55.1719 18.9531 53.1719 14.3281
Q51.1719 9.71875 47.5781 5.90625
Q44 2.09375 39.4531 -0.046875
Q34.9062 -2.20312 30.1719 -2.20312
Q18.2656 -2.20312 13.0938 4.78125
L7.51562 -1.90625
Q6.9375 -2.20312 6.78125 -2.20312
z
" id="Cmmi10-53"/>
     </defs>
     <g transform="translate(35.293125 257.1)scale(0.12 -0.12)">
      <use transform="translate(0.0 25.0)" xlink:href="#Cmmi10-53"/>
      <use transform="translate(61.279296875 25.0)" xlink:href="#Cmr10-28"/>
      <use transform="translate(100.09765625 25.0)" xlink:href="#Cmmi10-74"/>
      <use transform="translate(136.181640625 25.0)" xlink:href="#Cmr10-29"/>
     </g>
    </g>
   </g>
   <g id="patch_3">
    <path d="
M82.9125 50.22
L596.97 50.22" style="fill:none;stroke:#000000;"/>
   </g>
   <g id="patch_4">
    <path d="
M596.97 451.98
L596.97 50.22" style="fill:none;stroke:#000000;"/>
   </g>
   <g id="patch_5">
    <path d="
M82.9125 451.98
L596.97 451.98" style="fill:none;stroke:#000000;"/>
   </g>
   <g id="patch_6">
    <path d="
M82.9125 451.98
L82.9125 50.22" style="fill:none;stroke:#000000;"/>
   </g>
   <g id="text_18">
    <g id="patch_7">
     <path d="
M252.265 167.849
L303.665 167.849
L303.665 113.159
L252.265 113.159
z
" style="fill:#ffffff;opacity:0.8;stroke:#000000;"/>
    </g>
    <!-- $\Omega=2$ -->
    <defs>
     <path d="
M4.98438 0
L4.98438 2.6875
Q4.98438 2.9375 5.17188 3.21875
L20.7031 20.4062
Q24.2188 24.2188 26.4062 26.7969
Q28.6094 29.3906 30.75 32.7656
Q32.9062 36.1406 34.1562 39.625
Q35.4062 43.1094 35.4062 47.0156
Q35.4062 51.125 33.8906 54.8594
Q32.375 58.5938 29.375 60.8438
Q26.375 63.0938 22.125 63.0938
Q17.7812 63.0938 14.3125 60.4688
Q10.8438 57.8594 9.42188 53.7188
Q9.8125 53.8125 10.5 53.8125
Q12.75 53.8125 14.3281 52.2969
Q15.9219 50.7812 15.9219 48.3906
Q15.9219 46.0938 14.3281 44.5
Q12.75 42.9219 10.5 42.9219
Q8.15625 42.9219 6.5625 44.5469
Q4.98438 46.1875 4.98438 48.3906
Q4.98438 52.1562 6.39062 55.4375
Q7.8125 58.7344 10.4688 61.2969
Q13.1406 63.875 16.4844 65.2344
Q19.8281 66.6094 23.5781 66.6094
Q29.2969 66.6094 34.2188 64.1875
Q39.1562 61.7656 42.0312 57.3438
Q44.9219 52.9375 44.9219 47.0156
Q44.9219 42.6719 43.0156 38.7656
Q41.1094 34.8594 38.125 31.6562
Q35.1562 28.4688 30.5156 24.4062
Q25.875 20.3594 24.4219 19
L13.0938 8.10938
L22.7031 8.10938
Q29.7812 8.10938 34.5469 8.21875
Q39.3125 8.34375 39.5938 8.59375
Q40.7656 9.85938 42 17.8281
L44.9219 17.8281
L42.0938 0
z
" id="Cmr10-32"/>
     <path d="
M7.71875 0
L4.39062 16.6094
L7.32812 16.6094
Q7.85938 13.7188 8.29688 11.5
Q8.73438 9.28125 9.4375 8.375
Q10.1562 7.46875 11.7188 7.17188
Q13.2812 6.89062 16.8906 6.89062
L23 6.89062
Q21.5312 12.5469 15.6875 21.6562
Q9.85938 30.7656 7.73438 34.8906
Q5.60938 39.0156 5.60938 45.5156
Q5.60938 53.0781 10.0938 58.7656
Q14.5938 64.4531 21.7031 67.4844
Q28.8125 70.5156 36.0781 70.5156
Q43.3125 70.5156 50.4062 67.4844
Q57.5156 64.4531 62 58.7188
Q66.5 52.9844 66.5 45.5156
Q66.5 40.4375 64.6406 35.9375
Q62.7969 31.4531 59.9062 26.9531
Q57.0312 22.4688 53.6875 16.9375
Q50.3438 11.4219 49.125 6.89062
L55.1719 6.89062
Q58.8438 6.89062 60.4531 7.17188
Q62.0625 7.46875 62.7344 8.375
Q63.4219 9.28125 63.8438 11.5
Q64.2656 13.7188 64.7969 16.6094
L67.6719 16.6094
L64.4062 0
L46.6875 0
Q45.7031 0 45.7031 1.3125
Q45.7031 6.39062 46.9375 11.2656
Q48.1875 16.1562 50.625 23.0938
Q53.0781 30.0312 54.4375 35.3281
Q55.8125 40.625 55.8125 45.5156
Q55.8125 51.5156 53.4688 56.6406
Q51.125 61.7656 46.625 64.8438
Q42.1406 67.9219 36.0781 67.9219
Q26.9531 67.9219 21.625 61.4062
Q16.3125 54.8906 16.3125 45.5156
Q16.3594 40.375 17.5312 35.8281
Q18.7031 31.2969 21.3125 23.7188
Q23.9219 16.1562 25.1719 11.2656
Q26.4219 6.39062 26.4219 1.3125
Q26.4219 0 25.3906 0
z
" id="Cmr10-ad"/>
     <path d="
M7.51562 13.2812
Q6.6875 13.2812 6.14062 13.9062
Q5.60938 14.5469 5.60938 15.2812
Q5.60938 16.1094 6.14062 16.6875
Q6.6875 17.2812 7.51562 17.2812
L70.3125 17.2812
Q71.0469 17.2812 71.5781 16.6875
Q72.125 16.1094 72.125 15.2812
Q72.125 14.5469 71.5781 13.9062
Q71.0469 13.2812 70.3125 13.2812
z

M7.51562 32.7188
Q6.6875 32.7188 6.14062 33.2969
Q5.60938 33.8906 5.60938 34.7188
Q5.60938 35.4531 6.14062 36.0781
Q6.6875 36.7188 7.51562 36.7188
L70.3125 36.7188
Q71.0469 36.7188 71.5781 36.0781
Q72.125 35.4531 72.125 34.7188
Q72.125 33.8906 71.5781 33.2969
Q71.0469 32.7188 70.3125 32.7188
z
" id="Cmr10-3d"/>
    </defs>
    <g transform="translate(254.265 123.679071429)scale(0.12 -0.12)">
     <use transform="translate(0.0 0.484375)" xlink:href="#Cmr10-ad"/>
     <use transform="translate(89.775390625 0.484375)" xlink:href="#Cmr10-3d"/>
     <use transform="translate(173.833984375 0.484375)" xlink:href="#Cmr10-32"/>
    </g>
    <!-- $\Delta=1$ -->
    <defs>
     <path d="
M9.28125 0
L9.28125 3.51562
Q21.7812 3.51562 21.7812 6.6875
L21.7812 59.1875
Q16.6094 56.6875 8.6875 56.6875
L8.6875 60.2031
Q20.9531 60.2031 27.2031 66.6094
L28.6094 66.6094
Q28.9531 66.6094 29.2656 66.3281
Q29.5938 66.0625 29.5938 65.7188
L29.5938 6.6875
Q29.5938 3.51562 42.0938 3.51562
L42.0938 0
z
" id="Cmr10-31"/>
     <path d="
M5.42188 0
Q4.59375 0 4.59375 0.78125
Q4.64062 0.875 4.65625 0.921875
Q4.6875 0.984375 4.6875 1.125
L39.1094 70.5156
Q39.5469 71.5781 40.9219 71.5781
L42.2812 71.5781
Q43.6562 71.5781 44.0938 70.5156
L78.5156 1.125
Q78.5625 1.03125 78.5781 0.953125
Q78.6094 0.875 78.6094 0.78125
Q78.6094 0 77.7812 0
z

M12.0156 8.01562
L64.7031 8.01562
L38.375 61.0781
z
" id="Cmr10-a2"/>
    </defs>
    <g transform="translate(254.265 137.615571429)scale(0.12 -0.12)">
     <use transform="translate(0.0 0.421875)" xlink:href="#Cmr10-a2"/>
     <use transform="translate(100.859375 0.421875)" xlink:href="#Cmr10-3d"/>
     <use transform="translate(184.91796875 0.421875)" xlink:href="#Cmr10-31"/>
    </g>
    <!-- $T=1.0$ -->
    <defs>
     <path d="
M25 -2.20312
Q12.75 -2.20312 8.32812 7.875
Q3.90625 17.9688 3.90625 31.8906
Q3.90625 40.5781 5.48438 48.2344
Q7.07812 55.9062 11.7812 61.25
Q16.5 66.6094 25 66.6094
Q31.5938 66.6094 35.7812 63.375
Q39.9844 60.1562 42.1875 55.0469
Q44.3906 49.9531 45.1875 44.1094
Q46 38.2812 46 31.8906
Q46 23.2969 44.4062 15.7969
Q42.8281 8.29688 38.1875 3.04688
Q33.5469 -2.20312 25 -2.20312
M25 0.390625
Q30.5625 0.390625 33.2969 6.09375
Q36.0312 11.8125 36.6719 18.75
Q37.3125 25.6875 37.3125 33.5
Q37.3125 41.0156 36.6719 47.3594
Q36.0312 53.7188 33.3125 58.8594
Q30.6094 64.0156 25 64.0156
Q19.3438 64.0156 16.6094 58.8281
Q13.875 53.6562 13.2344 47.3281
Q12.5938 41.0156 12.5938 33.5
Q12.5938 27.9375 12.8594 23
Q13.1406 18.0625 14.3125 12.8125
Q15.4844 7.5625 18.0938 3.96875
Q20.7031 0.390625 25 0.390625" id="Cmr10-30"/>
     <path d="
M4.59375 1.3125
Q4.64062 1.5625 4.8125 2.1875
Q4.98438 2.82812 5.25 3.17188
Q5.51562 3.51562 6 3.51562
Q14.5938 3.51562 17.3906 4
Q20.0625 4.6875 20.6094 6.89062
L34.2812 61.8125
Q34.7188 63.0312 34.7188 64.0156
Q34.7188 64.7969 31.2031 64.7969
L25.3906 64.7969
Q18.7031 64.7969 15.0625 62.7344
Q11.4219 60.6875 9.71875 57.3125
Q8.01562 53.9531 5.32812 46.2969
Q4.98438 45.4062 4.29688 45.4062
L3.42188 45.4062
Q2.39062 45.4062 2.39062 46.6875
L9.51562 67.3906
Q9.71875 68.3125 10.5 68.3125
L69.5781 68.3125
Q70.6094 68.3125 70.6094 67
L67.2812 46.2969
Q67.2812 46 66.9375 45.7031
Q66.6094 45.4062 66.3125 45.4062
L65.375 45.4062
Q64.4062 45.4062 64.4062 46.6875
Q65.4844 53.7656 65.4844 56.6875
Q65.4844 60.2031 64.0156 62
Q62.5469 63.8125 60.2031 64.2969
Q57.8594 64.7969 54.1094 64.7969
L48.1875 64.7969
Q45.5156 64.7969 44.5781 64.2969
Q43.6562 63.8125 43.0156 61.375
L29.2969 6.5
Q29.25 6.29688 29.2188 6.09375
Q29.2031 5.90625 29.1094 5.60938
Q29.1094 4.34375 30.6094 4
Q33.2031 3.51562 41.7031 3.51562
Q42.6719 3.51562 42.6719 2.20312
Q42.3281 0.78125 42.125 0.390625
Q41.9375 0 41.0156 0
L5.60938 0
Q4.59375 0 4.59375 1.3125" id="Cmmi10-54"/>
     <path d="
M8.40625 5.51562
Q8.40625 7.76562 10.0625 9.375
Q11.7188 10.9844 13.9219 10.9844
Q15.2812 10.9844 16.5938 10.25
Q17.9219 9.51562 18.6562 8.20312
Q19.3906 6.89062 19.3906 5.51562
Q19.3906 3.32812 17.7656 1.65625
Q16.1562 0 13.9219 0
Q11.7188 0 10.0625 1.65625
Q8.40625 3.32812 8.40625 5.51562" id="Cmmi10-3a"/>
    </defs>
    <g transform="translate(254.265 151.912071429)scale(0.12 -0.12)">
     <use transform="translate(0.0 3.6875)" xlink:href="#Cmmi10-54"/>
     <use transform="translate(75.95703125 3.6875)" xlink:href="#Cmr10-3d"/>
     <use transform="translate(160.015625 3.6875)" xlink:href="#Cmr10-31"/>
     <use transform="translate(210.015625 3.6875)" xlink:href="#Cmmi10-3a"/>
     <use transform="translate(238.55859375 3.6875)" xlink:href="#Cmr10-30"/>
    </g>
    <!-- $\alpha=0.005$ -->
    <defs>
     <path d="
M20.125 -1.125
Q15.375 -1.125 11.6875 1.125
Q8.01562 3.375 6 7.17188
Q4 10.9844 4 15.8281
Q4 22.6094 7.78125 29.25
Q11.5781 35.8906 17.8438 40.0312
Q24.125 44.1875 31 44.1875
Q36.0781 44.1875 39.9375 41.5312
Q43.7969 38.875 45.7969 34.4531
Q47.7969 30.0312 47.7969 25
L47.9062 18.3125
Q51.3125 23.0469 53.6875 28.1406
Q56.0625 33.25 57.3281 38.7188
Q57.5156 39.3125 58.1094 39.3125
L59.2812 39.3125
Q60.2031 39.3125 60.2031 38.375
Q60.2031 38.2812 60.1094 38.0938
Q58.9375 33.5 57.1719 29.2656
Q55.4219 25.0469 53.0469 21.0938
Q50.6875 17.1406 47.9062 13.9219
Q47.9062 1.51562 50.7812 1.51562
Q52.6406 1.51562 53.8281 2.60938
Q55.0312 3.71875 55.9375 5.32812
Q56.8438 6.9375 57.0781 6.98438
L58.2969 6.98438
Q59.0781 6.98438 59.0781 6
Q59.0781 3.51562 56.2188 1.1875
Q53.375 -1.125 50.5938 -1.125
Q46.9688 -1.125 44.5781 1.21875
Q42.1875 3.5625 41.3125 7.32812
Q36.625 3.32812 31.1562 1.09375
Q25.6875 -1.125 20.125 -1.125
M20.3125 1.51562
Q31 1.51562 40.8281 10.2969
Q40.7656 10.8906 40.6719 11.7344
Q40.5781 12.5938 40.5781 12.7031
L40.5781 23.4844
Q40.5781 41.6094 30.8125 41.6094
Q24.9531 41.6094 20.5469 36.5938
Q16.1562 31.5938 13.9375 24.625
Q11.7188 17.6719 11.7188 11.9219
Q11.7188 7.5625 13.9375 4.53125
Q16.1562 1.51562 20.3125 1.51562" id="Cmmi10-ae"/>
     <path d="
M8.6875 11.375
Q9.71875 8.45312 11.8438 6.04688
Q13.9688 3.65625 16.875 2.3125
Q19.7812 0.984375 22.9062 0.984375
Q30.125 0.984375 32.8594 6.59375
Q35.5938 12.2031 35.5938 20.2188
Q35.5938 23.6875 35.4688 26.0469
Q35.3594 28.4219 34.8125 30.6094
Q33.8906 34.125 31.5625 36.7656
Q29.25 39.4062 25.875 39.4062
Q22.5156 39.4062 20.0938 38.375
Q17.6719 37.3594 16.1562 35.9844
Q14.6562 34.625 13.4844 33.1094
Q12.3125 31.5938 12.0156 31.5
L10.8906 31.5
Q10.6406 31.5 10.2656 31.8125
Q9.90625 32.125 9.90625 32.4219
L9.90625 65.8281
Q9.90625 66.0625 10.2188 66.3281
Q10.5469 66.6094 10.8906 66.6094
L11.1875 66.6094
Q17.9219 63.375 25.4844 63.375
Q32.9062 63.375 39.7969 66.6094
L40.0938 66.6094
Q40.4375 66.6094 40.7188 66.3594
Q41.0156 66.1094 41.0156 65.8281
L41.0156 64.8906
Q41.0156 64.4062 40.8281 64.4062
Q37.4062 59.8594 32.25 57.3125
Q27.0938 54.7812 21.5781 54.7812
Q17.5781 54.7812 13.375 55.9062
L13.375 37.0156
Q16.7031 39.7031 19.3125 40.8438
Q21.9219 42 25.9844 42
Q31.5 42 35.8594 38.8125
Q40.2344 35.6406 42.5781 30.5312
Q44.9219 25.4375 44.9219 20.125
Q44.9219 14.1094 41.9688 8.98438
Q39.0156 3.85938 33.9375 0.828125
Q28.8594 -2.20312 22.9062 -2.20312
Q17.9688 -2.20312 13.8438 0.328125
Q9.71875 2.875 7.34375 7.17188
Q4.98438 11.4688 4.98438 16.3125
Q4.98438 18.5625 6.4375 19.9688
Q7.90625 21.3906 10.1094 21.3906
Q12.3125 21.3906 13.7969 19.9375
Q15.2812 18.5 15.2812 16.3125
Q15.2812 14.1562 13.7969 12.6719
Q12.3125 11.1875 10.1094 11.1875
Q9.76562 11.1875 9.32812 11.25
Q8.89062 11.3281 8.6875 11.375" id="Cmr10-35"/>
    </defs>
    <g transform="translate(254.265 165.848571429)scale(0.12 -0.12)">
     <use transform="translate(0.0 3.390625)" xlink:href="#Cmmi10-ae"/>
     <use transform="translate(81.474609375 3.390625)" xlink:href="#Cmr10-3d"/>
     <use transform="translate(165.533203125 3.390625)" xlink:href="#Cmr10-30"/>
     <use transform="translate(215.533203125 3.390625)" xlink:href="#Cmmi10-3a"/>
     <use transform="translate(244.076171875 3.390625)" xlink:href="#Cmr10-30"/>
     <use transform="translate(294.076171875 3.390625)" xlink:href="#Cmr10-30"/>
     <use transform="translate(344.076171875 3.390625)" xlink:href="#Cmr10-35"/>
    </g>
   </g>
   <g id="legend_1">
    <g id="patch_8">
     <path d="
M141.518 264.717
L469.832 264.717
L469.832 218.124
L141.518 218.124
L141.518 264.717
z
" style="fill:#ffffff;stroke:#000000;"/>
    </g>
    <g id="line2d_41">
     <path d="
M151.598 229.786
L171.758 229.786" style="fill:none;stroke:#ff0000;"/>
    </g>
    <g id="line2d_42"/>
    <g id="text_19">
     <!-- Redfield dynamics entropy -->
     <defs>
      <path id="BitstreamVeraSans-Roman-20"/>
      <path d="
M54.8906 33.0156
L54.8906 0
L45.9062 0
L45.9062 32.7188
Q45.9062 40.4844 42.875 44.3281
Q39.8438 48.1875 33.7969 48.1875
Q26.5156 48.1875 22.3125 43.5469
Q18.1094 38.9219 18.1094 30.9062
L18.1094 0
L9.07812 0
L9.07812 54.6875
L18.1094 54.6875
L18.1094 46.1875
Q21.3438 51.125 25.7031 53.5625
Q30.0781 56 35.7969 56
Q45.2188 56 50.0469 50.1719
Q54.8906 44.3438 54.8906 33.0156" id="BitstreamVeraSans-Roman-6e"/>
      <path d="
M52 44.1875
Q55.375 50.25 60.0625 53.125
Q64.75 56 71.0938 56
Q79.6406 56 84.2812 50.0156
Q88.9219 44.0469 88.9219 33.0156
L88.9219 0
L79.8906 0
L79.8906 32.7188
Q79.8906 40.5781 77.0938 44.375
Q74.3125 48.1875 68.6094 48.1875
Q61.625 48.1875 57.5625 43.5469
Q53.5156 38.9219 53.5156 30.9062
L53.5156 0
L44.4844 0
L44.4844 32.7188
Q44.4844 40.625 41.7031 44.4062
Q38.9219 48.1875 33.1094 48.1875
Q26.2188 48.1875 22.1562 43.5312
Q18.1094 38.875 18.1094 30.9062
L18.1094 0
L9.07812 0
L9.07812 54.6875
L18.1094 54.6875
L18.1094 46.1875
Q21.1875 51.2188 25.4844 53.6094
Q29.7812 56 35.6875 56
Q41.6562 56 45.8281 52.9688
Q50 49.9531 52 44.1875" id="BitstreamVeraSans-Roman-6d"/>
      <path d="
M30.6094 48.3906
Q23.3906 48.3906 19.1875 42.75
Q14.9844 37.1094 14.9844 27.2969
Q14.9844 17.4844 19.1562 11.8438
Q23.3438 6.20312 30.6094 6.20312
Q37.7969 6.20312 41.9844 11.8594
Q46.1875 17.5312 46.1875 27.2969
Q46.1875 37.0156 41.9844 42.7031
Q37.7969 48.3906 30.6094 48.3906
M30.6094 56
Q42.3281 56 49.0156 48.375
Q55.7188 40.7656 55.7188 27.2969
Q55.7188 13.875 49.0156 6.21875
Q42.3281 -1.42188 30.6094 -1.42188
Q18.8438 -1.42188 12.1719 6.21875
Q5.51562 13.875 5.51562 27.2969
Q5.51562 40.7656 12.1719 48.375
Q18.8438 56 30.6094 56" id="BitstreamVeraSans-Roman-6f"/>
      <path d="
M9.42188 75.9844
L18.4062 75.9844
L18.4062 0
L9.42188 0
z
" id="BitstreamVeraSans-Roman-6c"/>
      <path d="
M44.3906 34.1875
Q47.5625 33.1094 50.5625 29.5938
Q53.5625 26.0781 56.5938 19.9219
L66.6094 0
L56 0
L46.6875 18.7031
Q43.0625 26.0312 39.6719 28.4219
Q36.2812 30.8125 30.4219 30.8125
L19.6719 30.8125
L19.6719 0
L9.8125 0
L9.8125 72.9062
L32.0781 72.9062
Q44.5781 72.9062 50.7344 67.6719
Q56.8906 62.4531 56.8906 51.9062
Q56.8906 45.0156 53.6875 40.4688
Q50.4844 35.9375 44.3906 34.1875
M19.6719 64.7969
L19.6719 38.9219
L32.0781 38.9219
Q39.2031 38.9219 42.8438 42.2188
Q46.4844 45.5156 46.4844 51.9062
Q46.4844 58.2969 42.8438 61.5469
Q39.2031 64.7969 32.0781 64.7969
z
" id="BitstreamVeraSans-Roman-52"/>
      <path d="
M9.42188 54.6875
L18.4062 54.6875
L18.4062 0
L9.42188 0
z

M9.42188 75.9844
L18.4062 75.9844
L18.4062 64.5938
L9.42188 64.5938
z
" id="BitstreamVeraSans-Roman-69"/>
      <path d="
M18.1094 8.20312
L18.1094 -20.7969
L9.07812 -20.7969
L9.07812 54.6875
L18.1094 54.6875
L18.1094 46.3906
Q20.9531 51.2656 25.2656 53.625
Q29.5938 56 35.5938 56
Q45.5625 56 51.7812 48.0938
Q58.0156 40.1875 58.0156 27.2969
Q58.0156 14.4062 51.7812 6.48438
Q45.5625 -1.42188 35.5938 -1.42188
Q29.5938 -1.42188 25.2656 0.953125
Q20.9531 3.32812 18.1094 8.20312
M48.6875 27.2969
Q48.6875 37.2031 44.6094 42.8438
Q40.5312 48.4844 33.4062 48.4844
Q26.2656 48.4844 22.1875 42.8438
Q18.1094 37.2031 18.1094 27.2969
Q18.1094 17.3906 22.1875 11.75
Q26.2656 6.10938 33.4062 6.10938
Q40.5312 6.10938 44.6094 11.75
Q48.6875 17.3906 48.6875 27.2969" id="BitstreamVeraSans-Roman-70"/>
      <path d="
M41.1094 46.2969
Q39.5938 47.1719 37.8125 47.5781
Q36.0312 48 33.8906 48
Q26.2656 48 22.1875 43.0469
Q18.1094 38.0938 18.1094 28.8125
L18.1094 0
L9.07812 0
L9.07812 54.6875
L18.1094 54.6875
L18.1094 46.1875
Q20.9531 51.1719 25.4844 53.5781
Q30.0312 56 36.5312 56
Q37.4531 56 38.5781 55.875
Q39.7031 55.7656 41.0625 55.5156
z
" id="BitstreamVeraSans-Roman-72"/>
      <path d="
M32.1719 -5.07812
Q28.375 -14.8438 24.75 -17.8125
Q21.1406 -20.7969 15.0938 -20.7969
L7.90625 -20.7969
L7.90625 -13.2812
L13.1875 -13.2812
Q16.8906 -13.2812 18.9375 -11.5156
Q21 -9.76562 23.4844 -3.21875
L25.0938 0.875
L2.98438 54.6875
L12.5 54.6875
L29.5938 11.9219
L46.6875 54.6875
L56.2031 54.6875
z
" id="BitstreamVeraSans-Roman-79"/>
      <path d="
M56.2031 29.5938
L56.2031 25.2031
L14.8906 25.2031
Q15.4844 15.9219 20.4844 11.0625
Q25.4844 6.20312 34.4219 6.20312
Q39.5938 6.20312 44.4531 7.46875
Q49.3125 8.73438 54.1094 11.2812
L54.1094 2.78125
Q49.2656 0.734375 44.1875 -0.34375
Q39.1094 -1.42188 33.8906 -1.42188
Q20.7969 -1.42188 13.1562 6.1875
Q5.51562 13.8125 5.51562 26.8125
Q5.51562 40.2344 12.7656 48.1094
Q20.0156 56 32.3281 56
Q43.3594 56 49.7812 48.8906
Q56.2031 41.7969 56.2031 29.5938
M47.2188 32.2344
Q47.125 39.5938 43.0938 43.9844
Q39.0625 48.3906 32.4219 48.3906
Q24.9062 48.3906 20.3906 44.1406
Q15.875 39.8906 15.1875 32.1719
z
" id="BitstreamVeraSans-Roman-65"/>
      <path d="
M45.4062 46.3906
L45.4062 75.9844
L54.3906 75.9844
L54.3906 0
L45.4062 0
L45.4062 8.20312
Q42.5781 3.32812 38.25 0.953125
Q33.9375 -1.42188 27.875 -1.42188
Q17.9688 -1.42188 11.7344 6.48438
Q5.51562 14.4062 5.51562 27.2969
Q5.51562 40.1875 11.7344 48.0938
Q17.9688 56 27.875 56
Q33.9375 56 38.25 53.625
Q42.5781 51.2656 45.4062 46.3906
M14.7969 27.2969
Q14.7969 17.3906 18.875 11.75
Q22.9531 6.10938 30.0781 6.10938
Q37.2031 6.10938 41.2969 11.75
Q45.4062 17.3906 45.4062 27.2969
Q45.4062 37.2031 41.2969 42.8438
Q37.2031 48.4844 30.0781 48.4844
Q22.9531 48.4844 18.875 42.8438
Q14.7969 37.2031 14.7969 27.2969" id="BitstreamVeraSans-Roman-64"/>
      <path d="
M18.3125 70.2188
L18.3125 54.6875
L36.8125 54.6875
L36.8125 47.7031
L18.3125 47.7031
L18.3125 18.0156
Q18.3125 11.3281 20.1406 9.42188
Q21.9688 7.51562 27.5938 7.51562
L36.8125 7.51562
L36.8125 0
L27.5938 0
Q17.1875 0 13.2344 3.875
Q9.28125 7.76562 9.28125 18.0156
L9.28125 47.7031
L2.6875 47.7031
L2.6875 54.6875
L9.28125 54.6875
L9.28125 70.2188
z
" id="BitstreamVeraSans-Roman-74"/>
      <path d="
M37.1094 75.9844
L37.1094 68.5
L28.5156 68.5
Q23.6875 68.5 21.7969 66.5469
Q19.9219 64.5938 19.9219 59.5156
L19.9219 54.6875
L34.7188 54.6875
L34.7188 47.7031
L19.9219 47.7031
L19.9219 0
L10.8906 0
L10.8906 47.7031
L2.29688 47.7031
L2.29688 54.6875
L10.8906 54.6875
L10.8906 58.5
Q10.8906 67.625 15.1406 71.7969
Q19.3906 75.9844 28.6094 75.9844
z
" id="BitstreamVeraSans-Roman-66"/>
      <path d="
M34.2812 27.4844
Q23.3906 27.4844 19.1875 25
Q14.9844 22.5156 14.9844 16.5
Q14.9844 11.7188 18.1406 8.90625
Q21.2969 6.10938 26.7031 6.10938
Q34.1875 6.10938 38.7031 11.4062
Q43.2188 16.7031 43.2188 25.4844
L43.2188 27.4844
z

M52.2031 31.2031
L52.2031 0
L43.2188 0
L43.2188 8.29688
Q40.1406 3.32812 35.5469 0.953125
Q30.9531 -1.42188 24.3125 -1.42188
Q15.9219 -1.42188 10.9531 3.29688
Q6 8.01562 6 15.9219
Q6 25.1406 12.1719 29.8281
Q18.3594 34.5156 30.6094 34.5156
L43.2188 34.5156
L43.2188 35.4062
Q43.2188 41.6094 39.1406 45
Q35.0625 48.3906 27.6875 48.3906
Q23 48.3906 18.5469 47.2656
Q14.1094 46.1406 10.0156 43.8906
L10.0156 52.2031
Q14.9375 54.1094 19.5781 55.0469
Q24.2188 56 28.6094 56
Q40.4844 56 46.3438 49.8438
Q52.2031 43.7031 52.2031 31.2031" id="BitstreamVeraSans-Roman-61"/>
      <path d="
M44.2812 53.0781
L44.2812 44.5781
Q40.4844 46.5312 36.375 47.5
Q32.2812 48.4844 27.875 48.4844
Q21.1875 48.4844 17.8438 46.4375
Q14.5 44.3906 14.5 40.2812
Q14.5 37.1562 16.8906 35.375
Q19.2812 33.5938 26.5156 31.9844
L29.5938 31.2969
Q39.1562 29.25 43.1875 25.5156
Q47.2188 21.7812 47.2188 15.0938
Q47.2188 7.46875 41.1875 3.01562
Q35.1562 -1.42188 24.6094 -1.42188
Q20.2188 -1.42188 15.4531 -0.5625
Q10.6875 0.296875 5.42188 2
L5.42188 11.2812
Q10.4062 8.6875 15.2344 7.39062
Q20.0625 6.10938 24.8125 6.10938
Q31.1562 6.10938 34.5625 8.28125
Q37.9844 10.4531 37.9844 14.4062
Q37.9844 18.0625 35.5156 20.0156
Q33.0625 21.9688 24.7031 23.7812
L21.5781 24.5156
Q13.2344 26.2656 9.51562 29.9062
Q5.8125 33.5469 5.8125 39.8906
Q5.8125 47.6094 11.2812 51.7969
Q16.75 56 26.8125 56
Q31.7812 56 36.1719 55.2656
Q40.5781 54.5469 44.2812 53.0781" id="BitstreamVeraSans-Roman-73"/>
      <path d="
M48.7812 52.5938
L48.7812 44.1875
Q44.9688 46.2969 41.1406 47.3438
Q37.3125 48.3906 33.4062 48.3906
Q24.6562 48.3906 19.8125 42.8438
Q14.9844 37.3125 14.9844 27.2969
Q14.9844 17.2812 19.8125 11.7344
Q24.6562 6.20312 33.4062 6.20312
Q37.3125 6.20312 41.1406 7.25
Q44.9688 8.29688 48.7812 10.4062
L48.7812 2.09375
Q45.0156 0.34375 40.9844 -0.53125
Q36.9688 -1.42188 32.4219 -1.42188
Q20.0625 -1.42188 12.7812 6.34375
Q5.51562 14.1094 5.51562 27.2969
Q5.51562 40.6719 12.8594 48.3281
Q20.2188 56 33.0156 56
Q37.1562 56 41.1094 55.1406
Q45.0625 54.2969 48.7812 52.5938" id="BitstreamVeraSans-Roman-63"/>
     </defs>
     <g transform="translate(187.59825 234.82575)scale(0.144 -0.144)">
      <use xlink:href="#BitstreamVeraSans-Roman-52"/>
      <use x="64.982421875" xlink:href="#BitstreamVeraSans-Roman-65"/>
      <use x="126.505859375" xlink:href="#BitstreamVeraSans-Roman-64"/>
      <use x="189.982421875" xlink:href="#BitstreamVeraSans-Roman-66"/>
      <use x="225.1875" xlink:href="#BitstreamVeraSans-Roman-69"/>
      <use x="252.970703125" xlink:href="#BitstreamVeraSans-Roman-65"/>
      <use x="314.494140625" xlink:href="#BitstreamVeraSans-Roman-6c"/>
      <use x="342.27734375" xlink:href="#BitstreamVeraSans-Roman-64"/>
      <use x="405.75390625" xlink:href="#BitstreamVeraSans-Roman-20"/>
      <use x="437.541015625" xlink:href="#BitstreamVeraSans-Roman-64"/>
      <use x="501.017578125" xlink:href="#BitstreamVeraSans-Roman-79"/>
      <use x="560.197265625" xlink:href="#BitstreamVeraSans-Roman-6e"/>
      <use x="623.576171875" xlink:href="#BitstreamVeraSans-Roman-61"/>
      <use x="684.85546875" xlink:href="#BitstreamVeraSans-Roman-6d"/>
      <use x="782.267578125" xlink:href="#BitstreamVeraSans-Roman-69"/>
      <use x="810.05078125" xlink:href="#BitstreamVeraSans-Roman-63"/>
      <use x="865.03125" xlink:href="#BitstreamVeraSans-Roman-73"/>
      <use x="917.130859375" xlink:href="#BitstreamVeraSans-Roman-20"/>
      <use x="948.91796875" xlink:href="#BitstreamVeraSans-Roman-65"/>
      <use x="1010.44140625" xlink:href="#BitstreamVeraSans-Roman-6e"/>
      <use x="1073.8203125" xlink:href="#BitstreamVeraSans-Roman-74"/>
      <use x="1113.02929688" xlink:href="#BitstreamVeraSans-Roman-72"/>
      <use x="1151.89257812" xlink:href="#BitstreamVeraSans-Roman-6f"/>
      <use x="1213.07421875" xlink:href="#BitstreamVeraSans-Roman-70"/>
      <use x="1276.55078125" xlink:href="#BitstreamVeraSans-Roman-79"/>
     </g>
    </g>
    <g id="line2d_43">
     <path d="
M151.598 250.922
L171.758 250.922" style="fill:none;stroke:#0000ff;"/>
    </g>
    <g id="line2d_44"/>
    <g id="text_20">
     <!-- Completely positive dynamics entropy -->
     <defs>
      <path d="
M2.98438 54.6875
L12.5 54.6875
L29.5938 8.79688
L46.6875 54.6875
L56.2031 54.6875
L35.6875 0
L23.4844 0
z
" id="BitstreamVeraSans-Roman-76"/>
      <path d="
M64.4062 67.2812
L64.4062 56.8906
Q59.4219 61.5312 53.7812 63.8125
Q48.1406 66.1094 41.7969 66.1094
Q29.2969 66.1094 22.6562 58.4688
Q16.0156 50.8281 16.0156 36.375
Q16.0156 21.9688 22.6562 14.3281
Q29.2969 6.6875 41.7969 6.6875
Q48.1406 6.6875 53.7812 8.98438
Q59.4219 11.2812 64.4062 15.9219
L64.4062 5.60938
Q59.2344 2.09375 53.4375 0.328125
Q47.6562 -1.42188 41.2188 -1.42188
Q24.6562 -1.42188 15.125 8.70312
Q5.60938 18.8438 5.60938 36.375
Q5.60938 53.9531 15.125 64.0781
Q24.6562 74.2188 41.2188 74.2188
Q47.75 74.2188 53.5312 72.4844
Q59.3281 70.75 64.4062 67.2812" id="BitstreamVeraSans-Roman-43"/>
     </defs>
     <g transform="translate(187.59825 255.96225)scale(0.144 -0.144)">
      <use xlink:href="#BitstreamVeraSans-Roman-43"/>
      <use x="69.82421875" xlink:href="#BitstreamVeraSans-Roman-6f"/>
      <use x="131.005859375" xlink:href="#BitstreamVeraSans-Roman-6d"/>
      <use x="228.41796875" xlink:href="#BitstreamVeraSans-Roman-70"/>
      <use x="291.89453125" xlink:href="#BitstreamVeraSans-Roman-6c"/>
      <use x="319.677734375" xlink:href="#BitstreamVeraSans-Roman-65"/>
      <use x="381.201171875" xlink:href="#BitstreamVeraSans-Roman-74"/>
      <use x="420.41015625" xlink:href="#BitstreamVeraSans-Roman-65"/>
      <use x="481.93359375" xlink:href="#BitstreamVeraSans-Roman-6c"/>
      <use x="509.716796875" xlink:href="#BitstreamVeraSans-Roman-79"/>
      <use x="568.896484375" xlink:href="#BitstreamVeraSans-Roman-20"/>
      <use x="600.68359375" xlink:href="#BitstreamVeraSans-Roman-70"/>
      <use x="664.16015625" xlink:href="#BitstreamVeraSans-Roman-6f"/>
      <use x="725.341796875" xlink:href="#BitstreamVeraSans-Roman-73"/>
      <use x="777.44140625" xlink:href="#BitstreamVeraSans-Roman-69"/>
      <use x="805.224609375" xlink:href="#BitstreamVeraSans-Roman-74"/>
      <use x="844.43359375" xlink:href="#BitstreamVeraSans-Roman-69"/>
      <use x="872.216796875" xlink:href="#BitstreamVeraSans-Roman-76"/>
      <use x="931.396484375" xlink:href="#BitstreamVeraSans-Roman-65"/>
      <use x="992.919921875" xlink:href="#BitstreamVeraSans-Roman-20"/>
      <use x="1024.70703125" xlink:href="#BitstreamVeraSans-Roman-64"/>
      <use x="1088.18359375" xlink:href="#BitstreamVeraSans-Roman-79"/>
      <use x="1147.36328125" xlink:href="#BitstreamVeraSans-Roman-6e"/>
      <use x="1210.7421875" xlink:href="#BitstreamVeraSans-Roman-61"/>
      <use x="1272.02148438" xlink:href="#BitstreamVeraSans-Roman-6d"/>
      <use x="1369.43359375" xlink:href="#BitstreamVeraSans-Roman-69"/>
      <use x="1397.21679688" xlink:href="#BitstreamVeraSans-Roman-63"/>
      <use x="1452.19726562" xlink:href="#BitstreamVeraSans-Roman-73"/>
      <use x="1504.296875" xlink:href="#BitstreamVeraSans-Roman-20"/>
      <use x="1536.08398438" xlink:href="#BitstreamVeraSans-Roman-65"/>
      <use x="1597.60742188" xlink:href="#BitstreamVeraSans-Roman-6e"/>
      <use x="1660.98632812" xlink:href="#BitstreamVeraSans-Roman-74"/>
      <use x="1700.1953125" xlink:href="#BitstreamVeraSans-Roman-72"/>
      <use x="1739.05859375" xlink:href="#BitstreamVeraSans-Roman-6f"/>
      <use x="1800.24023438" xlink:href="#BitstreamVeraSans-Roman-70"/>
      <use x="1863.71679688" xlink:href="#BitstreamVeraSans-Roman-79"/>
     </g>
    </g>
   </g>
  </g>
  <g id="axes_2">
   <g id="line2d_45">
    <path clip-path="url(#p73119d26de)" d="
M82.9125 255.295
L83.1524 288.588
L83.5636 314.877
L83.9749 328.884
L84.2662 332.739
L84.369 332.987
L84.4033 332.949
L84.5061 332.494
L84.6946 330.45
L85.0201 324.077
L86.2196 298.016
L86.4766 296.638
L86.5452 296.644
L86.5623 296.671
L86.6823 297.129
L86.8879 298.999
L87.2134 304.479
L87.7275 317.587
L88.8413 346.378
L89.2354 351.427
L89.5096 352.713
L89.6124 352.744
L89.6295 352.727
L89.7666 352.374
L90.0065 350.941
L90.4349 346.68
L91.1888 339.385
L91.4801 338.339
L91.6001 338.333
L91.6172 338.353
L91.7714 338.775
L92.0113 340.265
L92.3712 344.157
L93.2793 357.571
L93.7591 362.497
L94.0504 363.679
L94.1704 363.717
L94.1875 363.701
L94.3246 363.384
L94.5473 362.195
L94.9072 358.83
L96.2095 345.363
L96.4493 344.859
L96.5693 344.96
L96.7406 345.509
L97.0148 347.304
L97.4432 351.872
L98.7112 366.316
L99.0368 367.694
L99.2253 367.86
L99.3623 367.703
L99.5851 366.998
L99.9449 364.951
L101.076 357.986
L101.316 357.629
L101.453 357.701
L101.641 358.128
L101.933 359.49
L102.395 362.977
L103.441 371.116
L103.766 372.14
L103.955 372.239
L104.109 372.052
L104.349 371.317
L104.726 369.299
L105.908 362.431
L106.165 362.038
L106.319 362.095
L106.508 362.463
L106.799 363.628
L107.262 366.589
L108.341 373.766
L108.684 374.738
L108.907 374.87
L109.078 374.711
L109.335 374.093
L109.746 372.41
L110.74 368.198
L111.031 367.78
L111.22 367.813
L111.426 368.125
L111.734 369.084
L112.231 371.517
L113.156 376.04
L113.516 376.818
L113.739 376.899
L113.944 376.705
L114.236 376.043
L114.733 374.229
L115.504 371.546
L115.829 371.087
L116.035 371.095
L116.258 371.37
L116.566 372.171
L117.063 374.19
L118.023 378.077
L118.382 378.712
L118.622 378.775
L118.845 378.58
L119.154 377.965
L119.719 376.21
L120.422 374.242
L120.764 373.851
L120.987 373.871
L121.227 374.136
L121.57 374.903
L122.186 376.973
L122.906 379.153
L123.283 379.682
L123.54 379.727
L123.797 379.527
L124.157 378.914
L125.476 376.37
L125.751 376.345
L126.008 376.559
L126.35 377.165
L126.95 378.781
L127.704 380.654
L128.081 381.081
L128.355 381.103
L128.629 380.888
L129.023 380.243
L130.377 377.732
L130.686 377.663
L130.977 377.851
L131.354 378.416
L132.074 380.023
L132.708 381.203
L133.085 381.513
L133.393 381.507
L133.736 381.255
L134.301 380.5
L135.004 379.661
L135.364 379.536
L135.689 379.662
L136.066 380.076
L136.717 381.201
L137.437 382.308
L137.831 382.557
L138.157 382.514
L138.516 382.222
L139.082 381.424
L139.904 380.321
L140.298 380.125
L140.641 380.198
L141.035 380.541
L141.686 381.475
L142.457 382.469
L142.886 382.695
L143.28 382.651
L143.76 382.345
L144.874 381.563
L145.285 381.58
L145.713 381.837
L146.364 382.539
L147.17 383.335
L147.615 383.477
L148.009 383.37
L148.506 382.976
L149.843 381.786
L150.271 381.754
L150.717 381.965
L151.385 382.583
L152.259 383.331
L152.756 383.472
L153.253 383.38
L154.983 382.837
L155.515 383.06
L157.331 384.053
L157.828 383.926
L158.496 383.489
L159.49 382.87
L160.004 382.815
L160.535 382.991
L161.529 383.632
L162.249 383.946
L162.848 383.963
L163.825 383.707
L164.579 383.627
L165.23 383.791
L167.081 384.417
L167.698 384.264
L169.771 383.524
L170.439 383.697
L172.29 384.32
L173.147 384.245
L174.38 384.151
L175.254 384.347
L176.591 384.654
L177.328 384.56
L179.727 384.017
L180.669 384.256
L181.937 384.54
L183.017 384.506
L184.336 384.504
L187.043 384.729
L189.562 384.337
L190.985 384.605
L192.184 384.705
L194.806 384.796
L196.296 384.887
L197.547 384.693
L198.935 384.53
L200.152 384.646
L202.02 384.812
L205.053 384.938
L206.423 384.913
L209.405 384.709
L213.175 384.903
L216.636 384.91
L218.881 384.786
L226.3 384.953
L228.905 384.86
L235.519 385.003
L239.477 384.933
L244.704 385.028
L251.386 385.007
L256.201 384.977
L259.44 384.983
L265.3 385.006
L269.567 384.999
L275.718 384.996
L280.362 385.019
L287.37 384.992
L314.187 385.016
L327.672 385.014
L351.285 385.024
L414.719 385.019
L596.97 385.02
L596.97 385.02" style="fill:none;stroke:#bfbf00;"/>
   </g>
   <g id="line2d_46">
    <path clip-path="url(#p73119d26de)" d="
M82.9125 91.6881
L83.0839 168.978
L83.3923 207.821
L83.8207 234.299
L84.369 254.98
L85.0373 272.149
L85.8255 286.875
L86.7337 299.738
L87.7446 310.921
L88.8413 320.613
L90.0065 328.992
L91.2574 336.398
L92.5596 342.803
L93.9133 348.379
L95.3184 353.252
L96.7749 357.52
L98.2828 361.262
L99.8421 364.542
L101.436 367.387
L103.098 369.903
L104.811 372.1
L106.611 374.046
L108.495 375.757
L110.483 377.264
L112.608 378.597
L114.904 379.775
L117.423 380.816
L120.216 381.726
L123.369 382.517
L127.001 383.194
L131.285 383.759
L136.512 384.217
L143.194 384.568
L152.413 384.816
L167.081 384.962
L200.203 385.017
L566.435 385.02
L596.97 385.02
L596.97 385.02" style="fill:none;stroke:#00bfbf;"/>
   </g>
   <g id="matplotlib.axis_3">
    <g id="ytick_9">
     <g id="line2d_47">
      <path clip-path="url(#p73119d26de)" d="
M82.9125 451.98
L596.97 451.98" style="fill:none;stroke:#000000;stroke-dasharray:1.000000,3.000000;stroke-dashoffset:0.0;stroke-linecap:butt;stroke-width:0.5;"/>
     </g>
     <g id="line2d_48">
      <defs>
       <path d="
M0 0
L-4 0" id="m1a32005dea" style="stroke:#000000;stroke-linecap:butt;stroke-width:0.5;"/>
      </defs>
      <g>
       <use style="stroke:#000000;stroke-linecap:butt;stroke-width:0.5;" x="596.97" xlink:href="#m1a32005dea" y="451.98"/>
      </g>
     </g>
     <g id="text_21">
      <!-- 0.1 -->
      <defs>
       <path d="
M10.5938 35.5
L73.1875 35.5
L73.1875 27.2031
L10.5938 27.2031
z
" id="BitstreamVeraSans-Roman-2212"/>
      </defs>
      <g transform="translate(600.97 456.3478125)scale(0.12 -0.12)">
       <use xlink:href="#BitstreamVeraSans-Roman-2212"/>
       <use x="83.7890625" xlink:href="#BitstreamVeraSans-Roman-30"/>
       <use x="147.412109375" xlink:href="#BitstreamVeraSans-Roman-2e"/>
       <use x="179.19921875" xlink:href="#BitstreamVeraSans-Roman-31"/>
      </g>
     </g>
    </g>
    <g id="ytick_10">
     <g id="line2d_49">
      <path clip-path="url(#p73119d26de)" d="
M82.9125 385.02
L596.97 385.02" style="fill:none;stroke:#000000;stroke-dasharray:1.000000,3.000000;stroke-dashoffset:0.0;stroke-linecap:butt;stroke-width:0.5;"/>
     </g>
     <g id="line2d_50">
      <g>
       <use style="stroke:#000000;stroke-linecap:butt;stroke-width:0.5;" x="596.97" xlink:href="#m1a32005dea" y="385.02"/>
      </g>
     </g>
     <g id="text_22">
      <!-- 0.0 -->
      <g transform="translate(600.97 389.3878125)scale(0.12 -0.12)">
       <use xlink:href="#BitstreamVeraSans-Roman-30"/>
       <use x="63.623046875" xlink:href="#BitstreamVeraSans-Roman-2e"/>
       <use x="95.41015625" xlink:href="#BitstreamVeraSans-Roman-30"/>
      </g>
     </g>
    </g>
    <g id="ytick_11">
     <g id="line2d_51">
      <path clip-path="url(#p73119d26de)" d="
M82.9125 318.06
L596.97 318.06" style="fill:none;stroke:#000000;stroke-dasharray:1.000000,3.000000;stroke-dashoffset:0.0;stroke-linecap:butt;stroke-width:0.5;"/>
     </g>
     <g id="line2d_52">
      <g>
       <use style="stroke:#000000;stroke-linecap:butt;stroke-width:0.5;" x="596.97" xlink:href="#m1a32005dea" y="318.06"/>
      </g>
     </g>
     <g id="text_23">
      <!-- 0.1 -->
      <g transform="translate(600.97 322.4278125)scale(0.12 -0.12)">
       <use xlink:href="#BitstreamVeraSans-Roman-30"/>
       <use x="63.623046875" xlink:href="#BitstreamVeraSans-Roman-2e"/>
       <use x="95.41015625" xlink:href="#BitstreamVeraSans-Roman-31"/>
      </g>
     </g>
    </g>
    <g id="ytick_12">
     <g id="line2d_53">
      <path clip-path="url(#p73119d26de)" d="
M82.9125 251.1
L596.97 251.1" style="fill:none;stroke:#000000;stroke-dasharray:1.000000,3.000000;stroke-dashoffset:0.0;stroke-linecap:butt;stroke-width:0.5;"/>
     </g>
     <g id="line2d_54">
      <g>
       <use style="stroke:#000000;stroke-linecap:butt;stroke-width:0.5;" x="596.97" xlink:href="#m1a32005dea" y="251.1"/>
      </g>
     </g>
     <g id="text_24">
      <!-- 0.2 -->
      <g transform="translate(600.97 255.4678125)scale(0.12 -0.12)">
       <use xlink:href="#BitstreamVeraSans-Roman-30"/>
       <use x="63.623046875" xlink:href="#BitstreamVeraSans-Roman-2e"/>
       <use x="95.41015625" xlink:href="#BitstreamVeraSans-Roman-32"/>
      </g>
     </g>
    </g>
    <g id="ytick_13">
     <g id="line2d_55">
      <path clip-path="url(#p73119d26de)" d="
M82.9125 184.14
L596.97 184.14" style="fill:none;stroke:#000000;stroke-dasharray:1.000000,3.000000;stroke-dashoffset:0.0;stroke-linecap:butt;stroke-width:0.5;"/>
     </g>
     <g id="line2d_56">
      <g>
       <use style="stroke:#000000;stroke-linecap:butt;stroke-width:0.5;" x="596.97" xlink:href="#m1a32005dea" y="184.14"/>
      </g>
     </g>
     <g id="text_25">
      <!-- 0.3 -->
      <g transform="translate(600.97 188.5078125)scale(0.12 -0.12)">
       <use xlink:href="#BitstreamVeraSans-Roman-30"/>
       <use x="63.623046875" xlink:href="#BitstreamVeraSans-Roman-2e"/>
       <use x="95.41015625" xlink:href="#BitstreamVeraSans-Roman-33"/>
      </g>
     </g>
    </g>
    <g id="ytick_14">
     <g id="line2d_57">
      <path clip-path="url(#p73119d26de)" d="
M82.9125 117.18
L596.97 117.18" style="fill:none;stroke:#000000;stroke-dasharray:1.000000,3.000000;stroke-dashoffset:0.0;stroke-linecap:butt;stroke-width:0.5;"/>
     </g>
     <g id="line2d_58">
      <g>
       <use style="stroke:#000000;stroke-linecap:butt;stroke-width:0.5;" x="596.97" xlink:href="#m1a32005dea" y="117.18"/>
      </g>
     </g>
     <g id="text_26">
      <!-- 0.4 -->
      <g transform="translate(600.97 121.5478125)scale(0.12 -0.12)">
       <use xlink:href="#BitstreamVeraSans-Roman-30"/>
       <use x="63.623046875" xlink:href="#BitstreamVeraSans-Roman-2e"/>
       <use x="95.41015625" xlink:href="#BitstreamVeraSans-Roman-34"/>
      </g>
     </g>
    </g>
    <g id="ytick_15">
     <g id="line2d_59">
      <path clip-path="url(#p73119d26de)" d="
M82.9125 50.22
L596.97 50.22" style="fill:none;stroke:#000000;stroke-dasharray:1.000000,3.000000;stroke-dashoffset:0.0;stroke-linecap:butt;stroke-width:0.5;"/>
     </g>
     <g id="line2d_60">
      <g>
       <use style="stroke:#000000;stroke-linecap:butt;stroke-width:0.5;" x="596.97" xlink:href="#m1a32005dea" y="50.22"/>
      </g>
     </g>
     <g id="text_27">
      <!-- 0.5 -->
      <g transform="translate(600.97 54.5878125)scale(0.12 -0.12)">
       <use xlink:href="#BitstreamVeraSans-Roman-30"/>
       <use x="63.623046875" xlink:href="#BitstreamVeraSans-Roman-2e"/>
       <use x="95.41015625" xlink:href="#BitstreamVeraSans-Roman-35"/>
      </g>
     </g>
    </g>
    <g id="text_28">
     <!-- $\sigma(t)$ -->
     <defs>
      <path d="
M18.7031 -1.125
Q14.2656 -1.125 10.8125 1
Q7.375 3.125 5.48438 6.73438
Q3.60938 10.3594 3.60938 14.7031
Q3.60938 19.3438 5.70312 24.4688
Q7.8125 29.5938 11.4531 33.8438
Q15.0938 38.0938 19.6719 40.5938
Q24.2656 43.1094 29.1094 43.1094
L54.2969 43.1094
Q55.3281 43.1094 56.0469 42.4219
Q56.7812 41.75 56.7812 40.5781
Q56.7812 39.1094 55.7344 38.0156
Q54.6875 36.9219 53.2188 36.9219
L41.0156 36.9219
Q43.8906 32.625 43.8906 26.5156
Q43.8906 21.4844 41.9375 16.5938
Q39.9844 11.7188 36.5156 7.6875
Q33.0625 3.65625 28.4375 1.26562
Q23.8281 -1.125 18.7031 -1.125
M18.7969 1.51562
Q24.2656 1.51562 28.4844 5.78125
Q32.7188 10.0625 34.9531 16.2344
Q37.2031 22.4062 37.2031 27.6875
Q37.2031 31.9844 34.8281 34.4531
Q32.4688 36.9219 28.2188 36.9219
Q22.4062 36.9219 18.3281 33.0156
Q14.2656 29.1094 12.2344 23.1875
Q10.2031 17.2812 10.2031 11.8125
Q10.2031 7.51562 12.4688 4.51562
Q14.75 1.51562 18.7969 1.51562" id="Cmmi10-be"/>
     </defs>
     <g transform="translate(632.73 257.1)scale(0.12 -0.12)">
      <use transform="translate(0.0 25.0)" xlink:href="#Cmmi10-be"/>
      <use transform="translate(57.080078125 25.0)" xlink:href="#Cmr10-28"/>
      <use transform="translate(95.8984375 25.0)" xlink:href="#Cmmi10-74"/>
      <use transform="translate(131.982421875 25.0)" xlink:href="#Cmr10-29"/>
     </g>
    </g>
   </g>
   <g id="legend_2">
    <g id="patch_9">
     <path d="
M141.518 345.069
L420.106 345.069
L420.106 298.476
L141.518 298.476
L141.518 345.069
z
" style="fill:#ffffff;stroke:#000000;"/>
    </g>
    <g id="line2d_61">
     <path d="
M151.598 310.138
L171.758 310.138" style="fill:none;stroke:#bfbf00;"/>
    </g>
    <g id="line2d_62"/>
    <g id="text_29">
     <!-- Redfield entropy prod. -->
     <g transform="translate(187.59825 315.17775)scale(0.144 -0.144)">
      <use xlink:href="#BitstreamVeraSans-Roman-52"/>
      <use x="64.982421875" xlink:href="#BitstreamVeraSans-Roman-65"/>
      <use x="126.505859375" xlink:href="#BitstreamVeraSans-Roman-64"/>
      <use x="189.982421875" xlink:href="#BitstreamVeraSans-Roman-66"/>
      <use x="225.1875" xlink:href="#BitstreamVeraSans-Roman-69"/>
      <use x="252.970703125" xlink:href="#BitstreamVeraSans-Roman-65"/>
      <use x="314.494140625" xlink:href="#BitstreamVeraSans-Roman-6c"/>
      <use x="342.27734375" xlink:href="#BitstreamVeraSans-Roman-64"/>
      <use x="405.75390625" xlink:href="#BitstreamVeraSans-Roman-20"/>
      <use x="437.541015625" xlink:href="#BitstreamVeraSans-Roman-65"/>
      <use x="499.064453125" xlink:href="#BitstreamVeraSans-Roman-6e"/>
      <use x="562.443359375" xlink:href="#BitstreamVeraSans-Roman-74"/>
      <use x="601.65234375" xlink:href="#BitstreamVeraSans-Roman-72"/>
      <use x="640.515625" xlink:href="#BitstreamVeraSans-Roman-6f"/>
      <use x="701.697265625" xlink:href="#BitstreamVeraSans-Roman-70"/>
      <use x="765.173828125" xlink:href="#BitstreamVeraSans-Roman-79"/>
      <use x="824.353515625" xlink:href="#BitstreamVeraSans-Roman-20"/>
      <use x="856.140625" xlink:href="#BitstreamVeraSans-Roman-70"/>
      <use x="919.6171875" xlink:href="#BitstreamVeraSans-Roman-72"/>
      <use x="958.48046875" xlink:href="#BitstreamVeraSans-Roman-6f"/>
      <use x="1019.66210938" xlink:href="#BitstreamVeraSans-Roman-64"/>
      <use x="1083.13867188" xlink:href="#BitstreamVeraSans-Roman-2e"/>
     </g>
    </g>
    <g id="line2d_63">
     <path d="
M151.598 331.274
L171.758 331.274" style="fill:none;stroke:#00bfbf;"/>
    </g>
    <g id="line2d_64"/>
    <g id="text_30">
     <!-- Completely posit. entropy prod. -->
     <g transform="translate(187.59825 336.31425)scale(0.144 -0.144)">
      <use xlink:href="#BitstreamVeraSans-Roman-43"/>
      <use x="69.82421875" xlink:href="#BitstreamVeraSans-Roman-6f"/>
      <use x="131.005859375" xlink:href="#BitstreamVeraSans-Roman-6d"/>
      <use x="228.41796875" xlink:href="#BitstreamVeraSans-Roman-70"/>
      <use x="291.89453125" xlink:href="#BitstreamVeraSans-Roman-6c"/>
      <use x="319.677734375" xlink:href="#BitstreamVeraSans-Roman-65"/>
      <use x="381.201171875" xlink:href="#BitstreamVeraSans-Roman-74"/>
      <use x="420.41015625" xlink:href="#BitstreamVeraSans-Roman-65"/>
      <use x="481.93359375" xlink:href="#BitstreamVeraSans-Roman-6c"/>
      <use x="509.716796875" xlink:href="#BitstreamVeraSans-Roman-79"/>
      <use x="568.896484375" xlink:href="#BitstreamVeraSans-Roman-20"/>
      <use x="600.68359375" xlink:href="#BitstreamVeraSans-Roman-70"/>
      <use x="664.16015625" xlink:href="#BitstreamVeraSans-Roman-6f"/>
      <use x="725.341796875" xlink:href="#BitstreamVeraSans-Roman-73"/>
      <use x="777.44140625" xlink:href="#BitstreamVeraSans-Roman-69"/>
      <use x="805.224609375" xlink:href="#BitstreamVeraSans-Roman-74"/>
      <use x="844.43359375" xlink:href="#BitstreamVeraSans-Roman-2e"/>
      <use x="876.220703125" xlink:href="#BitstreamVeraSans-Roman-20"/>
      <use x="908.0078125" xlink:href="#BitstreamVeraSans-Roman-65"/>
      <use x="969.53125" xlink:href="#BitstreamVeraSans-Roman-6e"/>
      <use x="1032.91015625" xlink:href="#BitstreamVeraSans-Roman-74"/>
      <use x="1072.11914062" xlink:href="#BitstreamVeraSans-Roman-72"/>
      <use x="1110.98242188" xlink:href="#BitstreamVeraSans-Roman-6f"/>
      <use x="1172.1640625" xlink:href="#BitstreamVeraSans-Roman-70"/>
      <use x="1235.640625" xlink:href="#BitstreamVeraSans-Roman-79"/>
      <use x="1294.8203125" xlink:href="#BitstreamVeraSans-Roman-20"/>
      <use x="1326.60742188" xlink:href="#BitstreamVeraSans-Roman-70"/>
      <use x="1390.08398438" xlink:href="#BitstreamVeraSans-Roman-72"/>
      <use x="1428.94726562" xlink:href="#BitstreamVeraSans-Roman-6f"/>
      <use x="1490.12890625" xlink:href="#BitstreamVeraSans-Roman-64"/>
      <use x="1553.60546875" xlink:href="#BitstreamVeraSans-Roman-2e"/>
     </g>
    </g>
   </g>
  </g>
  <g id="text_31">
   <!-- Entropy time-evolution -->
   <defs>
    <path d="
M9.8125 72.9062
L55.9062 72.9062
L55.9062 64.5938
L19.6719 64.5938
L19.6719 43.0156
L54.3906 43.0156
L54.3906 34.7188
L19.6719 34.7188
L19.6719 8.29688
L56.7812 8.29688
L56.7812 0
L9.8125 0
z
" id="BitstreamVeraSans-Roman-45"/>
    <path d="
M8.5 21.5781
L8.5 54.6875
L17.4844 54.6875
L17.4844 21.9219
Q17.4844 14.1562 20.5 10.2656
Q23.5312 6.39062 29.5938 6.39062
Q36.8594 6.39062 41.0781 11.0312
Q45.3125 15.6719 45.3125 23.6875
L45.3125 54.6875
L54.2969 54.6875
L54.2969 0
L45.3125 0
L45.3125 8.40625
Q42.0469 3.42188 37.7188 1
Q33.4062 -1.42188 27.6875 -1.42188
Q18.2656 -1.42188 13.375 4.4375
Q8.5 10.2969 8.5 21.5781" id="BitstreamVeraSans-Roman-75"/>
    <path d="
M4.89062 31.3906
L31.2031 31.3906
L31.2031 23.3906
L4.89062 23.3906
z
" id="BitstreamVeraSans-Roman-2d"/>
   </defs>
   <g transform="translate(263.3465625 19.162125)scale(0.12 -0.12)">
    <use xlink:href="#BitstreamVeraSans-Roman-45"/>
    <use x="63.18359375" xlink:href="#BitstreamVeraSans-Roman-6e"/>
    <use x="126.5625" xlink:href="#BitstreamVeraSans-Roman-74"/>
    <use x="165.771484375" xlink:href="#BitstreamVeraSans-Roman-72"/>
    <use x="204.634765625" xlink:href="#BitstreamVeraSans-Roman-6f"/>
    <use x="265.81640625" xlink:href="#BitstreamVeraSans-Roman-70"/>
    <use x="329.29296875" xlink:href="#BitstreamVeraSans-Roman-79"/>
    <use x="388.47265625" xlink:href="#BitstreamVeraSans-Roman-20"/>
    <use x="420.259765625" xlink:href="#BitstreamVeraSans-Roman-74"/>
    <use x="459.46875" xlink:href="#BitstreamVeraSans-Roman-69"/>
    <use x="487.251953125" xlink:href="#BitstreamVeraSans-Roman-6d"/>
    <use x="584.6640625" xlink:href="#BitstreamVeraSans-Roman-65"/>
    <use x="646.1875" xlink:href="#BitstreamVeraSans-Roman-2d"/>
    <use x="682.271484375" xlink:href="#BitstreamVeraSans-Roman-65"/>
    <use x="743.794921875" xlink:href="#BitstreamVeraSans-Roman-76"/>
    <use x="802.974609375" xlink:href="#BitstreamVeraSans-Roman-6f"/>
    <use x="864.15625" xlink:href="#BitstreamVeraSans-Roman-6c"/>
    <use x="891.939453125" xlink:href="#BitstreamVeraSans-Roman-75"/>
    <use x="955.318359375" xlink:href="#BitstreamVeraSans-Roman-74"/>
    <use x="994.52734375" xlink:href="#BitstreamVeraSans-Roman-69"/>
    <use x="1022.31054688" xlink:href="#BitstreamVeraSans-Roman-6f"/>
    <use x="1083.4921875" xlink:href="#BitstreamVeraSans-Roman-6e"/>
   </g>
  </g>
 </g>
 <defs>
  <clipPath id="p73119d26de">
   <rect height="401.76" width="514.0575" x="82.9125" y="50.22"/>
  </clipPath>
 </defs>
</svg>
