<?xml version="1.0" encoding="utf-8" standalone="no"?>
<!DOCTYPE svg PUBLIC "-//W3C//DTD SVG 1.1//EN"
  "http://www.w3.org/Graphics/SVG/1.1/DTD/svg11.dtd">
<!-- Created with matplotlib (http://matplotlib.sourceforge.net/) -->
<svg height="547pt" version="1.1" viewBox="0 0 634 547" width="634pt" xmlns="http://www.w3.org/2000/svg" xmlns:xlink="http://www.w3.org/1999/xlink">
 <defs>
  <style type="text/css">
*{stroke-linecap:square;stroke-linejoin:round;}
  </style>
 </defs>
 <g id="figure_1">
  <g id="patch_1">
   <path d="
M0 547.2
L634.5 547.2
L634.5 0
L0 0
z
" style="fill:#ffffff;"/>
  </g>
  <g id="axes_1">
   <g id="patch_2">
    <path d="
M79.3125 492.48
L571.05 492.48
L571.05 54.72
L79.3125 54.72
z
" style="fill:#ffffff;"/>
   </g>
   <g id="line2d_1">
    <path clip-path="url(#p0c02c94569)" d="
M79.3125 491.01
L79.5912 490.277
L79.7715 490.235
L79.9845 490.462
L80.4435 490.958
L80.591 490.768
L80.7877 490
L81.05 487.866
L81.3942 482.954
L81.8531 472.763
L82.5252 452.096
L84.1807 399.454
L84.8036 387.129
L85.3609 380.105
L85.9346 375.53
L86.7869 370.714
L87.8359 365.789
L88.3113 364.49
L88.6391 364.138
L88.885 364.155
L89.1964 364.432
L89.8685 365.064
L90.0652 364.955
L90.2782 364.533
L90.5405 363.462
L90.8683 361.1
L91.2945 356.176
L91.8682 346.563
L94.0318 307.237
L94.6055 301.902
L95.1628 298.65
L95.8349 296.047
L96.802 293.192
L97.3429 292.165
L97.7035 291.891
L97.9821 291.932
L98.3264 292.245
L99.3098 293.29
L99.5229 293.15
L99.7688 292.65
L100.064 291.47
L100.441 288.923
L100.933 283.852
L101.67 273.541
L102.981 255.324
L103.621 249.546
L104.178 246.369
L104.735 244.386
L105.424 242.77
L106.145 241.589
L106.604 241.196
L106.948 241.164
L107.292 241.377
L107.768 241.988
L108.522 242.94
L108.784 242.963
L109.013 242.737
L109.292 242.08
L109.636 240.606
L110.079 237.586
L110.685 231.692
L112.62 211.636
L113.21 208.226
L113.751 206.292
L114.308 205.075
L114.931 204.226
L115.488 203.794
L115.914 203.721
L116.291 203.887
L116.734 204.357
L118.029 205.935
L118.275 205.853
L118.537 205.488
L118.848 204.624
L119.242 202.818
L119.766 199.25
L120.684 191.119
L121.684 182.927
L122.323 179.397
L122.88 177.476
L123.405 176.404
L123.946 175.773
L124.487 175.459
L124.962 175.424
L125.388 175.617
L125.864 176.096
L126.798 177.473
L127.273 177.928
L127.568 177.939
L127.831 177.705
L128.142 177.078
L128.535 175.704
L129.044 173.023
L129.863 167.286
L131.011 159.552
L131.65 156.666
L132.207 155.1
L132.715 154.276
L133.223 153.849
L133.731 153.701
L134.223 153.792
L134.715 154.124
L135.289 154.807
L136.6 156.477
L136.911 156.513
L137.19 156.312
L137.501 155.786
L137.895 154.641
L138.419 152.342
L139.304 147.23
L140.37 141.436
L141.009 139.099
L141.55 137.875
L142.058 137.235
L142.55 136.958
L143.042 136.933
L143.55 137.135
L144.107 137.616
L144.845 138.593
L145.779 139.77
L146.156 139.928
L146.451 139.828
L146.762 139.468
L147.139 138.658
L147.631 137.014
L148.369 133.653
L149.762 127.303
L150.401 125.436
L150.942 124.484
L151.434 124.031
L151.909 123.879
L152.401 123.952
L152.942 124.264
L153.565 124.897
L155.384 126.958
L155.729 126.933
L156.056 126.663
L156.433 126.031
L156.925 124.71
L157.646 122.022
L159.138 116.373
L159.761 114.886
L160.302 114.119
L160.793 113.781
L161.269 113.712
L161.777 113.862
L162.367 114.281
L163.105 115.106
L164.465 116.674
L164.891 116.814
L165.235 116.694
L165.596 116.313
L166.039 115.484
L166.629 113.85
L168.891 107.039
L169.464 106.213
L169.973 105.846
L170.464 105.759
L170.989 105.9
L171.595 106.311
L172.366 107.127
L173.759 108.645
L174.201 108.803
L174.578 108.703
L174.955 108.36
L175.414 107.611
L176.037 106.118
L178.135 100.712
L178.725 99.9392
L179.25 99.5976
L179.758 99.5309
L180.299 99.6932
L180.938 100.135
L181.807 101.04
L183.004 102.26
L183.495 102.459
L183.889 102.395
L184.298 102.085
L184.774 101.418
L185.429 100.062
L187.396 95.7157
L188.003 95.0012
L188.544 94.6894
L189.068 94.6434
L189.626 94.8234
L190.298 95.2894
L191.298 96.2964
L192.314 97.2281
L192.838 97.4259
L193.264 97.3573
L193.691 97.0569
L194.199 96.4065
L194.92 95.0725
L196.592 91.8713
L197.231 91.1581
L197.788 90.8466
L198.329 90.795
L198.903 90.9672
L199.608 91.4299
L200.722 92.4816
L201.657 93.2431
L202.198 93.4191
L202.657 93.3382
L203.132 93.009
L203.706 92.3056
L204.591 90.8033
L205.82 88.7996
L206.492 88.1107
L207.082 87.8103
L207.64 87.7705
L208.246 87.9557
L208.984 88.429
L211.41 90.2033
L211.901 90.1792
L212.393 89.9247
L212.967 89.3538
L213.819 88.138
L215.196 86.2058
L215.884 85.6251
L216.491 85.396
L217.081 85.4099
L217.737 85.655
L218.589 86.2342
L220.425 87.5553
L220.998 87.6567
L221.523 87.5189
L222.08 87.1271
L222.818 86.3031
L224.752 84.0049
L225.424 83.6087
L226.047 83.4964
L226.686 83.6112
L227.44 83.9836
L228.768 84.9494
L229.702 85.4898
L230.325 85.6008
L230.882 85.4703
L231.489 85.0813
L232.308 84.2537
L233.98 82.5188
L234.685 82.1283
L235.341 82.0155
L236.013 82.1301
L236.816 82.507
L239.439 83.9377
L240.045 83.889
L240.652 83.6109
L241.422 82.9894
L243.536 81.1418
L244.241 80.8841
L244.93 80.8692
L245.684 81.0866
L246.7 81.6392
L248.29 82.5013
L248.995 82.613
L249.634 82.4837
L250.339 82.0973
L251.453 81.1797
L252.65 80.2876
L253.42 79.9842
L254.142 79.9376
L254.912 80.1169
L255.928 80.604
L257.649 81.4442
L258.387 81.533
L259.059 81.3893
L259.829 80.9843
L262.632 79.2732
L263.386 79.2076
L264.189 79.3653
L265.255 79.8259
L266.992 80.5846
L267.763 80.6577
L268.484 80.5018
L269.353 80.0662
L271.697 78.7556
L272.5 78.6323
L273.319 78.7316
L274.336 79.0932
L276.466 79.9125
L277.253 79.9355
L278.04 79.7326
L279.089 79.2043
L280.777 78.3598
L281.646 78.1886
L282.515 78.2493
L283.547 78.5607
L285.908 79.3552
L286.744 79.3397
L287.613 79.0923
L289.104 78.3769
L290.284 77.934
L291.186 77.8296
L292.12 77.9502
L293.399 78.3674
L295.021 78.8588
L295.923 78.8906
L296.824 78.6953
L298.201 78.1278
L299.562 77.652
L300.529 77.5526
L301.529 77.6822
L303.02 78.1394
L304.43 78.4899
L305.381 78.4943
L306.38 78.2655
L309.577 77.3386
L310.593 77.4054
L311.921 77.7378
L313.773 78.1796
L314.773 78.1745
L315.855 77.9369
L318.739 77.1758
L319.821 77.216
L321.182 77.5119
L323.149 77.9274
L324.214 77.9055
L325.427 77.641
L327.869 77.0555
L329 77.0629
L330.377 77.3145
L332.574 77.7222
L333.705 77.6759
L335.098 77.3735
L337.098 76.9568
L338.294 76.9544
L339.753 77.1943
L341.933 77.5483
L343.146 77.4908
L344.785 77.1546
L346.523 76.8648
L347.801 76.8887
L349.539 77.1763
L351.325 77.4052
L352.604 77.3349
L354.784 76.9271
L356.275 76.786
L357.685 76.8884
L361.258 77.2782
L362.75 77.0982
L365.438 76.7405
L366.913 76.8192
L370.765 77.1687
L372.486 76.9536
L374.732 76.7042
L376.289 76.7805
L380.092 77.086
L381.961 76.8746
L384.157 76.6747
L385.845 76.7691
L389.222 77.0247
L391.09 76.8544
L393.582 76.6534
L395.418 76.7637
L398.45 76.9684
L400.417 76.8149
L403.007 76.6384
L405.023 76.7636
L407.777 76.9187
L409.908 76.7664
L412.448 76.6285
L414.727 76.7719
L417.235 76.8741
L419.726 76.7004
L422.037 76.6256
L425.151 76.8197
L427.299 76.8099
L432.167 76.6517
L436.642 76.7826
L441.576 76.6483
L445.985 76.7595
L451 76.6468
L455.344 76.7395
L460.409 76.6453
L464.736 76.7213
L469.801 76.6436
L474.178 76.7043
L479.161 76.6412
L483.652 76.6889
L488.52 76.6394
L493.159 76.675
L497.912 76.6389
L502.649 76.6638
L507.386 76.6407
L512.156 76.6541
L516.893 76.6429
L521.696 76.6455
L526.499 76.6466
L531.334 76.6366
L536.219 76.6513
L541.218 76.6261
L546.512 76.6603
L558.396 76.6458
L566.018 76.6557
L571.05 76.6191
L571.05 76.6191" style="fill:none;stroke:#ff0000;"/>
   </g>
   <g id="line2d_2">
    <path clip-path="url(#p0c02c94569)" d="
M79.3125 490.173
L79.8042 470.089
L80.7058 442.318
L81.8859 412.745
L83.2628 383.74
L84.7872 356.255
L86.4263 330.676
L88.1474 307.248
L89.934 285.906
L91.7862 266.411
L93.6876 248.723
L95.6218 232.774
L97.5887 218.362
L99.5885 205.319
L101.621 193.502
L103.686 182.789
L105.768 173.144
L107.882 164.385
L110.013 156.489
L112.177 149.313
L114.357 142.839
L116.57 136.952
L118.815 131.601
L121.094 126.74
L123.405 122.325
L125.765 118.289
L128.175 114.606
L130.634 111.249
L133.174 108.155
L135.78 105.328
L138.485 102.722
L141.288 100.328
L144.222 98.1141
L147.303 96.0671
L150.565 94.1684
L154.024 92.4132
L157.728 90.7835
L161.728 89.269
L166.071 87.8645
L170.825 86.5636
L176.086 85.3575
L181.971 84.241
L188.609 83.2126
L196.199 82.2671
L204.984 81.4025
L215.311 80.6161
L227.604 79.9093
L242.569 79.2797
L261.059 78.7342
L284.334 78.2796
L314.674 77.9207
L356.784 77.6607
L422.48 77.501
L558.707 77.4354
L571.05 77.4341
L571.05 77.4341" style="fill:none;stroke:#0000ff;"/>
   </g>
   <g id="line2d_3">
    <path clip-path="url(#p0c02c94569)" d="
M79.3125 59.0056
L571.05 59.0056
L571.05 59.0056" style="fill:none;stroke:#0000ff;"/>
   </g>
   <g id="matplotlib.axis_1">
    <g id="xtick_1">
     <g id="line2d_4">
      <path clip-path="url(#p0c02c94569)" d="
M79.3125 492.48
L79.3125 54.72" style="fill:none;stroke:#000000;stroke-dasharray:1.000000,3.000000;stroke-dashoffset:0.0;stroke-linecap:butt;stroke-width:0.5;"/>
     </g>
     <g id="line2d_5">
      <defs>
       <path d="
M0 0
L0 -4" id="m0012dd4eef" style="stroke:#000000;stroke-linecap:butt;stroke-width:0.5;"/>
      </defs>
      <g>
       <use style="stroke:#000000;stroke-linecap:butt;stroke-width:0.5;" x="79.3125" xlink:href="#m0012dd4eef" y="492.48"/>
      </g>
     </g>
     <g id="line2d_6">
      <defs>
       <path d="
M0 0
L0 4" id="m476344969c" style="stroke:#000000;stroke-linecap:butt;stroke-width:0.5;"/>
      </defs>
      <g>
       <use style="stroke:#000000;stroke-linecap:butt;stroke-width:0.5;" x="79.3125" xlink:href="#m476344969c" y="54.72"/>
      </g>
     </g>
     <g id="text_1">
      <!-- 0 -->
      <defs>
       <path d="
M31.7812 66.4062
Q24.1719 66.4062 20.3281 58.9062
Q16.5 51.4219 16.5 36.375
Q16.5 21.3906 20.3281 13.8906
Q24.1719 6.39062 31.7812 6.39062
Q39.4531 6.39062 43.2812 13.8906
Q47.125 21.3906 47.125 36.375
Q47.125 51.4219 43.2812 58.9062
Q39.4531 66.4062 31.7812 66.4062
M31.7812 74.2188
Q44.0469 74.2188 50.5156 64.5156
Q56.9844 54.8281 56.9844 36.375
Q56.9844 17.9688 50.5156 8.26562
Q44.0469 -1.42188 31.7812 -1.42188
Q19.5312 -1.42188 13.0625 8.26562
Q6.59375 17.9688 6.59375 36.375
Q6.59375 54.8281 13.0625 64.5156
Q19.5312 74.2188 31.7812 74.2188" id="BitstreamVeraSans-Roman-30"/>
      </defs>
      <g transform="translate(76.2890625 505.38625)scale(0.12 -0.12)">
       <use xlink:href="#BitstreamVeraSans-Roman-30"/>
      </g>
     </g>
    </g>
    <g id="xtick_2">
     <g id="line2d_7">
      <path clip-path="url(#p0c02c94569)" d="
M161.269 492.48
L161.269 54.72" style="fill:none;stroke:#000000;stroke-dasharray:1.000000,3.000000;stroke-dashoffset:0.0;stroke-linecap:butt;stroke-width:0.5;"/>
     </g>
     <g id="line2d_8">
      <g>
       <use style="stroke:#000000;stroke-linecap:butt;stroke-width:0.5;" x="161.26875" xlink:href="#m0012dd4eef" y="492.48"/>
      </g>
     </g>
     <g id="line2d_9">
      <g>
       <use style="stroke:#000000;stroke-linecap:butt;stroke-width:0.5;" x="161.26875" xlink:href="#m476344969c" y="54.72"/>
      </g>
     </g>
     <g id="text_2">
      <!-- 50 -->
      <defs>
       <path d="
M10.7969 72.9062
L49.5156 72.9062
L49.5156 64.5938
L19.8281 64.5938
L19.8281 46.7344
Q21.9688 47.4688 24.1094 47.8281
Q26.2656 48.1875 28.4219 48.1875
Q40.625 48.1875 47.75 41.5
Q54.8906 34.8125 54.8906 23.3906
Q54.8906 11.625 47.5625 5.09375
Q40.2344 -1.42188 26.9062 -1.42188
Q22.3125 -1.42188 17.5469 -0.640625
Q12.7969 0.140625 7.71875 1.70312
L7.71875 11.625
Q12.1094 9.23438 16.7969 8.0625
Q21.4844 6.89062 26.7031 6.89062
Q35.1562 6.89062 40.0781 11.3281
Q45.0156 15.7656 45.0156 23.3906
Q45.0156 31 40.0781 35.4375
Q35.1562 39.8906 26.7031 39.8906
Q22.75 39.8906 18.8125 39.0156
Q14.8906 38.1406 10.7969 36.2812
z
" id="BitstreamVeraSans-Roman-35"/>
      </defs>
      <g transform="translate(154.4953125 505.38625)scale(0.12 -0.12)">
       <use xlink:href="#BitstreamVeraSans-Roman-35"/>
       <use x="63.623046875" xlink:href="#BitstreamVeraSans-Roman-30"/>
      </g>
     </g>
    </g>
    <g id="xtick_3">
     <g id="line2d_10">
      <path clip-path="url(#p0c02c94569)" d="
M243.225 492.48
L243.225 54.72" style="fill:none;stroke:#000000;stroke-dasharray:1.000000,3.000000;stroke-dashoffset:0.0;stroke-linecap:butt;stroke-width:0.5;"/>
     </g>
     <g id="line2d_11">
      <g>
       <use style="stroke:#000000;stroke-linecap:butt;stroke-width:0.5;" x="243.225" xlink:href="#m0012dd4eef" y="492.48"/>
      </g>
     </g>
     <g id="line2d_12">
      <g>
       <use style="stroke:#000000;stroke-linecap:butt;stroke-width:0.5;" x="243.225" xlink:href="#m476344969c" y="54.72"/>
      </g>
     </g>
     <g id="text_3">
      <!-- 100 -->
      <defs>
       <path d="
M12.4062 8.29688
L28.5156 8.29688
L28.5156 63.9219
L10.9844 60.4062
L10.9844 69.3906
L28.4219 72.9062
L38.2812 72.9062
L38.2812 8.29688
L54.3906 8.29688
L54.3906 0
L12.4062 0
z
" id="BitstreamVeraSans-Roman-31"/>
      </defs>
      <g transform="translate(232.83 505.38625)scale(0.12 -0.12)">
       <use xlink:href="#BitstreamVeraSans-Roman-31"/>
       <use x="63.623046875" xlink:href="#BitstreamVeraSans-Roman-30"/>
       <use x="127.24609375" xlink:href="#BitstreamVeraSans-Roman-30"/>
      </g>
     </g>
    </g>
    <g id="xtick_4">
     <g id="line2d_13">
      <path clip-path="url(#p0c02c94569)" d="
M325.181 492.48
L325.181 54.72" style="fill:none;stroke:#000000;stroke-dasharray:1.000000,3.000000;stroke-dashoffset:0.0;stroke-linecap:butt;stroke-width:0.5;"/>
     </g>
     <g id="line2d_14">
      <g>
       <use style="stroke:#000000;stroke-linecap:butt;stroke-width:0.5;" x="325.18125" xlink:href="#m0012dd4eef" y="492.48"/>
      </g>
     </g>
     <g id="line2d_15">
      <g>
       <use style="stroke:#000000;stroke-linecap:butt;stroke-width:0.5;" x="325.18125" xlink:href="#m476344969c" y="54.72"/>
      </g>
     </g>
     <g id="text_4">
      <!-- 150 -->
      <g transform="translate(314.78625 505.38625)scale(0.12 -0.12)">
       <use xlink:href="#BitstreamVeraSans-Roman-31"/>
       <use x="63.623046875" xlink:href="#BitstreamVeraSans-Roman-35"/>
       <use x="127.24609375" xlink:href="#BitstreamVeraSans-Roman-30"/>
      </g>
     </g>
    </g>
    <g id="xtick_5">
     <g id="line2d_16">
      <path clip-path="url(#p0c02c94569)" d="
M407.138 492.48
L407.138 54.72" style="fill:none;stroke:#000000;stroke-dasharray:1.000000,3.000000;stroke-dashoffset:0.0;stroke-linecap:butt;stroke-width:0.5;"/>
     </g>
     <g id="line2d_17">
      <g>
       <use style="stroke:#000000;stroke-linecap:butt;stroke-width:0.5;" x="407.1375" xlink:href="#m0012dd4eef" y="492.48"/>
      </g>
     </g>
     <g id="line2d_18">
      <g>
       <use style="stroke:#000000;stroke-linecap:butt;stroke-width:0.5;" x="407.1375" xlink:href="#m476344969c" y="54.72"/>
      </g>
     </g>
     <g id="text_5">
      <!-- 200 -->
      <defs>
       <path d="
M19.1875 8.29688
L53.6094 8.29688
L53.6094 0
L7.32812 0
L7.32812 8.29688
Q12.9375 14.1094 22.625 23.8906
Q32.3281 33.6875 34.8125 36.5312
Q39.5469 41.8438 41.4219 45.5312
Q43.3125 49.2188 43.3125 52.7812
Q43.3125 58.5938 39.2344 62.25
Q35.1562 65.9219 28.6094 65.9219
Q23.9688 65.9219 18.8125 64.3125
Q13.6719 62.7031 7.8125 59.4219
L7.8125 69.3906
Q13.7656 71.7812 18.9375 73
Q24.125 74.2188 28.4219 74.2188
Q39.75 74.2188 46.4844 68.5469
Q53.2188 62.8906 53.2188 53.4219
Q53.2188 48.9219 51.5312 44.8906
Q49.8594 40.875 45.4062 35.4062
Q44.1875 33.9844 37.6406 27.2188
Q31.1094 20.4531 19.1875 8.29688" id="BitstreamVeraSans-Roman-32"/>
      </defs>
      <g transform="translate(396.523125 505.38625)scale(0.12 -0.12)">
       <use xlink:href="#BitstreamVeraSans-Roman-32"/>
       <use x="63.623046875" xlink:href="#BitstreamVeraSans-Roman-30"/>
       <use x="127.24609375" xlink:href="#BitstreamVeraSans-Roman-30"/>
      </g>
     </g>
    </g>
    <g id="xtick_6">
     <g id="line2d_19">
      <path clip-path="url(#p0c02c94569)" d="
M489.094 492.48
L489.094 54.72" style="fill:none;stroke:#000000;stroke-dasharray:1.000000,3.000000;stroke-dashoffset:0.0;stroke-linecap:butt;stroke-width:0.5;"/>
     </g>
     <g id="line2d_20">
      <g>
       <use style="stroke:#000000;stroke-linecap:butt;stroke-width:0.5;" x="489.09375" xlink:href="#m0012dd4eef" y="492.48"/>
      </g>
     </g>
     <g id="line2d_21">
      <g>
       <use style="stroke:#000000;stroke-linecap:butt;stroke-width:0.5;" x="489.09375" xlink:href="#m476344969c" y="54.72"/>
      </g>
     </g>
     <g id="text_6">
      <!-- 250 -->
      <g transform="translate(478.479375 505.38625)scale(0.12 -0.12)">
       <use xlink:href="#BitstreamVeraSans-Roman-32"/>
       <use x="63.623046875" xlink:href="#BitstreamVeraSans-Roman-35"/>
       <use x="127.24609375" xlink:href="#BitstreamVeraSans-Roman-30"/>
      </g>
     </g>
    </g>
    <g id="xtick_7">
     <g id="line2d_22">
      <path clip-path="url(#p0c02c94569)" d="
M571.05 492.48
L571.05 54.72" style="fill:none;stroke:#000000;stroke-dasharray:1.000000,3.000000;stroke-dashoffset:0.0;stroke-linecap:butt;stroke-width:0.5;"/>
     </g>
     <g id="line2d_23">
      <g>
       <use style="stroke:#000000;stroke-linecap:butt;stroke-width:0.5;" x="571.05" xlink:href="#m0012dd4eef" y="492.48"/>
      </g>
     </g>
     <g id="line2d_24">
      <g>
       <use style="stroke:#000000;stroke-linecap:butt;stroke-width:0.5;" x="571.05" xlink:href="#m476344969c" y="54.72"/>
      </g>
     </g>
     <g id="text_7">
      <!-- 300 -->
      <defs>
       <path d="
M40.5781 39.3125
Q47.6562 37.7969 51.625 33
Q55.6094 28.2188 55.6094 21.1875
Q55.6094 10.4062 48.1875 4.48438
Q40.7656 -1.42188 27.0938 -1.42188
Q22.5156 -1.42188 17.6562 -0.515625
Q12.7969 0.390625 7.625 2.20312
L7.625 11.7188
Q11.7188 9.32812 16.5938 8.10938
Q21.4844 6.89062 26.8125 6.89062
Q36.0781 6.89062 40.9375 10.5469
Q45.7969 14.2031 45.7969 21.1875
Q45.7969 27.6406 41.2812 31.2656
Q36.7656 34.9062 28.7188 34.9062
L20.2188 34.9062
L20.2188 43.0156
L29.1094 43.0156
Q36.375 43.0156 40.2344 45.9219
Q44.0938 48.8281 44.0938 54.2969
Q44.0938 59.9062 40.1094 62.9062
Q36.1406 65.9219 28.7188 65.9219
Q24.6562 65.9219 20.0156 65.0312
Q15.375 64.1562 9.8125 62.3125
L9.8125 71.0938
Q15.4375 72.6562 20.3438 73.4375
Q25.25 74.2188 29.5938 74.2188
Q40.8281 74.2188 47.3594 69.1094
Q53.9062 64.0156 53.9062 55.3281
Q53.9062 49.2656 50.4375 45.0938
Q46.9688 40.9219 40.5781 39.3125" id="BitstreamVeraSans-Roman-33"/>
      </defs>
      <g transform="translate(560.4534375 505.38625)scale(0.12 -0.12)">
       <use xlink:href="#BitstreamVeraSans-Roman-33"/>
       <use x="63.623046875" xlink:href="#BitstreamVeraSans-Roman-30"/>
       <use x="127.24609375" xlink:href="#BitstreamVeraSans-Roman-30"/>
      </g>
     </g>
    </g>
    <g id="text_8">
     <!-- $t$ -->
     <defs>
      <path d="
M6.20312 8.10938
Q6.20312 9.57812 6.5 10.8906
L13.7188 39.5938
L3.21875 39.5938
Q2.20312 39.5938 2.20312 40.9219
Q2.59375 43.1094 3.51562 43.1094
L14.5938 43.1094
L18.6094 59.4219
Q19 60.75 20.1719 61.6719
Q21.3438 62.5938 22.7969 62.5938
Q24.0781 62.5938 24.9219 61.8281
Q25.7812 61.0781 25.7812 59.8125
Q25.7812 59.5156 25.75 59.3438
Q25.7344 59.1875 25.6875 58.9844
L21.6875 43.1094
L31.9844 43.1094
Q33.0156 43.1094 33.0156 41.7969
Q32.9531 41.5469 32.8125 40.9531
Q32.6719 40.375 32.4219 39.9844
Q32.1719 39.5938 31.6875 39.5938
L20.7969 39.5938
L13.625 10.6875
Q12.8906 7.85938 12.8906 5.8125
Q12.8906 1.51562 15.8281 1.51562
Q20.2188 1.51562 23.6094 5.64062
Q27 9.76562 28.8125 14.7031
Q29.2031 15.2812 29.5938 15.2812
L30.8125 15.2812
Q31.2031 15.2812 31.4375 15.0156
Q31.6875 14.75 31.6875 14.4062
Q31.6875 14.2031 31.5938 14.1094
Q29.3906 8.0625 25.1875 3.46875
Q21 -1.125 15.5781 -1.125
Q11.625 -1.125 8.90625 1.45312
Q6.20312 4.04688 6.20312 8.10938" id="Cmmi10-74"/>
     </defs>
     <g transform="translate(322.96125 518.356875)scale(0.12 -0.12)">
      <use transform="translate(0.0 2.40625)" xlink:href="#Cmmi10-74"/>
     </g>
    </g>
   </g>
   <g id="matplotlib.axis_2">
    <g id="ytick_1">
     <g id="line2d_25">
      <path clip-path="url(#p0c02c94569)" d="
M79.3125 492.48
L571.05 492.48" style="fill:none;stroke:#000000;stroke-dasharray:1.000000,3.000000;stroke-dashoffset:0.0;stroke-linecap:butt;stroke-width:0.5;"/>
     </g>
     <g id="line2d_26">
      <defs>
       <path d="
M0 0
L4 0" id="me8a85f7bf6" style="stroke:#000000;stroke-linecap:butt;stroke-width:0.5;"/>
      </defs>
      <g>
       <use style="stroke:#000000;stroke-linecap:butt;stroke-width:0.5;" x="79.3125" xlink:href="#me8a85f7bf6" y="492.48"/>
      </g>
     </g>
     <g id="text_9">
      <!-- 0.0 -->
      <defs>
       <path d="
M10.6875 12.4062
L21 12.4062
L21 0
L10.6875 0
z
" id="BitstreamVeraSans-Roman-2e"/>
      </defs>
      <g transform="translate(57.816875 496.8478125)scale(0.12 -0.12)">
       <use xlink:href="#BitstreamVeraSans-Roman-30"/>
       <use x="63.623046875" xlink:href="#BitstreamVeraSans-Roman-2e"/>
       <use x="95.41015625" xlink:href="#BitstreamVeraSans-Roman-30"/>
      </g>
     </g>
    </g>
    <g id="ytick_2">
     <g id="line2d_27">
      <path clip-path="url(#p0c02c94569)" d="
M79.3125 429.943
L571.05 429.943" style="fill:none;stroke:#000000;stroke-dasharray:1.000000,3.000000;stroke-dashoffset:0.0;stroke-linecap:butt;stroke-width:0.5;"/>
     </g>
     <g id="line2d_28">
      <g>
       <use style="stroke:#000000;stroke-linecap:butt;stroke-width:0.5;" x="79.3125" xlink:href="#me8a85f7bf6" y="429.942857143"/>
      </g>
     </g>
     <g id="text_10">
      <!-- 0.1 -->
      <g transform="translate(58.128125 434.310669643)scale(0.12 -0.12)">
       <use xlink:href="#BitstreamVeraSans-Roman-30"/>
       <use x="63.623046875" xlink:href="#BitstreamVeraSans-Roman-2e"/>
       <use x="95.41015625" xlink:href="#BitstreamVeraSans-Roman-31"/>
      </g>
     </g>
    </g>
    <g id="ytick_3">
     <g id="line2d_29">
      <path clip-path="url(#p0c02c94569)" d="
M79.3125 367.406
L571.05 367.406" style="fill:none;stroke:#000000;stroke-dasharray:1.000000,3.000000;stroke-dashoffset:0.0;stroke-linecap:butt;stroke-width:0.5;"/>
     </g>
     <g id="line2d_30">
      <g>
       <use style="stroke:#000000;stroke-linecap:butt;stroke-width:0.5;" x="79.3125" xlink:href="#me8a85f7bf6" y="367.405714286"/>
      </g>
     </g>
     <g id="text_11">
      <!-- 0.2 -->
      <g transform="translate(58.221875 371.773526786)scale(0.12 -0.12)">
       <use xlink:href="#BitstreamVeraSans-Roman-30"/>
       <use x="63.623046875" xlink:href="#BitstreamVeraSans-Roman-2e"/>
       <use x="95.41015625" xlink:href="#BitstreamVeraSans-Roman-32"/>
      </g>
     </g>
    </g>
    <g id="ytick_4">
     <g id="line2d_31">
      <path clip-path="url(#p0c02c94569)" d="
M79.3125 304.869
L571.05 304.869" style="fill:none;stroke:#000000;stroke-dasharray:1.000000,3.000000;stroke-dashoffset:0.0;stroke-linecap:butt;stroke-width:0.5;"/>
     </g>
     <g id="line2d_32">
      <g>
       <use style="stroke:#000000;stroke-linecap:butt;stroke-width:0.5;" x="79.3125" xlink:href="#me8a85f7bf6" y="304.868571429"/>
      </g>
     </g>
     <g id="text_12">
      <!-- 0.3 -->
      <g transform="translate(57.981875 309.236383929)scale(0.12 -0.12)">
       <use xlink:href="#BitstreamVeraSans-Roman-30"/>
       <use x="63.623046875" xlink:href="#BitstreamVeraSans-Roman-2e"/>
       <use x="95.41015625" xlink:href="#BitstreamVeraSans-Roman-33"/>
      </g>
     </g>
    </g>
    <g id="ytick_5">
     <g id="line2d_33">
      <path clip-path="url(#p0c02c94569)" d="
M79.3125 242.331
L571.05 242.331" style="fill:none;stroke:#000000;stroke-dasharray:1.000000,3.000000;stroke-dashoffset:0.0;stroke-linecap:butt;stroke-width:0.5;"/>
     </g>
     <g id="line2d_34">
      <g>
       <use style="stroke:#000000;stroke-linecap:butt;stroke-width:0.5;" x="79.3125" xlink:href="#me8a85f7bf6" y="242.331428571"/>
      </g>
     </g>
     <g id="text_13">
      <!-- 0.4 -->
      <defs>
       <path d="
M37.7969 64.3125
L12.8906 25.3906
L37.7969 25.3906
z

M35.2031 72.9062
L47.6094 72.9062
L47.6094 25.3906
L58.0156 25.3906
L58.0156 17.1875
L47.6094 17.1875
L47.6094 0
L37.7969 0
L37.7969 17.1875
L4.89062 17.1875
L4.89062 26.7031
z
" id="BitstreamVeraSans-Roman-34"/>
      </defs>
      <g transform="translate(57.693125 246.699241071)scale(0.12 -0.12)">
       <use xlink:href="#BitstreamVeraSans-Roman-30"/>
       <use x="63.623046875" xlink:href="#BitstreamVeraSans-Roman-2e"/>
       <use x="95.41015625" xlink:href="#BitstreamVeraSans-Roman-34"/>
      </g>
     </g>
    </g>
    <g id="ytick_6">
     <g id="line2d_35">
      <path clip-path="url(#p0c02c94569)" d="
M79.3125 179.794
L571.05 179.794" style="fill:none;stroke:#000000;stroke-dasharray:1.000000,3.000000;stroke-dashoffset:0.0;stroke-linecap:butt;stroke-width:0.5;"/>
     </g>
     <g id="line2d_36">
      <g>
       <use style="stroke:#000000;stroke-linecap:butt;stroke-width:0.5;" x="79.3125" xlink:href="#me8a85f7bf6" y="179.794285714"/>
      </g>
     </g>
     <g id="text_14">
      <!-- 0.5 -->
      <g transform="translate(58.068125 184.162098214)scale(0.12 -0.12)">
       <use xlink:href="#BitstreamVeraSans-Roman-30"/>
       <use x="63.623046875" xlink:href="#BitstreamVeraSans-Roman-2e"/>
       <use x="95.41015625" xlink:href="#BitstreamVeraSans-Roman-35"/>
      </g>
     </g>
    </g>
    <g id="ytick_7">
     <g id="line2d_37">
      <path clip-path="url(#p0c02c94569)" d="
M79.3125 117.257
L571.05 117.257" style="fill:none;stroke:#000000;stroke-dasharray:1.000000,3.000000;stroke-dashoffset:0.0;stroke-linecap:butt;stroke-width:0.5;"/>
     </g>
     <g id="line2d_38">
      <g>
       <use style="stroke:#000000;stroke-linecap:butt;stroke-width:0.5;" x="79.3125" xlink:href="#me8a85f7bf6" y="117.257142857"/>
      </g>
     </g>
     <g id="text_15">
      <!-- 0.6 -->
      <defs>
       <path d="
M33.0156 40.375
Q26.375 40.375 22.4844 35.8281
Q18.6094 31.2969 18.6094 23.3906
Q18.6094 15.5312 22.4844 10.9531
Q26.375 6.39062 33.0156 6.39062
Q39.6562 6.39062 43.5312 10.9531
Q47.4062 15.5312 47.4062 23.3906
Q47.4062 31.2969 43.5312 35.8281
Q39.6562 40.375 33.0156 40.375
M52.5938 71.2969
L52.5938 62.3125
Q48.875 64.0625 45.0938 64.9844
Q41.3125 65.9219 37.5938 65.9219
Q27.8281 65.9219 22.6719 59.3281
Q17.5312 52.7344 16.7969 39.4062
Q19.6719 43.6562 24.0156 45.9219
Q28.375 48.1875 33.5938 48.1875
Q44.5781 48.1875 50.9531 41.5156
Q57.3281 34.8594 57.3281 23.3906
Q57.3281 12.1562 50.6875 5.35938
Q44.0469 -1.42188 33.0156 -1.42188
Q20.3594 -1.42188 13.6719 8.26562
Q6.98438 17.9688 6.98438 36.375
Q6.98438 53.6562 15.1875 63.9375
Q23.3906 74.2188 37.2031 74.2188
Q40.9219 74.2188 44.7031 73.4844
Q48.4844 72.75 52.5938 71.2969" id="BitstreamVeraSans-Roman-36"/>
      </defs>
      <g transform="translate(57.775625 121.624955357)scale(0.12 -0.12)">
       <use xlink:href="#BitstreamVeraSans-Roman-30"/>
       <use x="63.623046875" xlink:href="#BitstreamVeraSans-Roman-2e"/>
       <use x="95.41015625" xlink:href="#BitstreamVeraSans-Roman-36"/>
      </g>
     </g>
    </g>
    <g id="ytick_8">
     <g id="line2d_39">
      <path clip-path="url(#p0c02c94569)" d="
M79.3125 54.72
L571.05 54.72" style="fill:none;stroke:#000000;stroke-dasharray:1.000000,3.000000;stroke-dashoffset:0.0;stroke-linecap:butt;stroke-width:0.5;"/>
     </g>
     <g id="line2d_40">
      <g>
       <use style="stroke:#000000;stroke-linecap:butt;stroke-width:0.5;" x="79.3125" xlink:href="#me8a85f7bf6" y="54.72"/>
      </g>
     </g>
     <g id="text_16">
      <!-- 0.7 -->
      <defs>
       <path d="
M8.20312 72.9062
L55.0781 72.9062
L55.0781 68.7031
L28.6094 0
L18.3125 0
L43.2188 64.5938
L8.20312 64.5938
z
" id="BitstreamVeraSans-Roman-37"/>
      </defs>
      <g transform="translate(58.045625 59.0878125)scale(0.12 -0.12)">
       <use xlink:href="#BitstreamVeraSans-Roman-30"/>
       <use x="63.623046875" xlink:href="#BitstreamVeraSans-Roman-2e"/>
       <use x="95.41015625" xlink:href="#BitstreamVeraSans-Roman-37"/>
      </g>
     </g>
    </g>
    <g id="text_17">
     <!-- $S(t)$ -->
     <defs>
      <path d="
M31 -24.8125
Q25.4375 -20.4062 21.4062 -14.7188
Q17.3906 -9.03125 14.8125 -2.57812
Q12.25 3.85938 10.9844 10.8906
Q9.71875 17.9219 9.71875 25
Q9.71875 32.1719 10.9844 39.2031
Q12.25 46.2344 14.8594 52.7344
Q17.4844 59.2344 21.5312 64.8906
Q25.5938 70.5625 31 74.8125
Q31 75 31.5 75
L32.4219 75
Q32.7188 75 32.9531 74.7344
Q33.2031 74.4688 33.2031 74.125
Q33.2031 73.6875 33.0156 73.4844
Q28.125 68.7031 24.875 63.2344
Q21.625 57.7656 19.6406 51.5781
Q17.6719 45.4062 16.7969 38.7812
Q15.9219 32.1719 15.9219 25
Q15.9219 -6.78125 32.9062 -23.2969
Q33.2031 -23.5781 33.2031 -24.125
Q33.2031 -24.3594 32.9375 -24.6719
Q32.6719 -25 32.4219 -25
L31.5 -25
Q31 -25 31 -24.8125" id="Cmr10-28"/>
      <path d="
M6.5 -25
Q5.60938 -25 5.60938 -24.125
Q5.60938 -23.6875 5.8125 -23.4844
Q22.9062 -6.78125 22.9062 25
Q22.9062 56.7812 6 73.2969
Q5.60938 73.5312 5.60938 74.125
Q5.60938 74.4688 5.875 74.7344
Q6.15625 75 6.5 75
L7.42188 75
Q7.71875 75 7.90625 74.8125
Q15.0938 69.1406 19.875 61.0312
Q24.6562 52.9375 26.875 43.75
Q29.1094 34.5781 29.1094 25
Q29.1094 17.9219 27.9062 11.0625
Q26.7031 4.20312 24.0938 -2.45312
Q21.4844 -9.125 17.4844 -14.7656
Q13.4844 -20.4062 7.90625 -24.8125
Q7.71875 -25 7.42188 -25
z
" id="Cmr10-29"/>
      <path d="
M6.10938 -2.20312
Q5.8125 -2.20312 5.5625 -1.85938
Q5.32812 -1.51562 5.32812 -1.21875
L11.0781 22.125
Q11.2812 22.7031 11.9219 22.7031
L13.0938 22.7031
Q13.4844 22.7031 13.7031 22.4062
Q13.9219 22.125 13.9219 21.6875
Q13.0938 18.2656 13.0938 15.5781
Q13.0938 8.34375 18.0625 4.82812
Q23.0469 1.3125 30.6094 1.3125
Q33.8906 1.3125 37.0625 2.92188
Q40.2344 4.54688 42.5938 7.125
Q44.9688 9.71875 46.375 12.9062
Q47.7969 16.1094 47.7969 19.3906
Q47.7969 22.9062 45.9375 25.6562
Q44.0938 28.4219 40.8281 29.2031
L28.6094 32.4219
Q23.6875 33.7344 20.75 37.7188
Q17.8281 41.7031 17.8281 46.6875
Q17.8281 52.6875 21.3906 58.25
Q24.9531 63.8125 30.6875 67.1562
Q36.4219 70.5156 42.3906 70.5156
Q46.9688 70.5156 50.7969 68.8281
Q54.6406 67.1406 56.6875 63.4844
L62.4062 70.2188
Q62.9844 70.5156 63.0938 70.5156
L63.7188 70.5156
Q64.1094 70.5156 64.3438 70.1719
Q64.5938 69.8281 64.5938 69.4844
L58.7969 46.2969
Q58.6406 45.6094 58.0156 45.6094
L56.7812 45.6094
Q55.9062 45.6094 55.9062 46.6875
Q56.3906 49.8594 56.3906 52.2031
Q56.3906 56.8438 54.7969 60.2812
Q53.2188 63.7188 50.0156 65.5
Q46.8281 67.2812 42.0938 67.2812
Q38.0938 67.2812 34.125 64.9844
Q30.1719 62.7031 27.7344 58.8906
Q25.2969 55.0781 25.2969 50.9844
Q25.2969 47.75 27.1719 45.2656
Q29.0469 42.7812 32.1719 41.8906
L44.3906 38.7188
Q47.7031 37.8438 50.1719 35.625
Q52.6406 33.4062 53.9062 30.3438
Q55.1719 27.2969 55.1719 23.6875
Q55.1719 18.9531 53.1719 14.3281
Q51.1719 9.71875 47.5781 5.90625
Q44 2.09375 39.4531 -0.046875
Q34.9062 -2.20312 30.1719 -2.20312
Q18.2656 -2.20312 13.0938 4.78125
L7.51562 -1.90625
Q6.9375 -2.20312 6.78125 -2.20312
z
" id="Cmmi10-53"/>
     </defs>
     <g transform="translate(31.693125 279.6)scale(0.12 -0.12)">
      <use transform="translate(0.0 25.0)" xlink:href="#Cmmi10-53"/>
      <use transform="translate(61.279296875 25.0)" xlink:href="#Cmr10-28"/>
      <use transform="translate(100.09765625 25.0)" xlink:href="#Cmmi10-74"/>
      <use transform="translate(136.181640625 25.0)" xlink:href="#Cmr10-29"/>
     </g>
    </g>
   </g>
   <g id="patch_3">
    <path d="
M79.3125 54.72
L571.05 54.72" style="fill:none;stroke:#000000;"/>
   </g>
   <g id="patch_4">
    <path d="
M571.05 492.48
L571.05 54.72" style="fill:none;stroke:#000000;"/>
   </g>
   <g id="patch_5">
    <path d="
M79.3125 492.48
L571.05 492.48" style="fill:none;stroke:#000000;"/>
   </g>
   <g id="patch_6">
    <path d="
M79.3125 492.48
L79.3125 54.72" style="fill:none;stroke:#000000;"/>
   </g>
   <g id="text_18">
    <g id="patch_7">
     <path d="
M241.225 182.634
L292.625 182.634
L292.625 127.945
L241.225 127.945
z
" style="fill:#ffffff;opacity:0.8;stroke:#000000;"/>
    </g>
    <!-- $\Omega=2$ -->
    <defs>
     <path d="
M4.98438 0
L4.98438 2.6875
Q4.98438 2.9375 5.17188 3.21875
L20.7031 20.4062
Q24.2188 24.2188 26.4062 26.7969
Q28.6094 29.3906 30.75 32.7656
Q32.9062 36.1406 34.1562 39.625
Q35.4062 43.1094 35.4062 47.0156
Q35.4062 51.125 33.8906 54.8594
Q32.375 58.5938 29.375 60.8438
Q26.375 63.0938 22.125 63.0938
Q17.7812 63.0938 14.3125 60.4688
Q10.8438 57.8594 9.42188 53.7188
Q9.8125 53.8125 10.5 53.8125
Q12.75 53.8125 14.3281 52.2969
Q15.9219 50.7812 15.9219 48.3906
Q15.9219 46.0938 14.3281 44.5
Q12.75 42.9219 10.5 42.9219
Q8.15625 42.9219 6.5625 44.5469
Q4.98438 46.1875 4.98438 48.3906
Q4.98438 52.1562 6.39062 55.4375
Q7.8125 58.7344 10.4688 61.2969
Q13.1406 63.875 16.4844 65.2344
Q19.8281 66.6094 23.5781 66.6094
Q29.2969 66.6094 34.2188 64.1875
Q39.1562 61.7656 42.0312 57.3438
Q44.9219 52.9375 44.9219 47.0156
Q44.9219 42.6719 43.0156 38.7656
Q41.1094 34.8594 38.125 31.6562
Q35.1562 28.4688 30.5156 24.4062
Q25.875 20.3594 24.4219 19
L13.0938 8.10938
L22.7031 8.10938
Q29.7812 8.10938 34.5469 8.21875
Q39.3125 8.34375 39.5938 8.59375
Q40.7656 9.85938 42 17.8281
L44.9219 17.8281
L42.0938 0
z
" id="Cmr10-32"/>
     <path d="
M7.71875 0
L4.39062 16.6094
L7.32812 16.6094
Q7.85938 13.7188 8.29688 11.5
Q8.73438 9.28125 9.4375 8.375
Q10.1562 7.46875 11.7188 7.17188
Q13.2812 6.89062 16.8906 6.89062
L23 6.89062
Q21.5312 12.5469 15.6875 21.6562
Q9.85938 30.7656 7.73438 34.8906
Q5.60938 39.0156 5.60938 45.5156
Q5.60938 53.0781 10.0938 58.7656
Q14.5938 64.4531 21.7031 67.4844
Q28.8125 70.5156 36.0781 70.5156
Q43.3125 70.5156 50.4062 67.4844
Q57.5156 64.4531 62 58.7188
Q66.5 52.9844 66.5 45.5156
Q66.5 40.4375 64.6406 35.9375
Q62.7969 31.4531 59.9062 26.9531
Q57.0312 22.4688 53.6875 16.9375
Q50.3438 11.4219 49.125 6.89062
L55.1719 6.89062
Q58.8438 6.89062 60.4531 7.17188
Q62.0625 7.46875 62.7344 8.375
Q63.4219 9.28125 63.8438 11.5
Q64.2656 13.7188 64.7969 16.6094
L67.6719 16.6094
L64.4062 0
L46.6875 0
Q45.7031 0 45.7031 1.3125
Q45.7031 6.39062 46.9375 11.2656
Q48.1875 16.1562 50.625 23.0938
Q53.0781 30.0312 54.4375 35.3281
Q55.8125 40.625 55.8125 45.5156
Q55.8125 51.5156 53.4688 56.6406
Q51.125 61.7656 46.625 64.8438
Q42.1406 67.9219 36.0781 67.9219
Q26.9531 67.9219 21.625 61.4062
Q16.3125 54.8906 16.3125 45.5156
Q16.3594 40.375 17.5312 35.8281
Q18.7031 31.2969 21.3125 23.7188
Q23.9219 16.1562 25.1719 11.2656
Q26.4219 6.39062 26.4219 1.3125
Q26.4219 0 25.3906 0
z
" id="Cmr10-ad"/>
     <path d="
M7.51562 13.2812
Q6.6875 13.2812 6.14062 13.9062
Q5.60938 14.5469 5.60938 15.2812
Q5.60938 16.1094 6.14062 16.6875
Q6.6875 17.2812 7.51562 17.2812
L70.3125 17.2812
Q71.0469 17.2812 71.5781 16.6875
Q72.125 16.1094 72.125 15.2812
Q72.125 14.5469 71.5781 13.9062
Q71.0469 13.2812 70.3125 13.2812
z

M7.51562 32.7188
Q6.6875 32.7188 6.14062 33.2969
Q5.60938 33.8906 5.60938 34.7188
Q5.60938 35.4531 6.14062 36.0781
Q6.6875 36.7188 7.51562 36.7188
L70.3125 36.7188
Q71.0469 36.7188 71.5781 36.0781
Q72.125 35.4531 72.125 34.7188
Q72.125 33.8906 71.5781 33.2969
Q71.0469 32.7188 70.3125 32.7188
z
" id="Cmr10-3d"/>
    </defs>
    <g transform="translate(243.225 138.464785714)scale(0.12 -0.12)">
     <use transform="translate(0.0 0.484375)" xlink:href="#Cmr10-ad"/>
     <use transform="translate(89.775390625 0.484375)" xlink:href="#Cmr10-3d"/>
     <use transform="translate(173.833984375 0.484375)" xlink:href="#Cmr10-32"/>
    </g>
    <!-- $\Delta=1$ -->
    <defs>
     <path d="
M9.28125 0
L9.28125 3.51562
Q21.7812 3.51562 21.7812 6.6875
L21.7812 59.1875
Q16.6094 56.6875 8.6875 56.6875
L8.6875 60.2031
Q20.9531 60.2031 27.2031 66.6094
L28.6094 66.6094
Q28.9531 66.6094 29.2656 66.3281
Q29.5938 66.0625 29.5938 65.7188
L29.5938 6.6875
Q29.5938 3.51562 42.0938 3.51562
L42.0938 0
z
" id="Cmr10-31"/>
     <path d="
M5.42188 0
Q4.59375 0 4.59375 0.78125
Q4.64062 0.875 4.65625 0.921875
Q4.6875 0.984375 4.6875 1.125
L39.1094 70.5156
Q39.5469 71.5781 40.9219 71.5781
L42.2812 71.5781
Q43.6562 71.5781 44.0938 70.5156
L78.5156 1.125
Q78.5625 1.03125 78.5781 0.953125
Q78.6094 0.875 78.6094 0.78125
Q78.6094 0 77.7812 0
z

M12.0156 8.01562
L64.7031 8.01562
L38.375 61.0781
z
" id="Cmr10-a2"/>
    </defs>
    <g transform="translate(243.225 152.401285714)scale(0.12 -0.12)">
     <use transform="translate(0.0 0.421875)" xlink:href="#Cmr10-a2"/>
     <use transform="translate(100.859375 0.421875)" xlink:href="#Cmr10-3d"/>
     <use transform="translate(184.91796875 0.421875)" xlink:href="#Cmr10-31"/>
    </g>
    <!-- $T=0.5$ -->
    <defs>
     <path d="
M25 -2.20312
Q12.75 -2.20312 8.32812 7.875
Q3.90625 17.9688 3.90625 31.8906
Q3.90625 40.5781 5.48438 48.2344
Q7.07812 55.9062 11.7812 61.25
Q16.5 66.6094 25 66.6094
Q31.5938 66.6094 35.7812 63.375
Q39.9844 60.1562 42.1875 55.0469
Q44.3906 49.9531 45.1875 44.1094
Q46 38.2812 46 31.8906
Q46 23.2969 44.4062 15.7969
Q42.8281 8.29688 38.1875 3.04688
Q33.5469 -2.20312 25 -2.20312
M25 0.390625
Q30.5625 0.390625 33.2969 6.09375
Q36.0312 11.8125 36.6719 18.75
Q37.3125 25.6875 37.3125 33.5
Q37.3125 41.0156 36.6719 47.3594
Q36.0312 53.7188 33.3125 58.8594
Q30.6094 64.0156 25 64.0156
Q19.3438 64.0156 16.6094 58.8281
Q13.875 53.6562 13.2344 47.3281
Q12.5938 41.0156 12.5938 33.5
Q12.5938 27.9375 12.8594 23
Q13.1406 18.0625 14.3125 12.8125
Q15.4844 7.5625 18.0938 3.96875
Q20.7031 0.390625 25 0.390625" id="Cmr10-30"/>
     <path d="
M4.59375 1.3125
Q4.64062 1.5625 4.8125 2.1875
Q4.98438 2.82812 5.25 3.17188
Q5.51562 3.51562 6 3.51562
Q14.5938 3.51562 17.3906 4
Q20.0625 4.6875 20.6094 6.89062
L34.2812 61.8125
Q34.7188 63.0312 34.7188 64.0156
Q34.7188 64.7969 31.2031 64.7969
L25.3906 64.7969
Q18.7031 64.7969 15.0625 62.7344
Q11.4219 60.6875 9.71875 57.3125
Q8.01562 53.9531 5.32812 46.2969
Q4.98438 45.4062 4.29688 45.4062
L3.42188 45.4062
Q2.39062 45.4062 2.39062 46.6875
L9.51562 67.3906
Q9.71875 68.3125 10.5 68.3125
L69.5781 68.3125
Q70.6094 68.3125 70.6094 67
L67.2812 46.2969
Q67.2812 46 66.9375 45.7031
Q66.6094 45.4062 66.3125 45.4062
L65.375 45.4062
Q64.4062 45.4062 64.4062 46.6875
Q65.4844 53.7656 65.4844 56.6875
Q65.4844 60.2031 64.0156 62
Q62.5469 63.8125 60.2031 64.2969
Q57.8594 64.7969 54.1094 64.7969
L48.1875 64.7969
Q45.5156 64.7969 44.5781 64.2969
Q43.6562 63.8125 43.0156 61.375
L29.2969 6.5
Q29.25 6.29688 29.2188 6.09375
Q29.2031 5.90625 29.1094 5.60938
Q29.1094 4.34375 30.6094 4
Q33.2031 3.51562 41.7031 3.51562
Q42.6719 3.51562 42.6719 2.20312
Q42.3281 0.78125 42.125 0.390625
Q41.9375 0 41.0156 0
L5.60938 0
Q4.59375 0 4.59375 1.3125" id="Cmmi10-54"/>
     <path d="
M8.6875 11.375
Q9.71875 8.45312 11.8438 6.04688
Q13.9688 3.65625 16.875 2.3125
Q19.7812 0.984375 22.9062 0.984375
Q30.125 0.984375 32.8594 6.59375
Q35.5938 12.2031 35.5938 20.2188
Q35.5938 23.6875 35.4688 26.0469
Q35.3594 28.4219 34.8125 30.6094
Q33.8906 34.125 31.5625 36.7656
Q29.25 39.4062 25.875 39.4062
Q22.5156 39.4062 20.0938 38.375
Q17.6719 37.3594 16.1562 35.9844
Q14.6562 34.625 13.4844 33.1094
Q12.3125 31.5938 12.0156 31.5
L10.8906 31.5
Q10.6406 31.5 10.2656 31.8125
Q9.90625 32.125 9.90625 32.4219
L9.90625 65.8281
Q9.90625 66.0625 10.2188 66.3281
Q10.5469 66.6094 10.8906 66.6094
L11.1875 66.6094
Q17.9219 63.375 25.4844 63.375
Q32.9062 63.375 39.7969 66.6094
L40.0938 66.6094
Q40.4375 66.6094 40.7188 66.3594
Q41.0156 66.1094 41.0156 65.8281
L41.0156 64.8906
Q41.0156 64.4062 40.8281 64.4062
Q37.4062 59.8594 32.25 57.3125
Q27.0938 54.7812 21.5781 54.7812
Q17.5781 54.7812 13.375 55.9062
L13.375 37.0156
Q16.7031 39.7031 19.3125 40.8438
Q21.9219 42 25.9844 42
Q31.5 42 35.8594 38.8125
Q40.2344 35.6406 42.5781 30.5312
Q44.9219 25.4375 44.9219 20.125
Q44.9219 14.1094 41.9688 8.98438
Q39.0156 3.85938 33.9375 0.828125
Q28.8594 -2.20312 22.9062 -2.20312
Q17.9688 -2.20312 13.8438 0.328125
Q9.71875 2.875 7.34375 7.17188
Q4.98438 11.4688 4.98438 16.3125
Q4.98438 18.5625 6.4375 19.9688
Q7.90625 21.3906 10.1094 21.3906
Q12.3125 21.3906 13.7969 19.9375
Q15.2812 18.5 15.2812 16.3125
Q15.2812 14.1562 13.7969 12.6719
Q12.3125 11.1875 10.1094 11.1875
Q9.76562 11.1875 9.32812 11.25
Q8.89062 11.3281 8.6875 11.375" id="Cmr10-35"/>
     <path d="
M8.40625 5.51562
Q8.40625 7.76562 10.0625 9.375
Q11.7188 10.9844 13.9219 10.9844
Q15.2812 10.9844 16.5938 10.25
Q17.9219 9.51562 18.6562 8.20312
Q19.3906 6.89062 19.3906 5.51562
Q19.3906 3.32812 17.7656 1.65625
Q16.1562 0 13.9219 0
Q11.7188 0 10.0625 1.65625
Q8.40625 3.32812 8.40625 5.51562" id="Cmmi10-3a"/>
    </defs>
    <g transform="translate(243.225 166.697785714)scale(0.12 -0.12)">
     <use transform="translate(0.0 3.6875)" xlink:href="#Cmmi10-54"/>
     <use transform="translate(75.95703125 3.6875)" xlink:href="#Cmr10-3d"/>
     <use transform="translate(160.015625 3.6875)" xlink:href="#Cmr10-30"/>
     <use transform="translate(210.015625 3.6875)" xlink:href="#Cmmi10-3a"/>
     <use transform="translate(238.55859375 3.6875)" xlink:href="#Cmr10-35"/>
    </g>
    <!-- $\alpha=0.005$ -->
    <defs>
     <path d="
M20.125 -1.125
Q15.375 -1.125 11.6875 1.125
Q8.01562 3.375 6 7.17188
Q4 10.9844 4 15.8281
Q4 22.6094 7.78125 29.25
Q11.5781 35.8906 17.8438 40.0312
Q24.125 44.1875 31 44.1875
Q36.0781 44.1875 39.9375 41.5312
Q43.7969 38.875 45.7969 34.4531
Q47.7969 30.0312 47.7969 25
L47.9062 18.3125
Q51.3125 23.0469 53.6875 28.1406
Q56.0625 33.25 57.3281 38.7188
Q57.5156 39.3125 58.1094 39.3125
L59.2812 39.3125
Q60.2031 39.3125 60.2031 38.375
Q60.2031 38.2812 60.1094 38.0938
Q58.9375 33.5 57.1719 29.2656
Q55.4219 25.0469 53.0469 21.0938
Q50.6875 17.1406 47.9062 13.9219
Q47.9062 1.51562 50.7812 1.51562
Q52.6406 1.51562 53.8281 2.60938
Q55.0312 3.71875 55.9375 5.32812
Q56.8438 6.9375 57.0781 6.98438
L58.2969 6.98438
Q59.0781 6.98438 59.0781 6
Q59.0781 3.51562 56.2188 1.1875
Q53.375 -1.125 50.5938 -1.125
Q46.9688 -1.125 44.5781 1.21875
Q42.1875 3.5625 41.3125 7.32812
Q36.625 3.32812 31.1562 1.09375
Q25.6875 -1.125 20.125 -1.125
M20.3125 1.51562
Q31 1.51562 40.8281 10.2969
Q40.7656 10.8906 40.6719 11.7344
Q40.5781 12.5938 40.5781 12.7031
L40.5781 23.4844
Q40.5781 41.6094 30.8125 41.6094
Q24.9531 41.6094 20.5469 36.5938
Q16.1562 31.5938 13.9375 24.625
Q11.7188 17.6719 11.7188 11.9219
Q11.7188 7.5625 13.9375 4.53125
Q16.1562 1.51562 20.3125 1.51562" id="Cmmi10-ae"/>
    </defs>
    <g transform="translate(243.225 180.634285714)scale(0.12 -0.12)">
     <use transform="translate(0.0 3.390625)" xlink:href="#Cmmi10-ae"/>
     <use transform="translate(81.474609375 3.390625)" xlink:href="#Cmr10-3d"/>
     <use transform="translate(165.533203125 3.390625)" xlink:href="#Cmr10-30"/>
     <use transform="translate(215.533203125 3.390625)" xlink:href="#Cmmi10-3a"/>
     <use transform="translate(244.076171875 3.390625)" xlink:href="#Cmr10-30"/>
     <use transform="translate(294.076171875 3.390625)" xlink:href="#Cmr10-30"/>
     <use transform="translate(344.076171875 3.390625)" xlink:href="#Cmr10-35"/>
    </g>
   </g>
   <g id="legend_1">
    <g id="patch_8">
     <path d="
M135.686 283.617
L464 283.617
L464 237.024
L135.686 237.024
L135.686 283.617
z
" style="fill:#ffffff;stroke:#000000;"/>
    </g>
    <g id="line2d_41">
     <path d="
M145.766 248.686
L165.926 248.686" style="fill:none;stroke:#ff0000;"/>
    </g>
    <g id="line2d_42"/>
    <g id="text_19">
     <!-- Redfield dynamics entropy -->
     <defs>
      <path id="BitstreamVeraSans-Roman-20"/>
      <path d="
M54.8906 33.0156
L54.8906 0
L45.9062 0
L45.9062 32.7188
Q45.9062 40.4844 42.875 44.3281
Q39.8438 48.1875 33.7969 48.1875
Q26.5156 48.1875 22.3125 43.5469
Q18.1094 38.9219 18.1094 30.9062
L18.1094 0
L9.07812 0
L9.07812 54.6875
L18.1094 54.6875
L18.1094 46.1875
Q21.3438 51.125 25.7031 53.5625
Q30.0781 56 35.7969 56
Q45.2188 56 50.0469 50.1719
Q54.8906 44.3438 54.8906 33.0156" id="BitstreamVeraSans-Roman-6e"/>
      <path d="
M52 44.1875
Q55.375 50.25 60.0625 53.125
Q64.75 56 71.0938 56
Q79.6406 56 84.2812 50.0156
Q88.9219 44.0469 88.9219 33.0156
L88.9219 0
L79.8906 0
L79.8906 32.7188
Q79.8906 40.5781 77.0938 44.375
Q74.3125 48.1875 68.6094 48.1875
Q61.625 48.1875 57.5625 43.5469
Q53.5156 38.9219 53.5156 30.9062
L53.5156 0
L44.4844 0
L44.4844 32.7188
Q44.4844 40.625 41.7031 44.4062
Q38.9219 48.1875 33.1094 48.1875
Q26.2188 48.1875 22.1562 43.5312
Q18.1094 38.875 18.1094 30.9062
L18.1094 0
L9.07812 0
L9.07812 54.6875
L18.1094 54.6875
L18.1094 46.1875
Q21.1875 51.2188 25.4844 53.6094
Q29.7812 56 35.6875 56
Q41.6562 56 45.8281 52.9688
Q50 49.9531 52 44.1875" id="BitstreamVeraSans-Roman-6d"/>
      <path d="
M30.6094 48.3906
Q23.3906 48.3906 19.1875 42.75
Q14.9844 37.1094 14.9844 27.2969
Q14.9844 17.4844 19.1562 11.8438
Q23.3438 6.20312 30.6094 6.20312
Q37.7969 6.20312 41.9844 11.8594
Q46.1875 17.5312 46.1875 27.2969
Q46.1875 37.0156 41.9844 42.7031
Q37.7969 48.3906 30.6094 48.3906
M30.6094 56
Q42.3281 56 49.0156 48.375
Q55.7188 40.7656 55.7188 27.2969
Q55.7188 13.875 49.0156 6.21875
Q42.3281 -1.42188 30.6094 -1.42188
Q18.8438 -1.42188 12.1719 6.21875
Q5.51562 13.875 5.51562 27.2969
Q5.51562 40.7656 12.1719 48.375
Q18.8438 56 30.6094 56" id="BitstreamVeraSans-Roman-6f"/>
      <path d="
M9.42188 75.9844
L18.4062 75.9844
L18.4062 0
L9.42188 0
z
" id="BitstreamVeraSans-Roman-6c"/>
      <path d="
M44.3906 34.1875
Q47.5625 33.1094 50.5625 29.5938
Q53.5625 26.0781 56.5938 19.9219
L66.6094 0
L56 0
L46.6875 18.7031
Q43.0625 26.0312 39.6719 28.4219
Q36.2812 30.8125 30.4219 30.8125
L19.6719 30.8125
L19.6719 0
L9.8125 0
L9.8125 72.9062
L32.0781 72.9062
Q44.5781 72.9062 50.7344 67.6719
Q56.8906 62.4531 56.8906 51.9062
Q56.8906 45.0156 53.6875 40.4688
Q50.4844 35.9375 44.3906 34.1875
M19.6719 64.7969
L19.6719 38.9219
L32.0781 38.9219
Q39.2031 38.9219 42.8438 42.2188
Q46.4844 45.5156 46.4844 51.9062
Q46.4844 58.2969 42.8438 61.5469
Q39.2031 64.7969 32.0781 64.7969
z
" id="BitstreamVeraSans-Roman-52"/>
      <path d="
M9.42188 54.6875
L18.4062 54.6875
L18.4062 0
L9.42188 0
z

M9.42188 75.9844
L18.4062 75.9844
L18.4062 64.5938
L9.42188 64.5938
z
" id="BitstreamVeraSans-Roman-69"/>
      <path d="
M18.1094 8.20312
L18.1094 -20.7969
L9.07812 -20.7969
L9.07812 54.6875
L18.1094 54.6875
L18.1094 46.3906
Q20.9531 51.2656 25.2656 53.625
Q29.5938 56 35.5938 56
Q45.5625 56 51.7812 48.0938
Q58.0156 40.1875 58.0156 27.2969
Q58.0156 14.4062 51.7812 6.48438
Q45.5625 -1.42188 35.5938 -1.42188
Q29.5938 -1.42188 25.2656 0.953125
Q20.9531 3.32812 18.1094 8.20312
M48.6875 27.2969
Q48.6875 37.2031 44.6094 42.8438
Q40.5312 48.4844 33.4062 48.4844
Q26.2656 48.4844 22.1875 42.8438
Q18.1094 37.2031 18.1094 27.2969
Q18.1094 17.3906 22.1875 11.75
Q26.2656 6.10938 33.4062 6.10938
Q40.5312 6.10938 44.6094 11.75
Q48.6875 17.3906 48.6875 27.2969" id="BitstreamVeraSans-Roman-70"/>
      <path d="
M41.1094 46.2969
Q39.5938 47.1719 37.8125 47.5781
Q36.0312 48 33.8906 48
Q26.2656 48 22.1875 43.0469
Q18.1094 38.0938 18.1094 28.8125
L18.1094 0
L9.07812 0
L9.07812 54.6875
L18.1094 54.6875
L18.1094 46.1875
Q20.9531 51.1719 25.4844 53.5781
Q30.0312 56 36.5312 56
Q37.4531 56 38.5781 55.875
Q39.7031 55.7656 41.0625 55.5156
z
" id="BitstreamVeraSans-Roman-72"/>
      <path d="
M32.1719 -5.07812
Q28.375 -14.8438 24.75 -17.8125
Q21.1406 -20.7969 15.0938 -20.7969
L7.90625 -20.7969
L7.90625 -13.2812
L13.1875 -13.2812
Q16.8906 -13.2812 18.9375 -11.5156
Q21 -9.76562 23.4844 -3.21875
L25.0938 0.875
L2.98438 54.6875
L12.5 54.6875
L29.5938 11.9219
L46.6875 54.6875
L56.2031 54.6875
z
" id="BitstreamVeraSans-Roman-79"/>
      <path d="
M56.2031 29.5938
L56.2031 25.2031
L14.8906 25.2031
Q15.4844 15.9219 20.4844 11.0625
Q25.4844 6.20312 34.4219 6.20312
Q39.5938 6.20312 44.4531 7.46875
Q49.3125 8.73438 54.1094 11.2812
L54.1094 2.78125
Q49.2656 0.734375 44.1875 -0.34375
Q39.1094 -1.42188 33.8906 -1.42188
Q20.7969 -1.42188 13.1562 6.1875
Q5.51562 13.8125 5.51562 26.8125
Q5.51562 40.2344 12.7656 48.1094
Q20.0156 56 32.3281 56
Q43.3594 56 49.7812 48.8906
Q56.2031 41.7969 56.2031 29.5938
M47.2188 32.2344
Q47.125 39.5938 43.0938 43.9844
Q39.0625 48.3906 32.4219 48.3906
Q24.9062 48.3906 20.3906 44.1406
Q15.875 39.8906 15.1875 32.1719
z
" id="BitstreamVeraSans-Roman-65"/>
      <path d="
M45.4062 46.3906
L45.4062 75.9844
L54.3906 75.9844
L54.3906 0
L45.4062 0
L45.4062 8.20312
Q42.5781 3.32812 38.25 0.953125
Q33.9375 -1.42188 27.875 -1.42188
Q17.9688 -1.42188 11.7344 6.48438
Q5.51562 14.4062 5.51562 27.2969
Q5.51562 40.1875 11.7344 48.0938
Q17.9688 56 27.875 56
Q33.9375 56 38.25 53.625
Q42.5781 51.2656 45.4062 46.3906
M14.7969 27.2969
Q14.7969 17.3906 18.875 11.75
Q22.9531 6.10938 30.0781 6.10938
Q37.2031 6.10938 41.2969 11.75
Q45.4062 17.3906 45.4062 27.2969
Q45.4062 37.2031 41.2969 42.8438
Q37.2031 48.4844 30.0781 48.4844
Q22.9531 48.4844 18.875 42.8438
Q14.7969 37.2031 14.7969 27.2969" id="BitstreamVeraSans-Roman-64"/>
      <path d="
M18.3125 70.2188
L18.3125 54.6875
L36.8125 54.6875
L36.8125 47.7031
L18.3125 47.7031
L18.3125 18.0156
Q18.3125 11.3281 20.1406 9.42188
Q21.9688 7.51562 27.5938 7.51562
L36.8125 7.51562
L36.8125 0
L27.5938 0
Q17.1875 0 13.2344 3.875
Q9.28125 7.76562 9.28125 18.0156
L9.28125 47.7031
L2.6875 47.7031
L2.6875 54.6875
L9.28125 54.6875
L9.28125 70.2188
z
" id="BitstreamVeraSans-Roman-74"/>
      <path d="
M37.1094 75.9844
L37.1094 68.5
L28.5156 68.5
Q23.6875 68.5 21.7969 66.5469
Q19.9219 64.5938 19.9219 59.5156
L19.9219 54.6875
L34.7188 54.6875
L34.7188 47.7031
L19.9219 47.7031
L19.9219 0
L10.8906 0
L10.8906 47.7031
L2.29688 47.7031
L2.29688 54.6875
L10.8906 54.6875
L10.8906 58.5
Q10.8906 67.625 15.1406 71.7969
Q19.3906 75.9844 28.6094 75.9844
z
" id="BitstreamVeraSans-Roman-66"/>
      <path d="
M34.2812 27.4844
Q23.3906 27.4844 19.1875 25
Q14.9844 22.5156 14.9844 16.5
Q14.9844 11.7188 18.1406 8.90625
Q21.2969 6.10938 26.7031 6.10938
Q34.1875 6.10938 38.7031 11.4062
Q43.2188 16.7031 43.2188 25.4844
L43.2188 27.4844
z

M52.2031 31.2031
L52.2031 0
L43.2188 0
L43.2188 8.29688
Q40.1406 3.32812 35.5469 0.953125
Q30.9531 -1.42188 24.3125 -1.42188
Q15.9219 -1.42188 10.9531 3.29688
Q6 8.01562 6 15.9219
Q6 25.1406 12.1719 29.8281
Q18.3594 34.5156 30.6094 34.5156
L43.2188 34.5156
L43.2188 35.4062
Q43.2188 41.6094 39.1406 45
Q35.0625 48.3906 27.6875 48.3906
Q23 48.3906 18.5469 47.2656
Q14.1094 46.1406 10.0156 43.8906
L10.0156 52.2031
Q14.9375 54.1094 19.5781 55.0469
Q24.2188 56 28.6094 56
Q40.4844 56 46.3438 49.8438
Q52.2031 43.7031 52.2031 31.2031" id="BitstreamVeraSans-Roman-61"/>
      <path d="
M44.2812 53.0781
L44.2812 44.5781
Q40.4844 46.5312 36.375 47.5
Q32.2812 48.4844 27.875 48.4844
Q21.1875 48.4844 17.8438 46.4375
Q14.5 44.3906 14.5 40.2812
Q14.5 37.1562 16.8906 35.375
Q19.2812 33.5938 26.5156 31.9844
L29.5938 31.2969
Q39.1562 29.25 43.1875 25.5156
Q47.2188 21.7812 47.2188 15.0938
Q47.2188 7.46875 41.1875 3.01562
Q35.1562 -1.42188 24.6094 -1.42188
Q20.2188 -1.42188 15.4531 -0.5625
Q10.6875 0.296875 5.42188 2
L5.42188 11.2812
Q10.4062 8.6875 15.2344 7.39062
Q20.0625 6.10938 24.8125 6.10938
Q31.1562 6.10938 34.5625 8.28125
Q37.9844 10.4531 37.9844 14.4062
Q37.9844 18.0625 35.5156 20.0156
Q33.0625 21.9688 24.7031 23.7812
L21.5781 24.5156
Q13.2344 26.2656 9.51562 29.9062
Q5.8125 33.5469 5.8125 39.8906
Q5.8125 47.6094 11.2812 51.7969
Q16.75 56 26.8125 56
Q31.7812 56 36.1719 55.2656
Q40.5781 54.5469 44.2812 53.0781" id="BitstreamVeraSans-Roman-73"/>
      <path d="
M48.7812 52.5938
L48.7812 44.1875
Q44.9688 46.2969 41.1406 47.3438
Q37.3125 48.3906 33.4062 48.3906
Q24.6562 48.3906 19.8125 42.8438
Q14.9844 37.3125 14.9844 27.2969
Q14.9844 17.2812 19.8125 11.7344
Q24.6562 6.20312 33.4062 6.20312
Q37.3125 6.20312 41.1406 7.25
Q44.9688 8.29688 48.7812 10.4062
L48.7812 2.09375
Q45.0156 0.34375 40.9844 -0.53125
Q36.9688 -1.42188 32.4219 -1.42188
Q20.0625 -1.42188 12.7812 6.34375
Q5.51562 14.1094 5.51562 27.2969
Q5.51562 40.6719 12.8594 48.3281
Q20.2188 56 33.0156 56
Q37.1562 56 41.1094 55.1406
Q45.0625 54.2969 48.7812 52.5938" id="BitstreamVeraSans-Roman-63"/>
     </defs>
     <g transform="translate(181.76625 253.72575)scale(0.144 -0.144)">
      <use xlink:href="#BitstreamVeraSans-Roman-52"/>
      <use x="64.982421875" xlink:href="#BitstreamVeraSans-Roman-65"/>
      <use x="126.505859375" xlink:href="#BitstreamVeraSans-Roman-64"/>
      <use x="189.982421875" xlink:href="#BitstreamVeraSans-Roman-66"/>
      <use x="225.1875" xlink:href="#BitstreamVeraSans-Roman-69"/>
      <use x="252.970703125" xlink:href="#BitstreamVeraSans-Roman-65"/>
      <use x="314.494140625" xlink:href="#BitstreamVeraSans-Roman-6c"/>
      <use x="342.27734375" xlink:href="#BitstreamVeraSans-Roman-64"/>
      <use x="405.75390625" xlink:href="#BitstreamVeraSans-Roman-20"/>
      <use x="437.541015625" xlink:href="#BitstreamVeraSans-Roman-64"/>
      <use x="501.017578125" xlink:href="#BitstreamVeraSans-Roman-79"/>
      <use x="560.197265625" xlink:href="#BitstreamVeraSans-Roman-6e"/>
      <use x="623.576171875" xlink:href="#BitstreamVeraSans-Roman-61"/>
      <use x="684.85546875" xlink:href="#BitstreamVeraSans-Roman-6d"/>
      <use x="782.267578125" xlink:href="#BitstreamVeraSans-Roman-69"/>
      <use x="810.05078125" xlink:href="#BitstreamVeraSans-Roman-63"/>
      <use x="865.03125" xlink:href="#BitstreamVeraSans-Roman-73"/>
      <use x="917.130859375" xlink:href="#BitstreamVeraSans-Roman-20"/>
      <use x="948.91796875" xlink:href="#BitstreamVeraSans-Roman-65"/>
      <use x="1010.44140625" xlink:href="#BitstreamVeraSans-Roman-6e"/>
      <use x="1073.8203125" xlink:href="#BitstreamVeraSans-Roman-74"/>
      <use x="1113.02929688" xlink:href="#BitstreamVeraSans-Roman-72"/>
      <use x="1151.89257812" xlink:href="#BitstreamVeraSans-Roman-6f"/>
      <use x="1213.07421875" xlink:href="#BitstreamVeraSans-Roman-70"/>
      <use x="1276.55078125" xlink:href="#BitstreamVeraSans-Roman-79"/>
     </g>
    </g>
    <g id="line2d_43">
     <path d="
M145.766 269.822
L165.926 269.822" style="fill:none;stroke:#0000ff;"/>
    </g>
    <g id="line2d_44"/>
    <g id="text_20">
     <!-- Completely positive dynamics entropy -->
     <defs>
      <path d="
M2.98438 54.6875
L12.5 54.6875
L29.5938 8.79688
L46.6875 54.6875
L56.2031 54.6875
L35.6875 0
L23.4844 0
z
" id="BitstreamVeraSans-Roman-76"/>
      <path d="
M64.4062 67.2812
L64.4062 56.8906
Q59.4219 61.5312 53.7812 63.8125
Q48.1406 66.1094 41.7969 66.1094
Q29.2969 66.1094 22.6562 58.4688
Q16.0156 50.8281 16.0156 36.375
Q16.0156 21.9688 22.6562 14.3281
Q29.2969 6.6875 41.7969 6.6875
Q48.1406 6.6875 53.7812 8.98438
Q59.4219 11.2812 64.4062 15.9219
L64.4062 5.60938
Q59.2344 2.09375 53.4375 0.328125
Q47.6562 -1.42188 41.2188 -1.42188
Q24.6562 -1.42188 15.125 8.70312
Q5.60938 18.8438 5.60938 36.375
Q5.60938 53.9531 15.125 64.0781
Q24.6562 74.2188 41.2188 74.2188
Q47.75 74.2188 53.5312 72.4844
Q59.3281 70.75 64.4062 67.2812" id="BitstreamVeraSans-Roman-43"/>
     </defs>
     <g transform="translate(181.76625 274.86225)scale(0.144 -0.144)">
      <use xlink:href="#BitstreamVeraSans-Roman-43"/>
      <use x="69.82421875" xlink:href="#BitstreamVeraSans-Roman-6f"/>
      <use x="131.005859375" xlink:href="#BitstreamVeraSans-Roman-6d"/>
      <use x="228.41796875" xlink:href="#BitstreamVeraSans-Roman-70"/>
      <use x="291.89453125" xlink:href="#BitstreamVeraSans-Roman-6c"/>
      <use x="319.677734375" xlink:href="#BitstreamVeraSans-Roman-65"/>
      <use x="381.201171875" xlink:href="#BitstreamVeraSans-Roman-74"/>
      <use x="420.41015625" xlink:href="#BitstreamVeraSans-Roman-65"/>
      <use x="481.93359375" xlink:href="#BitstreamVeraSans-Roman-6c"/>
      <use x="509.716796875" xlink:href="#BitstreamVeraSans-Roman-79"/>
      <use x="568.896484375" xlink:href="#BitstreamVeraSans-Roman-20"/>
      <use x="600.68359375" xlink:href="#BitstreamVeraSans-Roman-70"/>
      <use x="664.16015625" xlink:href="#BitstreamVeraSans-Roman-6f"/>
      <use x="725.341796875" xlink:href="#BitstreamVeraSans-Roman-73"/>
      <use x="777.44140625" xlink:href="#BitstreamVeraSans-Roman-69"/>
      <use x="805.224609375" xlink:href="#BitstreamVeraSans-Roman-74"/>
      <use x="844.43359375" xlink:href="#BitstreamVeraSans-Roman-69"/>
      <use x="872.216796875" xlink:href="#BitstreamVeraSans-Roman-76"/>
      <use x="931.396484375" xlink:href="#BitstreamVeraSans-Roman-65"/>
      <use x="992.919921875" xlink:href="#BitstreamVeraSans-Roman-20"/>
      <use x="1024.70703125" xlink:href="#BitstreamVeraSans-Roman-64"/>
      <use x="1088.18359375" xlink:href="#BitstreamVeraSans-Roman-79"/>
      <use x="1147.36328125" xlink:href="#BitstreamVeraSans-Roman-6e"/>
      <use x="1210.7421875" xlink:href="#BitstreamVeraSans-Roman-61"/>
      <use x="1272.02148438" xlink:href="#BitstreamVeraSans-Roman-6d"/>
      <use x="1369.43359375" xlink:href="#BitstreamVeraSans-Roman-69"/>
      <use x="1397.21679688" xlink:href="#BitstreamVeraSans-Roman-63"/>
      <use x="1452.19726562" xlink:href="#BitstreamVeraSans-Roman-73"/>
      <use x="1504.296875" xlink:href="#BitstreamVeraSans-Roman-20"/>
      <use x="1536.08398438" xlink:href="#BitstreamVeraSans-Roman-65"/>
      <use x="1597.60742188" xlink:href="#BitstreamVeraSans-Roman-6e"/>
      <use x="1660.98632812" xlink:href="#BitstreamVeraSans-Roman-74"/>
      <use x="1700.1953125" xlink:href="#BitstreamVeraSans-Roman-72"/>
      <use x="1739.05859375" xlink:href="#BitstreamVeraSans-Roman-6f"/>
      <use x="1800.24023438" xlink:href="#BitstreamVeraSans-Roman-70"/>
      <use x="1863.71679688" xlink:href="#BitstreamVeraSans-Roman-79"/>
     </g>
    </g>
   </g>
  </g>
  <g id="axes_2">
   <g id="line2d_45">
    <path clip-path="url(#p0c02c94569)" d="
M79.3125 318.101
L79.8042 378.037
L80.2304 409.289
L80.4599 414.645
L80.4927 414.58
L80.5746 413.5
L80.7549 406.971
L81.0828 384.999
L82.3941 288.6
L82.6891 281.587
L82.8202 280.926
L82.853 280.993
L82.9677 281.941
L83.1644 286.022
L83.4759 297.997
L84.0168 329.285
L84.9347 380.979
L85.3281 391.897
L85.574 393.998
L85.6231 393.991
L85.6395 393.958
L85.7543 393.319
L85.9673 390.39
L86.328 381.564
L87.2786 356.887
L87.5245 355.044
L87.5737 355.023
L87.6065 355.077
L87.7212 355.685
L87.9179 358.233
L88.2293 365.812
L88.7703 385.739
L89.4915 410.382
L89.8029 415.024
L89.9176 415.426
L89.9668 415.371
L90.0816 414.712
L90.2782 411.889
L90.5897 403.504
L91.1634 380.368
L91.8354 355.947
L92.1796 350.215
L92.3272 349.609
L92.3599 349.628
L92.4583 350.013
L92.6386 351.955
L92.9336 358.186
L93.4418 374.798
L94.2941 401.806
L94.6547 407.084
L94.8514 407.823
L94.9334 407.689
L95.0809 406.827
L95.3268 403.813
L95.7693 394.991
L96.5561 379.692
L96.8511 377.565
L96.9331 377.488
L96.9659 377.522
L97.0806 377.936
L97.2773 379.691
L97.5887 384.905
L98.146 398.974
L98.8345 414.911
L99.1623 418.26
L99.2934 418.526
L99.3262 418.492
L99.441 418.059
L99.6377 416.206
L99.9491 410.721
L100.523 395.657
L101.195 379.862
L101.523 376.364
L101.67 375.986
L101.703 376.005
L101.818 376.365
L102.014 377.996
L102.326 382.862
L102.9 396.19
L103.604 410.992
L103.949 414.395
L104.129 414.854
L104.145 414.851
L104.244 414.672
L104.424 413.681
L104.719 410.463
L105.293 401.032
L105.883 392.736
L106.178 391.033
L106.276 390.943
L106.309 390.967
L106.424 391.271
L106.62 392.562
L106.932 396.388
L107.489 406.668
L108.177 418.255
L108.505 420.701
L108.636 420.91
L108.669 420.891
L108.784 420.599
L108.981 419.311
L109.292 415.471
L109.866 404.935
L110.521 394.186
L110.849 391.747
L110.997 391.501
L111.03 391.52
L111.144 391.796
L111.341 392.996
L111.652 396.538
L112.243 406.475
L112.915 416.558
L113.259 418.941
L113.439 419.204
L113.554 419.017
L113.751 418.09
L114.062 415.292
L114.767 406.156
L115.259 401.301
L115.537 400.231
L115.652 400.219
L115.668 400.238
L115.816 400.645
L116.045 402.082
L116.406 406.002
L117.75 422.268
L117.979 422.76
L118.094 422.62
L118.275 421.892
L118.553 419.661
L119.028 413.704
L119.848 403.639
L120.176 401.915
L120.323 401.765
L120.34 401.773
L120.471 402.014
L120.684 403.044
L121.012 405.959
L121.717 414.922
L122.274 420.605
L122.585 422.005
L122.749 422.122
L122.766 422.11
L122.913 421.813
L123.143 420.717
L123.52 417.595
L124.651 407.513
L124.897 406.933
L125.028 406.99
L125.192 407.42
L125.454 408.885
L125.864 412.672
L126.945 423.216
L127.241 424.17
L127.388 424.173
L127.536 423.86
L127.781 422.682
L128.175 419.455
L129.289 409.677
L129.568 408.96
L129.699 408.989
L129.863 409.352
L130.125 410.634
L130.535 413.969
L131.617 423.245
L131.912 424.128
L132.076 424.157
L132.24 423.859
L132.486 422.848
L132.895 420.021
L133.912 412.679
L134.19 412
L134.338 411.999
L134.502 412.293
L134.748 413.284
L135.141 415.974
L136.338 424.797
L136.6 425.341
L136.747 425.311
L136.928 424.953
L137.206 423.768
L137.682 420.528
L138.501 415.064
L138.813 414.204
L138.993 414.154
L139.157 414.399
L139.403 415.254
L139.796 417.589
L140.976 425.145
L141.255 425.652
L141.419 425.603
L141.616 425.214
L141.911 424.031
L142.435 420.796
L143.156 416.669
L143.484 415.873
L143.665 415.839
L143.845 416.099
L144.107 416.968
L144.517 419.231
L145.615 425.656
L145.91 426.238
L146.09 426.23
L146.287 425.913
L146.582 424.906
L147.107 422.121
L147.812 418.67
L148.139 418.002
L148.32 417.986
L148.5 418.225
L148.779 419.057
L149.221 421.234
L150.188 426.109
L150.5 426.707
L150.696 426.717
L150.893 426.442
L151.188 425.549
L151.68 423.19
L152.483 419.469
L152.811 418.836
L153.008 418.814
L153.204 419.067
L153.483 419.855
L153.942 421.956
L154.893 426.358
L155.22 426.95
L155.417 426.971
L155.614 426.744
L155.909 425.995
L156.433 423.904
L157.138 421.325
L157.45 420.855
L157.663 420.862
L157.876 421.14
L158.187 421.979
L158.744 424.288
L159.449 426.962
L159.777 427.507
L159.99 427.532
L160.203 427.294
L160.498 426.573
L161.006 424.615
L161.81 421.647
L162.137 421.142
L162.351 421.13
L162.564 421.371
L162.875 422.131
L163.4 424.13
L164.186 426.974
L164.531 427.519
L164.76 427.554
L164.99 427.33
L165.317 426.632
L166.071 424.281
L166.563 423.186
L166.842 422.986
L167.055 423.074
L167.317 423.458
L167.711 424.497
L168.923 427.979
L169.202 428.156
L169.415 428.052
L169.694 427.617
L170.12 426.443
L171.235 423.183
L171.546 422.919
L171.776 422.999
L172.038 423.364
L172.431 424.35
L173.693 427.83
L173.988 428.033
L174.234 427.944
L174.529 427.56
L175.021 426.479
L175.791 424.873
L176.119 424.631
L176.365 424.697
L176.66 425.047
L177.086 425.963
L178.168 428.413
L178.48 428.609
L178.725 428.518
L179.02 428.134
L179.463 427.13
L180.528 424.597
L180.856 424.347
L181.102 424.405
L181.397 424.743
L181.823 425.629
L182.971 428.177
L183.315 428.403
L183.594 428.325
L183.921 427.974
L184.544 426.887
L185.134 426.035
L185.479 425.881
L185.757 425.99
L186.101 426.395
L186.675 427.488
L187.396 428.729
L187.741 428.948
L188.019 428.882
L188.331 428.557
L188.79 427.711
L189.855 425.673
L190.199 425.469
L190.478 425.545
L190.806 425.892
L191.314 426.811
L192.215 428.423
L192.592 428.689
L192.904 428.658
L193.264 428.375
L193.986 427.424
L194.527 426.907
L194.871 426.85
L195.199 427.023
L195.641 427.552
L196.854 429.148
L197.198 429.199
L197.526 429.002
L197.952 428.444
L199.329 426.422
L199.657 426.366
L199.985 426.544
L200.427 427.084
L201.722 428.844
L202.099 428.941
L202.476 428.793
L203.034 428.283
L203.788 427.647
L204.181 427.586
L204.558 427.757
L205.066 428.27
L206.082 429.328
L206.459 429.404
L206.82 429.243
L207.279 428.754
L208.639 427.124
L209.016 427.076
L209.393 427.272
L209.918 427.842
L210.951 428.991
L211.377 429.136
L211.787 429.041
L212.393 428.631
L213.147 428.178
L213.59 428.17
L214.049 428.406
L214.95 429.222
L215.491 429.533
L215.901 429.523
L216.327 429.27
L216.966 428.579
L217.786 427.765
L218.228 427.626
L218.638 427.741
L219.146 428.144
L220.392 429.218
L220.851 429.287
L221.359 429.126
L222.703 428.579
L223.195 428.702
L223.867 429.14
L224.703 429.632
L225.162 429.65
L225.621 429.439
L226.309 428.831
L227.145 428.171
L227.621 428.075
L228.079 428.219
L228.735 428.698
L229.653 429.326
L230.178 429.416
L230.768 429.274
L232.013 428.914
L232.571 429.038
L233.521 429.546
L234.161 429.752
L234.669 429.681
L235.242 429.355
L236.652 428.457
L237.144 428.459
L237.701 428.696
L239.291 429.507
L239.898 429.471
L241.635 429.207
L242.389 429.474
L243.422 429.815
L243.979 429.753
L244.635 429.433
L245.93 428.749
L246.487 428.741
L247.126 428.974
L248.585 429.584
L249.273 429.566
L250.978 429.404
L251.912 429.681
L252.797 429.868
L253.42 429.769
L254.256 429.377
L255.223 428.979
L255.846 428.969
L256.584 429.204
L257.912 429.649
L258.715 429.636
L260.288 429.549
L261.534 429.84
L262.337 429.892
L263.075 429.701
L264.845 429.13
L265.55 429.224
L267.812 429.72
L270.057 429.732
L271.598 429.922
L272.418 429.745
L274.188 429.277
L274.991 429.378
L277.089 429.769
L279.696 429.853
L280.925 429.939
L281.859 429.753
L283.466 429.398
L284.351 429.483
L286.547 429.806
L289.022 429.895
L290.333 429.944
L291.448 429.724
L292.792 429.494
L293.776 429.577
L295.956 429.838
L298.611 429.948
L299.84 429.933
L303.119 429.641
L305.512 429.864
L310.282 429.765
L311.675 429.635
L313.101 429.772
L314.92 429.887
L319.428 429.822
L321.067 429.688
L322.821 429.837
L324.985 429.918
L328.361 429.892
L330.59 429.734
L337.77 429.894
L339.999 429.77
L346.949 429.916
L349.522 429.804
L355.8 429.953
L359.439 429.851
L364.11 429.983
L366.782 429.853
L368.897 429.87
L373.699 429.977
L380.797 429.959
L384.501 429.919
L387.435 429.885
L393.057 429.954
L397.434 429.913
L402.4 429.952
L406.957 429.922
L412.006 429.943
L416.267 429.925
L421.562 429.937
L425.774 429.931
L431.183 429.931
L435.462 429.939
L440.953 429.924
L445.526 429.951
L451.361 429.915
L473.293 429.947
L485.078 429.956
L518.991 429.94
L535.252 429.934
L571.05 429.941
L571.05 429.941" style="fill:none;stroke:#bfbf00;"/>
   </g>
   <g id="line2d_46">
    <path clip-path="url(#p0c02c94569)" d="
M79.3125 102.93
L79.4928 177.838
L79.8042 216.853
L80.2304 243.622
L80.7877 265.086
L81.4761 283.116
L82.2793 298.454
L83.2136 312.087
L84.2627 324.166
L85.41 334.868
L86.6722 344.581
L88.0326 353.336
L89.4751 361.187
L90.9995 368.27
L92.5894 374.623
L94.2613 380.399
L95.9988 385.608
L97.7854 390.275
L99.6377 394.502
L101.555 398.331
L103.539 401.798
L105.588 404.935
L107.702 407.769
L109.899 410.344
L112.193 412.691
L114.586 414.821
L117.094 416.755
L119.75 418.522
L122.569 420.128
L125.585 421.589
L128.83 422.912
L132.355 424.107
L136.223 425.182
L140.534 426.145
L145.369 426.992
L150.893 427.729
L157.318 428.357
L165.006 428.877
L174.578 429.293
L187.151 429.603
L205.328 429.809
L237.586 429.917
L342.736 429.943
L571.05 429.943
L571.05 429.943" style="fill:none;stroke:#00bfbf;"/>
   </g>
   <g id="matplotlib.axis_3">
    <g id="ytick_9">
     <g id="line2d_47">
      <path clip-path="url(#p0c02c94569)" d="
M79.3125 492.48
L571.05 492.48" style="fill:none;stroke:#000000;stroke-dasharray:1.000000,3.000000;stroke-dashoffset:0.0;stroke-linecap:butt;stroke-width:0.5;"/>
     </g>
     <g id="line2d_48">
      <defs>
       <path d="
M0 0
L-4 0" id="m1a32005dea" style="stroke:#000000;stroke-linecap:butt;stroke-width:0.5;"/>
      </defs>
      <g>
       <use style="stroke:#000000;stroke-linecap:butt;stroke-width:0.5;" x="571.05" xlink:href="#m1a32005dea" y="492.48"/>
      </g>
     </g>
     <g id="text_21">
      <!-- 0.05 -->
      <defs>
       <path d="
M10.5938 35.5
L73.1875 35.5
L73.1875 27.2031
L10.5938 27.2031
z
" id="BitstreamVeraSans-Roman-2212"/>
      </defs>
      <g transform="translate(575.05 496.8478125)scale(0.12 -0.12)">
       <use xlink:href="#BitstreamVeraSans-Roman-2212"/>
       <use x="83.7890625" xlink:href="#BitstreamVeraSans-Roman-30"/>
       <use x="147.412109375" xlink:href="#BitstreamVeraSans-Roman-2e"/>
       <use x="179.19921875" xlink:href="#BitstreamVeraSans-Roman-30"/>
       <use x="242.822265625" xlink:href="#BitstreamVeraSans-Roman-35"/>
      </g>
     </g>
    </g>
    <g id="ytick_10">
     <g id="line2d_49">
      <path clip-path="url(#p0c02c94569)" d="
M79.3125 429.943
L571.05 429.943" style="fill:none;stroke:#000000;stroke-dasharray:1.000000,3.000000;stroke-dashoffset:0.0;stroke-linecap:butt;stroke-width:0.5;"/>
     </g>
     <g id="line2d_50">
      <g>
       <use style="stroke:#000000;stroke-linecap:butt;stroke-width:0.5;" x="571.05" xlink:href="#m1a32005dea" y="429.942857143"/>
      </g>
     </g>
     <g id="text_22">
      <!-- 0.00 -->
      <g transform="translate(575.05 434.310669643)scale(0.12 -0.12)">
       <use xlink:href="#BitstreamVeraSans-Roman-30"/>
       <use x="63.623046875" xlink:href="#BitstreamVeraSans-Roman-2e"/>
       <use x="95.41015625" xlink:href="#BitstreamVeraSans-Roman-30"/>
       <use x="159.033203125" xlink:href="#BitstreamVeraSans-Roman-30"/>
      </g>
     </g>
    </g>
    <g id="ytick_11">
     <g id="line2d_51">
      <path clip-path="url(#p0c02c94569)" d="
M79.3125 367.406
L571.05 367.406" style="fill:none;stroke:#000000;stroke-dasharray:1.000000,3.000000;stroke-dashoffset:0.0;stroke-linecap:butt;stroke-width:0.5;"/>
     </g>
     <g id="line2d_52">
      <g>
       <use style="stroke:#000000;stroke-linecap:butt;stroke-width:0.5;" x="571.05" xlink:href="#m1a32005dea" y="367.405714286"/>
      </g>
     </g>
     <g id="text_23">
      <!-- 0.05 -->
      <g transform="translate(575.05 371.773526786)scale(0.12 -0.12)">
       <use xlink:href="#BitstreamVeraSans-Roman-30"/>
       <use x="63.623046875" xlink:href="#BitstreamVeraSans-Roman-2e"/>
       <use x="95.41015625" xlink:href="#BitstreamVeraSans-Roman-30"/>
       <use x="159.033203125" xlink:href="#BitstreamVeraSans-Roman-35"/>
      </g>
     </g>
    </g>
    <g id="ytick_12">
     <g id="line2d_53">
      <path clip-path="url(#p0c02c94569)" d="
M79.3125 304.869
L571.05 304.869" style="fill:none;stroke:#000000;stroke-dasharray:1.000000,3.000000;stroke-dashoffset:0.0;stroke-linecap:butt;stroke-width:0.5;"/>
     </g>
     <g id="line2d_54">
      <g>
       <use style="stroke:#000000;stroke-linecap:butt;stroke-width:0.5;" x="571.05" xlink:href="#m1a32005dea" y="304.868571429"/>
      </g>
     </g>
     <g id="text_24">
      <!-- 0.10 -->
      <g transform="translate(575.05 309.236383929)scale(0.12 -0.12)">
       <use xlink:href="#BitstreamVeraSans-Roman-30"/>
       <use x="63.623046875" xlink:href="#BitstreamVeraSans-Roman-2e"/>
       <use x="95.41015625" xlink:href="#BitstreamVeraSans-Roman-31"/>
       <use x="159.033203125" xlink:href="#BitstreamVeraSans-Roman-30"/>
      </g>
     </g>
    </g>
    <g id="ytick_13">
     <g id="line2d_55">
      <path clip-path="url(#p0c02c94569)" d="
M79.3125 242.331
L571.05 242.331" style="fill:none;stroke:#000000;stroke-dasharray:1.000000,3.000000;stroke-dashoffset:0.0;stroke-linecap:butt;stroke-width:0.5;"/>
     </g>
     <g id="line2d_56">
      <g>
       <use style="stroke:#000000;stroke-linecap:butt;stroke-width:0.5;" x="571.05" xlink:href="#m1a32005dea" y="242.331428571"/>
      </g>
     </g>
     <g id="text_25">
      <!-- 0.15 -->
      <g transform="translate(575.05 246.699241071)scale(0.12 -0.12)">
       <use xlink:href="#BitstreamVeraSans-Roman-30"/>
       <use x="63.623046875" xlink:href="#BitstreamVeraSans-Roman-2e"/>
       <use x="95.41015625" xlink:href="#BitstreamVeraSans-Roman-31"/>
       <use x="159.033203125" xlink:href="#BitstreamVeraSans-Roman-35"/>
      </g>
     </g>
    </g>
    <g id="ytick_14">
     <g id="line2d_57">
      <path clip-path="url(#p0c02c94569)" d="
M79.3125 179.794
L571.05 179.794" style="fill:none;stroke:#000000;stroke-dasharray:1.000000,3.000000;stroke-dashoffset:0.0;stroke-linecap:butt;stroke-width:0.5;"/>
     </g>
     <g id="line2d_58">
      <g>
       <use style="stroke:#000000;stroke-linecap:butt;stroke-width:0.5;" x="571.05" xlink:href="#m1a32005dea" y="179.794285714"/>
      </g>
     </g>
     <g id="text_26">
      <!-- 0.20 -->
      <g transform="translate(575.05 184.162098214)scale(0.12 -0.12)">
       <use xlink:href="#BitstreamVeraSans-Roman-30"/>
       <use x="63.623046875" xlink:href="#BitstreamVeraSans-Roman-2e"/>
       <use x="95.41015625" xlink:href="#BitstreamVeraSans-Roman-32"/>
       <use x="159.033203125" xlink:href="#BitstreamVeraSans-Roman-30"/>
      </g>
     </g>
    </g>
    <g id="ytick_15">
     <g id="line2d_59">
      <path clip-path="url(#p0c02c94569)" d="
M79.3125 117.257
L571.05 117.257" style="fill:none;stroke:#000000;stroke-dasharray:1.000000,3.000000;stroke-dashoffset:0.0;stroke-linecap:butt;stroke-width:0.5;"/>
     </g>
     <g id="line2d_60">
      <g>
       <use style="stroke:#000000;stroke-linecap:butt;stroke-width:0.5;" x="571.05" xlink:href="#m1a32005dea" y="117.257142857"/>
      </g>
     </g>
     <g id="text_27">
      <!-- 0.25 -->
      <g transform="translate(575.05 121.624955357)scale(0.12 -0.12)">
       <use xlink:href="#BitstreamVeraSans-Roman-30"/>
       <use x="63.623046875" xlink:href="#BitstreamVeraSans-Roman-2e"/>
       <use x="95.41015625" xlink:href="#BitstreamVeraSans-Roman-32"/>
       <use x="159.033203125" xlink:href="#BitstreamVeraSans-Roman-35"/>
      </g>
     </g>
    </g>
    <g id="ytick_16">
     <g id="line2d_61">
      <path clip-path="url(#p0c02c94569)" d="
M79.3125 54.72
L571.05 54.72" style="fill:none;stroke:#000000;stroke-dasharray:1.000000,3.000000;stroke-dashoffset:0.0;stroke-linecap:butt;stroke-width:0.5;"/>
     </g>
     <g id="line2d_62">
      <g>
       <use style="stroke:#000000;stroke-linecap:butt;stroke-width:0.5;" x="571.05" xlink:href="#m1a32005dea" y="54.72"/>
      </g>
     </g>
     <g id="text_28">
      <!-- 0.30 -->
      <g transform="translate(575.05 59.0878125)scale(0.12 -0.12)">
       <use xlink:href="#BitstreamVeraSans-Roman-30"/>
       <use x="63.623046875" xlink:href="#BitstreamVeraSans-Roman-2e"/>
       <use x="95.41015625" xlink:href="#BitstreamVeraSans-Roman-33"/>
       <use x="159.033203125" xlink:href="#BitstreamVeraSans-Roman-30"/>
      </g>
     </g>
    </g>
    <g id="text_29">
     <!-- $\sigma(t)$ -->
     <defs>
      <path d="
M18.7031 -1.125
Q14.2656 -1.125 10.8125 1
Q7.375 3.125 5.48438 6.73438
Q3.60938 10.3594 3.60938 14.7031
Q3.60938 19.3438 5.70312 24.4688
Q7.8125 29.5938 11.4531 33.8438
Q15.0938 38.0938 19.6719 40.5938
Q24.2656 43.1094 29.1094 43.1094
L54.2969 43.1094
Q55.3281 43.1094 56.0469 42.4219
Q56.7812 41.75 56.7812 40.5781
Q56.7812 39.1094 55.7344 38.0156
Q54.6875 36.9219 53.2188 36.9219
L41.0156 36.9219
Q43.8906 32.625 43.8906 26.5156
Q43.8906 21.4844 41.9375 16.5938
Q39.9844 11.7188 36.5156 7.6875
Q33.0625 3.65625 28.4375 1.26562
Q23.8281 -1.125 18.7031 -1.125
M18.7969 1.51562
Q24.2656 1.51562 28.4844 5.78125
Q32.7188 10.0625 34.9531 16.2344
Q37.2031 22.4062 37.2031 27.6875
Q37.2031 31.9844 34.8281 34.4531
Q32.4688 36.9219 28.2188 36.9219
Q22.4062 36.9219 18.3281 33.0156
Q14.2656 29.1094 12.2344 23.1875
Q10.2031 17.2812 10.2031 11.8125
Q10.2031 7.51562 12.4688 4.51562
Q14.75 1.51562 18.7969 1.51562" id="Cmmi10-be"/>
     </defs>
     <g transform="translate(614.505 279.6)scale(0.12 -0.12)">
      <use transform="translate(0.0 25.0)" xlink:href="#Cmmi10-be"/>
      <use transform="translate(57.080078125 25.0)" xlink:href="#Cmr10-28"/>
      <use transform="translate(95.8984375 25.0)" xlink:href="#Cmmi10-74"/>
      <use transform="translate(131.982421875 25.0)" xlink:href="#Cmr10-29"/>
     </g>
    </g>
   </g>
   <g id="legend_2">
    <g id="patch_9">
     <path d="
M135.686 371.169
L414.274 371.169
L414.274 324.576
L135.686 324.576
L135.686 371.169
z
" style="fill:#ffffff;stroke:#000000;"/>
    </g>
    <g id="line2d_63">
     <path d="
M145.766 336.238
L165.926 336.238" style="fill:none;stroke:#bfbf00;"/>
    </g>
    <g id="line2d_64"/>
    <g id="text_30">
     <!-- Redfield entropy prod. -->
     <g transform="translate(181.76625 341.27775)scale(0.144 -0.144)">
      <use xlink:href="#BitstreamVeraSans-Roman-52"/>
      <use x="64.982421875" xlink:href="#BitstreamVeraSans-Roman-65"/>
      <use x="126.505859375" xlink:href="#BitstreamVeraSans-Roman-64"/>
      <use x="189.982421875" xlink:href="#BitstreamVeraSans-Roman-66"/>
      <use x="225.1875" xlink:href="#BitstreamVeraSans-Roman-69"/>
      <use x="252.970703125" xlink:href="#BitstreamVeraSans-Roman-65"/>
      <use x="314.494140625" xlink:href="#BitstreamVeraSans-Roman-6c"/>
      <use x="342.27734375" xlink:href="#BitstreamVeraSans-Roman-64"/>
      <use x="405.75390625" xlink:href="#BitstreamVeraSans-Roman-20"/>
      <use x="437.541015625" xlink:href="#BitstreamVeraSans-Roman-65"/>
      <use x="499.064453125" xlink:href="#BitstreamVeraSans-Roman-6e"/>
      <use x="562.443359375" xlink:href="#BitstreamVeraSans-Roman-74"/>
      <use x="601.65234375" xlink:href="#BitstreamVeraSans-Roman-72"/>
      <use x="640.515625" xlink:href="#BitstreamVeraSans-Roman-6f"/>
      <use x="701.697265625" xlink:href="#BitstreamVeraSans-Roman-70"/>
      <use x="765.173828125" xlink:href="#BitstreamVeraSans-Roman-79"/>
      <use x="824.353515625" xlink:href="#BitstreamVeraSans-Roman-20"/>
      <use x="856.140625" xlink:href="#BitstreamVeraSans-Roman-70"/>
      <use x="919.6171875" xlink:href="#BitstreamVeraSans-Roman-72"/>
      <use x="958.48046875" xlink:href="#BitstreamVeraSans-Roman-6f"/>
      <use x="1019.66210938" xlink:href="#BitstreamVeraSans-Roman-64"/>
      <use x="1083.13867188" xlink:href="#BitstreamVeraSans-Roman-2e"/>
     </g>
    </g>
    <g id="line2d_65">
     <path d="
M145.766 357.374
L165.926 357.374" style="fill:none;stroke:#00bfbf;"/>
    </g>
    <g id="line2d_66"/>
    <g id="text_31">
     <!-- Completely posit. entropy prod. -->
     <g transform="translate(181.76625 362.41425)scale(0.144 -0.144)">
      <use xlink:href="#BitstreamVeraSans-Roman-43"/>
      <use x="69.82421875" xlink:href="#BitstreamVeraSans-Roman-6f"/>
      <use x="131.005859375" xlink:href="#BitstreamVeraSans-Roman-6d"/>
      <use x="228.41796875" xlink:href="#BitstreamVeraSans-Roman-70"/>
      <use x="291.89453125" xlink:href="#BitstreamVeraSans-Roman-6c"/>
      <use x="319.677734375" xlink:href="#BitstreamVeraSans-Roman-65"/>
      <use x="381.201171875" xlink:href="#BitstreamVeraSans-Roman-74"/>
      <use x="420.41015625" xlink:href="#BitstreamVeraSans-Roman-65"/>
      <use x="481.93359375" xlink:href="#BitstreamVeraSans-Roman-6c"/>
      <use x="509.716796875" xlink:href="#BitstreamVeraSans-Roman-79"/>
      <use x="568.896484375" xlink:href="#BitstreamVeraSans-Roman-20"/>
      <use x="600.68359375" xlink:href="#BitstreamVeraSans-Roman-70"/>
      <use x="664.16015625" xlink:href="#BitstreamVeraSans-Roman-6f"/>
      <use x="725.341796875" xlink:href="#BitstreamVeraSans-Roman-73"/>
      <use x="777.44140625" xlink:href="#BitstreamVeraSans-Roman-69"/>
      <use x="805.224609375" xlink:href="#BitstreamVeraSans-Roman-74"/>
      <use x="844.43359375" xlink:href="#BitstreamVeraSans-Roman-2e"/>
      <use x="876.220703125" xlink:href="#BitstreamVeraSans-Roman-20"/>
      <use x="908.0078125" xlink:href="#BitstreamVeraSans-Roman-65"/>
      <use x="969.53125" xlink:href="#BitstreamVeraSans-Roman-6e"/>
      <use x="1032.91015625" xlink:href="#BitstreamVeraSans-Roman-74"/>
      <use x="1072.11914062" xlink:href="#BitstreamVeraSans-Roman-72"/>
      <use x="1110.98242188" xlink:href="#BitstreamVeraSans-Roman-6f"/>
      <use x="1172.1640625" xlink:href="#BitstreamVeraSans-Roman-70"/>
      <use x="1235.640625" xlink:href="#BitstreamVeraSans-Roman-79"/>
      <use x="1294.8203125" xlink:href="#BitstreamVeraSans-Roman-20"/>
      <use x="1326.60742188" xlink:href="#BitstreamVeraSans-Roman-70"/>
      <use x="1390.08398438" xlink:href="#BitstreamVeraSans-Roman-72"/>
      <use x="1428.94726562" xlink:href="#BitstreamVeraSans-Roman-6f"/>
      <use x="1490.12890625" xlink:href="#BitstreamVeraSans-Roman-64"/>
      <use x="1553.60546875" xlink:href="#BitstreamVeraSans-Roman-2e"/>
     </g>
    </g>
   </g>
  </g>
  <g id="text_32">
   <!-- Entropy time-evolution -->
   <defs>
    <path d="
M9.8125 72.9062
L55.9062 72.9062
L55.9062 64.5938
L19.6719 64.5938
L19.6719 43.0156
L54.3906 43.0156
L54.3906 34.7188
L19.6719 34.7188
L19.6719 8.29688
L56.7812 8.29688
L56.7812 0
L9.8125 0
z
" id="BitstreamVeraSans-Roman-45"/>
    <path d="
M8.5 21.5781
L8.5 54.6875
L17.4844 54.6875
L17.4844 21.9219
Q17.4844 14.1562 20.5 10.2656
Q23.5312 6.39062 29.5938 6.39062
Q36.8594 6.39062 41.0781 11.0312
Q45.3125 15.6719 45.3125 23.6875
L45.3125 54.6875
L54.2969 54.6875
L54.2969 0
L45.3125 0
L45.3125 8.40625
Q42.0469 3.42188 37.7188 1
Q33.4062 -1.42188 27.6875 -1.42188
Q18.2656 -1.42188 13.375 4.4375
Q8.5 10.2969 8.5 21.5781" id="BitstreamVeraSans-Roman-75"/>
    <path d="
M4.89062 31.3906
L31.2031 31.3906
L31.2031 23.3906
L4.89062 23.3906
z
" id="BitstreamVeraSans-Roman-2d"/>
   </defs>
   <g transform="translate(248.9465625 20.062125)scale(0.12 -0.12)">
    <use xlink:href="#BitstreamVeraSans-Roman-45"/>
    <use x="63.18359375" xlink:href="#BitstreamVeraSans-Roman-6e"/>
    <use x="126.5625" xlink:href="#BitstreamVeraSans-Roman-74"/>
    <use x="165.771484375" xlink:href="#BitstreamVeraSans-Roman-72"/>
    <use x="204.634765625" xlink:href="#BitstreamVeraSans-Roman-6f"/>
    <use x="265.81640625" xlink:href="#BitstreamVeraSans-Roman-70"/>
    <use x="329.29296875" xlink:href="#BitstreamVeraSans-Roman-79"/>
    <use x="388.47265625" xlink:href="#BitstreamVeraSans-Roman-20"/>
    <use x="420.259765625" xlink:href="#BitstreamVeraSans-Roman-74"/>
    <use x="459.46875" xlink:href="#BitstreamVeraSans-Roman-69"/>
    <use x="487.251953125" xlink:href="#BitstreamVeraSans-Roman-6d"/>
    <use x="584.6640625" xlink:href="#BitstreamVeraSans-Roman-65"/>
    <use x="646.1875" xlink:href="#BitstreamVeraSans-Roman-2d"/>
    <use x="682.271484375" xlink:href="#BitstreamVeraSans-Roman-65"/>
    <use x="743.794921875" xlink:href="#BitstreamVeraSans-Roman-76"/>
    <use x="802.974609375" xlink:href="#BitstreamVeraSans-Roman-6f"/>
    <use x="864.15625" xlink:href="#BitstreamVeraSans-Roman-6c"/>
    <use x="891.939453125" xlink:href="#BitstreamVeraSans-Roman-75"/>
    <use x="955.318359375" xlink:href="#BitstreamVeraSans-Roman-74"/>
    <use x="994.52734375" xlink:href="#BitstreamVeraSans-Roman-69"/>
    <use x="1022.31054688" xlink:href="#BitstreamVeraSans-Roman-6f"/>
    <use x="1083.4921875" xlink:href="#BitstreamVeraSans-Roman-6e"/>
   </g>
  </g>
 </g>
 <defs>
  <clipPath id="p0c02c94569">
   <rect height="437.76" width="491.7375" x="79.3125" y="54.72"/>
  </clipPath>
 </defs>
</svg>
